<?xml version="1.0" standalone="no"?>
<!DOCTYPE svg PUBLIC "-//W3C//DTD SVG 20010904//EN"
 "http://www.w3.org/TR/2001/REC-SVG-20010904/DTD/svg10.dtd">
<svg version="1.0" xmlns="http://www.w3.org/2000/svg"
 width="474.000000pt" height="196.000000pt" viewBox="0 0 474.000000 196.000000"
 preserveAspectRatio="xMidYMid meet">

<g transform="translate(0.000000,196.000000) scale(0.100000,-0.100000)"
fill="#000000" stroke="none">
<path d="M3058 1951 c-1 -4 -117 -46 -255 -92 l-253 -84 0 -297 c0 -232 3
-298 13 -298 6 0 126 38 265 84 l253 84 72 -24 c181 -62 444 -147 464 -149 13
-2 139 -42 281 -89 l259 -87 263 88 263 88 -1 300 c0 165 -4 300 -9 300 -4 0
-123 -38 -263 -84 -140 -47 -262 -84 -270 -84 -34 3 -1024 334 -1028 345 -5
11 -49 11 -54 -1z m277 -212 c28 -10 43 -18 34 -18 -25 -1 -29 -22 -29 -136 0
-146 4 -160 51 -179 51 -21 76 -20 88 2 9 15 10 14 11 -8 0 -54 -10 -55 -126
-14 -108 37 -143 54 -108 51 18 -2 19 9 22 148 2 145 2 150 -20 168 l-23 18
25 -7 c14 -4 48 -15 75 -25z m-455 12 c0 -5 -7 -11 -15 -15 -12 -4 -15 -32
-15 -161 0 -152 1 -156 20 -150 11 3 20 2 20 -2 0 -10 -139 -57 -147 -50 -2 3
5 10 16 17 21 11 21 17 19 163 -3 146 -4 152 -23 149 -36 -6 -3 16 55 36 67
24 70 24 70 13z m1689 -198 c0 -41 -2 -45 -11 -26 -32 65 -183 19 -236 -72
-18 -32 -22 -51 -19 -99 3 -52 7 -63 37 -89 29 -26 38 -29 81 -25 26 3 58 12
71 20 21 14 23 21 20 77 -3 56 -6 62 -23 58 -10 -3 -19 -2 -19 2 0 4 24 14 53
23 28 9 61 19 72 23 19 6 19 6 3 -8 -14 -11 -18 -30 -18 -80 0 -63 -2 -67 -32
-91 -39 -29 -144 -66 -188 -66 -54 0 -99 26 -116 67 -46 108 47 256 189 302
132 42 137 42 136 -16z m-653 3 c115 -53 171 -136 162 -241 -8 -99 -79 -141
-185 -110 -104 30 -179 107 -203 206 -10 42 -10 57 4 92 9 24 28 50 43 59 41
25 118 23 179 -6z"/>
<path d="M3810 1537 c-34 -17 -50 -53 -50 -111 0 -94 64 -180 144 -193 42 -7
91 19 82 43 -3 8 -2 13 3 10 21 -14 27 89 8 141 -31 82 -129 140 -187 110z"/>
<path d="M210 1780 c0 -19 7 -20 160 -20 153 0 160 1 160 20 0 19 -7 20 -160
20 -153 0 -160 -1 -160 -20z"/>
<path d="M580 1780 c0 -19 7 -20 225 -20 124 0 225 2 225 6 0 3 -16 12 -35 20
-26 10 -81 14 -225 14 -183 0 -190 -1 -190 -20z"/>
<path d="M1140 1780 c0 -19 7 -20 135 -20 74 0 135 2 135 4 0 2 -3 11 -6 20
-5 13 -27 16 -135 16 -122 0 -129 -1 -129 -20z"/>
<path d="M1616 1784 c-3 -9 -6 -18 -6 -20 0 -2 61 -4 135 -4 128 0 135 1 135
20 0 19 -7 20 -129 20 -108 0 -130 -3 -135 -16z"/>
<path d="M210 1690 c0 -19 7 -20 160 -20 153 0 160 1 160 20 0 19 -7 20 -160
20 -153 0 -160 -1 -160 -20z"/>
<path d="M580 1690 c0 -20 6 -20 256 -20 238 0 255 1 252 18 -3 16 -24 17
-256 20 -247 2 -252 2 -252 -18z"/>
<path d="M1140 1690 c0 -19 6 -20 151 -20 138 0 150 1 147 18 -3 15 -20 17
-151 20 -142 2 -147 2 -147 -18z"/>
<path d="M1586 1694 c-3 -9 -6 -18 -6 -20 0 -2 68 -4 150 -4 143 0 150 1 150
20 0 19 -7 20 -144 20 -122 0 -145 -2 -150 -16z"/>
<path d="M300 1600 c0 -19 5 -21 67 -18 55 2 68 6 71 21 3 15 -5 17 -67 17
-65 0 -71 -2 -71 -20z"/>
<path d="M680 1600 c0 -18 7 -20 65 -20 58 0 65 2 65 20 0 18 -7 20 -65 20
-58 0 -65 -2 -65 -20z"/>
<path d="M960 1600 c0 -19 5 -21 67 -18 55 2 68 6 71 21 3 15 -5 17 -67 17
-65 0 -71 -2 -71 -20z"/>
<path d="M1237 1606 c-3 -8 -3 -17 0 -20 4 -3 59 -6 124 -6 112 0 117 1 112
20 -5 19 -14 20 -118 20 -88 0 -114 -3 -118 -14z"/>
<path d="M1556 1604 c-3 -9 -6 -18 -6 -20 0 -2 54 -4 120 -4 113 0 120 1 120
20 0 19 -7 20 -114 20 -95 0 -115 -3 -120 -16z"/>
<path d="M302 1513 c3 -15 14 -18 68 -18 54 0 65 3 68 18 3 15 -5 17 -68 17
-63 0 -71 -2 -68 -17z"/>
<path d="M680 1516 c0 -23 24 -26 192 -26 125 0 163 3 174 14 8 8 14 17 14 20
0 3 -85 6 -190 6 -156 0 -190 -3 -190 -14z"/>
<path d="M1240 1512 c0 -15 10 -18 59 -20 34 -1 62 2 66 8 4 7 11 8 18 2 14
-11 117 -10 117 1 0 4 0 12 0 17 0 6 -50 10 -130 10 -118 0 -130 -2 -130 -18z"/>
<path d="M1525 1519 c-4 -6 -4 -13 -1 -16 10 -10 80 -11 105 -1 16 6 27 5 31
-2 4 -7 31 -10 66 -8 47 2 59 7 62 21 3 15 -8 17 -127 17 -81 0 -132 -4 -136
-11z"/>
<path d="M300 1423 c0 -16 9 -18 70 -15 52 3 70 7 70 18 0 11 -16 14 -70 14
-60 0 -70 -3 -70 -17z"/>
<path d="M680 1423 c0 -17 16 -18 190 -18 104 0 190 2 190 6 0 24 -34 29 -202
29 -163 0 -178 -1 -178 -17z"/>
<path d="M1237 1434 c-15 -16 9 -24 69 -24 50 0 64 3 64 15 0 12 -14 15 -63
15 -35 0 -67 -3 -70 -6z"/>
<path d="M1410 1425 c0 -12 18 -15 99 -15 79 0 100 3 105 15 5 13 -10 15 -99
15 -87 0 -105 -3 -105 -15z"/>
<path d="M1650 1433 c1 -21 20 -28 78 -28 52 0 62 3 62 18 0 14 -10 17 -70 17
-38 0 -70 -3 -70 -7z"/>
<path d="M302 1334 c2 -12 17 -16 68 -17 54 -2 65 1 68 16 3 15 -5 17 -68 17
-60 0 -71 -3 -68 -16z"/>
<path d="M682 1333 c2 -10 9 -18 16 -17 6 1 35 2 62 3 37 1 50 5 50 16 0 12
-14 15 -66 15 -57 0 -65 -2 -62 -17z"/>
<path d="M960 1333 c0 -16 9 -18 68 -18 52 0 67 4 67 15 0 11 -16 16 -67 18
-60 3 -68 1 -68 -15z"/>
<path d="M1240 1333 c0 -15 10 -18 65 -18 56 0 65 2 65 17 0 15 -9 18 -65 18
-55 0 -65 -3 -65 -17z"/>
<path d="M1440 1343 c1 -21 19 -28 65 -27 71 2 72 2 79 19 4 13 -7 15 -69 15
-41 0 -75 -3 -75 -7z"/>
<path d="M1653 1335 c0 -17 -5 -16 72 -18 49 0 61 2 63 16 3 15 -6 17 -66 17
-54 0 -69 -3 -69 -15z"/>
<path d="M220 1262 c-5 -2 -10 -10 -10 -17 0 -11 31 -15 150 -17 83 -2 155 -1
160 0 17 6 11 32 -7 34 -36 3 -283 3 -293 0z"/>
<path d="M603 1262 c-21 -3 -34 -32 -15 -32 68 -1 480 -2 490 -1 6 1 12 8 12
16 0 8 -6 15 -12 16 -33 3 -456 4 -475 1z"/>
<path d="M1148 1259 c-17 -11 0 -42 18 -35 9 3 58 6 111 6 82 0 94 2 91 16 -2
14 -19 17 -106 18 -57 0 -109 -2 -114 -5z"/>
<path d="M1486 1260 c-17 -6 -17 -8 -3 -22 21 -20 69 -12 65 11 -3 17 -31 22
-62 11z"/>
<path d="M1663 1253 c-3 -8 -3 -16 0 -19 8 -8 217 -8 224 0 19 18 -25 30 -118
31 -78 2 -102 -1 -106 -12z"/>
<path d="M220 1172 c-6 -2 -10 -10 -10 -18 0 -11 29 -14 160 -14 136 0 160 2
160 15 0 8 -3 15 -7 15 -74 3 -296 4 -303 2z"/>
<path d="M590 1172 c-5 -2 -10 -10 -10 -18 0 -21 378 -20 420 1 17 9 30 17 30
18 0 3 -429 2 -440 -1z"/>
<path d="M1147 1174 c-4 -4 -7 -13 -7 -21 0 -10 26 -13 115 -13 96 0 115 3
115 15 0 12 -17 15 -94 15 -52 0 -101 2 -108 5 -8 3 -17 2 -21 -1z"/>
<path d="M1505 1171 c-3 -5 -1 -12 5 -16 5 -3 10 1 10 9 0 18 -6 21 -15 7z"/>
<path d="M1660 1158 c0 -16 12 -18 109 -18 67 0 112 4 116 11 4 6 5 12 2 15
-2 2 -54 5 -116 7 -100 2 -111 0 -111 -15z"/>
<path d="M1545 716 c-83 -38 -135 -132 -135 -242 0 -85 18 -149 55 -199 46
-59 129 -93 199 -79 l36 6 0 58 0 58 -49 -1 c-36 -2 -55 3 -71 18 -52 46 -65
145 -30 215 25 48 45 60 105 60 l46 0 -3 58 -3 57 -60 2 c-35 2 -73 -3 -90
-11z"/>
<path d="M1780 466 c0 -141 3 -257 8 -258 4 0 28 -2 55 -3 l47 -2 0 97 0 97
50 6 c67 8 106 33 130 82 37 76 20 151 -45 201 -35 26 -46 29 -141 32 l-104 4
0 -256z m172 137 c37 -33 11 -103 -39 -103 -22 0 -23 4 -23 60 0 55 2 60 22
60 12 0 30 -7 40 -17z"/>
<path d="M2187 714 c-4 -4 -7 -119 -7 -256 0 -191 3 -248 13 -249 6 0 54 -2
105 -3 l92 -2 0 58 0 58 -45 0 -45 0 -2 198 -3 197 -50 3 c-28 2 -54 0 -58 -4z"/>
<path d="M2480 718 c0 -2 -1 -115 -1 -253 l-1 -249 28 -8 c16 -4 68 -7 117 -6
l87 2 0 53 0 52 -57 3 -58 3 -3 48 -3 47 55 0 56 0 0 34 c0 54 -8 66 -45 66
-56 0 -65 8 -65 56 l0 44 60 0 60 0 0 55 0 55 -115 0 c-63 0 -115 -1 -115 -2z"/>
<path d="M2780 711 c0 -5 25 -61 55 -125 l54 -116 -61 -126 c-67 -141 -67
-146 12 -142 48 3 55 11 95 111 15 37 17 39 29 21 7 -10 21 -41 31 -67 10 -26
26 -52 36 -58 18 -9 95 -7 106 4 3 4 -22 63 -56 133 l-61 127 55 115 c30 63
55 118 55 123 0 5 -26 9 -59 9 l-59 0 -22 -57 c-13 -32 -26 -62 -30 -66 -4 -4
-19 22 -34 58 l-28 65 -59 0 c-33 0 -59 -4 -59 -9z"/>
<path d="M1498 92 c-60 -3 -68 -5 -68 -22 0 -20 14 -20 879 -20 518 0 882 4
885 9 4 5 3 17 0 25 -6 15 -76 16 -818 14 -446 -2 -841 -4 -878 -6z"/>
</g>
</svg>
