<?xml version="1.0" standalone="no"?>
<!DOCTYPE svg PUBLIC "-//W3C//DTD SVG 20010904//EN"
 "http://www.w3.org/TR/2001/REC-SVG-20010904/DTD/svg10.dtd">
<svg version="1.0" xmlns="http://www.w3.org/2000/svg"
 width="900.000000pt" height="880.000000pt" viewBox="0 0 900.000000 880.000000"
 preserveAspectRatio="xMidYMid meet">
<metadata>
Created by potrace 1.15, written by Peter Selinger 2001-2017
</metadata>
<g transform="translate(0.000000,880.000000) scale(0.100000,-0.100000)"
fill="#000000" stroke="none">
<path d="M2955 7155 c-41 -40 -27 -98 34 -143 50 -36 42 -63 -34 -123 -36 -28
-65 -56 -65 -63 0 -7 7 -27 16 -45 32 -63 -17 -131 -105 -145 -51 -8 -83 -44
-79 -87 2 -27 8 -35 26 -37 19 -3 14 -8 -27 -29 -98 -48 -162 -154 -146 -240
3 -20 17 -57 29 -82 33 -67 59 -151 115 -376 60 -244 99 -352 201 -560 92
-186 174 -319 297 -483 106 -141 186 -223 317 -327 316 -250 613 -364 1076
-412 197 -20 566 -22 690 -4 47 7 126 16 175 21 51 5 131 22 183 40 100 33
123 35 169 19 25 -8 38 -6 71 11 23 12 81 28 129 37 113 19 133 31 133 83 0
63 -15 70 -140 69 -82 -1 -116 2 -141 15 -28 14 -34 14 -48 2 -35 -31 -65 -35
-144 -16 -51 12 -95 16 -136 13 -79 -7 -88 9 -37 71 19 24 41 56 48 71 11 24
10 29 -7 41 -45 33 -106 4 -203 -95 l-72 -74 -83 17 c-292 62 -574 202 -765
380 -97 91 -272 301 -340 410 -114 180 -192 483 -217 836 -4 47 -12 156 -18
242 -7 86 -9 171 -6 188 15 71 58 79 183 36 79 -27 166 -32 173 -10 2 6 -7 25
-19 44 -30 44 -134 100 -273 145 -61 20 -137 54 -170 76 -34 21 -75 42 -93 45
-22 4 -32 12 -32 25 0 24 -45 57 -89 65 -79 13 -157 36 -171 49 -9 9 -13 30
-11 54 1 23 -3 42 -10 47 -7 4 -49 7 -93 6 -57 -2 -86 2 -103 13 -23 15 -23
20 -17 89 6 71 6 73 -21 94 -40 32 -117 31 -150 -3z m500 -476 c0 -14 8 -37
18 -52 22 -34 11 -35 -23 -2 l-26 25 4 -33 c8 -72 -48 -87 -88 -22 -22 36 -46
50 -56 34 -3 -5 -3 -17 0 -26 5 -12 2 -13 -11 -7 -41 19 -163 16 -235 -6 -38
-12 -72 -19 -75 -16 -6 6 88 34 252 75 66 17 143 37 170 45 62 17 70 16 70
-15z m451 -114 c9 -35 -13 -81 -50 -110 -56 -42 -276 -95 -461 -110 -86 -7
-117 -16 -225 -70 -47 -23 -100 -46 -117 -50 -29 -6 -33 -4 -33 15 0 20 -4 22
-31 16 -17 -3 -40 -6 -50 -6 -12 0 -23 -10 -29 -25 -5 -14 -17 -28 -25 -31
-23 -9 -72 15 -100 48 -20 23 -23 33 -15 49 6 10 17 19 25 19 8 0 15 5 15 10
0 21 -66 10 -90 -15 -20 -21 -24 -36 -25 -90 0 -36 -2 -65 -5 -65 -14 0 -43
66 -44 100 -1 61 53 104 161 128 42 10 42 9 45 -21 2 -18 13 -37 28 -48 31
-22 100 -33 120 -19 16 11 16 10 -30 40 -13 9 -13 12 2 23 14 11 13 14 -14 30
-16 9 -27 21 -24 25 3 5 36 14 75 21 38 7 114 26 168 42 304 90 432 114 615
118 l107 2 7 -26z m-99 -232 c21 -31 23 -142 5 -207 -10 -34 -9 -41 6 -52 14
-10 17 -31 18 -121 0 -59 4 -116 9 -126 4 -10 5 -43 2 -73 -4 -44 -3 -54 9
-54 11 0 14 -8 12 -27 -2 -20 -8 -27 -20 -25 -18 3 -23 -10 -33 -73 l-6 -40
23 40 c13 22 28 39 33 38 6 -1 22 -50 36 -110 46 -187 65 -251 78 -267 12 -14
10 -20 -13 -41 -14 -13 -26 -32 -26 -41 0 -10 3 -15 6 -11 14 14 63 -25 82
-65 20 -41 21 -42 22 -14 l0 29 43 -48 c23 -27 67 -87 99 -134 31 -47 77 -108
102 -135 28 -29 45 -55 41 -64 -7 -18 41 -83 91 -123 51 -41 156 -93 228 -114
42 -12 67 -27 91 -54 50 -55 127 -94 185 -92 39 0 49 -3 53 -19 5 -18 28 -27
155 -60 52 -13 53 -26 3 -41 -31 -9 -48 -9 -87 4 -27 9 -65 19 -84 22 -19 4
-77 25 -129 47 -116 50 -194 56 -253 19 -41 -25 -51 -16 -18 14 11 10 18 20
15 23 -2 3 -23 -12 -45 -32 -22 -20 -46 -36 -54 -36 -7 0 -26 18 -40 41 -25
37 -31 41 -59 36 -31 -4 -87 16 -87 31 0 5 5 13 12 20 9 9 8 12 -7 12 -17 0
-17 1 -2 18 29 32 19 39 -60 45 -97 6 -159 30 -178 68 -15 28 -8 43 17 35 7
-2 26 -7 43 -11 25 -6 27 -8 12 -16 -24 -14 -21 -25 11 -37 44 -18 95 -24 120
-15 21 8 18 13 -61 91 -90 87 -69 75 -454 259 -40 19 -73 38 -73 43 0 12 69
-13 123 -45 24 -14 56 -25 71 -25 77 0 19 129 -67 151 -25 6 -63 28 -92 54
l-50 44 36 1 c42 0 59 15 59 50 0 28 -39 88 -84 129 -31 29 -33 15 -6 -39 24
-48 27 -78 6 -61 -8 7 -17 24 -21 39 -8 37 -24 56 -63 76 l-32 17 -6 -31 c-7
-34 -20 -39 -28 -12 -5 14 -14 17 -34 14 -37 -5 -51 13 -61 80 -8 47 -15 58
-60 98 -52 46 -67 69 -32 50 30 -15 81 -12 88 5 7 20 -56 115 -77 115 -8 0
-28 -14 -46 -31 -45 -44 -58 -32 -50 48 7 63 6 63 -15 51 -18 -11 -20 -20 -17
-65 5 -52 4 -53 -24 -53 -15 0 -28 -4 -28 -9 0 -6 24 -31 54 -57 l53 -47 -30
-26 -30 -25 -18 23 c-11 13 -19 30 -19 38 0 28 -39 89 -64 101 -24 10 -25 14
-14 33 12 19 9 24 -31 60 l-43 39 27 36 c37 49 53 53 82 20 27 -31 29 -46 8
-46 -10 0 -15 -10 -15 -33 0 -37 24 -77 46 -77 21 0 20 137 -2 169 -20 28 -73
52 -100 45 -22 -6 -48 18 -59 54 -5 18 -2 25 13 29 11 3 23 16 26 29 7 27 41
44 86 44 19 0 33 8 44 25 16 24 15 28 -9 76 -15 28 -25 60 -23 72 3 19 10 22
59 22 67 1 134 36 126 66 -4 16 1 18 41 17 25 0 48 3 49 8 12 34 21 37 66 25
25 -6 56 -11 69 -11 22 1 22 1 -4 18 -16 9 -28 20 -28 24 0 9 53 25 130 38 36
7 72 16 80 21 27 15 49 10 67 -18z m-928 -689 c12 -30 21 -64 21 -76 0 -18 -2
-19 -17 -7 -13 11 -13 8 3 -15 10 -16 31 -61 45 -100 14 -39 29 -80 34 -91 5
-14 -1 -10 -18 10 -15 17 -45 73 -68 125 -23 52 -53 117 -66 143 -33 67 -23
83 15 23 38 -59 38 -57 12 19 -11 32 -20 61 -20 64 1 17 42 -47 59 -95z m492
-254 c4 -14 10 -42 14 -63 3 -21 16 -48 28 -60 25 -24 57 -68 57 -79 0 -15
-24 -7 -134 47 -93 45 -116 61 -132 90 -27 50 -11 58 60 29 33 -13 66 -24 73
-24 22 0 26 26 8 60 -15 30 -15 32 1 28 10 -1 21 -14 25 -28z m-414 -100 c42
-97 53 -114 110 -185 30 -39 60 -81 66 -95 6 -14 26 -38 45 -55 22 -20 42 -54
60 -105 25 -69 31 -77 72 -98 24 -12 51 -34 59 -50 19 -38 42 -63 69 -73 12
-5 22 -14 22 -22 0 -20 72 -85 103 -93 30 -7 97 -64 97 -83 0 -6 -9 -11 -19
-11 -38 0 -76 22 -136 78 -34 31 -82 74 -108 95 -53 43 -138 152 -188 241 -18
33 -75 122 -126 197 -95 142 -138 220 -173 312 l-20 52 21 -25 c12 -14 33 -50
46 -80z m531 -166 c53 -15 90 -34 66 -34 -6 0 -19 -6 -29 -14 -16 -12 -17 -16
-6 -30 11 -14 11 -16 -3 -16 -25 0 -19 -17 14 -37 17 -9 30 -25 30 -33 0 -9
11 -27 25 -40 14 -13 24 -29 21 -36 -3 -7 4 -20 15 -30 35 -32 11 -27 -58 12
-37 21 -89 49 -115 62 -27 13 -48 28 -48 33 0 5 14 2 31 -6 46 -24 46 -11 0
25 -22 18 -37 38 -35 44 3 7 -4 21 -16 31 -23 21 -27 40 -5 31 10 -4 15 1 15
14 0 17 3 18 27 9 27 -10 27 -10 8 10 -22 26 -12 26 63 5z m409 -840 c34 -19
149 -70 255 -112 173 -70 206 -80 317 -96 72 -10 165 -16 225 -15 55 2 107 -1
115 -6 8 -4 72 -8 142 -7 70 1 138 -2 151 -7 23 -9 23 -9 -7 -17 -16 -5 -106
-9 -200 -8 -135 1 -214 7 -386 32 -118 18 -241 39 -272 47 -135 35 -397 147
-457 195 -14 11 25 -4 85 -35 143 -71 201 -82 69 -13 -56 29 -113 61 -125 71
l-24 18 25 -7 c14 -3 53 -21 87 -40z"/>
<path d="M3386 5695 c8 -49 39 -134 58 -161 13 -16 18 -17 36 -6 18 11 24 11
37 0 14 -11 15 -11 11 2 -3 8 1 22 9 31 12 15 8 24 -36 77 -77 93 -94 96 -62
13 12 -28 19 -51 16 -51 -3 0 -21 30 -40 68 -33 64 -35 65 -29 27z"/>
<path d="M1954 2947 c-2 -7 -3 -411 -2 -898 l3 -884 24 -53 c61 -134 243 -235
545 -303 140 -31 500 -86 711 -108 410 -43 495 -46 1280 -46 644 0 791 3 965
18 531 46 977 116 1195 189 193 64 313 153 354 263 21 55 21 66 21 945 l0 890
-2545 0 c-2082 0 -2547 -2 -2551 -13z m1910 -493 c13 -5 15 -66 16 -497 0
-556 -3 -532 78 -552 48 -12 71 -30 56 -45 -5 -5 -84 -11 -174 -12 -162 -3
-165 -3 -168 18 -2 16 4 24 27 32 16 6 34 20 41 31 7 15 10 143 8 425 l-3 404
-23 25 c-13 14 -35 28 -48 31 -50 13 -28 41 74 94 53 28 98 51 99 51 1 1 8 -2
17 -5z m1784 -381 c2 -297 5 -383 15 -383 14 1 188 145 200 166 12 21 1 32
-39 40 -20 4 -38 13 -41 21 -11 28 15 37 100 34 45 -1 120 -3 166 -4 67 -2 86
-6 95 -19 15 -24 -1 -37 -55 -44 -24 -3 -66 -16 -94 -28 -68 -31 -155 -103
-155 -127 0 -38 137 -217 211 -276 36 -28 61 -37 129 -46 17 -2 24 -26 12 -44
-4 -6 -52 -14 -117 -18 l-110 -7 -47 55 c-42 49 -126 162 -168 226 -15 23 -17
23 -48 7 -17 -9 -37 -26 -43 -37 -14 -26 -8 -144 8 -160 6 -6 35 -17 65 -23
42 -10 54 -17 56 -34 3 -22 1 -22 -125 -23 -70 -1 -148 -2 -173 -3 -40 -1 -45
2 -48 22 -3 18 4 26 32 37 26 11 38 24 45 48 5 18 8 202 8 418 -2 372 -3 388
-22 409 -11 13 -35 29 -52 37 -55 23 -42 43 60 95 145 73 132 108 135 -339z
m-2144 203 c-7 -111 -8 -116 -33 -116 -14 0 -26 13 -39 43 -32 71 -48 79 -175
89 -129 10 -197 4 -197 -18 0 -8 -1 -94 -1 -191 l0 -178 73 -1 c40 -1 96 2
123 5 50 6 50 6 66 56 13 42 20 50 40 50 19 0 24 -5 22 -25 -2 -27 -13 -257
-13 -278 0 -8 -9 -12 -22 -10 -14 2 -25 15 -35 43 -25 72 -40 80 -155 80
l-101 0 1 -190 c1 -218 1 -217 91 -230 53 -7 75 -23 62 -44 -7 -10 -53 -13
-202 -13 -188 0 -194 0 -197 20 -3 16 4 23 29 29 18 5 42 21 53 37 20 27 21
38 21 421 l0 393 -25 27 c-14 15 -37 33 -52 41 -17 9 -28 23 -28 35 0 19 5 19
203 14 111 -3 261 -2 332 2 72 5 138 7 147 5 16 -4 17 -14 12 -96z m1024 -326
c66 -30 72 -53 72 -289 l0 -201 24 -6 c13 -3 39 -4 57 -2 30 3 34 0 34 -22 0
-21 -11 -31 -64 -57 -35 -18 -72 -33 -82 -33 -10 0 -34 14 -54 31 l-35 32 -63
-29 c-51 -24 -75 -29 -139 -29 -68 0 -79 3 -103 25 -59 55 -71 123 -32 181 28
43 124 92 230 118 43 11 85 25 92 31 20 16 20 112 0 150 -16 31 -72 56 -104
45 -11 -3 -33 -28 -51 -54 -35 -56 -78 -79 -118 -65 -37 13 -42 57 -10 91 46
49 178 102 258 102 25 0 64 -8 88 -19z m710 1 c25 -13 57 -141 39 -153 -23
-15 -42 -8 -62 23 -11 17 -39 42 -63 56 -35 21 -52 25 -93 21 -79 -8 -110 -53
-73 -106 9 -13 71 -49 139 -82 113 -54 126 -63 151 -105 50 -87 20 -190 -69
-238 -37 -19 -56 -22 -162 -21 -78 0 -134 5 -160 15 l-40 14 0 75 c0 91 17
102 59 41 32 -46 82 -73 148 -79 86 -8 128 15 128 72 0 43 -23 63 -139 121
-124 62 -148 80 -167 131 -36 96 15 189 124 225 35 11 214 4 240 -10z"/>
<path d="M4382 1616 c-47 -16 -91 -41 -109 -65 -19 -24 -15 -76 6 -102 16 -20
28 -24 78 -23 35 0 71 7 91 18 l33 17 -3 82 c-3 79 -4 82 -28 84 -14 1 -44 -4
-68 -11z"/>
</g>
</svg>
