<?xml version="1.0" standalone="no"?>
<!DOCTYPE svg PUBLIC "-//W3C//DTD SVG 20010904//EN"
 "http://www.w3.org/TR/2001/REC-SVG-20010904/DTD/svg10.dtd">
<svg version="1.0" xmlns="http://www.w3.org/2000/svg"
 width="677.000000pt" height="265.000000pt" viewBox="0 0 677.000000 265.000000"
 preserveAspectRatio="xMidYMid meet">
<metadata>
Created by potrace 1.15, written by Peter Selinger 2001-2017
</metadata>
<g transform="translate(0.000000,265.000000) scale(0.100000,-0.100000)"
fill="#000000" stroke="none">
<path d="M700 2121 c-36 -26 -123 -87 -195 -136 -72 -49 -155 -106 -185 -128
-30 -21 -93 -64 -139 -95 -46 -31 -87 -66 -91 -77 -4 -11 -12 -81 -19 -155
-16 -170 -58 -570 -67 -631 l-6 -46 103 -36 c164 -57 1213 -407 1221 -407 8 0
368 458 368 469 0 11 -390 1185 -396 1190 -5 5 -495 101 -514 100 -8 0 -44
-22 -80 -48z"/>
<path d="M2386 1965 c-104 -43 -177 -117 -216 -222 -19 -49 -21 -73 -18 -158
5 -126 34 -190 120 -270 72 -66 142 -95 236 -95 83 0 124 11 185 50 l47 30 0
-35 0 -35 50 0 50 0 0 190 0 190 -115 0 -115 0 0 -50 0 -50 63 0 62 0 -4 -52
c-4 -59 -11 -67 -90 -105 -136 -65 -291 -7 -352 132 -25 56 -30 154 -11 220
26 92 117 165 223 180 54 8 155 -15 208 -46 l35 -21 28 34 c15 18 28 38 28 43
0 6 -16 20 -35 32 -102 66 -270 83 -379 38z"/>
<path d="M4866 1966 c-72 -30 -119 -67 -168 -131 -130 -171 -81 -436 102 -555
75 -48 140 -64 240 -58 97 6 170 39 239 109 190 193 135 514 -107 627 -47 22
-74 27 -152 30 -82 2 -103 -1 -154 -22z m256 -106 c160 -71 204 -305 84 -447
-41 -49 -126 -86 -195 -86 -236 0 -357 291 -197 470 41 46 83 70 151 87 34 8
111 -3 157 -24z"/>
<path d="M3062 1703 c3 -268 4 -280 27 -326 29 -60 68 -99 128 -128 41 -20 63
-24 148 -24 91 0 104 3 146 27 54 32 102 84 126 136 15 31 18 79 21 315 l3
277 -60 0 -61 0 0 -265 c0 -247 -1 -269 -20 -305 -45 -87 -192 -113 -282 -49
-54 39 -58 66 -58 355 l0 264 -61 0 -61 0 4 -277z"/>
<path d="M3920 1605 l0 -375 61 0 60 0 -3 145 -3 145 76 0 75 0 44 -82 c24
-46 58 -110 76 -143 l32 -60 66 -3 c65 -3 77 3 54 26 -6 6 -46 76 -89 154
l-77 142 27 17 c118 74 137 241 38 343 -56 58 -89 66 -279 66 l-158 0 0 -375z
m301 265 c53 -15 72 -41 77 -109 4 -53 2 -61 -24 -90 -35 -38 -74 -48 -169
-41 l-70 5 0 123 0 122 75 0 c41 0 91 -5 111 -10z"/>
<path d="M5620 1604 l0 -376 178 4 c173 3 178 4 225 31 67 40 100 94 105 171
3 50 -1 69 -20 106 -14 25 -39 55 -56 66 l-31 21 25 24 c51 48 69 143 40 212
-17 43 -76 93 -123 106 -21 6 -107 11 -190 11 l-153 0 0 -376z m334 247 c21
-20 26 -34 26 -74 0 -40 -5 -53 -29 -78 -28 -28 -33 -29 -125 -29 l-96 0 0
106 0 106 99 -4 c89 -3 102 -6 125 -27z m6 -298 c41 -28 49 -45 50 -98 0 -95
-46 -125 -190 -125 l-90 0 0 120 0 120 103 0 c80 0 108 -4 127 -17z"/>
<path d="M6370 1605 l0 -375 55 0 55 0 0 375 0 375 -55 0 -55 0 0 -375z"/>
<path d="M2335 896 c-85 -38 -135 -133 -115 -220 35 -156 221 -208 328 -92 45
48 57 90 49 162 -13 117 -154 198 -262 150z m146 -69 c22 -14 39 -38 48 -64
13 -37 13 -48 0 -90 -45 -145 -249 -110 -249 43 0 107 114 170 201 111z"/>
<path d="M5755 897 c-82 -33 -125 -96 -125 -180 0 -64 19 -105 68 -149 108
-98 278 -38 310 110 17 76 -16 155 -85 202 -40 28 -122 36 -168 17z m125 -60
c64 -32 89 -130 50 -194 -68 -112 -240 -61 -240 72 0 97 105 165 190 122z"/>
<path d="M2720 715 l0 -185 30 0 30 0 0 64 0 64 65 4 c51 3 70 9 90 28 58 55
54 153 -9 191 -24 15 -50 19 -118 19 l-88 0 0 -185z m168 119 c16 -11 22 -25
22 -54 0 -47 -18 -60 -84 -60 l-46 0 0 65 0 65 43 0 c23 0 53 -7 65 -16z"/>
<path d="M3040 875 c0 -24 3 -25 60 -25 l60 0 0 -160 0 -160 30 0 30 0 0 160
0 160 65 0 c63 0 65 1 65 25 l0 25 -155 0 -155 0 0 -25z"/>
<path d="M3440 715 l0 -185 35 0 35 0 0 185 0 185 -35 0 -35 0 0 -185z"/>
<path d="M3651 743 c-7 -87 -14 -170 -17 -185 -5 -26 -3 -28 29 -28 l35 0 7
130 8 131 42 -98 c39 -91 44 -98 70 -98 25 0 31 8 69 93 22 51 42 89 43 85 1
-5 5 -61 8 -125 l7 -118 34 0 c31 0 33 2 29 28 -4 23 -25 301 -25 331 0 6 -15
11 -34 11 -34 0 -34 0 -81 -112 -26 -62 -48 -114 -49 -115 -1 -1 -24 49 -50
112 -48 113 -49 115 -81 115 l-32 0 -12 -157z"/>
<path d="M4140 715 l0 -185 35 0 35 0 0 185 0 185 -35 0 -35 0 0 -185z"/>
<path d="M4330 875 c0 -25 0 -25 95 -25 l96 0 -29 -37 c-76 -99 -172 -246
-172 -264 0 -18 8 -19 140 -19 l140 0 0 25 0 25 -100 0 -100 0 33 48 c140 201
167 242 167 256 0 14 -18 16 -135 16 l-135 0 0 -25z"/>
<path d="M4795 888 c-2 -7 -32 -89 -65 -182 -33 -93 -60 -171 -60 -173 0 -2
14 -3 32 -1 29 3 34 8 47 51 l15 47 67 0 67 0 17 -49 c14 -44 19 -49 50 -53
19 -2 35 -4 35 -3 0 0 -11 29 -24 65 -13 36 -44 120 -67 188 l-44 122 -33 0
c-18 0 -35 -6 -37 -12z"/>
<path d="M5040 875 c0 -24 2 -25 65 -25 l65 0 0 -160 0 -160 30 0 30 0 0 160
0 160 65 0 c63 0 65 1 65 25 l0 25 -160 0 -160 0 0 -25z"/>
<path d="M5450 715 l0 -185 30 0 30 0 0 185 0 185 -30 0 -30 0 0 -185z"/>
<path d="M6130 715 l0 -185 30 0 29 0 3 129 3 129 86 -126 c77 -113 90 -127
118 -130 l31 -3 0 185 0 186 -30 0 -29 0 -3 -129 -3 -129 -88 129 c-79 116
-91 129 -118 129 l-29 0 0 -185z"/>
</g>
</svg>
