<?xml version="1.0" standalone="no"?>
<!DOCTYPE svg PUBLIC "-//W3C//DTD SVG 20010904//EN"
 "http://www.w3.org/TR/2001/REC-SVG-20010904/DTD/svg10.dtd">
<svg version="1.0" xmlns="http://www.w3.org/2000/svg"
 width="800.000000pt" height="400.000000pt" viewBox="0 0 800.000000 400.000000"
 preserveAspectRatio="xMidYMid meet">

<g transform="translate(0.000000,400.000000) scale(0.100000,-0.100000)"
fill="#000000" stroke="none">
<path d="M1819 3340 c-9 -5 -61 -121 -114 -257 -54 -137 -158 -401 -232 -588
-73 -187 -141 -357 -150 -378 -31 -72 -115 -127 -195 -127 -25 0 -28 -3 -28
-35 l0 -35 215 0 215 0 0 34 c0 31 -2 34 -41 40 -48 8 -99 53 -99 88 0 13 23
85 52 160 l53 138 290 -3 290 -2 62 -155 c34 -85 61 -164 60 -175 -3 -27 -61
-55 -114 -55 -42 0 -43 0 -43 -35 l0 -35 275 0 275 0 0 34 0 33 -76 5 c-63 4
-79 9 -98 29 -13 13 -75 157 -141 324 -393 1001 -395 1006 -429 1005 -6 0 -18
-5 -27 -10z m-1 -310 c11 -30 66 -170 122 -310 55 -140 100 -258 100 -262 0
-5 -115 -8 -255 -8 -140 0 -255 3 -255 7 0 4 51 138 114 298 63 159 120 303
126 319 13 35 19 29 48 -44z"/>
<path d="M380 3258 l0 -38 88 -1 c48 0 107 -6 132 -12 85 -22 80 30 80 -878 0
-557 -3 -806 -11 -828 -17 -48 -56 -63 -181 -69 l-108 -5 0 -38 0 -39 745 0
c589 0 745 3 745 13 0 14 21 216 50 482 26 247 27 235 -9 235 -28 0 -30 -3
-35 -47 -11 -93 -44 -249 -65 -304 -32 -84 -92 -161 -162 -208 -107 -71 -206
-91 -465 -91 -201 0 -240 7 -252 48 -4 15 -7 398 -7 850 l0 824 27 23 c36 31
108 45 233 45 l105 0 0 38 0 37 -455 0 -455 0 0 -37z"/>
<path d="M5570 3259 l0 -36 93 -5 c111 -7 167 -27 206 -77 35 -45 529 -795
537 -815 6 -16 -456 -708 -515 -769 -57 -60 -159 -106 -269 -119 l-92 -12 0
-38 0 -38 66 0 66 0 -7 -33 c-52 -260 -123 -394 -243 -460 -105 -57 -181 -69
-474 -74 -147 -3 -292 -2 -323 2 -101 12 -95 -18 -95 465 l0 420 175 0 c95 0
197 -5 224 -11 111 -24 162 -94 169 -236 l5 -83 33 0 34 0 -2 373 -3 372 -31
3 -31 3 -5 -90 c-12 -209 -81 -250 -425 -251 l-143 0 0 383 c0 315 3 387 14
403 14 18 31 19 318 22 315 3 386 -3 483 -39 140 -52 224 -201 251 -446 l7
-63 34 0 c32 0 34 2 29 28 -3 15 -19 140 -36 277 -17 138 -33 267 -36 287 l-6
38 -661 2 -662 3 -22 255 c-13 140 -25 283 -29 318 l-6 62 -869 0 c-687 0
-870 -3 -874 -12 -2 -7 -13 -143 -25 -303 -12 -159 -22 -297 -23 -305 -1 -10
7 -15 28 -15 l29 0 12 108 c24 210 53 297 125 361 75 67 138 81 376 81 171 0
194 -2 210 -18 17 -17 18 -64 18 -846 0 -800 -1 -830 -19 -850 -29 -32 -79
-42 -243 -48 l-153 -6 0 -36 0 -36 540 0 540 0 0 36 0 36 -159 5 c-174 6 -224
19 -248 68 -10 20 -12 204 -10 843 l2 819 25 20 c24 19 35 20 220 15 215 -5
267 -15 338 -66 76 -56 111 -146 138 -359 7 -63 11 -118 8 -123 -3 -5 -50 -9
-105 -9 l-99 0 0 -40 0 -40 98 -1 c112 0 161 -14 179 -49 17 -33 19 -1640 2
-1672 -17 -31 -72 -48 -180 -55 l-99 -6 0 -39 0 -38 820 0 819 0 6 33 c3 17
27 163 53 322 l47 290 243 3 242 2 0 39 c0 37 -2 39 -37 46 -53 9 -107 42
-126 75 -30 50 -22 82 46 182 35 51 132 196 216 321 85 126 157 225 161 220
11 -11 445 -666 459 -692 24 -44 -37 -91 -137 -107 -40 -6 -42 -8 -42 -43 l0
-36 390 0 390 0 0 36 0 36 -94 5 c-108 6 -170 30 -209 81 -34 45 -607 916
-614 933 -5 14 388 596 440 652 52 54 158 100 265 114 l92 12 0 38 0 38 -335
0 -335 0 0 -38 c0 -38 1 -38 53 -52 73 -18 117 -64 117 -120 0 -37 -17 -67
-172 -296 -94 -140 -175 -254 -180 -254 -16 0 -388 570 -388 595 0 33 45 61
123 77 56 12 57 12 57 48 l0 35 -390 0 -390 0 0 -36z"/>
</g>
</svg>
