<?xml version="1.0" standalone="no"?>
<!DOCTYPE svg PUBLIC "-//W3C//DTD SVG 20010904//EN"
 "http://www.w3.org/TR/2001/REC-SVG-20010904/DTD/svg10.dtd">
<svg version="1.0" xmlns="http://www.w3.org/2000/svg"
 width="1047.000000pt" height="484.000000pt" viewBox="0 0 1047.000000 484.000000"
 preserveAspectRatio="xMidYMid meet">
<metadata>
Created by potrace 1.15, written by Peter Selinger 2001-2017
</metadata>
<g transform="translate(0.000000,484.000000) scale(0.100000,-0.100000)"
fill="#000000" stroke="none">
<path d="M1182 3627 l-822 -310 0 -932 0 -933 132 53 c73 29 199 78 280 110
l148 57 2 761 3 762 525 126 c289 69 537 129 553 132 l27 7 0 -1120 c0 -616
-3 -1120 -6 -1120 -4 0 -367 50 -807 110 -440 61 -805 109 -811 106 -7 -3 -6
-5 2 -5 7 -1 367 -132 800 -293 433 -160 796 -293 807 -295 15 -3 702 179 918
243 16 5 17 76 17 1300 0 712 -2 1294 -6 1294 -3 0 -207 59 -455 130 -247 72
-457 129 -467 129 -9 -1 -387 -141 -840 -312z"/>
<path d="M6315 3437 c-131 -44 -222 -130 -267 -254 -18 -47 -23 -90 -27 -228
l-6 -170 -112 -3 -113 -3 0 -84 0 -85 115 0 115 0 0 -575 0 -575 105 0 105 0
0 575 0 575 260 0 260 0 0 -575 0 -575 105 0 105 0 0 575 0 575 155 0 155 0 0
88 0 87 -152 0 -153 0 0 155 c0 103 5 168 14 193 16 47 63 102 105 124 41 22
158 22 209 0 l37 -16 0 95 c0 81 -3 96 -17 102 -10 4 -72 7 -138 7 -109 0
-125 -2 -178 -27 -31 -15 -81 -50 -110 -77 -104 -99 -137 -198 -137 -423 l0
-138 -261 0 -261 0 4 168 c4 151 6 172 28 216 50 103 181 141 313 90 15 -5 17
4 17 84 0 62 -4 93 -12 99 -23 14 -220 14 -263 0z"/>
<path d="M7513 3380 c-44 -27 -66 -64 -66 -113 0 -84 51 -137 133 -137 109 0
173 104 122 199 -35 66 -125 90 -189 51z"/>
<path d="M4630 3338 c-148 -21 -319 -97 -429 -191 -208 -178 -324 -494 -308
-837 21 -432 244 -744 609 -851 105 -30 342 -38 459 -14 176 35 297 100 426
230 81 82 97 104 147 206 88 181 124 369 113 589 -10 205 -60 370 -157 518
-180 274 -496 402 -860 350z m333 -204 c207 -53 367 -226 427 -460 28 -108 40
-273 29 -397 -20 -226 -86 -377 -222 -503 -140 -129 -367 -184 -578 -140 -173
37 -330 165 -412 336 -66 137 -78 191 -84 371 -4 123 -2 174 12 240 74 368
339 592 678 574 49 -3 116 -12 150 -21z"/>
<path d="M8475 2809 c-216 -31 -390 -154 -485 -344 -56 -112 -71 -179 -77
-335 -6 -166 9 -250 68 -370 77 -156 226 -276 391 -315 82 -19 265 -19 348 1
35 8 90 26 122 41 l58 26 0 97 0 97 -87 -43 c-236 -117 -487 -62 -612 134 -99
156 -106 405 -16 588 118 241 401 323 652 190 l63 -34 0 107 0 107 -62 22
c-111 38 -236 49 -363 31z"/>
<path d="M9563 2810 c-184 -33 -340 -159 -429 -345 -50 -106 -66 -175 -71
-325 -9 -249 48 -423 181 -555 118 -117 223 -155 424 -155 176 0 311 31 412
95 l40 25 0 96 0 96 -32 -22 c-53 -35 -169 -86 -228 -101 -80 -20 -232 -17
-303 5 -156 51 -255 184 -275 372 l-8 74 473 0 473 0 0 43 c0 23 -5 94 -10
157 -31 342 -206 530 -510 545 -47 2 -108 0 -137 -5z m242 -199 c58 -26 107
-70 140 -126 26 -43 55 -150 55 -202 l0 -33 -361 0 -361 0 7 37 c29 158 149
302 282 339 67 19 177 12 238 -15z"/>
<path d="M7470 2120 l0 -660 105 0 105 0 0 660 0 660 -105 0 -105 0 0 -660z"/>
</g>
</svg>
