<?xml version="1.0" standalone="no"?>
<!DOCTYPE svg PUBLIC "-//W3C//DTD SVG 20010904//EN"
 "http://www.w3.org/TR/2001/REC-SVG-20010904/DTD/svg10.dtd">
<svg version="1.0" xmlns="http://www.w3.org/2000/svg"
 width="763.000000pt" height="179.000000pt" viewBox="0 0 763.000000 179.000000"
 preserveAspectRatio="xMidYMid meet">
<metadata>
Created by potrace 1.15, written by Peter Selinger 2001-2017
</metadata>
<g transform="translate(0.000000,179.000000) scale(0.100000,-0.100000)"
fill="#000000" stroke="none">
<path d="M0 895 l0 -895 1382 0 1382 0 43 21 c60 29 126 98 160 167 l28 57 3
773 2 772 -1500 0 -1500 0 0 -895z m864 388 c131 -37 194 -157 155 -296 -14
-53 -69 -110 -132 -137 -41 -18 -76 -24 -164 -28 l-113 -5 0 -142 c0 -178 -6
-189 -96 -190 l-59 0 -3 408 -2 407 177 0 c135 0 191 -4 237 -17z m916 -29 c0
-82 -4 -84 -139 -84 l-119 0 -6 -317 c-4 -175 -11 -328 -16 -340 -10 -24 -55
-37 -106 -31 l-29 3 -3 343 -2 342 -120 0 -120 0 0 65 0 65 330 0 330 0 0 -46z
m248 38 c15 -10 44 -84 148 -384 43 -126 82 -228 85 -228 3 0 52 132 109 292
56 161 109 301 118 311 12 13 31 17 90 17 55 0 73 -3 69 -12 -46 -117 -266
-673 -289 -731 l-30 -78 -66 3 -67 3 -152 380 c-83 209 -156 392 -162 408
l-10 27 72 0 c40 0 78 -4 85 -8z"/>
<path d="M610 1060 l0 -110 73 0 c131 0 189 33 191 108 2 82 -47 112 -186 112
l-78 0 0 -110z"/>
<path d="M3188 1023 l-3 -768 -23 -69 c-19 -54 -35 -80 -81 -127 l-57 -59
2303 0 2303 0 0 895 0 895 -2220 0 -2219 0 -3 -767z m2000 256 c35 -17 66 -38
69 -46 3 -8 -10 -30 -32 -53 l-38 -39 -34 29 c-58 51 -143 61 -215 24 -39 -20
-58 -53 -58 -100 0 -67 32 -96 144 -134 188 -62 246 -119 246 -240 -1 -141
-83 -224 -242 -246 -87 -12 -224 33 -279 92 l-22 24 39 35 c46 40 55 42 80 14
24 -26 78 -54 123 -63 49 -9 110 11 148 49 29 29 33 40 33 83 0 72 -31 98
-173 148 -95 33 -119 46 -159 85 -52 52 -63 86 -56 174 14 170 237 256 426
164z m620 11 c24 -11 57 -29 73 -41 l31 -22 -38 -38 c-36 -37 -64 -50 -64 -30
0 5 -25 22 -55 37 -45 22 -64 25 -100 20 -89 -12 -135 -56 -135 -128 0 -64 29
-87 178 -139 104 -37 144 -60 177 -103 50 -65 51 -192 2 -263 -88 -131 -334
-146 -472 -29 l-40 34 40 36 c47 41 56 43 81 15 54 -59 164 -80 238 -44 54 26
83 91 67 146 -15 48 -49 73 -153 108 -147 50 -192 81 -223 153 -43 104 4 226
108 280 81 41 201 45 285 8z m-2041 -67 c17 -43 70 -187 118 -320 49 -134 92
-243 95 -243 3 0 58 143 122 318 l116 317 62 3 c61 3 62 2 57 -20 -4 -13 -73
-194 -156 -403 l-149 -380 -54 -3 -54 -3 -153 393 c-84 216 -155 399 -158 406
-4 9 12 12 60 12 l65 0 29 -77z m803 -328 l0 -405 -55 0 -55 0 0 405 0 405 55
0 55 0 0 -405z m1610 0 l0 -405 -55 0 -55 0 0 405 0 405 55 0 55 0 0 -405z
m489 103 c64 -164 118 -298 121 -298 3 0 52 123 109 273 58 149 111 284 118
300 13 26 16 27 98 27 l85 0 0 -405 0 -405 -55 0 -55 0 0 327 c0 179 -3 324
-6 320 -3 -3 -63 -149 -133 -324 l-127 -318 -38 0 -39 0 -126 319 -126 320 -5
-320 -5 -319 -55 0 -55 0 -3 390 c-1 214 0 396 3 403 3 9 28 12 91 10 l87 -3
116 -297z"/>
</g>
</svg>
