<?xml version="1.0"?>
<svg width="461" height="115" xmlns="http://www.w3.org/2000/svg">
 <!-- Created with Method Draw - http://github.com/duopixel/Method-Draw/ -->

 <g>
  <title>background</title>
  <rect fill="none" id="canvas_background" height="117" width="463" y="-1" x="-1"/>
  <g display="none" overflow="visible" y="0" x="0" height="100%" width="100%" id="canvasGrid">
   <rect fill="url(#gridpattern)" stroke-width="0" y="0" x="0" height="100%" width="100%"/>
  </g>
 </g>
 <g>
  <title>Layer 1</title>
  <metadata>Created by potrace 1.15, written by Peter Selinger 2001-2017</metadata>
  <g stroke="null" id="svg_8">
   <g id="svg_4" fill="#000000" transform="matrix(0.0544343 0 0 -0.0487598 -49.3498 27.5565)">
    <path stroke="null" id="svg_5" d="m1298.502563,-644.866089l0,-895l1382.000122,0l1382,0l42.999756,21c60,29 126,98 160,167l28,57l3,773l2,772.000031l-1499.999756,0l-1500.000122,0l0,-895.000031zm864.000122,388.000031c131,-37 194,-157 155,-296.000031c-14,-53 -69,-110 -132,-137c-41,-18 -76,-24 -164.000122,-28l-113,-5l0,-142c0,-178 -6,-189 -96,-190l-59,0l-3,408l-2,407.000031l177,0c135.000122,0 191.000122,-4 237.000122,-17zm916,-29c0,-82 -4,-84 -139,-84l-119,0l-6,-317.000031c-4,-175 -11,-328 -16,-340c-10,-24 -55,-37 -106,-31l-29,3l-3,343l-2,342.000031l-120,0l-120,0l0,65l0,65l330,0l330,0l0,-46zm248,38c15,-10 44,-84 148,-384.000031c43,-126 82,-228 85,-228c3,0 52,132 109,292c56,161.000031 109,301.000031 118,311.000031c12,13 31,17 90,17c55,0 73,-3 69,-12c-46,-117 -266,-673.000031 -289,-731.000031l-30,-78l-66,3l-67,3l-152,380c-83,209.000031 -156,392.000031 -162,408.000031l-10,27l72,0c40,0 78,-4 85,-8z"/>
    <path stroke="null" id="svg_6" d="m1908.502563,-479.866058l0,-110.000031l73,0c131.000122,0 189.000122,33 191.000122,108.000031c2,82 -47,112 -186.000122,112l-78,0l0,-110z"/>
    <path stroke="null" id="svg_7" d="m4486.502441,-516.866089l-3,-768l-23,-69c-19,-54 -35,-80 -81,-127l-57,-59l2303,0l2303.000488,0l0,895l0,895.000031l-2220.000488,0l-2219,0l-3,-767.000031zm2000,256.000031c35,-17 66,-38 69,-46c3,-8 -10,-30 -32,-53l-38,-39l-34,29c-58,51 -143,61 -215,24c-39,-20 -58,-53 -58,-100c0,-67.000031 32,-96.000031 144,-134.000031c188,-62 246,-119 246,-240c-1,-141 -83,-224 -242,-246c-87,-12 -224,33 -279,92l-22,24l39,35c46,40 55,42 80,14c24,-26 78,-54 123,-63c49,-9 110,11 148,49c29,29 33,40 33,83c0,72 -31,98 -173,148c-95,33 -119,46 -159,85c-52,52 -63,86 -56,174.000031c14,170 237,256 426,164zm620,11c24,-11 57,-29 73,-41l31,-22l-38,-38c-36,-37 -64,-50 -64,-30c0,5 -25,22 -55,37c-45,22 -64,25 -100,20c-89,-12 -135,-56 -135,-128c0,-64.000031 29,-87.000031 178,-139.000031c104,-37 144,-60 177,-103c50,-65 51,-192 2,-263c-88,-131 -334,-146 -472,-29l-40,34l40,36c47,41 56,43 81,15c54,-59 164,-80 238,-44c54,26 83,91 67,146c-15,48 -49,73 -153,108c-147,50 -192,81 -223,153c-43,104.000031 4,226.000031 108,280.000031c81,41 201,45 285,8zm-2041,-67c17,-43 70,-187 118,-320.000031c49,-134 92,-243 95,-243c3,0 58,143 122,318l116,317.000031l62,3c61,3 62,2 57,-20c-4,-13 -73,-194 -156,-403.000031l-149,-380l-54,-3l-54,-3l-153,393c-84,216.000031 -155,399.000031 -158,406.000031c-4,9 12,12 60,12l65,0l29,-77zm803,-328.000031l0,-405l-55,0l-55,0l0,405l0,405.000031l55,0l55,0l0,-405.000031zm1610,0l0,-405l-55,0l-55,0l0,405l0,405.000031l55,0l55,0l0,-405.000031zm489,103c64,-164 118,-298 121,-298c3,0 52,123 109.000488,273c58,149.000031 111,284.000031 118,300.000031c13,26 16,27 98,27l85,0l0,-405.000031l0,-405l-55,0l-55,0l0,327c0,179 -3,324.000031 -6,320.000031c-3,-3 -63,-149.000031 -133,-324.000031l-127.000488,-318l-38,0l-39,0l-126,319l-126,320.000031l-5,-320.000031l-5,-319l-55,0l-55,0l-3,390c-1,214.000031 0,396.000031 3,403.000031c3,9 28,12 91,10l87,-3l116,-297.000031z"/>
   </g>
  </g>
 </g>
</svg>