<?xml version="1.0"?>
<svg width="454" height="565" xmlns="http://www.w3.org/2000/svg" preserveAspectRatio="xMidYMid meet">
 <metadata>Created by potrace 1.15, written by Peter Selinger 2001-2017</metadata>

 <g>
  <title>background</title>
  <rect fill="none" id="canvas_background" height="402" width="582" y="-1" x="-1"/>
 </g>
 <g>
  <title>Layer 1</title>
  <g stroke="null" id="svg_8">
   <path stroke="null" id="svg_2" d="m101.745499,34.472294c-1.174225,0.701096 -2.935562,1.332081 -3.816238,1.332081c-1.541183,0 -3.963028,0.981533 -10.934998,4.487011c-7.779266,3.785915 -16.585968,12.199062 -20.548996,19.630676c-3.669464,6.660404 -4.696907,8.974018 -4.696907,10.446316c0,0.841316 -0.660507,2.594055 -1.467789,3.856033c-1.467789,2.243507 -1.467789,3.575584 -1.467789,117.924255c0,114.348679 0,115.680771 1.467789,117.924271c0.807281,1.261963 1.467789,3.084839 1.467789,4.066376c0.073387,2.453827 5.577583,12.479462 9.687386,17.457245c1.981506,2.383728 5.504181,5.748993 7.99942,7.641937c5.210632,3.926147 15.705307,9.184357 18.273926,9.254486c1.027451,0 2.935562,0.630981 4.256577,1.402191c2.34845,1.402161 3.742859,1.402161 123.440735,1.402161c119.697876,0 121.092255,0 123.440735,-1.402161c1.320984,-0.77121 3.229126,-1.402191 4.256561,-1.402191c2.568634,-0.070129 13.063293,-5.328339 18.273926,-9.254486c2.495239,-1.892944 6.017914,-5.258209 7.999451,-7.641937c4.109772,-4.977783 9.613953,-15.003418 9.687347,-17.457245c0,-0.981537 0.660522,-2.804413 1.467804,-4.066376c1.467773,-2.2435 1.467773,-3.575592 1.467773,-139.658218l0,-137.414726l-143.989716,0.07011c-140.833984,0 -144.13649,0.070107 -146.264786,1.402191zm131.073196,42.276058c11.44873,2.103287 21.429688,9.534897 26.787079,19.911118l2.788788,5.39843l0,9.815338l0.073395,9.815331l-2.862183,5.468552c-3.889618,7.431595 -10.054321,13.531143 -16.659332,16.40564c-8.586548,3.856018 -9.614014,4.06636 -17.540039,4.06636c-7.999451,0 -10.201111,-0.490784 -17.24649,-3.996277c-6.678406,-3.365234 -14.090729,-10.656647 -16.585953,-16.335495c-0.440338,-1.191879 -1.321014,-3.084831 -1.834732,-4.346802c-1.467789,-3.15493 -1.394409,-19.490456 0.07338,-22.224731c0.587112,-1.051643 1.10083,-2.313614 1.10083,-2.804382c0,-0.981529 5.504196,-9.114243 7.632492,-11.287636c4.256592,-4.27668 12.182617,-8.34304 19.227997,-9.815338c5.944519,-1.191856 8.586548,-1.191856 15.044769,-0.070107zm9.173676,83.290131c7.779266,3.645706 14.017334,9.464813 17.24646,15.984985c3.155731,6.309875 3.229126,6.660416 3.229126,16.125198c0,7.641953 -0.293549,9.955551 -1.320984,11.848526c-0.660522,1.332062 -1.24762,2.734268 -1.24762,3.154922c0,0.420654 -1.027466,2.173401 -2.275085,3.926147c-6.751801,9.604996 -16.879517,15.634415 -27.447571,16.475723c-15.558533,1.191864 -27.374176,-3.856018 -35.447021,-15.003418c-4.917068,-6.870758 -6.017914,-10.796875 -6.017914,-21.102982c0,-6.239761 0.293564,-9.184357 1.027466,-10.165894c0.513718,-0.77121 1.17421,-2.243515 1.467773,-3.295151c0.513718,-2.243515 5.504211,-9.464798 7.852661,-11.497971c2.935547,-2.523941 9.173645,-6.450089 12.182617,-7.712051c4.109802,-1.682617 9.980927,-2.313599 17.833588,-1.892944c6.238068,0.280426 7.559082,0.630981 12.916504,3.154907zm-4.476746,78.312393c6.971985,2.594055 8.439758,3.435349 14.017365,7.992477c2.788757,2.243515 7.559082,8.833786 8.953461,12.409363c1.834747,4.48703 2.495239,10.095795 2.054932,17.036652c-0.366974,6.029419 -0.807312,7.571838 -3.008972,11.91864c-3.816254,7.43158 -10.49469,13.811584 -17.980377,17.176819c-1.834747,0.841339 -5.944519,2.033203 -9.173645,2.664185c-5.063873,0.981506 -6.678436,1.051636 -11.742279,0.280426c-11.815674,-1.752747 -20.035278,-6.590302 -26.273376,-15.564331c-4.403351,-6.450073 -5.137238,-8.97403 -5.430786,-19.280121c-0.220184,-7.151184 -0.07341,-9.815338 0.807281,-11.568085c0.587097,-1.261963 1.247604,-3.084808 1.541168,-3.926147c0.293564,-0.911407 1.908112,-3.64566 3.669464,-5.959305c5.284027,-7.221283 14.090729,-12.689819 23.484558,-14.512665c4.770294,-0.981522 14.971405,-0.280426 19.081207,1.332092z"/>
   <path stroke="null" id="svg_3" d="m222.125549,88.438538c-11.956818,2.670044 -20.414093,12.647575 -20.414093,24.100662c0,3.442947 1.822693,9.415413 3.35376,11.17202c0.583252,0.562119 1.020691,1.405289 1.020691,1.756607c0,0.84317 5.978394,6.604866 6.853302,6.604866c0.291626,0 1.45816,0.562088 2.478851,1.26474c3.426666,2.318726 9.842499,3.232162 15.383484,2.248474c9.623779,-1.756622 16.039642,-7.166977 19.685028,-16.652657c5.176422,-13.420479 -6.197144,-29.44075 -21.580627,-30.705513c-2.333038,-0.210785 -5.395142,-0.070259 -6.780396,0.2108z"/>
   <path stroke="null" id="svg_4" d="m219.865417,169.593826c-8.311462,2.599777 -14.362793,8.291183 -16.841614,15.87973c-1.67688,5.059036 -1.603973,9.415421 0.145813,14.333923c2.770477,7.869598 8.530151,13.209686 17.060333,15.739197c6.197144,1.897156 6.634583,1.897156 12.977539,0.070267c5.395172,-1.616058 9.696686,-4.356384 13.123352,-8.431717c2.478851,-3.021362 5.686768,-11.101761 5.686768,-14.544708c0,-2.880844 -2.69754,-11.101761 -4.374451,-13.069168c-4.666077,-5.691406 -8.311432,-8.15065 -14.873108,-10.188324c-6.051331,-1.756607 -6.707489,-1.756607 -12.904633,0.2108z"/>
  </g>
  <g id="svg_9">
   <path id="svg_5" d="m192.800003,434.700012l-3.800003,0.399994l0,43.799988c0,49.000031 -0.300003,51.600006 -6.5,57.800018l-3.300003,3.299988l135.400009,0l135.399994,0l0,-52.5l0,-52.5l-124.699982,0c-68.700012,0 -125.700012,-0.200012 -126.800018,-0.399994c-1.099991,-0.200012 -3.699997,-0.100006 -5.699997,0.100006zm114.599991,30.299988l3.800018,2.299988l-2.399994,2.400024l-2.5,2.399994l-3.700012,-2.200012c-9.600006,-5.600006 -19.799988,3.600006 -11.5,10.5c1.700012,1.399994 3.799988,2.600006 4.700012,2.600006c3,0 11.899994,4.700012 13.599976,7.099976c2.400024,3.5 2.100006,11.900024 -0.599976,15.400024c-2.5,3.299988 -9.100006,6.400024 -13.300018,6.5c-4.699982,0 -10.199982,-1.900024 -13.199982,-4.5l-2.800018,-2.400024l2.300018,-2.299988c1.899994,-1.899963 2.5,-2.099976 4,-1c4.599976,3.299988 8.199982,4.299988 12.199982,3.200012c4.200012,-1.099976 6,-3.299988 6,-7.299988c0,-3.200012 -3.399994,-6.100037 -10,-8.300018c-3,-1 -6.699982,-2.600006 -8.100006,-3.600006c-8.099976,-5.5 -5.299988,-19.799988 4.600006,-22.799988c4.899994,-1.5 12.800018,-0.600006 16.899994,2zm36.900024,-0.600006c4.099976,2 4.599976,3.5 1.799988,6c-1.799988,1.600006 -2.100006,1.600006 -5.200012,-0.299988c-6.599976,-4.100006 -14.899994,-1.300018 -14.899994,5c0,3.899994 2.600006,6.299988 9.100006,8.399994c11.100006,3.600006 14.700012,7.700012 13.600006,15.599976c-0.700012,5.600037 -3.100006,8.800049 -8.399994,11.100037c-7,3.099976 -16.600006,1.399963 -21.800018,-3.799988c-1.5,-1.5 -1.5,-1.800049 0.100006,-3.5c2.200012,-2.400024 3.5,-2.400024 6.899994,0.299988c6,4.700012 16.5,1.399963 16.5,-5.200012c0,-3.599976 -3.399994,-6.400024 -10.399994,-8.600006c-3.399994,-1.100006 -7.399994,-3.199982 -9.299988,-5c-2.800018,-2.699982 -3.300018,-3.799988 -3.300018,-7.799988c0,-6.899994 2,-10 8.5,-13.200012c3.800018,-1.799988 11.800018,-1.299988 16.800018,1zm-123.800018,-0.600006c0.600006,0.400024 4,8.700012 7.5,18.400024c3.600006,9.799988 6.800003,17.799988 7.100006,17.799988c0.300003,0 3.399994,-7.799988 6.899994,-17.200012c3.5,-9.5 6.699997,-17.899994 7.300003,-18.599976c1.199997,-1.5 6.699997,-1.600006 6.699997,0c0,2.099976 -17.300003,45.299988 -18.399994,46c-2.600006,1.799988 -5.600006,0.799988 -7.100006,-2.5c-4.699997,-10.600037 -16.5,-42.900024 -16,-43.700012c0.699997,-1.200012 4.5,-1.299988 6,-0.200012zm49,23.200012l0,23.5l-3,0l-3,0l-0.299988,-22.5c-0.100006,-12.299988 0,-23.100006 0.299988,-23.799988c0.300018,-0.800018 1.600006,-1.200012 3.200012,-1l2.799988,0.299988l0,23.5zm95,0l0,23.5l-3,0l-3,0l-0.299988,-22.5c-0.100006,-12.299988 0,-23.100006 0.299988,-23.799988c0.300018,-0.800018 1.600006,-1.200012 3.200012,-1l2.799988,0.299988l0,23.5zm23.399994,-19.799988c1.100006,2.399994 4.300018,10.299988 7.200012,17.699982c4.600006,11.600006 5.399994,13.100006 6.299988,11.199982c0.5,-1.299988 3.700012,-9.099976 7,-17.399963l6.100006,-15.200012l5,0l5,0l0,23.5l0,23.5l-3,0l-3,0l-0.299988,-19l-0.300018,-19l-7.399994,18.400024c-4.100006,10.099976 -7.899994,18.899963 -8.5,19.5c-2.299988,2.299988 -4.600006,-1.5 -11.5,-18.900024l-7,-17.799988l-0.5,18.399963l-0.5,18.400024l-3,0l-3,0l-0.299988,-23.799988l-0.200012,-23.700012l5,0c4.899994,0 5.100006,0.100006 6.899994,4.200012z"/>
   <path id="svg_6" d="m1,487.5l0,52.5l78.300003,0c88.699997,0 85.800003,0.200012 92.100006,-7.200012c2,-2.299988 4.099991,-5.799988 4.599991,-7.700012c0.600006,-2.099976 1,-21.399963 1,-46.899963l0,-43.200012l-88,0l-88,0l0,52.5zm53.600002,-22.5c4.799999,2.399994 6.899998,6.299988 6.799999,12.5c-0.200001,9 -4.900002,12.799988 -17.100002,14.099976l-7.299999,0.700012l0,7.400024c0,9.599976 -0.899998,11.299988 -6,11.299988l-4,0l0,-24l0,-24l11.700001,0c9.700001,0 12.400002,0.299988 15.900002,2zm51.399998,0.700012c0,4.5 -1.099998,5.199982 -8.5,5.5l-7,0.299988l-0.5,19.5l-0.5,19.5l-4.199997,0.299988l-4.300003,0.299988l-0.199997,-19.799988l-0.300003,-19.799988l-7.199997,-0.299988l-7.300003,-0.300018l0,-3.899994l0,-4l20,0l20,0l0,2.700012zm14.599998,-1.900024c0.900002,0.600006 3.900002,8.300018 11.000008,28.900024c1,2.899963 2.099991,5.299988 2.399994,5.299988c0.400009,0 2.800003,-6.400024 5.5,-14.299988c7.5,-22.100006 6.699997,-20.700012 12.600006,-20.700012c5.899994,0 5.800003,-0.700012 0.300003,12.5c-1.800003,4.399994 -5.400009,13.399994 -7.900009,20c-6.199997,16 -6.399994,16.200012 -11.199997,15.700012l-3.899994,-0.400024l-7.300011,-18.599976c-3.899994,-10.300018 -8.099998,-20.600006 -9.199997,-23c-1,-2.300018 -1.900002,-4.700012 -1.900002,-5.200012c0,-1.200012 8,-1.299988 9.599998,-0.200012z"/>
   <path id="svg_7" d="m37,477l0,6l5.5,0c6,0 9.5,-2.200012 9.5,-6c0,-3.799988 -3.5,-6 -9.5,-6l-5.5,0l0,6z"/>
  </g>
 </g>
</svg>