<?xml version="1.0" standalone="no"?>
<!DOCTYPE svg PUBLIC "-//W3C//DTD SVG 20010904//EN"
 "http://www.w3.org/TR/2001/REC-SVG-20010904/DTD/svg10.dtd">
<svg version="1.0" xmlns="http://www.w3.org/2000/svg"
 width="774.000000pt" height="112.000000pt" viewBox="0 0 774.000000 112.000000"
 preserveAspectRatio="xMidYMid meet">

<g transform="translate(0.000000,112.000000) scale(0.100000,-0.100000)"
fill="#000000" stroke="none">
<path d="M64 1007 c-2 -7 -3 -73 -2 -147 3 -118 5 -135 20 -138 14 -3 18 7 20
65 l3 68 85 0 85 0 3 -68 c2 -58 6 -68 20 -65 15 3 17 20 17 148 0 130 -2 145
-17 148 -16 3 -18 -5 -18 -62 l0 -66 -90 0 -90 0 0 65 c0 52 -3 65 -15 65 -9
0 -18 -6 -21 -13z"/>
<path d="M483 1008 c-11 -15 -123 -270 -123 -280 0 -5 9 -8 19 -8 13 0 24 13
35 40 l16 41 73 -3 72 -3 18 -37 c19 -39 47 -51 46 -20 0 9 -26 75 -58 147
-56 126 -76 151 -98 123z m77 -170 c0 -5 -25 -8 -55 -8 -30 0 -55 4 -55 9 0 5
12 35 26 67 l27 59 28 -60 c15 -33 28 -63 29 -67z"/>
<path d="M697 1008 c-6 -17 -6 -258 0 -275 3 -7 11 -13 19 -13 10 0 14 25 16
108 l3 107 46 -85 c26 -47 52 -85 59 -85 7 0 33 38 59 85 l46 85 3 -107 c2
-87 6 -108 17 -108 13 0 15 25 15 150 0 186 -8 190 -82 50 -29 -55 -55 -100
-58 -100 -3 0 -29 45 -58 100 -49 93 -73 118 -85 88z"/>
<path d="M1054 1007 c-2 -7 -3 -73 -2 -147 3 -119 5 -135 21 -138 15 -3 17 5
17 57 l0 61 64 0 c86 0 116 22 116 86 0 34 -6 51 -25 69 -22 22 -32 25 -105
25 -57 0 -82 -4 -86 -13z m154 -33 c14 -10 22 -26 22 -44 0 -39 -32 -60 -92
-60 l-48 0 0 53 c0 30 3 57 7 60 12 13 89 7 111 -9z"/>
<path d="M1478 1004 c-38 -20 -62 -70 -62 -129 -1 -104 48 -155 145 -155 98 0
99 2 99 87 l0 74 -52 -3 c-61 -3 -71 -21 -15 -26 37 -3 37 -4 37 -46 0 -41 -2
-44 -31 -50 -45 -9 -104 10 -123 39 -24 36 -21 126 4 158 27 34 76 43 125 23
46 -20 55 -20 55 -2 0 42 -123 63 -182 30z"/>
<path d="M1753 1008 c-13 -6 -23 -19 -23 -30 0 -22 -1 -22 45 -2 44 18 80 12
95 -15 15 -30 -3 -65 -76 -147 -36 -40 -63 -78 -59 -84 3 -6 46 -10 101 -10
77 0 94 3 94 15 0 12 -14 15 -65 15 -36 0 -65 3 -65 6 0 3 23 32 50 63 71 82
83 137 42 184 -17 20 -102 23 -139 5z"/>
<path d="M2009 1007 c-47 -36 -52 -105 -10 -148 35 -35 77 -38 115 -8 22 17
26 18 26 4 0 -32 -30 -85 -55 -97 -21 -9 -32 -8 -62 6 -26 13 -39 14 -47 6
-19 -20 30 -50 81 -50 38 0 50 5 78 33 26 26 34 44 40 88 14 111 -28 179 -109
179 -22 0 -48 -6 -57 -13z m91 -27 c26 -14 34 -57 15 -86 -29 -45 -105 -21
-105 34 0 49 46 76 90 52z"/>
<path d="M2253 1008 c-13 -6 -23 -19 -23 -30 0 -22 -1 -22 45 -2 44 18 80 12
95 -15 15 -30 -3 -65 -76 -147 -36 -40 -63 -78 -59 -84 3 -6 46 -10 101 -10
77 0 94 3 94 15 0 12 -14 15 -65 15 -36 0 -65 3 -65 6 0 3 23 32 50 64 74 85
87 160 31 189 -25 14 -99 13 -128 -1z"/>
<path d="M2583 1008 c-11 -15 -123 -270 -123 -280 0 -5 9 -8 19 -8 13 0 24 13
35 40 l16 41 73 -3 72 -3 18 -37 c19 -39 47 -51 46 -20 -1 31 -116 277 -131
280 -8 2 -19 -3 -25 -10z m77 -170 c0 -5 -25 -8 -55 -8 -30 0 -55 4 -55 10 0
5 12 35 26 67 l26 58 29 -60 c15 -33 28 -63 29 -67z"/>
<path d="M3017 1013 c-4 -3 -7 -44 -7 -90 0 -88 6 -97 44 -68 24 18 77 20 94
3 7 -7 12 -27 12 -45 0 -24 -7 -37 -26 -50 -25 -16 -29 -16 -72 -1 -25 9 -49
15 -54 12 -30 -19 33 -54 97 -54 64 0 95 31 95 95 0 35 -6 52 -25 70 -26 27
-72 33 -106 15 -18 -10 -19 -7 -19 40 l0 50 70 0 c56 0 70 3 70 15 0 12 -16
15 -83 15 -46 0 -87 -3 -90 -7z"/>
<path d="M3267 1013 c-4 -3 -7 -44 -7 -90 0 -88 6 -97 44 -68 25 19 80 19 95
1 7 -8 11 -30 9 -48 -4 -48 -45 -66 -100 -44 -61 23 -84 0 -28 -29 47 -24 116
-20 145 10 35 34 35 106 0 140 -26 27 -72 33 -106 15 -18 -10 -19 -7 -19 40
l0 50 70 0 c56 0 70 3 70 15 0 12 -16 15 -83 15 -46 0 -87 -3 -90 -7z"/>
<path d="M3537 1008 c-41 -31 -61 -150 -36 -215 19 -51 48 -73 96 -73 71 0
103 46 103 151 0 68 -19 122 -48 138 -28 15 -94 14 -115 -1z m98 -43 c22 -21
25 -33 25 -95 0 -62 -3 -74 -25 -95 -29 -30 -45 -31 -76 -6 -22 17 -24 27 -24
101 0 74 2 84 24 101 31 25 47 24 76 -6z"/>
<path d="M3888 1000 c-31 -24 -39 -59 -22 -99 11 -25 22 -33 71 -46 75 -21 87
-28 91 -53 2 -14 -6 -27 -23 -38 -26 -17 -46 -16 -132 11 -17 6 -23 3 -23 -9
0 -45 145 -64 194 -25 20 16 26 29 26 58 0 47 -19 66 -85 82 -27 6 -58 16 -67
21 -27 13 -22 55 8 75 26 17 57 13 117 -12 13 -5 17 -2 17 12 0 44 -125 60
-172 23z"/>
<path d="M4640 966 c0 -52 -10 -70 -25 -46 -7 11 -64 14 -90 4 -23 -9 -45 -57
-45 -99 0 -42 22 -90 45 -99 28 -10 80 -7 93 6 10 10 15 10 21 -1 5 -8 16 -11
25 -8 14 6 16 25 14 149 -3 127 -5 143 -20 146 -15 3 -18 -5 -18 -52z m-28
-83 c24 -27 30 -57 18 -89 -29 -74 -110 -52 -110 29 0 67 55 102 92 60z"/>
<path d="M4742 998 c2 -12 10 -23 18 -23 22 0 19 39 -3 43 -15 3 -18 -1 -15
-20z"/>
<path d="M5548 1008 c-7 -18 -7 -228 -1 -261 3 -15 11 -27 19 -27 10 0 14 25
16 108 l3 107 46 -85 c26 -47 52 -85 59 -85 7 0 33 38 59 85 l46 85 3 -107 c2
-87 6 -108 17 -108 13 0 15 25 15 150 0 186 -8 190 -82 50 -29 -55 -55 -100
-58 -100 -3 0 -29 45 -58 100 -49 93 -73 118 -84 88z"/>
<path d="M6120 887 c0 -147 7 -167 63 -167 33 0 35 22 5 35 -22 10 -23 16 -26
138 -2 119 -4 127 -22 127 -19 0 -20 -7 -20 -133z"/>
<path d="M6240 887 c0 -147 7 -167 63 -167 33 0 35 22 5 35 -22 10 -23 16 -26
138 -2 119 -4 127 -22 127 -19 0 -20 -7 -20 -133z"/>
<path d="M6486 1004 c-3 -9 -6 -69 -6 -134 0 -65 3 -125 6 -134 9 -24 126 -21
180 3 52 24 80 86 71 156 -13 91 -61 125 -175 125 -54 0 -71 -3 -76 -16z m171
-40 c27 -17 45 -79 37 -123 -10 -47 -46 -77 -104 -85 -28 -4 -55 -4 -60 -1
-12 7 -14 218 -2 229 10 11 103 -3 129 -20z"/>
<path d="M6942 998 c2 -12 10 -23 18 -23 22 0 19 39 -3 43 -15 3 -18 -1 -15
-20z"/>
<path d="M4130 960 c0 -23 -4 -30 -20 -30 -11 0 -20 -7 -20 -15 0 -8 9 -15 20
-15 18 0 20 -7 20 -68 0 -87 16 -112 71 -112 28 0 39 4 39 15 0 9 -9 15 -23
15 -37 0 -47 19 -47 86 l0 63 33 3 c17 2 32 8 32 13 0 6 -15 11 -32 13 -29 3
-33 7 -33 33 0 22 -5 29 -20 29 -16 0 -20 -7 -20 -30z"/>
<path d="M4292 919 c-27 -10 -24 -36 4 -31 83 15 84 15 93 -9 12 -33 6 -39
-42 -39 -52 0 -87 -23 -87 -56 0 -51 69 -82 121 -54 13 7 19 7 19 0 0 -5 7
-10 15 -10 12 0 15 16 15 88 0 73 -3 92 -18 105 -20 19 -82 22 -120 6z m100
-124 c-8 -44 -56 -61 -82 -30 -18 21 -6 43 27 48 46 7 58 3 55 -18z"/>
<path d="M4740 825 c0 -96 2 -106 18 -103 15 3 17 16 17 103 0 87 -2 100 -17
103 -16 3 -18 -7 -18 -103z"/>
<path d="M4830 848 c0 -103 13 -128 68 -128 20 0 44 4 52 10 9 6 17 5 21 -2 4
-6 14 -8 23 -5 14 6 16 21 14 104 -3 84 -6 98 -20 101 -16 3 -18 -5 -18 -57 0
-76 -12 -109 -45 -117 -42 -10 -54 9 -57 94 -3 64 -6 77 -20 80 -16 3 -18 -6
-18 -80z"/>
<path d="M5070 825 c0 -98 1 -105 20 -105 18 0 20 7 20 73 0 76 15 107 51 107
30 0 39 -24 39 -102 0 -71 2 -78 20 -78 18 0 20 7 20 68 0 73 17 112 49 112
30 0 40 -22 43 -100 2 -62 6 -75 21 -78 15 -3 17 6 17 80 0 102 -14 128 -67
128 -20 0 -44 -7 -53 -15 -15 -14 -18 -14 -30 0 -14 17 -81 20 -97 4 -8 -8
-13 -8 -17 0 -4 6 -14 11 -22 11 -11 0 -14 -20 -14 -105z"/>
<path d="M5922 919 c-27 -10 -24 -36 4 -31 83 15 84 15 93 -9 12 -33 6 -39
-42 -39 -52 0 -87 -23 -87 -56 0 -51 69 -82 121 -54 13 7 19 7 19 0 0 -5 7
-10 15 -10 12 0 15 16 15 88 0 73 -3 92 -18 105 -20 19 -82 22 -120 6z m100
-124 c-8 -44 -56 -61 -82 -30 -18 21 -6 43 27 48 46 7 58 3 55 -18z"/>
<path d="M6790 825 c0 -98 1 -105 20 -105 18 0 20 7 20 74 0 79 6 90 53 101
15 4 27 13 27 21 0 16 -33 18 -60 4 -13 -7 -21 -7 -25 0 -3 5 -13 10 -21 10
-11 0 -14 -20 -14 -105z"/>
<path d="M6940 825 c0 -96 2 -106 18 -103 15 3 17 16 17 103 0 87 -2 100 -17
103 -16 3 -18 -7 -18 -103z"/>
<path d="M7010 917 c0 -7 17 -54 39 -103 53 -124 65 -123 119 2 23 53 39 101
36 105 -14 24 -34 2 -60 -66 -16 -41 -31 -75 -34 -75 -4 0 -19 33 -36 72 -18
46 -35 74 -47 76 -9 2 -17 -3 -17 -11z"/>
<path d="M7269 901 c-24 -24 -29 -38 -29 -76 0 -64 39 -105 100 -105 48 0 80
14 80 36 0 12 -5 14 -17 9 -40 -18 -84 -17 -103 0 -37 33 -25 45 43 45 77 0
92 9 83 46 -19 77 -101 100 -157 45z m111 -20 c18 -35 12 -41 -45 -41 -59 0
-68 10 -38 42 22 24 69 24 83 -1z"/>
<path d="M2797 757 c-3 -8 -1 -20 4 -28 5 -8 6 -21 3 -31 -7 -25 13 -31 26 -8
15 29 9 74 -11 78 -9 2 -19 -3 -22 -11z"/>
<path d="M50 385 c0 -9 21 -76 47 -150 60 -173 67 -174 119 -27 20 59 40 110
43 114 4 4 24 -44 45 -107 29 -91 41 -115 56 -115 10 0 21 8 25 17 17 45 95
272 95 277 0 3 -9 6 -19 6 -16 0 -27 -21 -57 -114 -21 -63 -41 -113 -44 -111
-4 2 -24 54 -45 115 -29 85 -41 110 -54 108 -10 -2 -30 -43 -58 -118 -24 -66
-44 -109 -47 -100 -3 8 -21 60 -39 115 -23 68 -39 101 -50 103 -10 2 -17 -3
-17 -13z"/>
<path d="M1187 393 c-9 -8 -9 -256 -1 -277 5 -13 23 -16 94 -16 78 0 114 9 97
26 -5 6 -68 13 -119 13 l-38 1 0 130 c0 102 -3 130 -13 130 -8 0 -17 -3 -20
-7z"/>
<path d="M1665 375 c-14 -13 -25 -33 -25 -45 0 -13 -7 -20 -20 -20 -11 0 -20
-7 -20 -15 0 -8 9 -15 20 -15 19 0 20 -7 20 -90 0 -83 1 -90 20 -90 19 0 20 7
20 90 l0 90 31 0 c38 0 35 24 -4 28 -43 5 -33 43 16 61 36 14 34 31 -3 31 -19
0 -40 -9 -55 -25z"/>
<path d="M3144 387 c-2 -7 -3 -73 -2 -147 3 -119 5 -135 21 -138 16 -3 17 9
17 147 0 129 -2 151 -15 151 -9 0 -18 -6 -21 -13z"/>
<path d="M3244 387 c-2 -7 -3 -73 -2 -147 3 -119 5 -135 21 -138 15 -3 17 8
17 114 l0 117 86 -114 c50 -67 92 -114 102 -114 15 0 17 15 17 145 0 129 -2
145 -17 148 -15 3 -18 -9 -20 -109 l-3 -113 -84 112 c-79 106 -105 129 -117
99z"/>
<path d="M3720 298 c-39 -56 -69 -109 -68 -118 2 -11 19 -16 71 -18 67 -3 67
-3 67 -32 0 -40 28 -40 36 -1 4 17 14 31 25 34 25 7 24 27 -1 34 -17 5 -20 15
-22 101 -4 133 -16 133 -108 0z m70 -33 l0 -65 -46 0 c-25 0 -44 3 -42 8 6 14
81 122 84 122 2 0 4 -29 4 -65z"/>
<path d="M3907 394 c-16 -16 9 -24 74 -24 40 0 69 -4 69 -10 0 -6 -27 -64 -60
-130 -33 -66 -60 -122 -60 -125 0 -3 9 -5 20 -5 16 0 35 30 90 140 39 78 68
145 65 150 -7 11 -188 14 -198 4z"/>
<path d="M4199 387 c-47 -36 -52 -105 -10 -148 36 -35 77 -38 116 -7 l28 22
-6 -34 c-16 -76 -60 -105 -118 -76 -24 12 -36 13 -43 5 -19 -19 30 -49 81 -49
38 0 50 5 78 33 26 26 34 44 40 88 14 111 -28 179 -109 179 -22 0 -48 -6 -57
-13z m91 -27 c26 -14 34 -57 15 -86 -29 -45 -105 -21 -105 34 0 49 46 76 90
52z"/>
<path d="M4457 388 c-41 -31 -61 -150 -36 -215 19 -51 48 -73 96 -73 34 0 49
6 67 25 55 59 46 233 -12 264 -28 15 -94 14 -115 -1z m98 -43 c22 -21 25 -33
25 -95 0 -62 -3 -74 -25 -95 -29 -30 -45 -31 -76 -6 -22 17 -24 27 -24 101 0
74 2 84 24 101 31 25 47 24 76 -6z"/>
<path d="M4667 394 c-16 -16 10 -24 79 -24 l74 0 -65 -130 c-36 -71 -65 -132
-65 -135 0 -3 9 -5 20 -5 16 0 35 30 90 140 39 78 68 145 65 150 -7 11 -188
14 -198 4z"/>
<path d="M930 340 c0 -23 -4 -30 -20 -30 -11 0 -20 -7 -20 -15 0 -8 9 -15 20
-15 18 0 20 -7 20 -68 0 -87 16 -112 71 -112 28 0 39 4 39 15 0 9 -9 15 -23
15 -37 0 -47 19 -47 86 l0 63 33 3 c17 2 32 8 32 13 0 6 -15 11 -32 13 -29 3
-33 7 -33 33 0 22 -5 29 -20 29 -16 0 -20 -7 -20 -30z"/>
<path d="M2430 340 c0 -23 -4 -30 -20 -30 -11 0 -20 -7 -20 -15 0 -8 9 -15 20
-15 18 0 20 -7 20 -68 0 -87 16 -112 71 -112 28 0 39 4 39 15 0 9 -9 15 -23
15 -37 0 -47 19 -47 87 l0 63 50 0 50 0 0 -68 c0 -87 16 -112 71 -112 28 0 39
4 39 15 0 9 -9 15 -23 15 -37 0 -47 19 -47 86 l0 63 33 3 c17 2 32 8 32 13 0
6 -15 11 -32 13 -29 3 -33 7 -33 33 0 22 -5 29 -20 29 -16 0 -20 -7 -20 -30 0
-29 -1 -30 -50 -30 -49 0 -50 1 -50 30 0 23 -4 30 -20 30 -16 0 -20 -7 -20
-30z"/>
<path d="M519 281 c-24 -24 -29 -38 -29 -76 0 -64 39 -105 100 -105 48 0 80
14 80 36 0 12 -5 14 -17 9 -40 -18 -84 -17 -103 0 -37 33 -25 45 43 45 77 0
92 9 83 46 -19 77 -101 100 -157 45z m111 -20 c18 -35 12 -41 -45 -41 -59 0
-68 10 -38 42 22 24 69 24 83 -1z"/>
<path d="M731 283 c-14 -17 -19 -33 -15 -47 8 -27 19 -34 72 -47 49 -13 59
-24 41 -45 -13 -16 -65 -16 -101 0 -13 6 -18 4 -18 -8 0 -22 32 -36 83 -36 50
0 77 22 77 62 0 32 -13 43 -67 57 -48 13 -60 26 -43 46 14 17 53 19 80 5 13
-7 21 -7 26 1 11 19 -26 39 -72 39 -34 0 -47 -5 -63 -27z"/>
<path d="M1432 299 c-27 -10 -24 -36 4 -31 83 15 84 15 93 -9 12 -33 6 -39
-42 -39 -52 0 -87 -23 -87 -56 0 -51 69 -82 121 -54 13 7 19 7 19 0 0 -5 7
-10 15 -10 12 0 15 16 15 88 0 73 -3 92 -18 105 -20 19 -82 22 -120 6z m100
-124 c-6 -30 -22 -45 -47 -45 -48 0 -59 54 -13 63 45 9 63 3 60 -18z"/>
<path d="M1792 299 c-27 -10 -24 -36 4 -31 83 15 84 15 93 -9 12 -33 6 -39
-42 -39 -52 0 -87 -23 -87 -56 0 -51 69 -82 121 -54 13 7 19 7 19 0 0 -5 7
-10 15 -10 12 0 15 16 15 88 0 73 -3 92 -18 105 -20 19 -82 22 -120 6z m100
-124 c-8 -44 -56 -61 -82 -30 -18 21 -6 43 27 48 46 7 58 3 55 -18z"/>
<path d="M1972 288 c3 -12 21 -58 39 -101 31 -72 32 -80 20 -113 -9 -26 -10
-39 -2 -47 7 -7 14 -7 20 -2 17 17 121 267 115 276 -14 24 -34 2 -60 -66 -16
-41 -31 -75 -34 -75 -4 0 -19 33 -36 72 -19 49 -35 74 -48 76 -15 3 -18 -1
-14 -20z"/>
<path d="M2219 281 c-24 -24 -29 -38 -29 -76 0 -64 39 -105 100 -105 48 0 80
14 80 36 0 12 -5 14 -17 9 -40 -18 -84 -17 -103 0 -37 33 -25 45 43 45 77 0
92 9 83 46 -19 77 -101 100 -157 45z m111 -20 c18 -35 12 -41 -45 -41 -59 0
-68 10 -38 42 22 24 69 24 83 -1z"/>
<path d="M2729 281 c-24 -24 -29 -38 -29 -76 0 -64 39 -105 100 -105 48 0 80
14 80 36 0 12 -5 14 -17 9 -40 -18 -84 -17 -103 0 -37 33 -25 45 43 45 77 0
92 9 83 46 -19 77 -101 100 -157 45z m111 -20 c18 -35 12 -41 -45 -41 -59 0
-68 10 -38 42 22 24 69 24 83 -1z"/>
<path d="M2927 137 c-3 -8 -1 -20 4 -28 5 -8 6 -21 3 -31 -7 -25 13 -31 26 -8
15 29 9 74 -11 78 -9 2 -19 -3 -22 -11z"/>
<path d="M4918 138 c-8 -21 2 -38 24 -38 14 0 19 6 16 22 -3 25 -33 36 -40 16z"/>
</g>
</svg>
