<?xml version="1.0" standalone="no"?>
<!DOCTYPE svg PUBLIC "-//W3C//DTD SVG 20010904//EN"
 "http://www.w3.org/TR/2001/REC-SVG-20010904/DTD/svg10.dtd">
<svg version="1.0" xmlns="http://www.w3.org/2000/svg"
 width="592.000000pt" height="206.000000pt" viewBox="0 0 592.000000 206.000000"
 preserveAspectRatio="xMidYMid meet">

<g transform="translate(0.000000,206.000000) scale(0.100000,-0.100000)"
fill="#000000" stroke="none">
<path d="M127 1904 c-4 -4 -7 -83 -7 -176 0 -161 1 -168 20 -168 18 0 20 7 20
75 l0 75 100 0 99 0 3 -72 c3 -65 5 -73 23 -73 19 0 20 8 23 161 2 132 0 163
-12 173 -26 22 -36 2 -36 -75 l0 -75 -97 3 -98 3 -5 74 c-5 68 -15 92 -33 75z"/>
<path d="M613 1902 c-16 -10 -153 -323 -147 -334 13 -20 37 -4 55 37 l20 45
84 0 84 0 20 -45 c18 -41 42 -57 55 -37 6 11 -136 334 -149 339 -5 1 -16 -1
-22 -5z m76 -209 c1 -9 -18 -13 -64 -13 -36 0 -65 4 -65 9 0 4 15 41 32 81
l32 73 33 -69 c17 -38 32 -75 32 -81z"/>
<path d="M847 1903 c-4 -3 -7 -82 -7 -175 0 -160 1 -168 20 -168 18 0 20 8 22
123 l3 122 53 -98 c37 -67 59 -97 69 -95 9 2 39 46 67 98 l51 95 3 -122 c2
-115 4 -123 23 -123 19 0 19 6 17 173 -3 145 -5 172 -18 172 -9 0 -40 -46 -76
-113 -34 -62 -64 -115 -66 -118 -3 -3 -27 37 -53 88 -69 134 -89 160 -108 141z"/>
<path d="M1743 1891 c-55 -26 -83 -78 -83 -158 0 -114 57 -173 166 -173 34 0
74 4 88 10 25 9 26 13 26 90 l0 80 -60 0 c-46 0 -60 -3 -60 -15 0 -15 35 -29
61 -23 19 4 26 -81 7 -93 -21 -14 -97 -10 -127 6 -35 18 -56 67 -55 126 2 55
15 83 50 106 31 20 101 20 141 -1 31 -16 43 -13 43 11 0 19 -77 53 -120 53
-19 0 -54 -9 -77 -19z"/>
<path d="M2053 1890 c-24 -10 -43 -26 -43 -35 0 -19 11 -19 70 2 45 16 49 16
74 0 28 -19 34 -53 14 -90 -6 -12 -42 -57 -81 -99 -91 -102 -89 -108 48 -108
98 0 105 1 105 20 0 17 -8 19 -76 22 l-77 3 60 66 c93 102 106 179 40 220 -40
24 -80 24 -134 -1z"/>
<path d="M2344 1891 c-60 -36 -69 -127 -19 -177 31 -31 101 -33 137 -4 l25 19
-7 -39 c-7 -37 -22 -66 -45 -82 -17 -13 -65 -9 -97 8 -25 13 -32 14 -39 2 -16
-24 36 -58 87 -58 92 0 134 47 142 161 6 88 -21 153 -72 174 -47 20 -75 19
-112 -4z m103 -43 c46 -43 20 -118 -40 -118 -63 0 -90 70 -45 117 27 29 55 29
85 1z"/>
<path d="M2633 1890 c-24 -10 -43 -26 -43 -35 0 -19 11 -19 70 2 45 16 49 16
74 0 28 -19 34 -53 14 -90 -6 -12 -42 -57 -81 -99 -91 -102 -89 -108 48 -108
98 0 105 1 105 20 0 17 -8 19 -76 22 l-77 3 61 67 c94 103 105 183 31 220 -44
23 -74 22 -126 -2z"/>
<path d="M3013 1902 c-16 -10 -153 -323 -147 -334 13 -20 37 -4 55 37 l20 45
84 0 84 0 20 -45 c18 -41 42 -57 55 -37 6 11 -136 334 -149 339 -5 1 -16 -1
-22 -5z m76 -209 c1 -9 -18 -13 -64 -13 -36 0 -65 4 -65 9 0 4 15 41 32 81
l32 73 33 -69 c17 -38 32 -75 32 -81z"/>
<path d="M1250 1730 c0 -162 1 -170 20 -170 17 0 19 8 22 68 2 51 7 67 18 68
8 1 41 2 73 3 51 1 63 5 88 30 23 23 29 38 29 71 0 33 -6 48 -29 71 -28 28
-33 29 -125 29 l-96 0 0 -170z m153 129 c46 -13 64 -47 45 -87 -15 -29 -60
-45 -116 -40 l-37 3 -3 54 c-2 29 -1 60 2 67 6 17 56 18 109 3z"/>
<path d="M3253 1613 c-15 -6 -17 -39 -3 -48 7 -4 7 -12 0 -25 -13 -25 -13 -30
5 -30 19 0 35 31 35 68 0 30 -14 43 -37 35z"/>
<path d="M752 1175 c-45 -20 -66 -70 -66 -165 0 -115 38 -170 119 -170 80 0
116 54 116 176 0 91 -21 141 -67 160 -41 17 -60 17 -102 -1z m94 -48 c24 -21
27 -32 31 -98 6 -98 -15 -143 -68 -147 -50 -4 -72 23 -77 98 -6 78 4 125 30
150 28 26 51 25 84 -3z"/>
<path d="M1093 1175 c-5 -14 22 -98 89 -282 14 -38 25 -53 38 -53 19 0 19 1
85 183 15 43 29 76 31 75 1 -2 23 -60 47 -128 35 -100 48 -126 64 -128 21 -3
18 -10 121 280 12 36 14 50 5 59 -6 6 -16 9 -21 5 -5 -3 -29 -61 -52 -128 -24
-68 -46 -126 -50 -130 -3 -5 -25 48 -49 117 -43 125 -57 150 -77 137 -6 -4
-31 -65 -56 -136 -25 -71 -47 -125 -50 -120 -3 5 -20 54 -38 109 -48 147 -70
182 -87 140z"/>
<path d="M1823 1179 c-69 -21 -96 -106 -50 -153 14 -14 47 -29 78 -35 92 -20
123 -56 81 -94 -24 -22 -103 -22 -143 -2 -16 9 -34 13 -39 10 -37 -23 36 -65
113 -65 67 0 108 18 125 55 30 65 2 102 -98 130 -84 23 -107 45 -87 84 17 35
65 45 119 26 54 -18 68 -19 68 -1 0 37 -104 65 -167 45z"/>
<path d="M2647 1183 c-4 -3 -7 -36 -7 -71 0 -62 -1 -64 -18 -49 -21 19 -83 22
-114 6 -62 -33 -62 -185 1 -219 24 -12 91 -13 111 0 9 5 19 5 27 -2 7 -5 20
-8 28 -4 12 4 15 32 15 164 0 109 -4 162 -12 170 -14 14 -22 15 -31 5z m-22
-166 c24 -34 19 -94 -10 -122 -30 -31 -47 -31 -80 -2 -20 17 -26 31 -27 65 0
45 14 70 46 82 28 10 54 1 71 -23z"/>
<path d="M3792 1182 c-14 -10 -152 -324 -146 -334 13 -20 37 -4 55 37 l20 45
84 0 84 0 20 -46 c15 -33 25 -45 38 -42 24 5 23 9 -54 185 -63 147 -78 169
-101 155z m77 -209 c1 -9 -18 -13 -64 -13 -36 0 -65 4 -65 9 0 4 15 41 32 81
l32 73 33 -69 c17 -38 32 -75 32 -81z"/>
<path d="M130 1080 c0 -87 2 -100 17 -100 9 0 24 6 32 14 48 44 121 15 121
-48 0 -61 -64 -85 -131 -51 -31 17 -49 13 -49 -10 0 -37 118 -59 174 -34 58
27 71 128 23 177 -26 25 -82 34 -124 19 -22 -8 -23 -6 -23 42 l0 51 64 0 c73
0 96 6 96 26 0 11 -21 14 -100 14 l-100 0 0 -100z"/>
<path d="M420 1080 c0 -87 2 -100 17 -100 9 0 24 6 32 14 48 44 121 15 121
-48 0 -61 -57 -83 -133 -51 -46 19 -47 19 -47 -5 0 -41 113 -66 174 -39 34 16
60 72 52 117 -11 70 -80 105 -153 79 -22 -8 -23 -6 -23 42 l0 51 64 0 c73 0
96 6 96 26 0 11 -21 14 -100 14 l-100 0 0 -100z"/>
<path d="M2752 1158 c2 -15 10 -23 23 -23 13 0 21 8 23 23 3 18 -1 22 -23 22
-22 0 -26 -4 -23 -22z"/>
<path d="M2056 1134 c-3 -9 -6 -24 -6 -35 0 -12 -7 -19 -20 -19 -25 0 -27 -30
-1 -37 15 -4 19 -18 24 -85 6 -98 21 -118 84 -118 36 0 43 3 43 20 0 15 -7 20
-28 20 -42 0 -52 17 -52 91 l0 68 38 3 c25 2 37 8 37 18 0 10 -12 16 -37 18
-36 3 -38 5 -38 38 0 27 -4 34 -19 34 -10 0 -22 -7 -25 -16z"/>
<path d="M2243 1070 c-24 -10 -32 -40 -10 -40 6 0 28 4 47 10 40 11 80 -8 80
-39 0 -16 -10 -19 -61 -23 -49 -4 -66 -9 -80 -27 -26 -31 -24 -57 6 -86 27
-28 91 -35 114 -12 11 10 14 10 18 0 3 -7 13 -13 24 -13 17 0 19 8 19 94 0 79
-3 97 -21 120 -17 22 -28 26 -67 25 -26 0 -57 -4 -69 -9z m117 -134 c0 -8 -11
-27 -24 -43 -21 -24 -27 -26 -52 -18 -34 12 -43 43 -18 62 25 18 94 17 94 -1z"/>
<path d="M2755 1058 c-3 -13 -5 -66 -3 -118 3 -87 5 -95 23 -95 19 0 20 7 20
115 0 100 -2 115 -17 118 -11 2 -19 -5 -23 -20z"/>
<path d="M2864 1066 c-3 -9 -4 -54 -3 -100 5 -103 20 -126 83 -126 23 0 48 4
56 10 9 5 19 5 27 -2 7 -5 20 -8 28 -4 12 4 15 26 15 108 0 108 -8 135 -34
125 -13 -5 -16 -22 -16 -85 0 -90 -14 -112 -68 -112 -37 0 -41 9 -44 120 -3
62 -6 75 -21 78 -9 2 -20 -4 -23 -12z"/>
<path d="M3136 1064 c-9 -24 -7 -197 3 -213 5 -8 16 -11 25 -8 13 5 16 22 16
85 0 90 16 116 67 110 l28 -3 5 -95 c5 -87 7 -95 25 -95 18 0 20 8 23 80 3 89
17 115 63 115 34 0 38 -11 41 -120 3 -67 5 -75 23 -75 19 0 20 7 20 96 0 81
-3 100 -19 118 -23 26 -81 28 -114 5 -21 -15 -25 -15 -41 0 -20 18 -73 21
-101 6 -13 -7 -21 -7 -25 0 -9 15 -32 12 -39 -6z"/>
<path d="M3980 1068 c0 -7 21 -61 46 -120 46 -108 66 -128 91 -95 25 32 93
211 84 220 -19 19 -37 -2 -70 -87 -19 -47 -36 -84 -38 -82 -2 1 -19 41 -37 87
-26 64 -39 85 -55 87 -12 2 -21 -2 -21 -10z"/>
<path d="M4268 1051 c-31 -27 -33 -34 -33 -91 0 -57 2 -64 33 -91 25 -23 42
-29 77 -29 49 0 95 17 95 35 0 21 -11 23 -47 9 -51 -22 -113 5 -113 48 0 16 9
18 79 18 44 0 83 4 86 10 11 18 -15 88 -40 104 -40 26 -99 21 -137 -13z m114
-18 c38 -45 32 -53 -37 -53 -72 0 -83 12 -45 50 25 25 62 26 82 3z"/>
<path d="M4513 893 c-15 -6 -17 -39 -3 -48 7 -4 7 -12 0 -25 -7 -13 -7 -21 1
-26 17 -10 39 25 39 62 0 32 -14 45 -37 37z"/>
<path d="M104 455 c-3 -8 17 -79 44 -157 66 -187 61 -178 82 -178 19 0 20 1
85 183 15 43 29 76 31 75 1 -2 23 -60 47 -128 35 -100 48 -126 64 -128 21 -3
17 -13 120 281 13 34 14 50 6 58 -6 6 -16 9 -21 5 -5 -3 -29 -61 -52 -128 -24
-68 -46 -126 -50 -130 -3 -5 -25 48 -49 117 -43 124 -58 150 -77 137 -6 -4
-30 -64 -55 -134 -24 -70 -47 -124 -50 -120 -4 4 -21 52 -39 107 -48 146 -70
182 -86 140z"/>
<path d="M1412 461 c-9 -6 -12 -50 -10 -172 l3 -164 105 0 c87 0 105 3 105 15
0 12 -18 16 -87 18 l-88 3 0 149 c0 82 -4 151 -8 154 -4 2 -13 1 -20 -3z"/>
<path d="M1983 459 c-36 -11 -63 -43 -63 -76 0 -15 -7 -23 -22 -25 -13 -2 -23
-10 -23 -18 0 -8 10 -16 23 -18 21 -3 22 -7 22 -103 0 -92 1 -99 20 -99 19 0
20 7 20 99 l0 100 33 3 c20 2 32 8 32 18 0 10 -12 16 -32 18 -18 2 -33 8 -33
13 0 23 22 48 51 58 17 6 29 16 27 23 -6 16 -17 18 -55 7z"/>
<path d="M3767 464 c-4 -4 -7 -83 -7 -176 0 -162 1 -168 20 -168 20 0 20 5 18
172 -3 161 -9 194 -31 172z"/>
<path d="M3887 463 c-4 -3 -7 -82 -7 -175 0 -161 1 -168 20 -168 18 0 20 8 22
130 l3 130 98 -130 c68 -91 103 -130 115 -128 15 3 17 22 20 162 3 163 -4 200
-34 175 -10 -8 -14 -46 -16 -130 l-3 -119 -98 130 c-94 125 -106 138 -120 123z"/>
<path d="M4578 453 c-51 -61 -160 -233 -155 -247 5 -13 22 -16 82 -16 l75 0 0
-35 c0 -28 4 -35 20 -35 16 0 20 7 20 34 0 30 3 35 28 38 36 4 36 32 0 36
l-27 3 -3 116 c-3 119 -11 140 -40 106z m2 -148 l0 -75 -50 0 c-27 0 -50 3
-50 7 0 7 92 143 97 143 2 0 3 -34 3 -75z"/>
<path d="M5054 451 c-60 -36 -69 -127 -19 -177 31 -31 101 -33 138 -4 27 22
27 25 12 -42 -12 -61 -86 -88 -141 -51 -22 14 -27 14 -35 2 -15 -24 38 -59 89
-59 90 0 132 48 140 161 6 88 -21 153 -72 174 -47 20 -75 19 -112 -4z m103
-43 c46 -43 20 -118 -40 -118 -63 0 -90 70 -45 117 27 29 55 29 85 1z"/>
<path d="M5363 455 c-48 -20 -66 -66 -67 -160 0 -121 37 -175 120 -175 80 0
117 57 116 181 -1 86 -23 136 -68 155 -41 17 -60 17 -101 -1z m93 -48 c24 -21
27 -32 31 -98 6 -98 -15 -143 -68 -147 -50 -4 -72 23 -77 98 -6 76 4 126 29
151 25 25 52 24 85 -4z"/>
<path d="M5653 450 c-48 -29 -65 -62 -71 -140 -9 -126 34 -190 126 -190 75 0
122 69 101 146 -11 38 -57 74 -97 74 -27 0 -62 -17 -80 -39 -11 -14 -12 -10
-7 24 14 84 60 117 130 91 51 -20 55 -20 55 2 0 21 -58 52 -98 52 -15 0 -41
-9 -59 -20z m91 -171 c50 -39 24 -119 -38 -119 -64 0 -92 74 -46 120 26 26 51
25 84 -1z"/>
<path d="M4722 443 c3 -15 17 -18 86 -21 46 -2 82 -6 80 -10 -2 -4 -33 -67
-70 -139 -38 -72 -68 -136 -68 -142 0 -6 9 -11 19 -11 15 0 39 37 100 154 45
85 81 161 81 170 0 14 -17 16 -116 16 -105 0 -115 -2 -112 -17z"/>
<path d="M1104 395 c-4 -25 -11 -35 -25 -35 -25 0 -25 -30 0 -37 15 -4 19 -18
24 -85 6 -98 21 -118 84 -118 36 0 43 3 43 20 0 15 -7 20 -28 20 -42 0 -52 17
-52 91 l0 68 38 3 c25 2 37 8 37 18 0 10 -12 16 -37 18 -36 3 -38 5 -38 38 0
27 -4 34 -20 34 -14 0 -21 -9 -26 -35z"/>
<path d="M2826 414 c-3 -9 -6 -24 -6 -35 0 -12 -7 -19 -20 -19 -25 0 -27 -30
-1 -37 15 -4 19 -18 24 -85 6 -98 21 -118 84 -118 36 0 43 3 43 20 0 15 -7 20
-28 20 -43 0 -52 17 -52 92 l0 68 54 0 53 0 6 -81 c6 -99 21 -119 84 -119 36
0 43 3 43 20 0 15 -7 20 -28 20 -42 0 -52 17 -52 91 l0 68 38 3 c25 2 37 8 37
18 0 10 -12 16 -37 18 -36 3 -38 5 -38 38 0 27 -4 34 -19 34 -20 0 -31 -18
-31 -51 0 -16 -7 -19 -55 -19 l-55 0 0 35 c0 28 -4 35 -19 35 -10 0 -22 -7
-25 -16z"/>
<path d="M638 331 c-31 -27 -33 -34 -33 -91 0 -57 2 -64 33 -91 25 -23 42 -29
77 -29 49 0 95 17 95 35 0 21 -11 23 -47 9 -51 -22 -113 5 -113 48 0 16 9 18
79 18 44 0 83 4 86 10 11 18 -15 88 -40 104 -40 26 -99 21 -137 -13z m114 -18
c38 -45 32 -53 -43 -53 l-70 0 16 29 c22 44 70 55 97 24z"/>
<path d="M890 340 c-25 -25 -26 -72 -2 -93 10 -9 34 -20 53 -23 71 -14 92 -44
44 -66 -19 -8 -35 -8 -64 0 -50 15 -61 15 -61 -1 0 -21 45 -37 100 -37 59 0
90 24 90 70 0 34 -25 54 -80 65 -61 13 -79 44 -39 66 17 8 32 8 62 -1 49 -14
70 0 36 24 -34 23 -114 21 -139 -4z"/>
<path d="M1683 350 c-24 -10 -32 -40 -10 -40 6 0 28 4 47 10 40 11 80 -8 80
-39 0 -16 -10 -19 -61 -23 -49 -4 -66 -9 -80 -27 -26 -31 -24 -57 6 -86 27
-28 91 -35 114 -12 11 9 14 10 18 0 3 -7 13 -13 24 -13 17 0 19 8 19 94 0 79
-3 97 -21 120 -17 22 -28 26 -67 25 -26 0 -57 -4 -69 -9z m117 -134 c0 -8 -11
-27 -24 -43 -21 -24 -27 -26 -52 -18 -34 12 -43 43 -18 62 25 18 94 17 94 -1z"/>
<path d="M2093 350 c-24 -10 -32 -40 -10 -40 6 0 28 4 47 10 40 11 80 -8 80
-39 0 -16 -10 -19 -60 -23 -65 -5 -85 -17 -95 -60 -10 -39 31 -78 83 -78 21 0
44 6 51 13 11 9 14 10 18 0 3 -7 13 -13 24 -13 17 0 19 8 19 98 0 90 -2 100
-23 120 -25 24 -91 29 -134 12z m117 -134 c0 -8 -11 -27 -24 -43 -21 -24 -27
-26 -52 -18 -34 12 -43 43 -18 62 25 18 94 17 94 -1z"/>
<path d="M2290 347 c0 -8 20 -60 45 -116 l44 -102 -16 -40 c-12 -30 -13 -43
-4 -52 18 -18 34 7 100 162 40 93 58 148 52 154 -19 19 -37 -2 -70 -87 -19
-47 -36 -84 -38 -82 -2 1 -19 41 -37 87 -26 64 -39 85 -55 87 -13 2 -21 -2
-21 -11z"/>
<path d="M2578 331 c-31 -27 -33 -34 -33 -91 0 -57 2 -64 33 -91 25 -23 42
-29 77 -29 49 0 95 17 95 35 0 21 -11 23 -47 9 -51 -22 -113 5 -113 48 0 16 9
18 79 18 44 0 83 4 86 10 11 18 -15 88 -40 104 -40 26 -99 21 -137 -13z m114
-18 c38 -45 32 -53 -43 -53 l-70 0 16 29 c22 44 70 55 97 24z"/>
<path d="M3168 331 c-31 -27 -33 -34 -33 -91 0 -57 2 -64 33 -91 25 -23 42
-29 77 -29 49 0 95 17 95 35 0 21 -11 23 -47 9 -51 -22 -113 5 -113 48 0 16 9
18 79 18 44 0 83 4 86 10 11 18 -15 88 -40 104 -40 26 -99 21 -137 -13z m114
-18 c38 -45 32 -53 -43 -53 l-70 0 16 29 c22 44 70 55 97 24z"/>
<path d="M4235 260 c-13 -21 8 -30 71 -30 57 0 64 2 64 20 0 18 -7 20 -64 20
-36 0 -68 -4 -71 -10z"/>
<path d="M3533 173 c-15 -6 -17 -39 -3 -48 7 -4 7 -12 0 -25 -13 -25 -13 -30
5 -30 19 0 35 31 35 68 0 30 -14 43 -37 35z"/>
</g>
</svg>
