<?xml version="1.0" standalone="no"?>
<!DOCTYPE svg PUBLIC "-//W3C//DTD SVG 20010904//EN"
 "http://www.w3.org/TR/2001/REC-SVG-20010904/DTD/svg10.dtd">
<svg version="1.0" xmlns="http://www.w3.org/2000/svg"
 width="776.000000pt" height="63.000000pt" viewBox="0 0 776.000000 63.000000"
 preserveAspectRatio="xMidYMid meet">

<g transform="translate(0.000000,63.000000) scale(0.100000,-0.100000)"
fill="#000000" stroke="none">
<path d="M70 436 c-7 -9 -10 -72 -8 -187 3 -172 3 -174 26 -177 21 -3 22 -1
22 82 l0 86 105 0 105 0 0 -69 c0 -82 6 -101 31 -101 18 0 19 10 19 184 0 129
-4 187 -12 192 -22 14 -38 -28 -38 -98 l0 -68 -105 0 -105 0 0 79 c0 59 -4 80
-14 84 -8 3 -19 0 -26 -7z"/>
<path d="M2803 439 c-17 -5 -41 -21 -52 -35 -19 -24 -21 -40 -21 -180 0 -147
1 -154 20 -154 19 0 20 7 20 123 0 150 10 190 49 207 22 9 35 9 50 0 29 -15
26 -32 -14 -80 -56 -67 -45 -99 48 -139 26 -11 47 -26 47 -34 0 -35 -54 -48
-105 -25 -20 9 -28 9 -38 -1 -22 -23 27 -51 90 -51 44 0 58 5 78 25 45 44 26
94 -46 124 -63 26 -70 44 -31 84 53 56 54 105 2 132 -32 17 -50 17 -97 4z"/>
<path d="M3531 414 c-28 -19 -51 -39 -51 -45 0 -18 30 -21 55 -5 13 9 27 16
30 16 3 0 4 -60 3 -132 l-3 -133 -43 -3 c-34 -3 -43 -7 -40 -20 3 -14 19 -17
106 -20 65 -2 102 1 102 8 0 5 0 13 0 18 1 4 -16 9 -37 12 l-38 5 -3 162 c-2
124 -6 162 -16 166 -7 3 -37 -10 -65 -29z"/>
<path d="M4100 437 c-95 -33 -115 -266 -29 -346 25 -23 104 -30 140 -11 31 17
58 83 64 157 12 150 -66 239 -175 200z m103 -68 c25 -35 34 -139 15 -194 -23
-70 -101 -87 -131 -27 -34 65 -31 182 5 228 27 34 82 30 111 -7z"/>
<path d="M4411 414 c-28 -19 -51 -39 -51 -45 0 -18 30 -21 55 -5 13 9 27 16
30 16 3 0 4 -60 3 -132 l-3 -133 -43 -3 c-34 -3 -43 -7 -40 -20 3 -14 19 -17
106 -20 65 -2 102 1 102 8 0 5 0 13 0 18 1 4 -16 9 -37 12 l-38 5 -3 162 c-2
124 -6 162 -16 166 -7 3 -37 -10 -65 -29z"/>
<path d="M4720 437 c-27 -9 -41 -23 -59 -60 -44 -89 -25 -252 34 -291 14 -9
46 -16 76 -16 44 0 55 4 80 31 15 17 32 47 36 67 13 58 7 164 -10 204 -26 62
-90 89 -157 65z m103 -68 c25 -35 34 -139 15 -194 -23 -70 -101 -87 -131 -27
-34 65 -31 182 5 228 27 34 82 30 111 -7z"/>
<path d="M5053 439 c-68 -20 -109 -107 -100 -214 8 -108 51 -155 140 -155 54
0 91 26 107 76 39 117 -89 211 -177 131 l-23 -20 0 26 c0 95 82 146 161 100
26 -15 31 -16 39 -3 12 19 -5 39 -47 57 -36 15 -54 15 -100 2z m86 -205 c12
-15 21 -37 21 -49 0 -36 -37 -75 -71 -75 -37 0 -79 39 -79 73 0 69 88 104 129
51z"/>
<path d="M5335 436 c-37 -16 -53 -35 -65 -77 -13 -44 4 -103 37 -128 35 -28
101 -28 137 0 l26 20 0 -26 c0 -87 -80 -140 -150 -100 -35 20 -50 18 -50 -5 0
-27 49 -50 109 -50 96 0 148 79 139 214 -5 78 -21 114 -61 140 -34 22 -88 28
-122 12z m102 -58 c31 -29 30 -72 -2 -103 -31 -32 -69 -32 -100 0 -69 68 31
170 102 103z"/>
<path d="M5727 433 c-10 -10 -8 -336 2 -352 7 -10 30 -13 103 -9 151 6 202 53
202 183 1 133 -60 185 -214 185 -48 0 -90 -3 -93 -7z m188 -47 c44 -19 69 -67
68 -132 -1 -95 -56 -144 -163 -144 l-50 0 0 145 0 145 55 0 c31 0 71 -6 90
-14z"/>
<path d="M7000 370 l0 -71 -22 15 c-12 9 -42 16 -66 16 -77 0 -125 -74 -107
-167 10 -55 54 -93 107 -93 24 0 54 7 66 16 20 14 22 14 22 -1 0 -11 7 -15 23
-13 22 3 22 4 22 183 0 179 0 180 -22 183 -22 3 -23 0 -23 -68z m-24 -101 c13
-15 19 -36 19 -69 0 -60 -24 -90 -71 -90 -42 0 -74 38 -74 90 0 77 79 121 126
69z"/>
<path d="M747 403 c-4 -3 -7 -21 -7 -40 0 -29 -3 -33 -25 -33 -18 0 -25 -5
-25 -20 0 -15 7 -20 25 -20 25 0 25 -1 25 -84 0 -70 3 -88 21 -110 18 -23 27
-27 68 -24 34 2 47 7 49 21 3 13 -4 17 -30 17 -50 0 -58 14 -58 101 l0 77 38
3 c20 2 49 3 65 1 l27 -3 0 -83 c0 -70 3 -88 21 -110 18 -23 27 -27 68 -24 34
2 47 7 49 21 3 13 -4 17 -30 17 -50 0 -58 14 -58 101 l0 78 38 3 c25 2 37 8
37 18 0 10 -12 16 -37 18 -34 3 -38 6 -38 30 0 36 -14 56 -34 49 -10 -4 -16
-18 -16 -41 0 -30 -3 -35 -27 -38 -16 -2 -45 -1 -65 1 -32 3 -38 7 -38 26 0
45 -22 70 -43 48z"/>
<path d="M2107 403 c-4 -3 -7 -21 -7 -40 0 -29 -3 -33 -25 -33 -18 0 -25 -5
-25 -20 0 -15 7 -20 25 -20 25 0 25 -1 25 -84 0 -70 3 -88 21 -110 18 -23 27
-27 68 -24 34 2 47 7 49 21 3 13 -4 17 -30 17 -50 0 -58 14 -58 101 l0 78 38
3 c25 2 37 8 37 18 0 10 -12 16 -37 18 -32 3 -38 7 -38 27 0 45 -22 70 -43 48z"/>
<path d="M499 315 c-32 -17 -59 -71 -59 -115 0 -45 28 -98 61 -115 58 -31 169
-12 169 28 0 16 -4 18 -22 12 -13 -4 -44 -10 -69 -12 -41 -4 -49 -2 -68 22
-38 49 -30 55 68 55 50 0 93 4 96 10 11 18 -15 89 -42 109 -30 25 -95 27 -134
6z m123 -48 c4 -7 8 -20 8 -29 0 -16 -10 -18 -70 -18 -38 0 -70 3 -70 8 0 16
33 54 54 61 23 9 66 -3 78 -22z"/>
<path d="M1090 200 c0 -121 1 -130 19 -130 16 0 19 10 23 91 4 81 7 94 27 110
26 22 76 25 88 7 4 -7 10 -56 13 -108 5 -90 6 -95 28 -98 l24 -4 -4 112 c-3
103 -5 113 -27 131 -29 23 -98 25 -129 3 -20 -14 -22 -14 -22 0 0 9 -9 16 -20
16 -19 0 -20 -7 -20 -130z"/>
<path d="M1429 315 c-32 -17 -59 -71 -59 -115 0 -45 28 -98 61 -115 58 -31
169 -12 169 28 0 16 -4 18 -22 12 -13 -4 -44 -10 -69 -12 -41 -4 -49 -2 -68
22 -38 49 -30 55 68 55 50 0 93 4 96 10 11 18 -15 89 -42 109 -30 25 -95 27
-134 6z m123 -48 c4 -7 8 -20 8 -29 0 -16 -10 -18 -70 -18 -38 0 -70 2 -70 5
0 20 28 56 49 63 28 10 70 -1 83 -21z"/>
<path d="M1660 200 c0 -123 1 -130 20 -130 12 0 20 7 21 18 4 110 7 140 12
158 7 21 45 44 71 44 15 0 28 24 19 34 -12 11 -59 6 -81 -10 -20 -14 -22 -14
-22 0 0 9 -9 16 -20 16 -19 0 -20 -7 -20 -130z"/>
<path d="M1865 305 c-45 -44 -23 -106 42 -121 68 -14 78 -20 78 -44 0 -32 -36
-41 -95 -24 -56 17 -77 3 -41 -27 17 -14 39 -19 83 -19 49 0 63 4 83 25 30 29
32 65 6 89 -10 9 -42 24 -72 34 -46 15 -54 21 -54 42 0 23 3 25 45 24 25 -1
55 -5 68 -9 33 -11 30 28 -3 43 -46 21 -113 15 -140 -13z"/>
<path d="M2280 200 c0 -123 1 -130 20 -130 11 0 20 3 20 8 1 4 2 41 4 82 2 41
7 82 10 91 7 17 47 39 70 39 15 0 28 24 19 34 -12 11 -59 6 -81 -10 -20 -14
-22 -14 -22 0 0 9 -9 16 -20 16 -19 0 -20 -7 -20 -130z"/>
<path d="M2487 318 c-32 -12 -34 -45 -2 -40 11 1 37 5 57 9 44 7 68 -8 68 -43
0 -22 -4 -24 -50 -24 -28 0 -64 -7 -80 -15 -26 -13 -30 -21 -30 -55 0 -54 27
-80 81 -80 22 0 50 5 62 11 16 9 22 9 25 0 2 -6 13 -11 24 -11 19 0 20 5 16
111 -3 102 -5 112 -27 130 -26 21 -96 25 -144 7z m123 -152 c0 -25 -41 -66
-66 -66 -8 0 -23 9 -34 20 -35 35 -3 68 68 69 27 1 32 -2 32 -23z"/>
<path d="M3089 315 c-32 -17 -59 -71 -59 -115 0 -45 28 -98 61 -115 58 -31
169 -12 169 28 0 16 -4 18 -22 12 -13 -4 -44 -10 -69 -12 -41 -4 -49 -2 -68
22 -38 49 -30 55 68 55 50 0 93 4 96 10 11 18 -15 89 -42 109 -30 25 -95 27
-134 6z m94 -26 c27 -14 37 -28 37 -51 0 -16 -10 -18 -70 -18 -38 0 -70 3 -70
8 0 16 33 54 54 62 28 11 24 12 49 -1z"/>
<path d="M6110 200 c0 -123 1 -130 20 -130 18 0 20 7 20 63 0 109 26 157 84
157 15 0 28 24 19 34 -12 11 -59 6 -81 -10 -20 -14 -22 -14 -22 0 0 9 -9 16
-20 16 -19 0 -20 -7 -20 -130z"/>
<path d="M6329 315 c-32 -17 -59 -71 -59 -115 0 -45 28 -98 61 -115 58 -31
169 -12 169 28 0 16 -4 18 -22 12 -13 -4 -44 -10 -69 -12 -41 -4 -49 -2 -68
22 -38 49 -30 55 68 55 50 0 93 4 96 10 11 18 -15 89 -42 109 -30 25 -95 27
-134 6z m105 -36 c14 -11 26 -29 26 -40 0 -17 -8 -19 -70 -19 -38 0 -70 3 -70
8 0 16 33 54 54 62 30 12 30 12 60 -11z"/>
<path d="M6585 305 c-45 -44 -23 -106 42 -121 68 -14 78 -20 78 -44 0 -32 -36
-41 -95 -24 -56 17 -77 3 -41 -27 17 -14 39 -19 83 -19 49 0 63 4 83 25 30 29
32 65 6 89 -10 9 -42 24 -72 34 -46 15 -54 21 -54 42 0 23 3 25 45 24 25 -1
55 -5 68 -9 33 -11 30 28 -3 43 -46 21 -113 15 -140 -13z"/>
<path d="M7159 315 c-76 -41 -76 -190 0 -229 60 -31 171 -14 171 27 0 16 -4
18 -22 12 -13 -4 -44 -10 -69 -12 -41 -4 -49 -2 -68 22 -38 49 -30 55 68 55
50 0 93 4 96 10 11 18 -15 89 -42 109 -30 25 -95 27 -134 6z m123 -48 c4 -7 8
-20 8 -29 0 -16 -10 -18 -70 -18 -38 0 -70 2 -70 5 0 20 28 56 49 63 28 10 70
-1 83 -21z"/>
<path d="M7400 200 c0 -123 1 -130 20 -130 18 0 20 7 20 69 0 78 14 127 40
141 26 14 67 12 77 -2 4 -7 10 -56 13 -108 5 -90 6 -95 28 -98 l24 -4 -4 112
c-3 103 -5 113 -27 131 -29 23 -98 25 -129 3 -20 -14 -22 -14 -22 0 0 9 -9 16
-20 16 -19 0 -20 -7 -20 -130z"/>
<path d="M3773 114 c-3 -9 -1 -24 4 -34 6 -9 8 -29 6 -45 -7 -34 16 -31 35 6
19 38 11 83 -16 87 -14 2 -25 -3 -29 -14z"/>
</g>
</svg>
