<?xml version="1.0" standalone="no"?>
<!DOCTYPE svg PUBLIC "-//W3C//DTD SVG 20010904//EN"
 "http://www.w3.org/TR/2001/REC-SVG-20010904/DTD/svg10.dtd">
<svg version="1.0" xmlns="http://www.w3.org/2000/svg"
 width="615.000000pt" height="52.000000pt" viewBox="0 0 615.000000 52.000000"
 preserveAspectRatio="xMidYMid meet">

<g transform="translate(0.000000,52.000000) scale(0.100000,-0.100000)"
fill="#000000" stroke="none">
<path d="M967 383 c-4 -3 -7 -21 -7 -39 0 -31 -1 -32 -38 -27 -48 6 -77 -22
-77 -77 0 -59 26 -81 92 -78 l53 2 0 113 c0 103 -5 125 -23 106z m-26 -93 c27
-15 27 -85 -1 -100 -24 -13 -56 1 -65 29 -10 32 12 72 43 80 2 1 12 -4 23 -9z"/>
<path d="M1877 383 c-4 -3 -7 -21 -7 -39 0 -31 -1 -32 -38 -27 -48 6 -77 -22
-77 -77 0 -59 26 -81 92 -78 l53 2 0 113 c0 103 -5 125 -23 106z m-26 -93 c14
-8 19 -21 19 -51 0 -33 -4 -41 -26 -51 -23 -11 -29 -10 -46 12 -22 27 -18 67
9 88 20 15 20 15 44 2z"/>
<path d="M2067 383 c-4 -3 -7 -21 -7 -39 0 -31 -1 -32 -38 -27 -48 6 -77 -22
-77 -77 0 -59 26 -81 92 -78 l53 2 0 113 c0 103 -5 125 -23 106z m-26 -93 c27
-15 27 -85 -1 -100 -24 -13 -56 1 -65 29 -10 32 12 72 43 80 2 1 12 -4 23 -9z"/>
<path d="M2360 275 c0 -89 3 -116 13 -113 6 3 14 17 17 32 l5 27 35 -30 c35
-30 60 -39 60 -22 0 5 -16 23 -36 41 l-36 32 31 32 c17 17 31 35 31 39 0 17
-29 5 -56 -24 l-29 -31 -5 63 c-3 37 -10 64 -17 67 -10 3 -13 -24 -13 -113z"/>
<path d="M3020 275 c0 -89 3 -116 13 -113 7 3 13 27 15 61 2 43 7 59 22 67 40
22 60 -7 60 -88 0 -31 4 -42 13 -39 17 6 14 121 -4 143 -9 12 -24 15 -51 11
-36 -5 -37 -4 -40 31 -2 19 -9 37 -15 40 -10 3 -13 -24 -13 -113z"/>
<path d="M3480 294 c0 -107 9 -134 45 -134 30 0 32 11 5 28 -18 11 -20 23 -20
107 0 78 -3 95 -15 95 -12 0 -15 -17 -15 -96z"/>
<path d="M3811 373 c-62 -31 -88 -134 -50 -205 17 -31 70 -58 116 -58 49 0 93
17 93 37 0 16 -1 16 -36 -2 -50 -26 -92 -19 -131 20 -34 34 -35 38 -31 91 6
66 35 101 91 111 76 12 136 -43 123 -112 -13 -70 -62 -71 -51 -1 4 22 8 45 9
50 0 6 -19 11 -43 13 -35 3 -49 -1 -67 -18 -28 -26 -32 -79 -8 -103 17 -18 59
-21 69 -6 4 6 12 6 24 -2 62 -39 117 63 76 142 -30 57 -115 77 -184 43z m97
-109 c3 -34 -28 -70 -53 -61 -18 8 -20 68 -3 85 23 23 53 10 56 -24z"/>
<path d="M4597 383 c-4 -3 -7 -21 -7 -39 0 -31 -1 -32 -38 -27 -48 6 -77 -22
-77 -77 0 -59 26 -81 92 -78 l53 2 0 113 c0 103 -5 125 -23 106z m-26 -93 c14
-8 19 -21 19 -51 0 -33 -4 -41 -26 -51 -23 -11 -29 -10 -46 12 -22 27 -18 67
9 88 20 15 20 15 44 2z"/>
<path d="M5220 343 c0 -37 -3 -44 -12 -35 -19 19 -66 14 -88 -8 -24 -24 -27
-86 -4 -118 17 -25 71 -31 92 -10 9 9 12 9 12 0 0 -7 7 -12 15 -12 12 0 15 19
15 115 0 96 -3 115 -15 115 -11 0 -15 -12 -15 -47z m-18 -60 c25 -23 23 -68
-4 -87 -28 -20 -33 -20 -52 0 -24 23 -20 70 6 88 28 20 27 20 50 -1z"/>
<path d="M5827 383 c-4 -3 -7 -21 -7 -39 0 -31 -1 -32 -38 -27 -48 6 -77 -22
-77 -77 0 -59 26 -81 92 -78 l53 2 0 113 c0 103 -5 125 -23 106z m-26 -93 c27
-15 27 -85 -1 -100 -24 -13 -56 1 -65 29 -10 32 12 72 43 80 2 1 12 -4 23 -9z"/>
<path d="M4060 346 c0 -16 -6 -26 -15 -26 -8 0 -15 -4 -15 -10 0 -5 7 -10 15
-10 11 0 15 -13 15 -53 0 -65 16 -90 53 -85 15 1 27 8 26 13 0 6 -6 9 -11 7
-23 -6 -38 22 -38 69 0 46 2 49 25 49 14 0 25 5 25 10 0 6 -11 10 -24 10 -18
0 -26 6 -28 22 -5 32 -28 35 -28 4z"/>
<path d="M65 296 c-20 -30 -10 -54 24 -62 49 -12 64 -24 50 -40 -9 -11 -23
-13 -51 -9 -22 4 -38 3 -38 -3 0 -14 25 -22 65 -22 66 0 80 71 17 86 -41 10
-55 24 -41 41 8 9 22 11 45 7 35 -6 48 8 18 20 -35 13 -74 6 -89 -18z"/>
<path d="M210 252 c0 -83 8 -93 79 -90 l51 2 0 79 c0 58 -3 78 -12 75 -8 -3
-14 -27 -16 -61 -2 -43 -7 -59 -22 -67 -35 -19 -49 -3 -52 63 -2 37 -8 62 -15
65 -10 3 -13 -15 -13 -66z"/>
<path d="M390 237 c0 -59 3 -78 13 -75 7 3 13 27 15 62 3 53 5 58 33 68 43 15
35 27 -16 25 l-45 -2 0 -78z"/>
<path d="M519 301 c-18 -14 -24 -29 -24 -61 0 -32 6 -47 24 -61 26 -21 72 -25
102 -8 28 15 14 30 -18 18 -32 -12 -60 -4 -73 22 -10 18 -7 19 45 19 39 0 57
4 61 14 6 16 -12 56 -30 68 -20 14 -64 8 -87 -11z m72 -11 c34 -19 23 -40 -21
-40 -43 0 -55 20 -22 39 21 13 20 13 43 1z"/>
<path d="M670 240 c0 -64 3 -80 15 -80 12 0 15 13 15 55 0 47 3 57 25 71 39
25 55 5 55 -67 0 -46 3 -59 15 -59 22 0 21 122 -1 144 -18 19 -65 21 -82 4 -9
-9 -12 -9 -12 0 0 7 -7 12 -15 12 -12 0 -15 -16 -15 -80z"/>
<path d="M1040 240 c0 -64 3 -80 15 -80 11 0 15 12 15 44 0 58 8 76 36 87 13
4 24 13 24 19 0 14 -33 13 -48 -2 -9 -9 -12 -9 -12 0 0 7 -7 12 -15 12 -12 0
-15 -16 -15 -80z"/>
<path d="M1167 309 c-27 -16 -10 -29 23 -17 23 7 34 7 45 -2 26 -22 18 -40
-19 -40 -51 0 -66 -9 -66 -40 0 -38 18 -49 78 -48 l52 1 0 56 c0 71 -19 101
-63 101 -18 0 -40 -5 -50 -11z m83 -88 c0 -14 -30 -41 -45 -41 -18 0 -28 17
-21 35 6 16 66 21 66 6z"/>
<path d="M1480 240 c0 -63 3 -80 15 -80 10 0 15 15 17 57 3 52 6 59 31 71 15
7 27 17 27 23 0 13 -34 11 -48 -3 -9 -9 -12 -9 -12 0 0 7 -7 12 -15 12 -12 0
-15 -16 -15 -80z"/>
<path d="M1609 301 c-30 -24 -33 -89 -5 -120 21 -23 74 -28 107 -10 28 15 14
30 -18 18 -32 -12 -60 -4 -73 22 -10 18 -7 19 45 19 39 0 57 4 61 14 6 16 -12
56 -30 68 -20 14 -64 8 -87 -11z m72 -11 c34 -19 23 -40 -21 -40 -43 0 -55 20
-22 39 21 13 20 13 43 1z"/>
<path d="M2120 314 c0 -3 14 -39 31 -79 24 -58 28 -78 20 -94 -15 -26 -14 -41
2 -41 12 0 97 182 97 208 0 6 -5 12 -11 12 -9 0 -22 -26 -51 -100 -9 -24 -11
-21 -35 38 -14 34 -31 62 -39 62 -8 0 -14 -3 -14 -6z"/>
<path d="M2531 311 c-24 -15 -3 -32 24 -19 31 14 55 4 55 -22 0 -17 -6 -20
-38 -20 -41 0 -62 -14 -62 -41 0 -33 28 -49 81 -47 l49 2 0 66 c0 38 -5 71
-12 78 -14 14 -77 16 -97 3z m77 -97 c-5 -29 -35 -41 -54 -22 -22 21 -10 38
27 38 23 0 30 -4 27 -16z"/>
<path d="M2690 237 c0 -59 3 -78 13 -75 7 3 13 27 15 61 2 43 7 59 22 67 40
22 60 -7 60 -88 0 -31 4 -42 13 -39 16 5 14 121 -3 141 -9 11 -28 15 -66 13
l-54 -2 0 -78z"/>
<path d="M2880 300 c-13 -13 -20 -33 -20 -60 0 -51 27 -80 74 -80 18 0 39 6
45 13 16 20 3 27 -25 15 -54 -25 -90 64 -40 97 19 12 30 14 44 6 23 -12 36 -3
21 16 -17 20 -76 16 -99 -7z"/>
<path d="M3211 311 c-24 -15 -3 -32 24 -19 31 14 55 4 55 -22 0 -17 -6 -20
-38 -20 -41 0 -62 -14 -62 -41 0 -33 28 -49 81 -47 l49 2 0 66 c0 38 -5 71
-12 78 -14 14 -77 16 -97 3z m79 -95 c0 -21 -27 -38 -50 -31 -20 6 -26 25 -13
38 12 13 63 7 63 -7z"/>
<path d="M3370 238 c0 -63 3 -78 15 -78 12 0 15 13 15 61 0 58 1 60 30 70 44
16 37 28 -15 26 l-45 -2 0 -77z"/>
<path d="M3591 311 c-24 -15 -3 -32 24 -19 31 14 55 4 55 -22 0 -17 -6 -20
-38 -20 -41 0 -62 -14 -62 -41 0 -33 28 -49 81 -47 l49 2 0 66 c0 38 -5 71
-12 78 -14 14 -77 16 -97 3z m79 -95 c0 -21 -27 -38 -50 -31 -20 6 -26 25 -13
38 12 13 63 7 63 -7z"/>
<path d="M4160 262 c0 -83 17 -103 83 -99 l52 3 0 74 c0 50 -4 75 -12 78 -9 2
-13 -11 -13 -46 0 -62 -28 -104 -57 -86 -14 8 -19 26 -21 73 -2 45 -7 61 -17
61 -11 0 -15 -14 -15 -58z"/>
<path d="M4670 238 c0 -63 3 -78 15 -78 12 0 15 13 15 61 0 58 1 60 30 70 44
16 37 28 -15 26 l-45 -2 0 -77z"/>
<path d="M4799 301 c-30 -24 -33 -89 -5 -120 21 -23 74 -28 107 -10 28 15 14
30 -18 18 -32 -12 -60 -4 -73 22 -10 18 -7 19 45 19 39 0 57 4 61 14 6 16 -12
56 -30 68 -20 14 -64 8 -87 -11z m72 -11 c34 -19 23 -40 -21 -40 -43 0 -55 20
-22 39 21 13 20 13 43 1z"/>
<path d="M4968 309 c-21 -12 -24 -52 -5 -67 6 -5 27 -13 45 -17 34 -7 43 -31
16 -42 -10 -3 -30 -1 -45 4 -33 13 -49 -1 -20 -16 50 -27 116 -3 109 40 -2 18
-13 27 -45 37 -44 14 -57 37 -27 49 8 3 26 1 39 -5 27 -12 40 -5 24 15 -13 15
-66 17 -91 2z"/>
<path d="M5309 301 c-18 -14 -24 -29 -24 -61 0 -32 6 -47 24 -61 26 -21 72
-25 102 -8 28 15 14 30 -18 18 -32 -12 -60 -4 -73 22 -10 18 -7 19 45 19 39 0
57 4 61 14 6 16 -12 56 -30 68 -20 14 -64 8 -87 -11z m79 -13 c24 -24 13 -38
-28 -38 -43 0 -55 20 -22 39 23 14 36 13 50 -1z"/>
<path d="M5460 240 c0 -64 3 -80 15 -80 12 0 15 13 15 55 0 47 3 57 25 71 39
25 55 5 55 -67 0 -46 3 -59 15 -59 22 0 21 122 -1 144 -18 19 -65 21 -82 4 -9
-9 -12 -9 -12 0 0 7 -7 12 -15 12 -12 0 -15 -16 -15 -80z"/>
<path d="M5912 297 c-29 -30 -30 -89 -2 -117 31 -31 120 -26 120 7 0 11 -5 13
-17 8 -38 -16 -61 -16 -76 0 -28 27 -20 35 38 35 54 0 55 1 55 28 0 59 -76 84
-118 39z m76 -9 c24 -24 13 -38 -28 -38 -43 0 -49 9 -24 34 19 19 36 20 52 4z"/>
<path d="M4342 248 c5 -15 87 -18 91 -3 1 6 -20 11 -47 13 -36 2 -47 0 -44
-10z"/>
<path d="M2285 191 c-8 -15 3 -31 21 -31 9 0 14 7 12 17 -4 20 -24 28 -33 14z"/>
<path d="M5643 185 c-7 -20 2 -29 21 -22 9 4 13 13 10 22 -8 19 -23 19 -31 0z"/>
<path d="M1305 150 c3 -5 37 -10 75 -10 38 0 72 5 75 10 4 6 -23 10 -75 10
-52 0 -79 -4 -75 -10z"/>
</g>
</svg>
