<?xml version="1.0" standalone="no"?>
<!DOCTYPE svg PUBLIC "-//W3C//DTD SVG 20010904//EN"
 "http://www.w3.org/TR/2001/REC-SVG-20010904/DTD/svg10.dtd">
<svg version="1.0" xmlns="http://www.w3.org/2000/svg"
 width="434.000000pt" height="50.000000pt" viewBox="0 0 434.000000 50.000000"
 preserveAspectRatio="xMidYMid meet">

<g transform="translate(0.000000,50.000000) scale(0.100000,-0.100000)"
fill="#000000" stroke="none">
<path d="M1280 366 c0 -52 -10 -70 -25 -46 -7 11 -64 14 -90 4 -23 -9 -45 -57
-45 -99 0 -42 22 -90 45 -99 28 -10 80 -7 93 6 10 10 15 10 21 -1 5 -8 16 -11
25 -8 14 6 16 25 14 149 -3 127 -5 143 -20 146 -15 3 -18 -5 -18 -52z m-28
-83 c24 -27 30 -57 18 -89 -29 -74 -110 -52 -110 29 0 67 55 102 92 60z"/>
<path d="M1840 409 c-78 -33 -122 -127 -101 -220 13 -57 38 -89 91 -116 66
-34 146 -28 192 14 29 26 10 33 -35 13 -55 -26 -101 -25 -148 2 -46 26 -69 70
-69 133 0 93 58 157 143 157 92 -1 137 -42 137 -128 0 -42 -5 -59 -21 -75 -19
-19 -23 -19 -36 -6 -12 12 -13 24 -4 72 14 74 14 75 -4 75 -8 0 -15 -5 -15
-12 0 -9 -3 -9 -12 0 -20 20 -74 14 -103 -11 -34 -29 -45 -96 -21 -132 13 -19
25 -25 54 -25 21 0 43 5 50 12 9 9 15 9 24 0 23 -23 75 -14 98 15 19 24 21 38
18 96 -3 62 -7 70 -41 104 -34 35 -41 38 -104 40 -38 2 -79 -2 -93 -8z m109
-127 c21 -39 -14 -102 -55 -102 -44 0 -54 60 -16 103 20 22 59 22 71 -1z"/>
<path d="M2920 366 c0 -52 -10 -70 -25 -46 -7 11 -64 14 -90 4 -23 -9 -45 -57
-45 -99 0 -42 22 -90 45 -99 28 -10 80 -7 93 6 10 10 15 10 21 -1 5 -8 16 -11
25 -8 14 6 16 25 14 149 -3 127 -5 143 -20 146 -15 3 -18 -5 -18 -52z m-28
-83 c24 -27 30 -57 18 -89 -29 -74 -110 -52 -110 29 0 67 55 102 92 60z"/>
<path d="M3930 366 c0 -52 -10 -70 -25 -46 -7 11 -64 14 -90 4 -23 -9 -45 -57
-45 -99 0 -42 22 -90 45 -99 28 -10 80 -7 93 6 10 10 15 10 21 -1 5 -8 16 -11
25 -8 14 6 16 25 14 149 -3 127 -5 143 -20 146 -15 3 -18 -5 -18 -52z m-28
-83 c24 -27 30 -57 18 -89 -29 -74 -110 -52 -110 29 0 67 55 102 92 60z"/>
<path d="M91 303 c-14 -17 -19 -33 -15 -47 8 -27 19 -34 72 -47 49 -13 59 -24
41 -45 -13 -16 -65 -16 -101 0 -13 6 -18 4 -18 -8 0 -22 32 -36 83 -36 50 0
77 22 77 62 0 32 -13 43 -67 57 -48 13 -60 26 -43 46 14 17 53 19 80 5 13 -7
21 -7 26 1 11 19 -26 39 -72 39 -34 0 -47 -5 -63 -27z"/>
<path d="M280 248 c0 -103 13 -128 68 -128 20 0 44 4 52 10 9 6 17 5 21 -2 4
-6 14 -8 23 -5 14 6 16 21 14 104 -3 84 -6 98 -20 101 -16 3 -18 -5 -18 -57 0
-76 -12 -109 -45 -117 -42 -10 -54 9 -57 94 -3 64 -6 77 -20 80 -16 3 -18 -6
-18 -80z"/>
<path d="M520 225 c0 -98 1 -105 20 -105 18 0 20 7 20 66 0 78 10 100 50 109
16 4 30 13 30 21 0 16 -33 19 -60 4 -13 -7 -21 -7 -25 0 -3 5 -13 10 -21 10
-11 0 -14 -20 -14 -105z"/>
<path d="M689 301 c-24 -24 -29 -38 -29 -76 0 -64 39 -105 100 -105 48 0 80
14 80 36 0 12 -5 14 -17 9 -40 -18 -84 -17 -103 0 -37 33 -25 45 43 45 77 0
92 9 83 46 -19 77 -101 100 -157 45z m111 -20 c18 -35 12 -41 -45 -41 -59 0
-68 10 -38 42 22 24 69 24 83 -1z"/>
<path d="M890 224 c0 -95 2 -105 18 -102 14 3 18 16 20 73 3 76 19 105 57 105
35 0 44 -20 47 -100 2 -62 6 -75 21 -78 15 -3 17 6 17 80 0 102 -14 128 -66
128 -20 0 -44 -5 -54 -10 -13 -7 -21 -7 -25 0 -3 5 -13 10 -21 10 -11 0 -14
-20 -14 -106z"/>
<path d="M1370 225 c0 -98 1 -105 20 -105 18 0 20 7 20 66 0 78 10 100 50 109
16 4 30 13 30 21 0 16 -33 19 -60 4 -13 -7 -21 -7 -25 0 -3 5 -13 10 -21 10
-11 0 -14 -20 -14 -105z"/>
<path d="M1542 319 c-27 -10 -24 -36 4 -31 83 15 84 15 93 -9 12 -33 6 -39
-42 -39 -52 0 -87 -23 -87 -56 0 -51 69 -82 121 -54 13 7 19 7 19 0 0 -5 7
-10 15 -10 12 0 15 16 15 88 0 73 -3 92 -18 105 -20 19 -82 22 -120 6z m100
-124 c-8 -44 -56 -61 -82 -30 -18 21 -6 43 27 48 46 7 58 3 55 -18z"/>
<path d="M2142 188 c3 -119 5 -143 18 -143 11 0 16 14 20 47 4 39 8 46 20 38
30 -19 85 -11 111 16 19 21 24 36 24 81 0 48 -4 58 -28 79 -30 25 -75 31 -107
14 -13 -7 -21 -7 -25 0 -3 5 -13 10 -21 10 -12 0 -14 -23 -12 -142z m124 104
c37 -25 40 -113 3 -132 -47 -26 -89 6 -89 67 0 52 50 89 86 65z"/>
<path d="M2390 248 c0 -103 13 -128 68 -128 20 0 44 4 52 10 9 6 17 5 21 -2 4
-6 14 -8 23 -5 14 6 16 21 14 104 -3 84 -6 98 -20 101 -16 3 -18 -5 -18 -57 0
-76 -12 -109 -45 -117 -42 -10 -54 9 -57 94 -3 64 -6 77 -20 80 -16 3 -18 -6
-18 -80z"/>
<path d="M2620 225 c0 -98 1 -105 20 -105 18 0 20 7 20 66 0 78 10 100 50 109
16 4 30 13 30 21 0 16 -33 19 -60 4 -13 -7 -21 -7 -25 0 -3 5 -13 10 -21 10
-11 0 -14 -20 -14 -105z"/>
<path d="M3010 248 c0 -103 13 -128 68 -128 20 0 44 4 52 10 9 6 17 5 21 -2 4
-6 14 -8 23 -5 14 6 16 21 14 104 -3 84 -6 98 -20 101 -16 3 -18 -5 -18 -57 0
-76 -12 -109 -45 -117 -42 -10 -54 9 -57 94 -3 64 -6 77 -20 80 -16 3 -18 -6
-18 -80z"/>
<path d="M3269 301 c-24 -24 -29 -38 -29 -76 0 -64 39 -105 100 -105 48 0 80
14 80 36 0 12 -5 14 -17 9 -40 -18 -84 -17 -103 0 -37 33 -25 45 43 45 77 0
92 9 83 46 -19 77 -101 100 -157 45z m111 -20 c18 -35 12 -41 -45 -41 -59 0
-68 10 -38 42 22 24 69 24 83 -1z"/>
<path d="M3579 301 c-24 -24 -29 -38 -29 -76 0 -64 39 -105 100 -105 48 0 80
14 80 36 0 12 -5 14 -17 9 -40 -18 -84 -17 -103 0 -37 33 -25 45 43 45 77 0
92 9 83 46 -19 77 -101 100 -157 45z m111 -20 c18 -35 12 -41 -45 -41 -59 0
-68 10 -38 42 22 24 69 24 83 -1z"/>
<path d="M4030 248 c0 -103 13 -128 68 -128 20 0 44 4 52 10 9 6 17 5 21 -2 4
-6 14 -8 23 -5 14 6 16 21 14 104 -3 84 -6 98 -20 101 -16 3 -18 -5 -18 -57 0
-76 -12 -109 -45 -117 -42 -10 -54 9 -57 94 -3 64 -6 77 -20 80 -16 3 -18 -6
-18 -80z"/>
<path d="M3468 158 c-8 -21 2 -38 24 -38 14 0 19 6 16 22 -3 25 -33 36 -40 16z"/>
</g>
</svg>
