<?xml version="1.0" standalone="no"?>
<!DOCTYPE svg PUBLIC "-//W3C//DTD SVG 20010904//EN"
 "http://www.w3.org/TR/2001/REC-SVG-20010904/DTD/svg10.dtd">
<svg version="1.0" xmlns="http://www.w3.org/2000/svg"
 width="434.000000pt" height="50.000000pt" viewBox="0 0 434.000000 50.000000"
 preserveAspectRatio="xMidYMid meet">

<g transform="translate(0.000000,50.000000) scale(0.100000,-0.100000)"
fill="#000000" stroke="none">
<path d="M408 345 c-21 -14 -38 -30 -38 -35 0 -13 26 -13 51 1 19 10 20 7 17
-98 l-3 -108 -32 -3 c-21 -2 -33 -9 -33 -18 0 -11 18 -14 85 -14 69 0 85 3 85
15 0 10 -10 15 -30 15 l-29 0 -3 132 c-3 150 -7 156 -70 113z"/>
<path d="M707 364 c-16 -16 10 -24 79 -24 l74 0 -65 -130 c-36 -71 -65 -132
-65 -135 0 -3 9 -5 20 -5 16 0 35 30 90 140 39 78 68 145 65 150 -7 11 -188
14 -198 4z"/>
<path d="M1000 343 c-63 -58 -57 -227 10 -263 10 -5 37 -10 60 -10 57 0 90 34
90 92 -1 46 -12 68 -47 86 -33 18 -67 14 -98 -10 l-27 -21 7 34 c16 77 60 105
121 76 41 -20 58 -3 24 25 -35 29 -103 24 -140 -9z m98 -129 c43 -30 19 -114
-34 -114 -23 0 -64 42 -64 67 0 18 45 63 62 63 8 0 24 -7 36 -16z"/>
<path d="M1230 280 c0 -95 5 -104 44 -75 24 18 77 20 94 3 7 -7 12 -27 12 -45
0 -24 -7 -37 -26 -50 -25 -16 -29 -16 -72 -1 -25 9 -49 15 -54 12 -30 -19 33
-54 97 -54 64 0 95 31 95 95 0 35 -6 52 -25 70 -26 27 -72 33 -106 15 -18 -10
-19 -7 -19 40 l0 50 70 0 c56 0 70 3 70 15 0 12 -17 15 -90 15 l-90 0 0 -90z"/>
<path d="M1577 364 c-16 -16 10 -24 79 -24 l74 0 -65 -130 c-36 -71 -65 -132
-65 -135 0 -3 9 -5 20 -5 16 0 35 30 90 140 39 78 68 145 65 150 -7 11 -188
14 -198 4z"/>
<path d="M1827 364 c-16 -16 10 -24 79 -24 l74 0 -65 -130 c-36 -71 -65 -132
-65 -135 0 -3 9 -5 20 -5 16 0 35 30 90 140 39 78 68 145 65 150 -7 11 -188
14 -198 4z"/>
<path d="M2090 280 c0 -95 5 -104 44 -75 25 19 80 19 95 1 7 -8 11 -30 9 -48
-4 -48 -45 -66 -100 -44 -61 23 -84 0 -28 -29 47 -24 116 -20 145 10 35 34 35
106 0 140 -26 27 -72 33 -106 15 -18 -10 -19 -7 -19 40 l0 50 70 0 c56 0 70 3
70 15 0 12 -17 15 -90 15 l-90 0 0 -90z"/>
<path d="M2477 358 c-41 -31 -61 -150 -36 -215 19 -51 48 -73 96 -73 34 0 49
6 67 25 55 59 46 233 -12 264 -28 15 -94 14 -115 -1z m100 -44 c23 -23 25 -31
21 -101 -3 -64 -7 -78 -27 -94 -29 -24 -43 -24 -72 0 -22 17 -24 27 -24 101 0
74 2 84 24 101 31 25 47 24 78 -7z"/>
<path d="M2710 350 c-24 -24 -27 -91 -5 -110 14 -12 13 -15 -5 -35 -28 -30
-26 -80 5 -110 33 -33 119 -36 159 -4 33 26 37 86 6 114 -19 17 -19 19 -3 37
25 28 22 86 -6 109 -33 27 -124 26 -151 -1z m126 -31 c17 -19 17 -23 3 -47
-19 -36 -69 -42 -98 -13 -26 26 -26 36 -1 61 26 26 72 26 96 -1z m2 -131 c19
-19 15 -66 -7 -78 -50 -26 -111 -2 -111 44 0 33 19 46 65 46 23 0 46 -5 53
-12z"/>
<path d="M2973 358 c-13 -6 -23 -19 -23 -30 0 -22 -1 -22 45 -2 44 18 80 12
95 -15 15 -30 -3 -65 -76 -147 -36 -40 -63 -78 -59 -84 3 -6 46 -10 101 -10
77 0 94 3 94 15 0 12 -14 15 -65 15 -36 0 -65 3 -65 6 0 3 23 32 50 64 74 85
87 160 31 189 -25 14 -99 13 -128 -1z"/>
<path d="M3223 358 c-13 -6 -23 -19 -23 -30 0 -21 7 -22 40 -3 54 31 116 4
103 -46 -7 -24 -18 -31 -62 -38 -50 -9 -49 -27 1 -35 53 -9 68 -21 68 -56 0
-42 -46 -58 -102 -37 -60 24 -84 1 -28 -28 43 -22 112 -19 144 6 32 25 37 90
8 115 -18 15 -18 17 0 53 21 43 13 82 -21 100 -25 14 -99 13 -128 -1z"/>
<path d="M180 255 l0 -45 -45 0 c-33 0 -45 -4 -45 -15 0 -11 12 -15 44 -15
l45 0 3 -45 c4 -61 22 -62 26 -2 l3 47 45 0 c32 0 44 4 44 15 0 11 -12 15 -45
15 l-45 0 0 45 c0 33 -4 45 -15 45 -11 0 -15 -12 -15 -45z"/>
</g>
</svg>
