<?xml version="1.0" standalone="no"?>
<!DOCTYPE svg PUBLIC "-//W3C//DTD SVG 20010904//EN"
 "http://www.w3.org/TR/2001/REC-SVG-20010904/DTD/svg10.dtd">
<svg version="1.0" xmlns="http://www.w3.org/2000/svg"
 width="301.000000pt" height="52.000000pt" viewBox="0 0 301.000000 52.000000"
 preserveAspectRatio="xMidYMid meet">

<g transform="translate(0.000000,52.000000) scale(0.100000,-0.100000)"
fill="#000000" stroke="none">
<path d="M298 363 c-27 -32 -98 -142 -98 -152 0 -6 21 -11 49 -11 43 0 50 -3
53 -22 4 -29 28 -36 28 -8 0 13 8 24 20 27 11 3 20 9 20 13 0 4 -9 10 -20 13
-18 5 -20 14 -20 81 0 78 -6 89 -32 59z m2 -93 c0 -49 -1 -50 -30 -50 -16 0
-30 3 -30 6 0 7 53 94 58 94 1 0 2 -22 2 -50z"/>
<path d="M412 357 c-57 -60 7 -149 80 -112 l30 14 -7 -27 c-12 -47 -25 -55
-77 -49 -50 6 -63 -4 -29 -23 28 -15 73 -12 98 5 27 19 47 87 39 134 -12 74
-88 107 -134 58z m93 -28 c4 -5 4 -21 1 -33 -11 -46 -71 -44 -82 1 -13 50 54
77 81 32z"/>
<path d="M718 362 c-16 -9 -28 -22 -28 -29 0 -16 5 -16 31 -3 18 10 19 7 19
-70 0 -79 0 -80 -25 -80 -16 0 -25 -6 -25 -15 0 -12 14 -15 66 -15 48 0 65 3
62 13 -3 6 -14 13 -26 15 -21 3 -22 8 -22 103 0 107 -3 112 -52 81z"/>
<path d="M880 310 c0 -38 2 -70 5 -70 3 0 17 7 31 16 20 14 30 15 50 5 21 -9
25 -17 22 -44 l-3 -32 -57 2 c-59 2 -73 -8 -39 -27 29 -15 83 -12 109 6 16 11
22 25 22 53 0 48 -24 71 -73 71 -34 0 -37 2 -37 30 0 29 1 30 50 30 38 0 50 4
50 15 0 12 -14 15 -65 15 l-65 0 0 -70z"/>
<path d="M1057 374 c-15 -15 7 -24 59 -24 l54 0 -47 -95 c-26 -52 -44 -98 -39
-102 10 -11 27 14 81 119 26 48 43 93 40 98 -7 11 -138 14 -148 4z"/>
<path d="M1340 310 c0 -38 4 -70 9 -70 5 0 23 8 40 18 30 17 31 16 53 -5 19
-19 20 -25 9 -49 -11 -25 -15 -26 -61 -21 -51 6 -65 -4 -31 -23 37 -19 88 -12
110 16 25 32 27 62 5 93 -14 19 -24 22 -60 19 -44 -3 -44 -3 -44 29 0 32 1 32
53 35 75 4 64 22 -15 26 l-68 3 0 -71z"/>
<path d="M1536 365 c-24 -18 -12 -39 15 -24 11 5 32 9 47 7 49 -6 36 -68 -14
-68 -15 0 -24 -6 -24 -15 0 -10 10 -15 28 -15 32 0 52 -16 52 -42 0 -25 -37
-37 -78 -26 -40 11 -55 2 -28 -18 26 -19 86 -18 114 2 26 18 30 65 6 89 -13
12 -14 19 -5 28 17 17 13 68 -6 83 -23 17 -83 17 -107 -1z"/>
<path d="M1730 310 c0 -38 2 -70 5 -70 3 0 17 7 31 16 20 14 30 15 50 5 21 -9
25 -17 22 -44 l-3 -32 -57 2 c-59 2 -73 -8 -39 -27 29 -15 83 -12 109 6 16 11
22 25 22 53 0 50 -27 75 -75 69 -34 -4 -35 -3 -35 29 0 33 0 33 50 33 38 0 50
4 50 15 0 12 -14 15 -65 15 l-65 0 0 -70z"/>
<path d="M1943 362 c-25 -20 -44 -92 -36 -136 19 -100 153 -102 153 -3 0 55
-44 83 -97 61 -38 -15 -38 -15 -18 33 15 36 15 36 65 30 51 -6 65 4 31 23 -29
15 -73 12 -98 -8z m68 -102 c19 -11 25 -45 11 -66 -15 -22 -42 -24 -62 -4 -24
24 -25 38 -3 62 19 21 27 22 54 8z"/>
<path d="M2121 354 c-16 -21 -21 -41 -21 -89 0 -48 5 -68 21 -89 26 -33 79
-36 108 -5 38 41 35 146 -5 190 -26 29 -78 25 -103 -7z m90 -20 c17 -20 16
-118 -1 -139 -18 -21 -57 -19 -70 4 -5 11 -10 41 -10 66 0 25 5 55 10 66 13
23 53 25 71 3z"/>
<path d="M2328 363 c-41 -47 -50 -120 -23 -172 25 -50 91 -57 124 -15 25 32
26 46 6 84 -13 25 -22 30 -53 30 -21 0 -43 -5 -50 -12 -19 -19 -15 23 4 51 15
21 22 23 67 16 l51 -6 -18 20 c-24 27 -86 28 -108 4z m77 -117 c27 -40 -7 -82
-52 -65 -44 16 -24 88 24 89 7 0 19 -11 28 -24z"/>
<path d="M2496 365 c-24 -18 -12 -39 15 -24 11 5 32 9 47 7 49 -6 36 -68 -14
-68 -15 0 -24 -6 -24 -15 0 -10 10 -15 28 -15 32 0 52 -16 52 -42 0 -25 -37
-37 -78 -26 -40 11 -55 2 -28 -18 26 -19 86 -18 114 2 26 18 30 65 6 89 -13
12 -14 19 -5 28 17 17 13 68 -6 83 -23 17 -83 17 -107 -1z"/>
<path d="M2707 368 c-49 -38 -47 -181 3 -208 31 -17 76 -11 96 11 15 17 19 36
19 94 0 58 -4 77 -19 94 -22 24 -73 28 -99 9z m83 -37 c5 -11 10 -41 10 -66 0
-62 -13 -85 -51 -85 -22 0 -32 6 -39 26 -13 34 -13 87 2 119 14 31 62 35 78 6z"/>
<path d="M80 291 c0 -26 -4 -30 -32 -33 -46 -4 -49 -28 -4 -28 34 0 36 -2 36
-35 0 -19 5 -35 10 -35 6 0 10 16 10 35 0 33 2 35 36 35 45 0 42 24 -4 28 -28
3 -32 7 -32 33 0 16 -4 29 -10 29 -5 0 -10 -13 -10 -29z"/>
</g>
</svg>
