<?xml version="1.0"?>
<svg width="754" height="658" xmlns="http://www.w3.org/2000/svg" preserveAspectRatio="xMidYMid meet">
 <metadata>Created by potrace 1.15, written by Peter Selinger 2001-2017</metadata>

 <g>
  <title>background</title>
  <rect x="-1" y="-1" width="756" height="660" id="canvas_background" fill="none"/>
 </g>
 <g>
  <title>Layer 1</title>
  <path d="m394.368225,380.918823c75.337219,-7.440979 140.974976,-58.116821 164.758667,-127.010315c8.105103,-23.349365 9.433777,-32.201569 9.433777,-60.811005c0,-35.024063 -3.85321,-51.445587 -19.133301,-82.107651c-9.832336,-19.628906 -21.392029,-35.280685 -37.469238,-50.804111c-41.986938,-40.412422 -103.372772,-60.682731 -161.436951,-53.241721c-84.770935,10.776629 -150.408661,70.689548 -167.54892,152.797236c-3.587479,17.319611 -3.188904,53.241699 0.664337,70.817886c8.636551,38.744568 25.378174,68.508606 53.945175,95.963379c23.518021,22.57962 45.175766,35.537201 76.400192,45.544067c25.378174,8.210785 54.742401,11.418091 80.386261,8.852234zm-12.22406,-42.336761c-16.4758,-3.977081 -29.762817,-11.674683 -43.581268,-24.888855c-10.363831,-9.878601 -13.02124,-13.470795 -18.203186,-23.734253c-8.636566,-17.063019 -10.629578,-26.556732 -9.832367,-45.544144c0.930115,-26.428406 9.035156,-44.261169 28.168427,-62.991989c9.035126,-8.852249 12.755493,-11.418076 24.580933,-16.934708c21.657745,-10.263458 41.32254,-12.8293 63.51178,-8.467346c19.531921,3.848785 35.210541,12.187851 49.427612,26.043533c18.468933,18.217667 26.574005,36.306992 27.503998,62.35051c0.797302,18.859146 -1.19577,28.60939 -9.566559,44.902664c-20.329102,40.412384 -66.036346,60.426117 -112.009369,49.264587z" id="svg_2" stroke="null"/>
  <text fill="#000000" stroke="null" stroke-width="0" stroke-opacity="null" fill-opacity="null" x="694.5" y="623.5" id="svg_10" font-size="250" font-family="'Times New Roman', Times, serif" text-anchor="start" xml:space="preserve">.</text>
  <g id="svg_12">
   <path d="m58.799999,509c-11.299999,1.899963 -28.799999,10.200012 -30.4,14.399963c-0.5,1.300049 9.000002,15.600037 10.300001,15.600037c0.399998,0 2.700001,-1.299988 5.200001,-2.900024c9.899998,-6.399963 13.799999,-7.599976 25.099998,-7.599976c11.900002,0 16.900002,1.799988 21.099998,7.599976c2.700005,3.900024 4,15.799988 1.800003,17.600037c-0.900002,0.699951 -8.900002,1.299988 -21.900002,1.599976c-18,0.299988 -21.299999,0.700012 -26.700001,2.599976c-7.899998,2.900024 -14.199999,8.5 -18.199999,16.200012c-2.700001,5.299988 -3.1,7.100037 -3.1,14c0,4.400024 0.4,8.700012 0.9,9.700012c0.5,0.900024 1.700001,3.700012 2.700001,6.099976c2.5,6.100037 9.4,12.800049 16.199999,15.700012c3.100002,1.400024 6.5,2.900024 7.400002,3.5c2.399998,1.200012 24.799999,1.200012 24.799999,-0.099976c0,-0.600037 0.599998,-1 1.400002,-1c2.699997,0 10.300011,-3.799988 14,-7l3.599998,-3.200012l0,4.599976l0,4.600037l11,0l11,0l0,-38.799988c0,-41.800049 -0.5,-46.200012 -5.299988,-54.400024c-3.100014,-5.400024 -10.100014,-11.900024 -15.700012,-14.799988c-8.5,-4.299988 -23.199989,-6 -35.200001,-4zm33.200001,80c-1.599998,6.200012 -5.099998,10.399963 -11.199997,13.399963c-10.600006,5.200012 -24.700005,4.400024 -31.200005,-1.799988c-8.899998,-8.399963 -5.5,-23.299988 6,-26.5c2.100002,-0.599976 10.200005,-1.099976 17.900002,-1.200012c7.700012,-0.099976 15.099998,-0.399963 16.5,-0.799988c2.5,-0.700012 2.5,-0.599976 2.800003,5.900024c0.199997,3.599976 -0.200005,8.5 -0.800003,11z" id="svg_3"/>
   <path d="m234.100006,509.599976c-6.900009,1.799988 -14.100006,5.799988 -19.699997,10.700012l-4.400009,3.900024l0,-6.600037l0,-6.599976l-10,0l-10,0l0,55l0,55l10.5,0l10.5,0l0,-38.400024l0,-38.399963l6,-5.400024c9,-8.200012 15.800003,-11.299988 25,-11.299988c9.199997,0 14.100006,2.200012 18.5,8.399963l3,4.300049l0.300018,40.399963l0.299988,40.400024l10.899994,0l11,0l0,-38.5l0,-38.5l4.100006,-4c17.100006,-16.600037 38.799988,-17.400024 46,-1.5c1.700012,3.700012 1.899994,7.299988 1.899994,43.200012l0,39.299988l11,0l11,0l0,-39c0,-40.200012 -0.5,-46 -4.199982,-53.400024c-2.900024,-5.700012 -10.600006,-13.399963 -16,-16.200012c-16.600006,-8.399963 -39.5,-4.099976 -54,10.200012c-3.300018,3.200012 -5.800018,5 -5.800018,4.100037c0,-2.5 -8.5,-11.100037 -13.699982,-13.900024c-8.600006,-4.700012 -21.900009,-6 -32.200012,-3.200012z" id="svg_4"/>
   <path d="m408,509.099976c-7.799988,1.5 -16.5,6.5 -21.799988,12.5c-6,6.700012 -7.700012,11.799988 -7,20.900024c1.100006,13.700012 9.899994,21.700012 32.799988,29.899963c18.100006,6.5 24,10.900024 24,17.900024c0,10.599976 -11.899994,17.299988 -26,14.700012c-7.100006,-1.299988 -15.899994,-4.900024 -20.600006,-8.5c-1.799988,-1.400024 -3.699982,-2.5 -4.099976,-2.5c-0.900024,0 -11.600006,15.099976 -11.100006,15.5c3.299988,2.899963 14.799988,9 20.199982,10.700012c3.900024,1.299988 7.300018,2.599976 7.400024,3c0.5,1.099976 25.899994,1 28,-0.100037c0.899994,-0.5 4.699982,-2.299988 8.399994,-4c7.899994,-3.799988 14.899994,-10.899963 17.199982,-17.799988c0.900024,-2.599976 1.600006,-7.799988 1.600006,-11.700012c0,-16.399963 -9.399994,-25.599976 -35.799988,-35.200012c-12.899994,-4.599976 -18,-7.799988 -19.800018,-12c-2,-4.699951 -1.799988,-5.899963 1.600006,-9.699951c6.800018,-7.800049 21.5,-7.600037 36.5,0.699951c3.600006,2 6.800018,3.600037 7,3.600037c0.300018,0 2.700012,-3.299988 5.5,-7.299988l5.100006,-7.200012l-3.299988,-2.799988c-10.600006,-9 -30.5,-13.600037 -45.800018,-10.600037z" id="svg_5"/>
   <path d="m638,509.399963c-7.200012,1.5 -14.200012,5 -20.399963,10.100037l-5.100037,4.099976l0,-6l0,-6.099976l-10.200012,-0.299988l-10.299988,-0.300049l0,55.100037l0,55l10.5,0l10.5,0l0,-38.400024l0,-38.399963l5,-4.5c13.400024,-12.100037 28.900024,-15.700012 40.299988,-9.5c3.100037,1.699951 4.900024,3.699951 7,7.699951l2.700012,5.5l0,38.800049l0,38.799988l11,0l11,0l0,-36.799988c0,-38.800049 -0.599976,-46.5 -4.399963,-54.800049c-7.5,-16.5 -26.800049,-24.599976 -47.600037,-20z" id="svg_6"/>
   <path d="m126,520l0,9l8.5,0l8.5,0l0,46l0,46l10.5,0l10.5,0l0,-55l0,-55l-19,0l-19,0l0,9z" id="svg_7"/>
   <path d="m475.200012,551.700012l0.299988,40.799988l2.899994,6.200012c3.600006,7.899963 12.200012,16.199951 20.800018,20.299988c3.5,1.700012 7.100006,3 8,3c0.899994,0 2,0.399963 2.299988,1c0.399994,0.599976 6.200012,1 14,1c7.799988,0 13.600037,-0.400024 14,-1c0.299988,-0.600037 1.400024,-1 2.400024,-1c1,0 5,-1.600037 8.799988,-3.5c12.400024,-6.200012 20.900024,-17 23.299988,-29.400024c0.600037,-3 1,-21.399963 1,-41.700012l0,-36.399963l-10.399963,0l-10.5,0l-0.300049,37.200012l-0.299988,37.299988l-2.700012,5.700012c-4.799988,10.199951 -13.399963,14.399963 -28.199951,13.599976c-7.200012,-0.400024 -9.200012,-0.900024 -13.300018,-3.400024c-2.900024,-1.799988 -5.900024,-4.899963 -7.800018,-7.799988l-3,-4.899963l-0.299988,-38.900024l-0.300018,-38.799988l-10.5,0l-10.5,0l0.300018,40.700012z" id="svg_8"/>
   <text fill="#000000" stroke-width="0" stroke-opacity="null" fill-opacity="null" x="121.5" y="491.5" id="svg_11" font-size="250" font-family="'Times New Roman', Times, serif" text-anchor="start" xml:space="preserve" stroke="null">.</text>
  </g>
  <ellipse fill="null" stroke-width="null" stroke-opacity="null" fill-opacity="null" cx="383.488594" cy="193.424313" id="svg_13" rx="31" ry="31" transform="matrix(1.86483 -0.278733 0.29536 1.75985 -381.771 -6.00697)" stroke="null"/>
  <ellipse fill="null" stroke="null" stroke-width="null" stroke-opacity="null" fill-opacity="null" cx="350.5" cy="193.5" id="svg_14"/>
 </g>
</svg>