<svg width="250" height="226" viewBox="0 0 250 226" fill="none" xmlns="http://www.w3.org/2000/svg">
<path d="M93.8828 0V23.1562L98.3594 22.8828C155.519 20.9228 192.844 69.7578 192.844 69.7578C192.844 69.7578 150.044 121.844 105.484 121.844C101.604 121.844 97.6428 121.484 93.8828 120.844V109.078C97.7628 110.358 101.965 111 106.125 111C137.365 111 166.445 70.6016 166.445 70.6016C166.445 70.6016 139.479 33.8831 98.3594 35.2031C96.8712 35.2031 95.4256 35.317 93.9766 35.3594V23.1562C43.5606 27.2323 0 69.8672 0 69.8672C0 69.8672 24.6548 141.227 93.8828 147.711V134.758C97.0028 135.118 100.364 135.398 103.484 135.398C145.044 135.398 175.084 114.196 204.164 89.1562C209.004 93.0362 228.725 102.397 232.805 106.477C205.165 129.637 140.762 148.242 104.242 148.242C100.722 148.242 97.2428 148.079 93.8828 147.719V168H249.883V0H93.8828ZM93.8828 35.4062V50.3984C96.6428 50.1584 99.4422 49.9191 102.242 50.0391C128.522 50.0391 144.203 70.5234 144.203 70.5234L122.805 88.5234C113.245 72.4834 109.883 65.3966 93.8828 63.4766V109.07C72.2908 101.75 65.1562 76.4453 65.1562 76.4453C65.1562 76.4453 77.7571 61.4348 93.7891 63.3828H93.8828V50.4062C63.2988 53.7422 44.8594 74.1328 44.8594 74.1328C44.8594 74.1328 55.5148 114.074 93.8828 120.93V134.734C43.0988 128.434 25.7656 72.4609 25.7656 72.4609C25.7656 72.4609 48.4431 38.9661 93.8828 35.4062Z" fill="black"/>
<path d="M72.7344 185.43C69.7344 185.43 67.5703 186.383 66.2422 188.289C64.9297 190.195 64.2734 193.328 64.2734 197.688C64.2734 201.469 64.9062 204.133 66.1719 205.68C67.4375 207.227 69.625 208 72.7344 208H84.6406V214H72.3828C69.6797 214 67.5547 213.773 66.0078 213.32C64.4609 212.852 63.0078 212.07 61.6484 210.977C59.8828 209.57 58.5547 207.742 57.6641 205.492C56.7891 203.227 56.3516 200.523 56.3516 197.383C56.3516 191.289 57.6719 186.797 60.3125 183.906C62.9531 181 67.0469 179.547 72.5938 179.547H84.6406V185.43H72.7344ZM97.0859 179.547V200.172C97.0859 203.391 97.6641 205.641 98.8203 206.922C99.9922 208.188 102 208.82 104.844 208.82C107.688 208.82 109.688 208.188 110.844 206.922C112 205.656 112.578 203.406 112.578 200.172V179.547H119.82V200.359C119.82 202.797 119.656 204.742 119.328 206.195C119.016 207.648 118.508 208.797 117.805 209.641C116.43 211.266 114.695 212.461 112.602 213.227C110.523 213.992 107.938 214.375 104.844 214.375C101.75 214.375 99.1484 213.992 97.0391 213.227C94.9453 212.461 93.2109 211.266 91.8359 209.641C91.1484 208.812 90.6484 207.695 90.3359 206.289C90.0234 204.883 89.8672 202.906 89.8672 200.359V179.547H97.0859ZM142.508 185.547H134.117V208H142.508C145.711 208 147.922 207.195 149.141 205.586C150.359 203.977 150.969 201.039 150.969 196.773C150.969 192.523 150.359 189.594 149.141 187.984C147.922 186.359 145.711 185.547 142.508 185.547ZM126.875 179.547H142.648C148.195 179.547 152.289 181 154.93 183.906C157.57 186.797 158.891 191.289 158.891 197.383C158.891 200.523 158.445 203.227 157.555 205.492C156.68 207.742 155.359 209.57 153.594 210.977C152.234 212.07 150.781 212.852 149.234 213.32C147.688 213.773 145.562 214 142.859 214H126.875V179.547ZM177.336 186.391L172.297 199.656H182.562L177.336 186.391ZM173.773 179.547H181.461L196.156 214H188.094L184.93 205.797H169.953L166.883 214H159.195L173.773 179.547Z" fill="black"/>
</svg>
