<?xml version="1.0"?>
<svg width="513" height="634" xmlns="http://www.w3.org/2000/svg" preserveAspectRatio="xMidYMid meet">
 <metadata>Created by potrace 1.15, written by Peter Selinger 2001-2017</metadata>

 <g>
  <title>background</title>
  <rect fill="none" id="canvas_background" height="636" width="515" y="-1" x="-1"/>
 </g>
 <g>
  <title>Layer 1</title>
  <path stroke="null" id="svg_2" d="m106.695824,15.004381c-3.858749,3.702051 -2.541122,9.070021 3.199944,13.23506c4.705788,3.332031 3.952866,5.83086 -3.199944,11.384083c-3.388168,2.591404 -6.117523,5.183006 -6.117523,5.830761c0,0.64785 0.658813,2.498924 1.505859,4.164845c3.011703,5.831055 -1.599968,12.124561 -9.882172,13.420361c-4.799896,0.740379 -7.811607,4.072266 -7.435143,8.052147c0.188232,2.498878 0.752922,3.239357 2.447014,3.424416c1.7882,0.277687 1.317619,0.740479 -2.541138,2.684082c-9.223343,4.442528 -15.24675,14.253075 -13.740898,22.212692c0.282341,1.851074 1.599968,5.275589 2.729362,7.589409c3.10582,6.201027 5.552826,13.97554 10.823311,34.799995c5.64695,22.583008 9.317467,32.57872 18.91729,51.829788c8.658638,17.214844 16.376144,29.524414 27.952385,44.703125c9.976257,13.050003 17.505524,20.639404 29.834702,30.264954c29.740585,23.138275 57.692963,33.689301 101.268616,38.131866c18.540771,1.851044 53.269531,2.036194 64.93988,0.370178c4.423431,-0.647797 11.858582,-1.480804 16.470276,-1.943542c4.799896,-0.462799 12.329163,-2.036194 17.223175,-3.702209c9.411591,-3.05426 11.576233,-3.23941 15.905579,-1.758484c2.352875,0.740417 3.576385,0.555298 6.68222,-1.018066c2.164673,-1.110657 7.623383,-2.591522 12.14093,-3.424438c10.635101,-1.758545 12.517426,-2.869171 12.517426,-7.681915c0,-5.830872 -1.411713,-6.478729 -13.176239,-6.3862c-7.717499,0.09259 -10.917419,-0.185089 -13.270325,-1.388275c-2.635254,-1.295807 -3.199921,-1.295807 -4.517548,-0.185089c-3.294037,2.869171 -6.117523,3.23938 -13.552673,1.480835c-4.799896,-1.110626 -8.94101,-1.480835 -12.799744,-1.203156c-7.43515,0.647858 -8.282196,-0.833099 -3.4823,-6.571289c1.788208,-2.221344 3.858765,-5.183075 4.517578,-6.571289c1.035278,-2.221313 0.941162,-2.684082 -0.658813,-3.794739c-4.235199,-3.054199 -9.976288,-0.370178 -19.10553,8.792572l-6.776337,6.848938l-7.811584,-1.573486c-27.481842,-5.73819 -54.022461,-18.695618 -71.998627,-35.170074c-9.129227,-8.422363 -25.599457,-27.858536 -31.999344,-37.946869c-10.729218,-16.659531 -18.070236,-44.703186 -20.423141,-77.37442c-0.37645,-4.349998 -1.129395,-14.438278 -1.694061,-22.397903c-0.658829,-7.959518 -0.847046,-15.826561 -0.564713,-17.399994c1.411758,-6.571243 5.458725,-7.311722 17.223206,-3.331886c7.435135,2.498924 15.623199,2.961716 16.282028,0.925583c0.188217,-0.555367 -0.658829,-2.313911 -1.788208,-4.072411c-2.823486,-4.072266 -12.611526,-9.255272 -25.693619,-13.420212c-5.741058,-1.851028 -12.89386,-4.997856 -15.99968,-7.034035c-3.199936,-1.943752 -7.05867,-3.887306 -8.752762,-4.164944c-2.070557,-0.370117 -3.011703,-1.110546 -3.011703,-2.313866c0,-2.221191 -4.235214,-5.275391 -8.376297,-6.016018c-7.435165,-1.203125 -14.776184,-3.331738 -16.093811,-4.534863c-0.847046,-0.833103 -1.223511,-2.776756 -1.035278,-4.997852c0.094116,-2.128708 -0.282349,-3.887402 -0.941162,-4.349998c-0.658813,-0.370312 -4.611664,-0.647949 -8.752762,-0.55537c-5.364609,0.185059 -8.093964,-0.185158 -9.693924,-1.203224c-2.164665,-1.388281 -2.164665,-1.851171 -1.599976,-8.237207c0.564697,-6.571289 0.564697,-6.756348 -1.976433,-8.7c-3.764633,-2.961816 -11.011559,-2.869238 -14.117371,0.277637zm47.057899,44.055273c0,1.295803 0.75293,3.424465 1.694092,4.812794c2.070541,3.146732 1.035263,3.239307 -2.164673,0.185108l-2.447006,-2.313866l0.376465,3.054298c0.75293,6.663818 -4.517548,8.052147 -8.282196,2.036133c-2.070557,-3.331936 -4.329315,-4.62759 -5.270477,-3.146782c-0.282349,0.462791 -0.282349,1.573387 0,2.406349c0.470581,1.110641 0.188232,1.203171 -1.035278,0.64785c-3.858734,-1.758446 -15.340874,-1.480812 -22.11721,0.555321c-3.576393,1.110649 -6.776344,1.758499 -7.058685,1.480865c-0.564697,-0.555328 8.282181,-3.146782 23.717186,-6.94146c6.211639,-1.573387 13.458557,-3.424461 15.99968,-4.16489c5.835175,-1.573437 6.588104,-1.480957 6.588104,1.388279zm42.446213,10.551079c0.847046,3.239403 -1.223495,7.496826 -4.70578,10.180855c-5.270477,3.887207 -25.975952,8.79248 -43.387375,10.180862c-8.093979,0.647804 -11.011551,1.480759 -21.176056,6.47876c-4.423447,2.128662 -9.411583,4.25737 -11.011543,4.627586c-2.72937,0.555321 -3.105827,0.370216 -3.105827,-1.388283c0,-1.851021 -0.376465,-2.036179 -2.917587,-1.480759c-1.599976,0.277588 -3.764641,0.555275 -4.705803,0.555275c-1.129379,0 -2.164658,0.925484 -2.72934,2.313766c-0.470581,1.295753 -1.599976,2.591507 -2.352905,2.869141c-2.164658,0.832962 -6.776337,-1.388283 -9.411575,-4.442581c-1.882317,-2.128662 -2.164665,-3.054146 -1.411743,-4.535004c0.564697,-0.925537 1.599976,-1.758545 2.352898,-1.758545c0.75293,0 1.411736,-0.462799 1.411736,-0.925537c0,-1.943657 -6.211639,-0.925537 -8.470421,1.388275c-1.882309,1.943604 -2.258774,3.331985 -2.35289,8.329788c0,3.331932 -0.188232,6.015968 -0.470581,6.015968c-1.317627,0 -4.046989,-6.108498 -4.141098,-9.255272c-0.094116,-5.645805 4.988136,-9.625641 15.152641,-11.846832c3.952866,-0.925537 3.952866,-0.832954 4.235222,1.943558c0.188225,1.66597 1.223495,3.424515 2.635231,4.442581c2.917603,2.036224 9.411583,3.054344 11.293907,1.758545c1.505844,-1.018066 1.505844,-0.925537 -2.823486,-3.702148c-1.223503,-0.833008 -1.223503,-1.110649 0.188232,-2.128761c1.317627,-1.018066 1.223511,-1.295708 -1.317619,-2.776611c-1.505844,-0.832962 -2.541122,-1.943604 -2.258789,-2.313774c0.282364,-0.462791 3.388176,-1.295746 7.058693,-1.943604c3.576408,-0.647896 10.729202,-2.406395 15.811455,-3.887253c28.611198,-8.329834 40.658012,-10.551071 57.881218,-10.921341l10.070389,-0.185059l0.658798,2.406403zm-9.317444,21.472313c1.976425,2.869186 2.164658,13.142578 0.470581,19.158546c-0.941162,3.146774 -0.847046,3.794624 0.564682,4.812691c1.317627,0.925537 1.599976,2.86924 1.694092,11.198975c0,5.46064 0.37645,10.736137 0.847031,11.661674c0.376465,0.925537 0.470581,3.979828 0.188248,6.756393c-0.376465,4.072357 -0.282349,4.997894 0.847031,4.997894c1.035278,0 1.317627,0.740479 1.129395,2.498978c-0.188217,1.850983 -0.75293,2.498825 -1.882309,2.313828c-1.694092,-0.277695 -2.164673,0.925537 -3.10582,6.756348l-0.564713,3.702103l2.164673,-3.702103c1.223495,-2.036194 2.635239,-3.609619 3.105835,-3.517044c0.564682,0.092529 2.070541,4.627686 3.388153,10.180862c4.32933,17.307465 6.117523,23.230911 7.341019,24.711761c1.129395,1.2957 0.941162,1.851028 -1.223495,3.794678c-1.317612,1.203171 -2.447006,2.96167 -2.447006,3.794632c0,0.925537 0.282349,1.388275 0.564697,1.018066c1.317627,-1.295746 5.929291,2.313812 7.717499,6.015961c1.882294,3.794678 1.97641,3.887268 2.070526,1.295761l0,-2.684036l4.046982,4.442581c2.164673,2.498871 6.305786,8.052094 9.317474,12.4021c2.917603,4.349991 7.246933,9.995743 9.599808,12.494675c2.635254,2.684036 4.235229,5.090424 3.858734,5.92334c-0.658813,1.666016 3.858765,7.681976 8.56456,11.384033c4.799896,3.794785 14.682068,8.607529 21.458405,10.551132c3.95285,1.110596 6.305756,2.498901 8.564514,4.997833c4.705811,5.090485 11.952728,8.700012 17.411469,8.514893c3.670471,0 4.611633,0.27771 4.988129,1.758514c0.470551,1.666016 2.635223,2.498962 14.587921,5.553253c4.894043,1.203125 4.988129,2.406311 0.282349,3.794647c-2.917603,0.832947 -4.517578,0.832947 -8.18808,-0.37027c-2.541107,-0.832947 -6.117523,-1.758484 -7.905731,-2.036133c-1.788177,-0.370178 -7.246887,-2.313782 -12.14093,-4.349945c-10.917419,-4.627747 -18.258453,-5.183014 -23.811279,-1.758606c-3.858765,2.313934 -4.799911,1.480957 -1.694092,-1.295685c1.035278,-0.925507 1.694092,-1.851074 1.411743,-2.128723c-0.188232,-0.277679 -2.164673,1.110657 -4.235214,2.961731c-2.070541,1.851074 -4.329346,3.331879 -5.082275,3.331879c-0.658798,0 -2.447006,-1.665924 -3.764603,-3.794739c-2.352905,-3.424408 -2.917603,-3.794678 -5.552856,-3.331818c-2.917587,0.370117 -8.188065,-1.480865 -8.188065,-2.869202c0,-0.462738 0.470581,-1.203186 1.129395,-1.851013c0.847046,-0.833008 0.75293,-1.110718 -0.658813,-1.110718c-1.599945,0 -1.599945,-0.092529 -0.188232,-1.665894c2.72937,-2.961731 1.788208,-3.609589 -5.646942,-4.164948c-9.129257,-0.555237 -14.964432,-2.776581 -16.752594,-6.29361c-1.411774,-2.591507 -0.75296,-3.979782 1.599945,-3.239365c0.658813,0.185165 2.447021,0.647858 4.046982,1.018127c2.352905,0.555267 2.541138,0.740372 1.129364,1.48085c-2.258759,1.295807 -1.97641,2.313873 1.035278,3.424469c4.141113,1.666016 8.941025,2.221344 11.29393,1.388336c1.97641,-0.740448 1.694092,-1.203186 -5.741074,-8.422424c-8.470428,-8.052094 -6.494019,-6.941406 -42.728577,-23.971237c-3.764633,-1.758545 -6.870453,-3.517044 -6.870453,-3.979782c0,-1.110596 6.493988,1.203171 11.576248,4.164932c2.258774,1.295654 5.270477,2.313721 6.682205,2.313721c7.246933,0 1.788208,-11.939301 -6.30574,-13.975479c-2.352905,-0.555283 -5.929306,-2.591461 -8.658661,-4.997849l-4.70578,-4.072372l3.388168,-0.092575c3.95285,0 5.552811,-1.388229 5.552811,-4.62764c0,-2.591507 -3.670502,-8.144623 -7.905716,-11.939301c-2.917587,-2.684082 -3.10582,-1.388336 -0.564682,3.609573c2.258774,4.44252 2.541122,7.219131 0.564682,5.645691c-0.752914,-0.647888 -1.59996,-2.221237 -1.976425,-3.609558c-0.75293,-3.424423 -2.258789,-5.182968 -5.929306,-7.034042l-3.011703,-1.573334l-0.564682,2.869141c-0.658813,3.146774 -1.882324,3.609573 -2.635239,1.110596c-0.470581,-1.2957 -1.317627,-1.573441 -3.199951,-1.2957c-3.482285,0.462738 -4.799896,-1.203232 -5.741058,-7.404297c-0.75293,-4.350052 -1.411743,-5.368073 -5.646942,-9.070221c-4.894043,-4.257416 -6.305771,-6.386139 -3.011719,-4.62764c2.823486,1.38829 7.623398,1.110596 8.282196,-0.462738c0.658798,-1.851135 -5.270477,-10.643661 -7.246918,-10.643661c-0.75293,0 -2.635239,1.2957 -4.32933,2.869141c-4.235199,4.072311 -5.45871,2.961716 -4.70578,-4.442581c0.658798,-5.83075 0.564682,-5.83075 -1.411743,-4.720154c-1.694077,1.018066 -1.882309,1.851074 -1.59996,6.015915c0.470581,4.81279 0.376465,4.905365 -2.258789,4.905365c-1.411743,0 -2.635239,0.370224 -2.635239,0.833008c0,0.555237 2.258774,2.869095 5.082245,5.275452l4.988144,4.350037l-2.823471,2.406357l-2.823471,2.313812l-1.694092,-2.128708c-1.035278,-1.203125 -1.7882,-2.776566 -1.7882,-3.516998c0,-2.591446 -3.670509,-8.237259 -6.023407,-9.3479c-2.258789,-0.925537 -2.352905,-1.2957 -1.317627,-3.054245c1.129387,-1.758499 0.847046,-2.221283 -2.917587,-5.553177l-4.046982,-3.609512l2.541122,-3.331985c3.482285,-4.53511 4.988136,-4.905273 7.717506,-1.851074c2.541122,2.869186 2.729347,4.257462 0.752914,4.257462c-0.941162,0 -1.411728,0.925598 -1.411728,3.05426c0,3.424454 2.258774,7.126556 4.329323,7.126556c1.976433,0 1.882317,-12.679779 -0.188225,-15.641449c-1.882324,-2.591461 -6.870461,-4.812744 -9.411583,-4.164856c-2.070541,0.555328 -4.517555,-1.666016 -5.552834,-4.997894c-0.470581,-1.666016 -0.188232,-2.313919 1.223503,-2.684036c1.035278,-0.277679 2.164658,-1.48085 2.447021,-2.684082c0.658798,-2.498917 3.858734,-4.072311 8.093941,-4.072311c1.788208,0 3.105835,-0.740425 4.141098,-2.313866c1.505859,-2.221237 1.411743,-2.591507 -0.847038,-7.034035c-1.411736,-2.591499 -2.352898,-5.553223 -2.16465,-6.663864c0.282333,-1.758453 0.941147,-2.036133 5.552826,-2.036133c6.305756,-0.092484 12.611511,-3.331886 11.858582,-6.108498c-0.376465,-1.480858 0.094116,-1.66597 3.858765,-1.573387c2.352875,0 4.517548,-0.277687 4.611664,-0.740433c1.129379,-3.146774 1.976425,-3.424461 6.211639,-2.31382c2.352905,0.555321 5.270493,1.01812 6.493988,1.01812c2.070557,-0.092583 2.070557,-0.092583 -0.37645,-1.66597c-1.505859,-0.832962 -2.635254,-1.851028 -2.635254,-2.221291c0,-0.832954 4.988129,-2.313866 12.235062,-3.517036c3.388168,-0.647903 6.776337,-1.480865 7.529251,-1.943703c2.541122,-1.388184 4.611679,-0.925438 6.305771,1.666016zm-87.339462,63.769142c1.129387,2.776566 1.976433,5.923386 1.976433,7.034027c0,1.666016 -0.188232,1.758545 -1.599968,0.647903c-1.223511,-1.018066 -1.223511,-0.740433 0.282341,1.388336c0.941162,1.48085 2.917587,5.645752 4.235214,9.255264c1.317612,3.609528 2.729355,7.404251 3.199936,8.422363c0.470573,1.295715 -0.094116,0.925537 -1.694077,-0.925583c-1.411743,-1.57338 -4.235214,-6.756348 -6.399879,-11.569092c-2.164673,-4.812698 -4.988144,-10.828766 -6.211647,-13.235153c-3.10582,-6.201035 -2.164665,-7.681885 1.411736,-2.128708c3.576393,5.460632 3.576393,5.275528 1.129387,-1.758499c-1.035271,-2.961716 -1.882309,-5.645752 -1.882309,-5.923386c0.094116,-1.573395 3.952866,4.350037 5.552834,8.792526zm46.304977,23.508545c0.376465,1.2957 0.941147,3.887207 1.317612,5.830811c0.282349,1.943604 1.505859,4.442581 2.635239,5.553177c2.352905,2.221329 5.364594,6.293655 5.364594,7.311722c0,1.388321 -2.258774,0.647888 -12.611511,-4.34996c-8.752762,-4.164886 -10.917419,-5.645798 -12.423279,-8.329834c-2.54113,-4.627686 -1.035278,-5.368057 5.646957,-2.684036c3.105804,1.203186 6.211624,2.221298 6.870438,2.221298c2.070557,0 2.447021,-2.406403 0.75293,-5.553177c-1.411743,-2.776611 -1.411743,-2.96167 0.094116,-2.591553c0.941162,0.092529 1.976425,1.295746 2.352905,2.591553zm-38.963951,9.255325c3.952873,8.977676 4.988136,10.551025 10.352737,17.122314c2.823471,3.609512 5.64695,7.496826 6.211647,8.792572c0.564697,1.2957 2.447006,3.517044 4.235214,5.090439c2.070541,1.851013 3.952866,4.997803 5.646942,9.718018c2.352905,6.38623 2.917587,7.126648 6.776337,9.070251c2.258774,1.110657 4.799911,3.146835 5.552841,4.627594c1.788193,3.51709 3.952866,5.830902 6.493988,6.756439c1.129379,0.462753 2.070541,1.295761 2.070541,2.036194c0,1.851013 6.776337,7.866989 9.693939,8.607468c2.823456,0.647858 9.129227,5.92334 9.129227,7.681824c0,0.555389 -0.847046,1.018066 -1.788208,1.018066c-3.576401,0 -7.152802,-2.036163 -12.799744,-7.219025c-3.199951,-2.869202 -7.717499,-6.849075 -10.164505,-8.792633c-4.988144,-3.979782 -12.987976,-14.068069 -17.693771,-22.305328c-1.694092,-3.054199 -7.058685,-11.291397 -11.858589,-18.23291c-8.941017,-13.142578 -12.987991,-20.36171 -16.282028,-28.876663l-1.882324,-4.81279l1.97644,2.313919c1.129379,1.2957 3.105804,4.62764 4.329315,7.404251zm49.975487,15.36377c4.988129,1.388321 8.470428,3.14682 6.211655,3.14682c-0.564697,0 -1.788208,0.555374 -2.72937,1.295761c-1.505844,1.110641 -1.59996,1.480759 -0.564697,2.776611c1.035278,1.295746 1.035278,1.48085 -0.282333,1.48085c-2.352905,0 -1.788208,1.573441 1.317612,3.424469c1.599976,0.832962 2.823471,2.313812 2.823471,3.054245c0,0.832962 1.035278,2.498932 2.352905,3.702057c1.317612,1.203217 2.258759,2.684082 1.976425,3.33197c-0.282349,0.647858 0.376465,1.851074 1.411743,2.776611c3.294052,2.96167 1.035263,2.498886 -5.45871,-1.110687c-3.482285,-1.943604 -8.376328,-4.535065 -10.823334,-5.738281c-2.541122,-1.203217 -4.517548,-2.5914 -4.517548,-3.054245c0,-0.462692 1.317612,-0.185059 2.917587,0.555374c4.329315,2.221191 4.329315,1.018066 0,-2.313873c-2.070557,-1.665924 -3.482285,-3.517044 -3.294052,-4.072311c0.282349,-0.647858 -0.376465,-1.943604 -1.505844,-2.869186c-2.164673,-1.943604 -2.541138,-3.702103 -0.470581,-2.869141c0.941147,0.370209 1.411728,-0.092529 1.411728,-1.295761c0,-1.57338 0.282349,-1.66597 2.541122,-0.832962c2.541122,0.925537 2.541122,0.925537 0.752914,-0.925537c-2.070541,-2.406387 -1.129379,-2.406387 5.929306,-0.462784zm38.493378,77.74472c3.199921,1.758545 14.023254,6.478668 23.999527,10.365936c16.281998,6.478699 19.387833,7.404236 29.834686,8.885132c6.776352,0.925507 15.529144,1.480774 21.176056,1.388245c5.176361,-0.18515 10.070374,0.092529 10.823303,0.555328c0.75293,0.370209 6.776367,0.740417 13.364471,0.647888c6.588074,-0.09256 12.987976,0.18512 14.211456,0.647919c2.164673,0.833008 2.164673,0.833008 -0.658813,1.573364c-1.505829,0.462799 -9.976257,0.832977 -18.82312,0.740479c-12.705627,-0.09256 -20.140778,-0.647888 -36.328705,-2.961761c-11.105682,-1.665955 -22.6819,-3.609558 -25.599503,-4.350098c-12.705643,-3.239258 -37.363983,-13.605225 -43.010925,-18.04776c-1.317627,-1.018158 2.352905,0.370239 7.999863,3.23941c13.458542,6.571198 18.917252,7.589325 6.493973,1.203125c-5.270477,-2.68399 -10.635071,-5.645752 -11.764481,-6.57132l-2.258774,-1.665924l2.352905,0.647797c1.317612,0.277679 4.988113,1.943695 8.18808,3.70224z"/>
  <path stroke="null" id="svg_3" d="m147.259735,150.132019c0.75293,4.535004 3.670502,12.4021 5.45871,14.901031c1.223511,1.48085 1.694077,1.573425 3.388168,0.555313c1.694092,-1.01796 2.258789,-1.01796 3.4823,0c1.317627,1.018112 1.411728,1.018112 1.035263,-0.185059c-0.282349,-0.740479 0.094116,-2.036179 0.847046,-2.869186c1.129395,-1.388336 0.75293,-2.221283 -3.388168,-7.126556c-7.246918,-8.607483 -8.846893,-8.885117 -5.83519,-1.203232c1.129395,2.591461 1.788208,4.720215 1.505859,4.720215c-0.282349,0 -1.97644,-2.776611 -3.764618,-6.293594c-3.105835,-5.923447 -3.294052,-6.016022 -2.72937,-2.498932z"/>
  <path stroke="null" id="svg_4" d="m12.485913,404.468048c-0.188232,0.647919 -0.282347,38.039429 -0.188232,83.112823l0.282349,81.817017l2.258779,4.905334c5.741064,12.4021 22.870142,21.749939 51.293112,28.043579c13.176208,2.869141 47.057892,7.959595 66.916328,9.995728c38.587479,3.979797 46.587311,4.257446 120.468216,4.257446c60.61058,0 74.445602,-0.277649 90.821762,-1.665955c49.975464,-4.257446 91.95108,-10.736145 112.468384,-17.492554c18.164307,-5.923401 29.458252,-14.160645 33.316986,-24.341492c1.97641,-5.090393 1.97641,-6.108521 1.97641,-87.462738l0,-82.372314l-239.524704,0c-195.949081,0 -239.712924,0.185181 -240.089389,1.203125zm179.761157,45.628815c1.223526,0.462738 1.411758,6.10849 1.505875,45.998871c0,51.459625 -0.282349,49.238312 7.341019,51.089386c4.517563,1.110657 6.682236,2.77655 5.270493,4.164856c-0.470581,0.462769 -7.905731,1.018127 -16.37616,1.110657c-15.246735,0.277649 -15.529099,0.277649 -15.811447,-1.665955c-0.188217,-1.480835 0.376465,-2.221252 2.541138,-2.96167c1.505844,-0.555359 3.199921,-1.851074 3.858734,-2.869141c0.658813,-1.388306 0.941162,-13.235107 0.75293,-39.335175l-0.282349,-37.391449l-2.164658,-2.313812c-1.223511,-1.295715 -3.294052,-2.591492 -4.517548,-2.869202c-4.705811,-1.203156 -2.635254,-3.794678 6.964554,-8.699951c4.988144,-2.591492 9.223343,-4.720215 9.317474,-4.720215c0.094116,-0.09256 0.752914,0.185059 1.599945,0.462799zm167.902588,35.262756c0.188232,27.488281 0.470581,35.447876 1.411743,35.447876c1.317627,-0.09259 17.693756,-13.420227 18.823151,-15.363861c1.129395,-1.943634 0.094116,-2.9617 -3.670502,-3.702148c-1.882294,-0.370209 -3.576385,-1.203186 -3.858734,-1.943604c-1.035278,-2.591461 1.411713,-3.424438 9.41156,-3.14682c4.235229,0.09259 11.293884,0.277679 15.62323,0.370209c6.305786,0.18515 8.093964,0.555328 8.94101,1.758545c1.411713,2.221252 -0.094147,3.424438 -5.176361,4.072327c-2.258789,0.277649 -6.21167,1.480865 -8.846924,2.591492c-6.399872,2.869141 -14.587921,9.53299 -14.587921,11.754242c0,3.517029 12.89386,20.084045 19.858429,25.544678c3.388184,2.591492 5.741028,3.4245 12.140961,4.257446c1.599945,0.18512 2.258728,2.406372 1.129333,4.072327c-0.376465,0.555359 -4.893982,1.295776 -11.011536,1.665955l-10.352722,0.647949l-4.423462,-5.090454c-3.95282,-4.535156 -11.858551,-14.993652 -15.811432,-20.917053c-1.411743,-2.128723 -1.599976,-2.128723 -4.517578,-0.647888c-1.599976,0.833008 -3.4823,2.406372 -4.046967,3.4245c-1.317596,2.406372 -0.75293,13.327698 0.75293,14.808533c0.564667,0.555298 3.294037,1.573364 6.117523,2.128723c3.952881,0.925537 5.082275,1.573364 5.270508,3.14679c0.282318,2.036133 0.094086,2.036133 -11.764496,2.128723c-6.588104,0.092529 -13.929138,0.18512 -16.282013,0.277649c-3.764648,0.092529 -4.235229,-0.18512 -4.517578,-2.036194c-0.282349,-1.665955 0.376465,-2.406372 3.011719,-3.424438c2.447021,-1.018066 3.576385,-2.221252 4.235229,-4.442566c0.470551,-1.665955 0.752899,-18.69574 0.752899,-38.687225c-0.188232,-34.429749 -0.282349,-35.910614 -2.070557,-37.854248c-1.035278,-1.203186 -3.294037,-2.684052 -4.894012,-3.424469c-5.176392,-2.128723 -3.952881,-3.979797 5.646942,-8.792572c13.64679,-6.756348 12.423309,-9.995667 12.705627,31.37558zm-201.784256,-18.78833c-0.658813,10.273438 -0.75293,10.736206 -3.105835,10.736206c-1.317612,0 -2.447006,-1.203217 -3.670502,-3.979797c-3.011703,-6.571259 -4.517548,-7.311676 -16.470261,-8.237274c-12.140945,-0.925476 -18.540825,-0.370178 -18.540825,1.666016c0,0.740387 -0.094116,8.699951 -0.094116,17.677612l0,16.474457l6.870461,0.09256c3.764626,0.09256 9.035126,-0.18512 11.576248,-0.462769c4.70578,-0.555328 4.70578,-0.555328 6.211639,-5.182953c1.223495,-3.887268 1.882309,-4.627655 3.764633,-4.627655c1.788208,0 2.258774,0.462738 2.070541,2.313812c-0.188232,2.498932 -1.223495,23.786133 -1.223495,25.729797c0,0.740417 -0.847046,1.110657 -2.070557,0.925537c-1.317627,-0.18512 -2.352905,-1.388306 -3.294052,-3.979797c-2.352905,-6.663849 -3.764633,-7.404266 -14.587952,-7.404266l-9.505684,0l0.094116,17.585114c0.094101,20.176575 0.094101,20.084045 8.564522,21.287231c4.988144,0.647888 7.058685,2.128723 5.83519,4.072327c-0.658813,0.925537 -4.988144,1.203186 -19.011398,1.203186c-17.693764,0 -18.258461,0 -18.54081,-1.851074c-0.282349,-1.480835 0.376465,-2.128662 2.72937,-2.684021c1.694069,-0.462769 3.952858,-1.943604 4.988129,-3.424438c1.882309,-2.498901 1.97644,-3.517029 1.97644,-38.964935l0,-36.373383l-2.352905,-2.498932c-1.317627,-1.388275 -3.482285,-3.054291 -4.89402,-3.794678c-1.599968,-0.833008 -2.635246,-2.128693 -2.635246,-3.239349c0,-1.758545 0.470581,-1.758545 19.105507,-1.295746c10.446854,0.277649 24.564224,0.185059 31.246445,-0.18515c6.776337,-0.462708 12.987976,-0.647858 13.835022,-0.462708c1.505859,0.370178 1.599976,1.295715 1.129395,8.885071zm96.374573,30.172363c6.211655,2.776581 6.776352,4.905273 6.776352,26.747864l0,18.60321l2.258789,0.555298c1.22348,0.27771 3.670502,0.370239 5.364594,0.18512c2.823456,-0.277649 3.199921,0 3.199921,2.036133c0,1.943604 -1.035278,2.869141 -6.023407,5.275513c-3.294037,1.665955 -6.776337,3.05426 -7.717499,3.05426c-0.941162,0 -3.199936,-1.295715 -5.08226,-2.869141l-3.294052,-2.96167l-5.929291,2.684021c-4.799911,2.221252 -7.058701,2.684021 -13.082077,2.684021c-6.399902,0 -7.435165,-0.277649 -9.693954,-2.313843c-5.552826,-5.090393 -6.68222,-11.384033 -3.011688,-16.752075c2.635254,-3.979797 11.670364,-8.514893 21.646622,-10.921265c4.046982,-1.018127 7.999863,-2.313843 8.658676,-2.869141c1.882294,-1.480835 1.882294,-10.365997 0,-13.883026c-1.505859,-2.869141 -6.776352,-5.182983 -9.788071,-4.164886c-1.035248,0.277649 -3.105835,2.591522 -4.799896,4.997894c-3.294067,5.182953 -7.341034,7.311676 -11.105667,6.015961c-3.4823,-1.203217 -3.95285,-5.275574 -0.941162,-8.422333c4.32933,-4.535156 16.752609,-9.44043 24.281891,-9.44043c2.352905,0 6.023392,0.740417 8.282181,1.758514zm66.82222,-0.09259c2.352875,1.203217 5.364594,13.050018 3.670532,14.160614c-2.164703,1.388336 -3.952881,0.740448 -5.835175,-2.128662c-1.035278,-1.573456 -3.670532,-3.887238 -5.929321,-5.183014c-3.294067,-1.943604 -4.894012,-2.313812 -8.752777,-1.943604c-7.43515,0.740417 -10.352722,4.905334 -6.870453,9.810638c0.847046,1.203156 6.68222,4.535126 13.082092,7.589386c10.635101,4.997864 11.858612,5.830811 14.211517,9.718018c4.70575,8.052185 1.882294,17.585144 -6.493988,22.02771c-3.4823,1.758484 -5.270508,2.036133 -15.246765,1.943604c-7.341034,0 -12.611511,-0.462769 -15.058533,-1.388306l-3.764648,-1.295776l0,-6.941406c0,-8.422363 1.599976,-9.44043 5.552856,-3.794739c3.011688,4.257507 7.717468,6.756409 13.929108,7.311707c8.093964,0.740417 12.046844,-1.388306 12.046844,-6.663818c0,-3.979797 -2.164673,-5.830811 -13.082123,-11.198975c-11.670349,-5.738281 -13.929108,-7.404175 -15.717316,-12.124451c-3.388184,-8.885071 1.411743,-17.492523 11.670349,-20.824432c3.294037,-1.018097 20.140778,-0.370209 22.587799,0.925507z"/>
  <path stroke="null" id="svg_5" d="m240.999069,527.656372c-4.423462,1.480835 -8.564545,3.794739 -10.258636,6.015991c-1.788208,2.221252 -1.411713,7.034058 0.564728,9.44043c1.505829,1.851074 2.635193,2.221252 7.341003,2.128723c3.294067,0 6.682236,-0.647888 8.56456,-1.665955l3.105804,-1.573364l-0.282349,-7.589417c-0.282349,-7.311707 -0.376465,-7.589355 -2.635254,-7.774475c-1.317596,-0.092529 -4.141083,0.370239 -6.399857,1.018066z"/>
 </g>
</svg>