<?xml version="1.0" standalone="no"?>
<!DOCTYPE svg PUBLIC "-//W3C//DTD SVG 20010904//EN"
 "http://www.w3.org/TR/2001/REC-SVG-20010904/DTD/svg10.dtd">
<svg version="1.0" xmlns="http://www.w3.org/2000/svg"
 width="962.000000pt" height="969.000000pt" viewBox="0 0 962.000000 969.000000"
 preserveAspectRatio="xMidYMid meet">
<metadata>
Created by potrace 1.15, written by Peter Selinger 2001-2017
</metadata>
<g transform="translate(0.000000,969.000000) scale(0.100000,-0.100000)"
fill="#000000" stroke="none">
<path d="M0 7335 l0 -2355 4810 0 4810 0 0 2355 0 2355 -4810 0 -4810 0 0
-2355z m9590 5 l0 -2310 -4780 0 -4780 0 0 2310 0 2310 4780 0 4780 0 0 -2310z"/>
<path d="M1260 8429 c-458 -59 -780 -342 -891 -782 -30 -116 -38 -394 -15
-534 28 -181 90 -339 181 -468 47 -67 158 -176 226 -222 113 -78 274 -140 443
-170 125 -22 386 -22 531 1 122 19 374 82 475 118 l65 23 3 528 2 527 -475 0
-475 0 2 -202 3 -203 203 -3 202 -2 0 -205 0 -204 -46 -7 c-67 -10 -245 4
-331 27 -276 70 -435 272 -462 588 -24 268 39 484 183 626 202 199 540 229
846 75 36 -18 113 -66 172 -106 76 -52 116 -74 138 -74 l30 0 0 249 0 248 -72
32 c-172 77 -298 114 -468 137 -114 15 -365 17 -470 3z"/>
<path d="M8304 8430 c-299 -32 -554 -164 -681 -355 -94 -142 -115 -351 -53
-531 75 -218 286 -356 671 -439 341 -74 401 -94 453 -155 32 -39 40 -67 34
-131 -12 -116 -147 -179 -389 -179 -242 0 -493 86 -707 243 -37 27 -61 37 -80
35 l-27 -3 0 -254 0 -253 75 -30 c115 -46 296 -95 416 -114 154 -23 447 -23
578 0 273 49 474 164 593 338 68 101 94 183 100 318 13 285 -113 466 -402 579
-93 37 -208 67 -510 136 -66 15 -143 38 -170 50 -178 78 -140 273 67 337 62
19 94 22 213 22 118 -1 156 -5 240 -28 113 -30 293 -114 374 -175 34 -26 65
-41 83 -41 l28 0 -2 247 -3 247 -60 24 c-78 31 -266 78 -388 96 -126 19 -349
27 -453 16z"/>
<path d="M3285 8391 c-4 -8 -590 -1648 -734 -2054 l-31 -87 272 2 271 3 72
215 72 215 376 3 375 2 74 -220 73 -220 278 0 c261 0 279 1 274 18 -2 9 -167
474 -367 1032 -199 558 -369 1034 -377 1058 l-15 42 -303 0 c-179 0 -306 -4
-310 -9z m539 -1268 l7 -23 -246 0 c-194 0 -246 3 -243 13 3 6 58 171 123 366
l118 355 117 -345 c64 -189 120 -354 124 -366z"/>
<path d="M4957 8393 c-4 -3 -7 -487 -7 -1075 l0 -1068 255 0 255 0 2 711 3
712 185 -454 186 -454 185 -3 186 -2 184 451 184 451 3 -706 2 -706 270 0 270
0 -2 1073 -3 1072 -310 0 -310 0 -217 -505 c-119 -277 -222 -517 -230 -532
-13 -27 -20 -11 -232 484 -120 282 -225 523 -233 536 l-13 22 -304 0 c-166 0
-306 -3 -309 -7z"/>
<path d="M0 2340 l0 -2330 2325 0 2325 0 0 2330 0 2330 -2325 0 -2325 0 0
-2330z"/>
<path d="M4960 2340 l0 -2330 2330 0 2330 0 0 2330 0 2330 -2330 0 -2330 0 0
-2330z"/>
</g>
</svg>
