<?xml version="1.0" encoding="UTF-8" standalone="no"?>
<svg
   xmlns:dc="http://purl.org/dc/elements/1.1/"
   xmlns:cc="http://creativecommons.org/ns#"
   xmlns:rdf="http://www.w3.org/1999/02/22-rdf-syntax-ns#"
   xmlns:svg="http://www.w3.org/2000/svg"
   xmlns="http://www.w3.org/2000/svg"
   viewBox="0 0 32 32"
   height="32"
   width="32"
   xml:space="preserve"
   id="svg2"
   version="1.1"><metadata
     id="metadata8"><rdf:RDF><cc:Work
         rdf:about=""><dc:format>image/svg+xml</dc:format><dc:type
           rdf:resource="http://purl.org/dc/dcmitype/StillImage" /></cc:Work></rdf:RDF></metadata><defs
     id="defs6" /><g
     transform="matrix(1.3333333,0,0,-1.3333333,0,32)"
     id="g10"><g
       transform="scale(0.1)"
       id="g12"><path
         id="path14"
         style="fill:#100f0d;fill-opacity:1;fill-rule:nonzero;stroke:none"
         d="m 120,151.387 c -8.664,0 -16.062,-3.063 -22.1914,-9.196 -6.1328,-6.128 -9.1953,-13.527 -9.1953,-22.191 0,-8.664 3.0625,-16.062 9.1953,-22.1914 6.1294,-6.1289 13.5274,-9.1953 22.1914,-9.1953 8.66,0 16.063,3.0664 22.191,9.1953 6.133,6.1294 9.196,13.5274 9.196,22.1914 0,8.664 -3.063,16.063 -9.196,22.191 -6.128,6.133 -13.531,9.196 -22.191,9.196" /><path
         id="path16"
         style="fill:#100f0d;fill-opacity:1;fill-rule:nonzero;stroke:none"
         d="m 178.238,162.301 c -2.207,-2.207 -4.863,-3.313 -7.968,-3.313 -3.11,0 -5.762,1.106 -7.969,3.313 -2.207,2.207 -3.313,4.859 -3.313,7.969 0,3.105 1.106,5.761 3.313,7.968 2.207,2.207 4.859,3.313 7.969,3.313 3.105,0 5.761,-1.106 7.968,-3.313 2.207,-2.207 3.309,-4.863 3.309,-7.968 0,-3.11 -1.102,-5.762 -3.309,-7.969 z M 154.207,85.793 C 144.809,76.3945 133.406,71.6953 120,71.6953 c -13.406,0 -24.8086,4.6992 -34.207,14.0977 -9.4024,9.3984 -14.1016,20.801 -14.1016,34.207 0,13.406 4.6992,24.809 14.1016,34.207 9.3984,9.398 20.801,14.102 34.207,14.102 13.406,0 24.809,-4.704 34.207,-14.102 9.398,-9.398 14.102,-20.801 14.102,-34.207 0,-13.406 -4.704,-24.8086 -14.102,-34.207 z m 43.094,56.523 c -0.039,2.942 -0.16,6.883 -0.363,11.829 -0.208,4.945 -0.614,9.156 -1.227,12.628 -0.613,3.477 -1.371,6.395 -2.27,8.766 -1.636,4.09 -4.003,7.684 -7.109,10.793 -3.109,3.102 -6.707,5.473 -10.793,7.109 -2.371,0.899 -5.293,1.657 -8.766,2.27 -3.476,0.613 -7.683,1.019 -12.628,1.227 -4.946,0.203 -8.887,0.324 -11.832,0.367 -2.942,0.039 -7.254,0.039 -12.934,0 -5.684,-0.043 -8.809,-0.063 -9.379,-0.063 -0.574,0 -3.699,0.02 -9.379,0.063 -5.683,0.039 -9.992,0.039 -12.9374,0 -2.9414,-0.043 -6.8867,-0.164 -11.8281,-0.367 -4.9453,-0.208 -9.1563,-0.614 -12.6289,-1.227 -3.4766,-0.613 -6.3985,-1.371 -8.7657,-2.27 -4.0898,-1.636 -7.6875,-4.007 -10.7929,-7.109 -3.1055,-3.109 -5.4727,-6.703 -7.1094,-10.793 -0.8984,-2.371 -1.6563,-5.289 -2.2695,-8.766 -0.6133,-3.472 -1.0196,-7.683 -1.2266,-12.628 -0.2031,-4.946 -0.3242,-8.887 -0.3672,-11.829 -0.043,-2.945 -0.043,-7.257 0,-12.937 0.043,-5.68 0.0625,-8.809 0.0625,-9.379 0,-0.57 -0.0195,-3.699 -0.0625,-9.379 -0.043,-5.68 -0.043,-9.992 0,-12.9335 0.043,-2.9453 0.1641,-6.8867 0.3672,-11.832 0.207,-4.9492 0.6133,-9.1563 1.2266,-12.6289 0.6132,-3.4727 1.3711,-6.3985 2.2695,-8.7657 1.6367,-4.0898 4.0039,-7.6836 7.1094,-10.789 3.1054,-3.1094 6.7031,-5.4805 10.7929,-7.1133 2.3672,-0.8984 5.2891,-1.6563 8.7657,-2.2695 3.4726,-0.6094 7.6836,-1.0196 12.6289,-1.2227 4.9414,-0.207 8.8867,-0.3281 11.8281,-0.3672 2.9454,-0.0429 7.2544,-0.0429 12.9374,0 5.68,0.0391 8.805,0.0586 9.379,0.0586 0.57,0 3.695,-0.0195 9.379,-0.0586 5.68,-0.0429 9.992,-0.0429 12.934,0 2.945,0.0391 6.886,0.1602 11.832,0.3672 4.945,0.2031 9.152,0.6133 12.628,1.2227 3.473,0.6132 6.395,1.3711 8.766,2.2695 4.086,1.6328 7.684,4.0039 10.793,7.1133 3.106,3.1054 5.473,6.6992 7.109,10.789 0.899,2.3672 1.657,5.293 2.27,8.7657 0.613,3.4726 1.019,7.6797 1.227,12.6289 0.203,4.9453 0.324,8.8867 0.363,11.832 0.043,2.9415 0.043,7.2535 0,12.9335 -0.039,5.68 -0.059,8.809 -0.059,9.379 0,0.57 0.02,3.699 0.059,9.379 0.043,5.68 0.043,9.992 0,12.937" /><path
         id="path18"
         style="fill:#100f0d;fill-opacity:1;fill-rule:nonzero;stroke:none"
         d="m 213.551,81.1328 c -0.821,-17 -5.887,-30.1601 -15.207,-39.4765 C 189.027,32.3359 175.867,27.2695 158.867,26.4531 151.672,26.043 138.715,25.8398 120,25.8398 c -18.719,0 -31.6758,0.2032 -38.8672,0.6133 -17,0.8164 -30.1601,5.8828 -39.4765,15.2032 C 32.3359,50.9727 27.2695,64.1328 26.4531,81.1328 26.043,88.3242 25.8398,101.281 25.8398,120 c 0,18.719 0.2032,31.672 0.6133,38.867 0.8164,17 5.8828,30.16 15.2032,39.481 9.3164,9.316 22.4765,14.382 39.4765,15.199 7.1914,0.41 20.1482,0.613 38.8672,0.613 18.715,0 31.672,-0.203 38.867,-0.613 17,-0.817 30.16,-5.883 39.477,-15.199 9.32,-9.321 14.386,-22.481 15.207,-39.481 0.406,-7.195 0.609,-20.148 0.609,-38.867 0,-18.719 -0.203,-31.6758 -0.609,-38.8672 z M 226.797,226.797 C 217.992,235.598 207.395,240 195,240 H 45 C 32.6016,240 22.0039,235.598 13.2031,226.797 4.39844,217.992 0,207.395 0,195 V 45 C 0,32.6016 4.39844,22.0039 13.2031,13.2031 22.0039,4.40234 32.6016,0 45,0 h 150 c 12.395,0 22.992,4.40234 31.797,13.2031 C 235.598,22.0039 240,32.6016 240,45 v 150 c 0,12.395 -4.402,22.992 -13.203,31.797" /></g></g></svg>