<?xml version="1.0"?>
<svg width="526" height="533" xmlns="http://www.w3.org/2000/svg" preserveAspectRatio="xMidYMid meet">
 <metadata>Created by potrace 1.15, written by Peter Selinger 2001-2017</metadata>

 <g>
  <title>background</title>
  <rect fill="none" id="canvas_background" height="535" width="528" y="-1" x="-1"/>
 </g>
 <g>
  <title>Layer 1</title>
  <path id="svg_2" d="m96.300003,22.699997c0.300011,2.099991 4.899994,10.399994 7.899994,14.299995l1.900017,2.399994l-8.700012,1.300011c-4.799988,0.699989 -8.900002,1.399994 -9.099998,1.600006c-1.300003,1.399994 2.599998,6.299988 8.300011,10.599983l6.699989,5.100014l-6.400002,0c-6.5,0 -20.900002,3.5 -20.900002,5.099991c0,0.5 0.5,0.900009 1.099998,0.900009c0.599998,0 0.900002,0.599991 0.599998,1.399986c-0.299995,0.800011 1.900002,2.700005 6.5,5.400017c6.200005,3.5 6.800003,4.099983 4.700005,4.599983c-10.099998,1.900017 -14.400002,3.200005 -18.5,5.700005c-4,2.299995 -4.500008,2.900009 -3,3.5c1.299995,0.500008 1.5,0.900002 0.5,1.500008c-1.700005,1 -1.5,1.200005 5.599998,4.200005c4.900002,2.099983 5.599998,2.699989 4,3.199982c-9.900002,3.5 -21.100006,10.700012 -19.800003,12.800018c0.400009,0.699997 0.800003,1.599983 0.800003,2.199997c0,0.5 3,1.599998 6.600006,2.5l6.699997,1.5l-5.900009,3.399986c-6.199997,3.600014 -11.199997,8.100014 -9,8.100014c0.700012,0 1.100006,0.599998 0.800003,1.399994c-0.599991,1.499992 0.199997,1.900009 6,3.100006l3.300003,0.699997l-5.100006,4.599991c-3.699997,3.400009 -5.199997,5.600006 -5.5,8.000015l-0.399994,3.199997l5.600006,0l5.499992,0l-5.599998,5.399994c-5.300003,5.300003 -6.699997,7.600006 -4.399994,7.600006c0.799988,0 0.799988,0.5 -0.100006,1.5c-1.100006,1.300003 -0.199997,1.5 7.199997,1.5l8.400002,0l-6.199997,6.399994c-4.700005,4.800003 -6.200005,6.900009 -6.099998,9c0.199997,2.600006 0.300003,2.600006 8.099998,2.600006l7.900002,0l-4.600006,4.099991c-5.899994,5.200012 -9.599991,10.100006 -7.899994,10.700012c1,0.299988 1,0.699997 0.099991,1.799988c-1,1.200012 0.200012,1.400009 7.600006,1.400009l8.699997,0l-4.199997,4.699997c-5.5,6.300003 -11.5,17.899994 -8.099998,15.899994c0.5,-0.399994 0.699997,0.300003 0.400002,1.300003c-0.5,1.900009 -0.300003,1.900009 5.399994,0.600006c8.400002,-2 8.800003,-2 6.5,1.199997c-3.5,5.100006 -5.599998,9.800003 -5.699997,13.100006c-0.199997,3.699997 -0.199997,3.699997 8,1.599991c2.5,-0.599991 2.699997,-0.500015 2,1.199997c-2.699997,6.299988 -4.300003,12.299988 -3.800003,14.200012c0.600006,2.599991 1.200005,2.699997 6,0.699997c1.900017,-0.800003 3.900017,-1.5 4.200005,-1.5c0.400002,0 -0.299988,3.099991 -1.5,6.799988c-2.200005,6.400024 -2.300003,11.200012 -0.299988,11.200012c0.5,0 3.899986,-1.299988 7.599983,-3c3.600006,-1.600006 6.700005,-3 6.800003,-3c0.199997,0 -0.899986,2.799988 -2.300003,6.200012c-2.399994,6 -3.399994,13 -2,14.299988c0.300003,0.299988 4.100006,-1.200012 8.5,-3.299988l7.900017,-4l-3,5.899994c-2.900017,5.899994 -4.5,16.899994 -2.400017,16.899994c1.5,0 14.900002,-6.399994 21.400009,-10.200012l5.899994,-3.399994l-0.199997,11l-0.100006,11.100006l-6.599991,2c-6.700005,2.100006 -9.200005,3.5 -6.100006,3.5c1.400002,0 1.5,0.299988 0.599998,1.399994c-1,1.200012 -0.299995,1.700012 3.599998,3c2.600006,0.899994 6.300003,2.5 8.199997,3.700012l3.400009,2l-6.400009,6.5c-3.499985,3.5 -5.799988,6.399994 -5.199997,6.399994c0.700012,0 1,0.700012 0.600006,1.700012c-0.5,1.299988 -0.199997,1.5 1.800003,0.899994c7.699997,-2.100006 11.899994,-2.800018 14.399994,-2.200012l2.800003,0.700012l-2.300003,2.399994c-1.199997,1.299988 -4.199997,3.399994 -6.599991,4.700012c-4.800003,2.5 -6,4.399994 -1.800003,2.699982c3.899994,-1.399994 4.099991,-0.299988 0.399994,1.600006c-4.399994,2.299988 -3.300003,2.700012 2.5,1c2.600006,-0.799988 6.300003,-1.5 8.100006,-1.5c3.199997,0 3.299988,0.100006 2.299988,2.600006c-0.499985,1.5 -2.399994,4.5 -4.199997,6.699982c-2.099991,2.800018 -2.599991,3.900024 -1.399994,3.400024c2,-0.700012 2.300003,0.299988 0.5,2.099976c-2.900009,2.900024 1.199997,0.600006 13.5,-7.599976c14.699997,-9.700012 37.899994,-21.900024 53.199997,-28c5.5,-2.200012 20.600006,-7.5 33.5,-11.700012c48.100006,-15.899994 66.300018,-24.600006 80,-38.299988c9.200012,-9.200012 10.5,-12.5 18,-42.200012l6.700012,-26.900009l7.899994,-9.099991c4.399994,-5 10.299988,-12.600006 13.299988,-16.800003c5,-7.300003 13.200012,-22.600006 14.300018,-26.899994c0.600006,-2.100006 1.600006,-2.400024 21.299988,-5.5c5.5,-0.900024 21,-1.300003 50.200012,-1.300003c23.100006,0 41.600006,-0.300003 41,-0.699997c-0.700012,-0.400009 -2.5,-0.800003 -4.200012,-0.900024c-2.600006,-0.199982 -2.5,-0.299973 1,-0.899979c3.600006,-0.600006 3.800018,-0.699997 1.5,-1.300003c-1.399994,-0.399994 -26.100006,-4.699997 -54.899994,-9.599991l-52.299988,-8.800003l-3.200012,3.399994c-1.700012,1.900009 -4.799988,4 -6.799988,4.699997l-3.700012,1.200012l2.100006,4.299973c1.100006,2.300018 3.399994,5.200027 4.899994,6.400024c1.600006,1.099991 2.899994,2.399994 2.899994,2.899994c0,3.300003 -9.399994,-4.899994 -10.899994,-9.5c-1.100006,-3.099991 -1.299988,-3.199997 -5.799988,-2.800018c-3.200012,0.200027 -5.800018,1.100021 -7.600006,2.700027c-3.5,3 -7.600006,3.099991 -11.100006,0.299973c-2.5,-2 -2.799988,-2 -6,-0.499985c-1.899994,0.900009 -4.799988,1.600006 -6.5,1.600006c-2.299988,0 -3.100006,0.5 -3.100006,1.699997c0,0.900009 -1.399994,3.100006 -3.100006,4.900009c-3,3.099991 -3,3.399994 -1.799988,6.799988c1.700012,4.800003 0.399994,8.400009 -4.299988,11.5c-2,1.300003 -4.200012,3.600006 -4.800018,5.100006c-0.600006,1.5 -2.199982,3.300003 -3.600006,4c-4.899994,2.699997 -1.799988,8.699997 4.700012,9.199997c3.700012,0.300003 4.200012,0.600006 5.399994,4.100006c2,6 3.300018,7 8.200012,6.399994c4,-0.399994 4.5,-0.199997 5.799988,2.399994c0.899994,1.600006 2.899994,3.300003 5,4c1.899994,0.700012 3.5,1.600006 3.5,1.900009c0,2.899994 -6.100006,0.899994 -9.399994,-3.100006c-2,-2.300003 -3.299988,-2.899994 -6.399994,-2.899994c-4.399994,0 -7.800018,-2.800003 -9.100006,-7.600006c-0.600006,-2.399994 -1.299988,-2.899994 -4.200012,-3.099991c-4.099976,-0.400009 -7.599976,-3.700012 -8.399994,-7.800003c-0.5,-2.600006 -0.100006,-3.300003 2.700012,-5c1.899994,-1.199997 3.399994,-3 3.600006,-4.300003c0.199982,-1.5 2,-3.300003 4.799988,-5c5.399994,-3.300003 6,-4.800003 3.799988,-10.199997l-1.699982,-4.199997l3.100006,-2.5c3.299988,-2.5 4,-5.100006 2.099976,-7c-0.699982,-0.699997 0.800018,-1.199997 5.100006,-1.600006c7.600006,-0.699997 11,-2.699997 11,-6.699997c0,-1.600006 1.100006,-4.100014 2.399994,-5.699997c3.400024,-3.900009 9.800018,-3.900009 13.200012,0c1.399994,1.599983 2.399994,4.099991 2.399994,5.800003c0,3.399994 0.600006,3.5 9.600006,1.299988c5,-1.299988 7.399994,-2.600006 10,-5.199997l3.399994,-3.5l-2.199982,-2.900002c-3.200012,-4.599998 -12.700012,-11.599998 -18.700012,-13.799995c-11.5,-4.400002 -24.200012,-3.300003 -36.5,3.300003c-12.200012,6.399994 -29.199982,26.399994 -33.800018,39.799988c-2.799988,8.200012 -7.099976,11.200012 -16,11.200012c-4.099976,0 -7,-0.700012 -10.399963,-2.400009c-4.100006,-2.099991 -5.400024,-3.599991 -9.400024,-10.899994c-22.099991,-40.900002 -70.800003,-83.800003 -126.800003,-111.900009c-9.899994,-5 -30.699997,-13.599991 -35.099983,-14.599991c-2.700012,-0.600006 -3.100014,-0.400009 -2.800011,1.199997zm29.699997,24.199989c21.899994,9.900017 71.100006,43.400017 68.100006,46.400017c-0.800003,0.799995 -2.199997,0.099991 -4.800003,-2.100006c-17.400009,-14.899994 -57.100006,-40.5 -74.199989,-47.899994c-3.200012,-1.400017 -4.300011,-2.100006 -2.600014,-1.800003c1.699997,0.300003 7.699997,2.699997 13.5,5.399986zm2.400009,19.600014c13.899994,5.899986 28.599991,14 42.699997,23.599998c12.199997,8.299995 25.899994,20.200005 24.699997,21.400002c-0.399994,0.399986 -4.300003,-2.400002 -8.699997,-6.300003c-12.800003,-11 -28.100006,-20.600006 -48.600006,-30.600006c-10.399994,-5.099991 -20.599998,-10.299988 -22.5,-11.5c-3.300003,-2.099991 -3.300003,-2.200005 -0.800003,-1.700005c1.600006,0.400017 7.5,2.600014 13.200012,5.100014zm-7.600006,14.599991c18.5,5.900002 42.099991,19.100006 61.699997,34.400009c9.5,7.5 12.900009,10.899994 12.300003,12.699997c-0.300003,0.800003 -1.300003,0.400009 -3.199997,-1.5c-10.200012,-10.199997 -31.100006,-24.700012 -45.600006,-31.5c-5.199997,-2.399994 -16.899994,-7.399994 -26,-10.899994c-9.099998,-3.600006 -16.699997,-6.700012 -17,-7c-1.099998,-1.200012 8.600014,0.899994 17.800003,3.799988zm-4.900002,16.600006c13.599998,4.5 34.599998,15.099998 49.999992,25.300003c12.700012,8.399994 25.200012,19.199997 23.800003,20.600006c-0.899994,1 -1.299988,0.699997 -10.300003,-6.900009c-20.199997,-17 -49.999985,-33.099998 -76.399994,-41.200012c-8.099998,-2.499992 -8.300003,-2.499992 -3.099998,-2c3,0.300011 10.200012,2.200012 16,4.200012zm-11.299988,15.800003c17.899986,4.199997 41.499992,14.800003 59.79998,26.800003c10.800003,7.099991 17.300003,12.299988 18.700012,14.899994c2.099991,3.899994 -0.100006,2.800003 -7.800003,-3.699997c-18,-15.399994 -50.800003,-31.100006 -78.300003,-37.400002c-14.699997,-3.400002 -16.599998,-4.099998 -9,-3.5c3.600014,0.299988 11,1.599998 16.600014,2.900002zm-8,13c4.899986,0.899994 13,2.899994 17.899986,4.600006c11.400002,3.799973 34.600006,15.199997 44.800003,21.899994c8.899994,5.899994 19.699997,15.599991 19.699997,17.599991c0,2.200012 -0.899994,1.700012 -7.399994,-4.299988c-7.800003,-7.200012 -24.600006,-18.300003 -36.100006,-23.800003c-17.800003,-8.5 -42,-15.400002 -54.699997,-15.600014c-3.900002,0 -4.800003,-0.299988 -3.300003,-0.899986c3.099998,-1.300003 9.400002,-1.100014 19.100014,0.5zm8.099983,17.100006c21.5,4.399994 48.700012,17.699997 62.300003,30.399994c7.100006,6.699997 3,5.800003 -6.399994,-1.400009c-21.5,-16.399994 -42.800003,-24.999985 -70.600006,-28.599991c-5.199997,-0.699997 -10.599998,-1.600006 -12,-2.100021c-4.099998,-1.499985 18.199997,-0.099976 26.699997,1.700027zm3.800003,14.999985c10.100014,2.100006 18.699997,5 29.100006,10c10.299988,4.800003 20.099991,12.100006 18.599991,13.600006c-0.599991,0.600006 -2.799988,-0.5 -6.300003,-3.100006c-13.299988,-10.199997 -33.999992,-17.399994 -57.399994,-20.199997c-8,-0.899994 -10.300003,-1.5 -8.5,-2c3.199997,-1 15.600014,-0.199997 24.5,1.699997zm40.900009,58c3.799988,1.5 0.699997,2.100006 -12.600006,2.700012c-16,0.699997 -29.100006,3.099991 -38.699989,7.099991c-7,3 -8.900017,2.900009 -3.900017,-0.199997c4.800003,-3 17.200005,-6.899994 25.800003,-8.100006c4.099998,-0.599991 8.600006,-1.299988 10,-1.5c4.400009,-0.599991 17.800003,-0.599991 19.400009,0zm60.199997,54.800003l-2.100006,7.399994l-7.5,3.700012c-15.5,7.700012 -15.5,7.5 -1.5,-6c7.100006,-6.899963 13,-12.5 13.100006,-12.5c0,0 -0.900009,3.300018 -2,7.399994zm-25.600006,8.800018c0,1.299988 0.300003,3.899994 0.600006,5.899994l0.599991,3.600006l-10.800003,4.299988c-11.399994,4.5 -34.5,12.200012 -35.099991,11.600006c-0.199997,-0.100006 2.300003,-2.300018 5.5,-4.899994c3.199997,-2.5 9.300003,-7.800018 13.5,-11.900024c8.399994,-8 7.899994,-8.099976 9.199997,1.400024c0.399994,2.699982 1,4.799988 1.399994,4.799988c0.400009,0 1.400009,-1.299988 2.400009,-2.899994c2.599991,-4.399994 10.699997,-14.100006 11.800003,-14.100006c0.5,0 0.899994,1 0.899994,2.200012z"/>
  <g id="svg_18">
   <path id="svg_3" d="m154,427.200012c-5.600006,14.5 -11.199982,27.299988 -12.299988,28.5c-1.100006,1.199982 -3.200012,2.5 -4.800018,2.799988c-2,0.5 -2.899994,1.299988 -2.899994,2.600006c0,1.699982 0.800018,1.899994 10,1.899994c9.200012,0 10,-0.200012 10,-1.899994c0,-1.200012 -1.100006,-2.300018 -3,-3c-3.600006,-1.200012 -3.699982,-2.200012 -0.899994,-9.500031l2.200012,-5.599976l11.599976,0l11.700012,0l2.399994,6.399994c1.300018,3.600006 2.300018,6.800018 2.300018,7.300018c-0.100006,0.399994 -1.5,1.199982 -3.200012,1.699982c-2,0.600006 -3.100006,1.5 -3.100006,2.700012c0,1.799988 1,1.899994 12.5,1.899994c11.400024,0 12.5,-0.200012 12.5,-1.799988c0,-1.300018 -1.200012,-2.100006 -4.100006,-2.800018l-4.099976,-0.899994l-11.100006,-28c-9.300018,-23.199982 -11.600006,-28.100006 -13.300018,-28.299988c-1.799988,-0.300018 -3.199982,2.599976 -12.399994,26zm15.100006,-0.200012l4.700012,12l-9.900024,0l-9.899994,0l2.100006,-5.299988c1.200012,-2.800018 3.200012,-8.200012 4.600006,-12c1.399994,-3.700012 2.799988,-6.700012 3.199982,-6.700012c0.300018,0 2.700012,5.399994 5.200012,12z"/>
   <path id="svg_4" d="m104,405.700012c0,2.099976 0.5,2.299988 4.800018,2.299988c2.599976,0 5.299988,0.5 6,1.200012c1.699982,1.699982 1.699982,69.899994 0,71.599976c-0.700012,0.700012 -3.400024,1.200012 -6,1.200012c-4.5,0 -4.800018,0.200012 -4.800018,2.5l0,2.5l32,0c17.600006,0 32,-0.100006 32,-0.299988c0,-0.100006 0.700012,-6.100006 1.5,-13.200012c2,-17.600006 2,-18.5 -0.5,-18.5c-1.399994,0 -2,0.700012 -2,2.300018c0,4.499969 -3.100006,14.199982 -5.699982,17.499969c-4.300018,5.700012 -9.5,7.300018 -22,7l-10.800018,-0.299988l-0.299988,-35.5c-0.300018,-40.799988 -1,-38 9.5,-38c5.899994,0 6.299988,-0.100006 6.299988,-2.299988l0,-2.300018l-20,0.100006l-20,0l0,2.200012z"/>
   <path id="svg_5" d="m324,405.700012c0,2 0.5,2.299988 4.100037,2.299988c2.199951,0 4.899963,0.5 6.099976,1.100006c2.599976,1.399994 25.099976,35.699982 24.400024,37.200012c-0.300049,0.699982 -5.200012,7.899994 -10.800049,16.199982c-8.699951,12.700012 -11,15.299988 -14.799988,17.200012c-2.399963,1.299988 -5.899963,2.299988 -7.700012,2.299988c-2.899963,0 -3.299988,0.300018 -3.299988,2.5c0,2 0.5,2.5 2.600037,2.5c2.5,0 2.599976,0.200012 2,3.700012c-1.100037,6 -4.800049,12.599976 -8.400024,15c-1.799988,1.199982 -5.5,2.599976 -8.299988,3.199982c-6.200012,1.300018 -25.799988,1.399994 -27.900024,0.100006c-1.200012,-0.700012 -1.599976,-4.200012 -1.799988,-18.5l-0.400024,-17.5l5.900024,0c7.200012,0.100006 13.099976,1.399994 15.099976,3.399994c0.900024,0.900024 1.900024,3.700012 2.200012,6.300018c0.400024,4 0.900024,4.899994 2.799988,5.099976l2.200012,0.300018l0,-17.100006l0,-17.100006l-2.200012,0.300018c-1.899963,0.199982 -2.399963,1.100006 -2.799988,5.100006c-0.299988,2.599976 -1.299988,5.399994 -2.200012,6.299957c-2,2 -7.899963,3.300018 -15,3.400024l-5.799988,0l0,-13.400024c0,-7.299957 0.299988,-14.799988 0.600037,-16.499969l0.699951,-3.100006l14.300049,0c21.299988,0 25.099976,2.200012 27.899963,15.700012c0.799988,3.699982 1.900024,6.899963 2.5,7.099976c0.5,0.200012 1,1.200012 1,2.300018c0,1 0.5,1.899994 1.100037,1.899994c0.699951,0 0.899963,-1.200012 0.5,-3.299988c-0.300049,-1.700012 -1.200012,-8.900024 -1.800049,-15.900024l-1.199951,-12.799988l-28.5,-0.200012l-28.600037,-0.299988l-0.200012,-2.5c-0.099976,-1.400024 -0.5,-7.299988 -0.799988,-13.299988l-0.700012,-10.700012l-37.299988,0c-34.699982,0 -37.399994,0.100006 -37.899994,1.700012c-0.299988,1 -0.799988,7.299988 -1.200012,14c-0.599976,11.099976 -0.5,12.299988 1,12.299988c1.900024,0 2,-0.200012 3.400024,-9.400024c0.899994,-5.599976 1.699982,-7.499969 4.199982,-10c2.900024,-3 3.400024,-3.099976 13.400024,-3.399963c10.099976,-0.400024 10.299988,-0.300018 10.899963,2c0.400024,1.199982 0.700012,16.699982 0.700012,34.299988c0,38.5 0.600037,36.5 -10.599976,36.5c-7.200012,0 -7.400024,0.100006 -7.400024,2.5l0,2.5l23.5,0l23.5,0l0,-2.5c0,-2.399994 -0.200012,-2.5 -7.399963,-2.5c-5.5,0 -7.900024,-0.399994 -9,-1.600006c-1.400024,-1.399994 -1.600037,-5.699982 -1.400024,-36.199982l0.299988,-34.700012l9.5,-0.299988c8.100037,-0.200012 10,0.100006 12.799988,1.799988c3.900024,2.399994 5.700012,6.300018 6.700012,14.200012l0.700012,5.799988l-4.599976,0c-4.200012,0 -4.600037,0.200012 -4.600037,2.5c0,2.399994 0.299988,2.5 5.5,2.5c4.299988,0 5.600037,0.399994 6.5,1.899994c1.600037,3.100006 1.400024,67.200012 -0.299988,69.5c-0.900024,1.200012 -3.099976,2 -6.5,2.399994c-4.200012,0.400024 -5.200012,0.800018 -5.200012,2.299988c0,1.799988 1.5,1.900024 35.5,1.900024c19.5,0 35.5,-0.100037 35.600037,-0.299988c0,-0.099976 1,-6.100006 2.199951,-13.200012l2.300049,-13l10.199951,-0.299988c9.900024,-0.300018 10.200012,-0.300018 10.200012,-2.600006c0,-1.800018 -0.700012,-2.5 -3,-2.899994c-2.099976,-0.5 -3.099976,-1.399994 -3.599976,-3.200012c-0.5,-2.100006 1,-4.900024 8.200012,-15.5l8.799988,-13l9.799988,14.799988c8.799988,13.300018 9.599976,14.800018 8.099976,16c-0.899963,0.600006 -2.699951,1.200012 -4,1.200012c-1.799988,0 -2.299988,0.600006 -2.299988,2.5l0,2.5l17,0l17,0l0,-2.5c0,-2.299988 -0.399963,-2.5 -4.299988,-2.5c-2.299988,0 -5.200012,-0.699982 -6.400024,-1.5c-1.899963,-1.299988 -27.099976,-38.900024 -27.399963,-40.799988c-0.100037,-0.5 4,-6.900024 9.099976,-14.200012c9.799988,-14.299988 13.600037,-17.5 20.799988,-17.5c2.700012,0 3.200012,-0.400024 3.200012,-2.5l0,-2.5l-15,0l-15,0l0,2.5c0,1.800018 0.5,2.5 2,2.5c1.900024,0 6,3.200012 6,4.700012c0,0.5 -3.299988,5.600006 -7.399963,11.5l-7.300049,10.699982l-7.699951,-11.5c-4.300049,-6.5 -7.5,-12.199982 -7.200012,-13c0.299988,-0.800018 1.899963,-1.699982 3.599976,-2c2.200012,-0.5 3,-1.199982 3,-2.800018c0,-2.099976 -0.299988,-2.099976 -17,-2.099976l-17,0l0,2.200012z"/>
  </g>
 </g>
</svg>