<?xml version="1.0" standalone="no"?>
<!DOCTYPE svg PUBLIC "-//W3C//DTD SVG 20010904//EN"
 "http://www.w3.org/TR/2001/REC-SVG-20010904/DTD/svg10.dtd">
<svg version="1.0" xmlns="http://www.w3.org/2000/svg"
 width="1417.000000pt" height="1795.000000pt" viewBox="0 0 1417.000000 1795.000000"
 preserveAspectRatio="xMidYMid meet">
<metadata>
Created by potrace 1.15, written by Peter Selinger 2001-2017
</metadata>
<g transform="translate(0.000000,1795.000000) scale(0.100000,-0.100000)"
fill="#000000" stroke="none">
<path d="M9409 17590 c-42 -4 -91 -15 -109 -24 -19 -9 -57 -16 -88 -16 -34 0
-71 -7 -96 -19 -23 -11 -67 -24 -98 -30 -32 -6 -68 -17 -80 -25 -13 -8 -42
-17 -65 -21 -22 -3 -49 -15 -59 -26 -9 -10 -29 -19 -44 -19 -15 0 -38 -9 -52
-19 -13 -11 -38 -23 -54 -27 -16 -4 -45 -18 -64 -31 -19 -12 -40 -23 -47 -23
-6 0 -18 -6 -25 -13 -7 -7 -29 -19 -48 -27 -19 -7 -43 -22 -53 -32 -10 -10
-24 -18 -31 -18 -8 0 -20 -7 -27 -17 -8 -9 -29 -22 -46 -30 -18 -7 -33 -17
-33 -23 0 -5 -11 -15 -24 -22 -50 -28 -103 -67 -144 -107 -23 -22 -46 -41 -52
-41 -5 0 -14 -9 -20 -19 -5 -11 -18 -22 -27 -25 -10 -3 -39 -27 -65 -54 -27
-26 -67 -66 -90 -89 -90 -90 -98 -98 -98 -106 0 -4 -24 -31 -52 -60 -29 -29
-79 -82 -111 -118 -54 -61 -68 -79 -118 -156 -11 -17 -26 -34 -34 -37 -8 -3
-15 -12 -15 -19 0 -8 -7 -21 -17 -28 -9 -8 -22 -27 -30 -44 -8 -16 -27 -48
-44 -70 -16 -22 -39 -58 -50 -79 -12 -22 -28 -46 -35 -54 -8 -7 -14 -19 -14
-26 0 -7 -9 -24 -19 -38 -11 -13 -23 -38 -27 -54 -4 -16 -15 -38 -24 -49 -10
-11 -21 -35 -25 -54 -4 -18 -16 -42 -26 -52 -10 -10 -19 -32 -19 -47 0 -16 -9
-39 -20 -51 -10 -13 -22 -44 -26 -69 -4 -26 -15 -58 -25 -71 -12 -15 -19 -40
-19 -70 0 -29 -8 -59 -21 -80 -15 -24 -23 -61 -29 -135 -4 -55 -16 -119 -25
-141 -15 -34 -17 -76 -17 -286 0 -270 2 -277 59 -300 19 -7 39 -19 45 -26 8
-10 56 -13 193 -13 151 0 191 3 236 19 30 10 90 21 134 26 50 4 92 14 111 26
17 10 45 19 62 19 33 0 82 18 82 30 0 4 19 10 41 14 23 4 60 18 84 31 23 14
49 25 57 25 8 0 23 9 32 19 10 10 33 22 52 26 19 3 37 12 40 20 3 7 17 16 32
20 14 3 39 17 55 31 16 13 34 24 41 24 7 0 22 11 34 25 12 14 29 25 37 25 8 0
15 4 15 10 0 5 12 16 28 24 15 8 37 22 49 33 12 10 36 29 54 43 81 63 389 367
389 383 0 4 19 25 43 49 23 24 56 63 74 88 46 64 65 88 91 116 12 14 22 29 22
34 0 5 10 21 23 37 23 30 36 49 65 97 9 16 27 41 40 56 12 15 22 35 22 44 0 8
8 20 19 25 10 6 22 26 25 44 4 19 15 42 26 52 11 10 20 26 20 37 0 10 9 27 19
37 11 11 23 36 26 55 4 19 16 42 26 52 10 9 19 30 19 45 0 16 11 45 25 65 14
20 25 48 25 61 0 25 17 64 32 74 5 3 11 30 15 60 3 30 14 65 23 79 10 14 20
55 23 95 4 39 16 88 27 110 16 32 20 59 20 140 0 78 4 106 17 124 14 21 17 63
21 290 4 242 3 268 -12 281 -21 17 -147 22 -257 10z"/>
<path d="M9053 14401 c-39 -4 -79 -13 -88 -21 -9 -7 -59 -17 -117 -22 -56 -4
-115 -15 -132 -24 -17 -9 -60 -18 -96 -21 -36 -3 -78 -13 -95 -23 -16 -10 -59
-21 -94 -24 -35 -4 -75 -15 -90 -26 -14 -10 -50 -21 -79 -24 -29 -3 -68 -14
-86 -26 -19 -11 -49 -20 -68 -20 -20 0 -46 -9 -60 -19 -13 -11 -46 -22 -73
-26 -28 -4 -61 -15 -75 -25 -14 -9 -45 -20 -70 -24 -24 -4 -52 -13 -61 -21 -8
-8 -37 -19 -63 -24 -26 -5 -54 -15 -64 -24 -9 -8 -35 -18 -57 -22 -22 -4 -51
-15 -65 -24 -14 -10 -40 -21 -59 -24 -19 -4 -43 -15 -53 -24 -11 -10 -47 -20
-85 -25 -36 -4 -74 -15 -84 -24 -44 -40 -271 -38 -348 3 -24 12 -60 23 -79 23
-19 0 -49 9 -67 20 -18 11 -54 23 -81 26 -27 4 -62 14 -79 24 -16 10 -50 21
-75 24 -25 4 -59 15 -75 26 -17 11 -41 20 -55 20 -14 0 -44 9 -65 20 -22 11
-58 23 -80 27 -22 3 -53 13 -70 23 -16 10 -50 21 -75 25 -25 4 -58 15 -75 25
-16 10 -49 20 -73 23 -24 3 -51 12 -61 21 -9 8 -44 18 -76 22 -33 3 -65 13
-72 21 -6 8 -42 19 -80 24 -37 5 -85 18 -106 29 -21 11 -57 20 -83 20 -25 0
-66 9 -91 21 -32 14 -75 22 -142 26 -58 4 -108 12 -126 21 -42 22 -411 21
-482 -1 -27 -9 -103 -18 -171 -20 -94 -4 -129 -9 -149 -23 -16 -10 -54 -19
-97 -22 -43 -2 -83 -12 -101 -22 -16 -10 -57 -21 -90 -25 -34 -4 -69 -15 -80
-25 -11 -9 -42 -20 -68 -24 -27 -3 -60 -15 -74 -26 -14 -11 -36 -20 -48 -20
-12 0 -33 -8 -46 -19 -13 -10 -40 -22 -59 -26 -19 -4 -43 -16 -53 -26 -10 -11
-26 -19 -35 -19 -10 0 -33 -11 -52 -25 -19 -14 -41 -25 -51 -25 -9 0 -22 -7
-29 -15 -7 -8 -32 -24 -56 -35 -24 -10 -44 -24 -44 -29 0 -6 -11 -13 -25 -17
-14 -3 -30 -15 -36 -25 -5 -11 -18 -19 -28 -19 -11 0 -29 -11 -42 -25 -13 -13
-29 -25 -36 -25 -7 0 -17 -9 -23 -20 -6 -11 -17 -20 -24 -20 -8 0 -20 -7 -27
-17 -8 -9 -27 -24 -43 -34 -88 -53 -575 -547 -576 -583 0 -5 -7 -16 -15 -25
-16 -17 -54 -67 -95 -126 -14 -20 -35 -49 -47 -65 -13 -15 -23 -32 -23 -37 0
-5 -11 -20 -25 -33 -14 -13 -25 -31 -25 -40 0 -9 -9 -25 -20 -35 -10 -9 -24
-32 -30 -50 -6 -18 -17 -36 -25 -39 -8 -3 -15 -13 -15 -22 0 -9 -11 -29 -25
-46 -14 -16 -25 -37 -25 -47 0 -9 -11 -32 -25 -51 -14 -19 -25 -44 -25 -57 0
-12 -9 -27 -20 -33 -11 -6 -20 -21 -20 -34 0 -13 -11 -40 -25 -60 -14 -20 -25
-47 -25 -60 0 -12 -11 -37 -25 -56 -14 -19 -25 -47 -25 -65 0 -19 -8 -39 -19
-49 -11 -10 -22 -38 -26 -67 -4 -27 -13 -56 -21 -64 -8 -8 -19 -39 -24 -69 -5
-30 -16 -66 -25 -80 -9 -13 -19 -51 -22 -83 -3 -32 -14 -68 -24 -81 -11 -15
-20 -50 -24 -100 -4 -42 -14 -88 -22 -101 -10 -16 -18 -63 -23 -131 -5 -77
-12 -114 -26 -134 -15 -24 -19 -57 -24 -220 -4 -144 -10 -200 -22 -228 -14
-32 -16 -83 -16 -375 1 -304 3 -343 20 -386 15 -40 18 -77 18 -220 1 -163 11
-252 37 -303 6 -10 11 -66 12 -124 2 -75 8 -117 21 -146 10 -23 21 -82 25
-135 4 -55 14 -108 25 -129 9 -19 20 -71 24 -114 4 -51 12 -86 22 -97 10 -11
20 -49 25 -95 4 -42 15 -84 22 -93 8 -9 18 -45 21 -80 4 -36 15 -76 25 -90 10
-15 21 -52 25 -85 4 -35 15 -69 26 -84 11 -14 20 -40 20 -61 0 -20 12 -58 25
-86 14 -27 25 -63 25 -78 0 -16 8 -41 19 -55 10 -15 22 -47 26 -72 4 -25 16
-56 26 -69 11 -13 19 -39 19 -58 0 -23 9 -46 25 -65 15 -17 25 -42 25 -60 0
-16 9 -41 19 -55 11 -13 23 -44 27 -68 3 -24 15 -52 25 -61 10 -9 19 -29 19
-43 0 -14 12 -44 25 -66 14 -22 25 -48 25 -58 0 -11 9 -32 21 -48 11 -16 23
-45 26 -64 3 -20 14 -40 24 -46 11 -5 19 -20 19 -34 0 -13 11 -37 25 -53 14
-17 25 -41 25 -54 0 -14 9 -33 19 -42 11 -10 23 -32 27 -50 3 -17 14 -40 24
-51 9 -11 20 -32 24 -48 4 -15 15 -36 26 -47 11 -11 20 -31 20 -44 0 -13 7
-30 16 -37 9 -8 25 -32 36 -54 30 -62 55 -105 72 -124 9 -10 16 -24 16 -33 0
-8 11 -25 25 -38 14 -13 25 -31 25 -40 0 -9 9 -25 20 -35 11 -10 20 -24 20
-31 0 -7 11 -25 25 -40 14 -15 25 -34 25 -44 0 -9 11 -27 25 -40 14 -13 25
-29 25 -35 0 -7 9 -20 20 -30 11 -10 20 -24 20 -30 0 -11 32 -57 72 -106 7 -9
20 -27 28 -41 34 -58 71 -108 79 -108 5 0 11 -8 15 -18 9 -25 77 -119 112
-155 12 -12 24 -32 28 -44 4 -13 11 -23 15 -23 3 0 15 -15 26 -33 10 -17 27
-38 37 -45 10 -7 18 -18 18 -24 0 -6 10 -21 23 -34 31 -33 50 -56 68 -85 9
-13 34 -45 55 -69 22 -24 49 -55 62 -69 131 -149 349 -373 422 -431 55 -45 66
-54 128 -110 18 -17 39 -30 46 -30 12 0 29 -13 89 -66 10 -8 33 -20 50 -26 18
-6 41 -19 52 -28 11 -10 31 -21 45 -25 14 -4 36 -16 49 -26 13 -11 34 -19 46
-19 12 0 33 -8 46 -19 13 -10 42 -21 64 -25 22 -4 56 -16 75 -26 19 -10 65
-21 102 -24 37 -3 81 -12 97 -21 22 -11 62 -15 156 -15 106 0 132 3 165 20 24
12 59 20 89 20 31 0 63 7 83 19 18 10 57 22 87 25 30 4 70 15 90 25 20 10 62
21 94 24 36 3 67 13 83 26 17 14 41 21 68 21 23 0 59 9 80 21 21 11 61 23 90
26 28 3 59 12 68 21 10 8 41 19 70 23 29 5 64 17 78 27 14 10 47 21 73 24 26
3 56 13 67 23 11 10 45 20 79 24 33 4 68 14 78 23 10 9 45 19 78 23 33 4 68
14 78 23 12 11 45 19 91 23 46 3 90 14 122 29 49 24 50 25 379 24 l330 -1 74
-26 c46 -17 95 -27 128 -27 38 0 62 -6 81 -20 17 -12 52 -22 97 -26 39 -4 77
-13 86 -21 10 -8 47 -18 84 -24 40 -5 77 -17 92 -29 18 -14 41 -20 73 -20 31
0 55 -6 71 -19 13 -10 44 -22 69 -26 25 -4 59 -15 75 -25 17 -10 50 -21 75
-25 25 -4 57 -16 72 -26 14 -11 41 -19 60 -19 18 0 56 -11 83 -25 28 -13 68
-25 90 -25 22 0 56 -8 75 -18 19 -11 68 -22 108 -26 41 -3 90 -15 112 -26 37
-19 60 -20 353 -20 301 0 315 1 340 20 15 12 43 23 63 26 20 2 42 11 48 20 6
8 32 20 56 25 25 6 52 17 62 26 20 18 68 45 121 69 20 9 37 23 37 31 0 7 6 13
13 13 15 0 171 115 214 159 17 17 36 31 42 31 5 0 13 9 16 20 3 11 10 20 15
20 10 0 28 16 162 146 48 46 95 95 104 109 9 14 45 54 80 90 35 36 64 67 64
70 0 3 19 24 41 47 23 24 49 54 58 68 8 14 21 29 28 33 7 4 13 14 13 22 0 8
11 22 25 31 14 9 25 22 25 28 0 7 10 22 23 33 12 12 33 38 47 58 14 20 35 49
48 65 12 15 22 33 22 38 0 6 8 17 18 24 9 7 26 27 36 43 11 17 25 34 33 38 7
4 13 17 13 27 0 11 9 24 20 30 11 6 20 16 20 23 0 7 11 25 25 41 14 16 25 34
25 41 0 6 11 22 25 35 14 13 25 29 25 35 0 7 9 20 20 30 11 10 20 23 20 28 0
12 67 114 79 122 5 3 12 19 16 35 4 17 15 36 25 43 10 7 22 25 25 39 4 15 15
34 26 44 10 9 19 22 19 29 0 7 11 25 25 41 14 16 25 36 25 45 0 9 9 24 19 33
10 10 22 33 25 52 4 18 16 38 26 44 11 6 20 21 20 35 0 13 11 37 25 53 14 17
25 41 25 54 0 13 9 31 20 40 11 10 23 30 26 45 4 15 15 38 25 51 10 13 20 36
24 51 3 16 15 38 25 49 11 12 20 35 20 51 0 18 8 35 19 43 10 7 22 29 26 48 4
19 16 46 25 60 10 14 21 43 25 64 4 22 15 51 26 64 10 14 19 33 19 43 0 22 21
69 30 69 4 0 11 20 14 44 4 25 15 55 25 68 10 13 22 43 26 68 4 25 15 56 25
70 9 14 20 47 24 74 3 27 13 57 21 66 9 10 15 36 15 63 0 50 -16 67 -64 67
-15 0 -30 8 -36 20 -6 12 -21 20 -36 20 -14 0 -35 11 -48 24 -12 14 -35 27
-51 30 -15 3 -37 14 -49 25 -12 11 -33 23 -48 26 -16 4 -28 11 -28 15 0 5 -8
11 -18 14 -10 4 -34 20 -52 36 -19 17 -40 30 -47 30 -7 0 -21 9 -30 20 -10 11
-22 20 -28 20 -7 0 -22 11 -35 25 -13 14 -29 25 -35 25 -12 0 -48 28 -91 70
-12 11 -26 20 -32 20 -6 0 -14 9 -17 20 -3 11 -12 20 -19 20 -7 0 -22 10 -33
23 -12 12 -69 69 -127 126 -58 58 -106 110 -106 117 0 7 -9 16 -20 19 -11 3
-20 10 -20 14 0 5 -10 20 -22 34 -13 14 -39 47 -58 74 -19 26 -41 52 -47 56
-7 4 -13 14 -13 21 0 7 -11 23 -25 36 -14 13 -25 28 -25 33 0 5 -11 22 -25 39
-14 16 -25 36 -25 43 0 8 -9 19 -20 25 -11 6 -20 19 -20 30 0 10 -11 32 -25
48 -14 17 -25 35 -25 40 0 6 -11 28 -25 48 -14 20 -25 43 -25 51 0 8 -9 26
-20 40 -11 14 -23 41 -26 62 -4 20 -15 42 -26 49 -10 7 -18 24 -18 37 0 13
-11 45 -25 71 -14 26 -25 58 -25 71 0 14 -9 36 -19 49 -11 14 -23 50 -27 82
-3 31 -13 65 -21 74 -9 10 -19 52 -24 103 -5 47 -16 96 -25 110 -46 70 -45
1046 1 1136 10 17 20 68 24 113 4 45 15 93 23 106 9 14 19 50 23 80 4 30 15
66 25 80 10 14 21 43 25 65 4 22 15 54 25 70 9 17 21 47 24 68 4 20 11 37 16
37 4 0 16 22 25 49 9 27 22 55 30 61 8 7 17 27 21 46 3 19 15 39 25 45 11 5
19 18 19 29 0 10 11 31 24 47 13 15 26 38 30 51 4 12 11 22 16 22 5 0 11 8 14
18 3 9 17 30 31 46 14 16 25 35 25 41 0 7 11 20 25 29 14 9 25 21 25 27 0 10
80 110 122 152 10 10 18 24 18 32 0 7 9 17 20 20 11 3 20 10 20 15 0 10 116
123 133 129 6 2 18 12 27 21 25 28 172 147 236 190 20 14 47 35 61 48 13 12
31 22 39 22 8 0 17 6 20 14 3 8 23 22 45 30 22 9 42 22 45 30 3 8 17 17 32 21
40 10 52 24 52 59 0 37 -39 101 -97 161 -13 12 -23 25 -23 29 0 39 -365 416
-502 518 -13 9 -37 29 -54 43 -18 14 -35 25 -39 25 -4 0 -16 11 -27 25 -11 14
-25 25 -33 25 -7 0 -19 7 -26 17 -8 9 -29 22 -46 30 -18 7 -33 17 -33 22 0 5
-14 15 -32 22 -18 7 -40 21 -50 31 -10 10 -27 18 -37 18 -11 0 -26 8 -33 19
-7 10 -27 21 -44 25 -18 4 -40 16 -50 27 -9 10 -27 19 -39 19 -12 0 -34 10
-49 21 -15 12 -46 26 -69 31 -23 5 -49 16 -58 24 -9 8 -34 18 -55 21 -22 3
-50 14 -64 24 -14 9 -47 20 -75 24 -27 4 -58 14 -67 22 -9 8 -51 19 -93 24
-42 6 -88 17 -102 26 -15 10 -53 18 -101 20 -48 3 -96 13 -127 26 -48 20 -67
21 -480 23 -236 1 -462 -1 -502 -5z"/>
<path d="M9290 3400 c0 -6 -27 -10 -60 -10 -33 0 -60 -4 -60 -10 0 -5 -18 -10
-40 -10 -22 0 -40 -4 -40 -9 0 -4 -12 -8 -27 -7 -16 1 -34 -5 -41 -11 -7 -7
-25 -13 -38 -13 -14 0 -22 -4 -19 -10 4 -6 -7 -10 -24 -10 -17 0 -31 -5 -31
-11 0 -5 -4 -8 -9 -4 -5 3 -17 -2 -25 -11 -9 -9 -23 -13 -31 -10 -9 3 -15 -1
-15 -10 0 -8 -4 -13 -9 -9 -5 3 -16 -2 -24 -10 -9 -8 -20 -15 -26 -15 -6 0
-11 -4 -11 -10 0 -5 -6 -10 -13 -10 -7 0 -19 -9 -27 -20 -8 -11 -19 -20 -25
-20 -6 0 -21 -9 -34 -21 -19 -18 -24 -19 -39 -7 -15 11 -16 11 -4 -3 10 -14
10 -18 -3 -23 -10 -3 -13 -11 -9 -18 4 -7 4 -10 0 -6 -5 4 -19 -4 -33 -18 -21
-21 -27 -23 -41 -12 -10 7 -14 8 -10 4 4 -5 0 -14 -9 -21 -13 -9 -13 -14 -3
-20 8 -5 11 -4 7 2 -7 12 17 26 27 16 9 -9 -65 -72 -79 -67 -17 7 -29 -13 -14
-22 8 -4 9 -3 5 4 -4 7 -2 12 3 12 6 0 11 -2 11 -4 0 -10 -26 -52 -35 -56 -5
-3 -9 -8 -8 -12 2 -5 -2 -8 -7 -8 -6 0 -10 -7 -10 -15 0 -8 -9 -26 -21 -39
-12 -13 -21 -28 -22 -33 0 -4 -7 -14 -14 -21 -7 -8 -11 -18 -8 -23 4 -5 2 -9
-3 -9 -9 0 -39 -79 -34 -92 1 -5 -3 -8 -8 -8 -6 0 -10 -9 -10 -20 0 -11 -4
-20 -10 -20 -5 0 -10 -13 -10 -30 0 -16 -4 -30 -10 -30 -5 0 -10 -13 -10 -30
0 -16 -4 -30 -10 -30 -5 0 -10 -18 -10 -40 0 -25 -5 -40 -12 -40 -9 0 -8 -4 2
-10 13 -9 13 -10 0 -10 -11 0 -16 -13 -17 -47 -10 -187 -15 -236 -24 -222 -6
9 -9 -33 -8 -118 1 -89 5 -134 13 -137 7 -3 7 -5 -1 -5 -7 -1 -13 -9 -13 -18
0 -16 2 -16 10 -3 7 10 10 -15 9 -84 -1 -69 2 -100 11 -106 9 -6 8 -11 -6 -20
-14 -8 -15 -10 -2 -6 13 4 16 -2 16 -28 0 -19 5 -43 12 -56 6 -12 9 -27 7 -35
-3 -7 1 -22 9 -34 9 -12 15 -31 14 -44 -3 -38 0 -48 12 -41 8 5 9 0 5 -15 -3
-12 1 -27 9 -35 8 -8 14 -24 14 -36 0 -12 4 -19 9 -16 4 3 8 -2 8 -12 0 -34 3
-43 13 -37 6 4 10 -5 10 -19 0 -14 5 -26 10 -26 6 0 10 -9 10 -20 0 -11 5 -20
10 -20 6 0 10 -7 10 -16 0 -9 5 -12 12 -8 6 4 8 3 4 -4 -3 -6 1 -18 10 -27 9
-9 14 -19 10 -22 -3 -3 2 -12 12 -20 10 -9 11 -12 2 -7 -8 4 -4 -4 10 -18 14
-13 28 -23 31 -21 4 1 6 -5 5 -15 0 -9 4 -19 9 -21 6 -3 16 -11 23 -18 12 -11
12 -17 1 -31 -11 -14 -11 -15 1 -4 19 17 33 15 26 -4 -3 -8 -2 -13 3 -10 5 3
12 -1 15 -10 3 -8 9 -13 13 -11 8 4 65 -51 72 -69 1 -5 7 -8 12 -6 5 1 9 -5 9
-14 0 -8 5 -12 10 -9 6 3 10 1 10 -4 0 -6 -5 -11 -11 -11 -8 0 -8 -5 1 -15 8
-9 21 -13 36 -9 15 4 29 0 40 -10 8 -9 20 -14 24 -11 5 3 7 -4 5 -15 -2 -12 3
-24 15 -30 29 -16 38 -11 10 5 l-25 15 30 -6 c17 -4 32 -11 33 -16 2 -4 12 -8
23 -8 10 0 19 -6 19 -14 0 -7 8 -20 18 -27 15 -13 16 -12 3 4 -12 15 -11 17 3
17 9 0 16 -4 16 -10 0 -5 9 -10 20 -10 11 0 20 -4 20 -10 0 -5 10 -10 23 -10
13 0 28 -5 35 -12 9 -9 12 -9 12 3 0 8 3 10 8 4 13 -18 76 -38 117 -37 22 0
34 -2 28 -5 -30 -12 -8 -18 52 -15 49 3 65 0 65 -10 0 -10 3 -9 10 2 6 10 10
11 10 3 0 -10 38 -13 158 -12 97 0 149 4 137 9 -13 6 7 9 63 9 46 1 81 5 78 9
-3 5 14 9 36 10 23 1 47 7 52 12 6 6 20 10 32 10 13 0 26 5 30 11 3 6 17 9 30
6 13 -2 25 0 27 6 2 6 14 12 28 14 13 2 26 8 27 13 2 6 12 10 23 10 10 0 19 5
19 10 0 6 9 10 20 10 11 0 20 5 20 10 0 6 3 9 8 9 25 -4 42 2 36 14 -5 8 -3 8
9 -2 9 -7 14 -18 10 -25 -4 -6 1 -5 10 3 18 14 13 36 -6 24 -7 -4 -6 0 2 10 7
9 17 14 22 11 5 -3 9 2 9 11 0 11 5 15 14 12 10 -4 13 -1 9 9 -4 10 2 14 22
14 15 0 24 4 20 10 -4 6 -1 9 7 8 7 -2 12 3 10 10 -1 8 2 11 8 7 5 -3 10 -1
10 5 0 15 46 60 54 53 3 -4 6 1 6 10 0 10 4 17 9 17 15 0 71 53 71 67 0 7 7
13 15 13 9 0 12 6 8 17 -4 10 -2 14 4 10 6 -4 13 3 16 15 5 17 9 19 20 10 11
-10 13 -6 12 18 -1 17 5 36 14 43 12 10 13 9 7 -1 -7 -11 -4 -12 13 -3 24 13
28 23 6 15 -23 -9 -19 29 5 46 11 8 20 22 20 31 0 9 7 22 15 29 9 7 14 19 11
27 -3 7 -1 13 4 13 6 0 10 9 10 19 0 11 5 23 10 26 6 3 10 15 10 25 0 10 4 20
10 22 5 2 11 15 12 31 1 15 6 27 10 27 4 0 8 6 8 14 0 8 6 17 13 19 10 4 10 6
0 6 -7 1 -13 6 -13 12 0 5 6 7 13 3 7 -5 6 0 -3 11 -9 11 -10 16 -2 11 11 -7
18 12 13 38 -1 5 5 6 14 3 20 -8 19 -3 -2 19 -13 13 -14 19 -5 22 7 2 12 21
12 43 0 22 4 48 9 58 5 9 11 61 12 115 2 53 6 99 11 102 4 3 8 60 7 127 0 78
-4 115 -9 102 -6 -13 -9 16 -9 83 -1 57 -4 101 -9 98 -4 -2 -8 14 -9 37 -1 64
-7 97 -15 97 -4 0 -8 14 -8 30 0 17 -4 30 -8 30 -4 0 -9 15 -10 33 -2 17 -7
34 -12 35 -6 2 -10 17 -10 32 0 16 -4 31 -9 35 -6 3 -8 14 -6 24 2 11 -3 22
-11 25 -8 3 -14 17 -14 31 0 14 -5 25 -11 25 -6 0 -8 9 -4 21 5 14 3 19 -4 15
-10 -6 -57 80 -53 97 1 4 -5 7 -13 7 -16 0 -16 20 0 32 6 5 5 8 -2 8 -7 0 -16
1 -20 1 -13 3 -53 67 -53 83 0 9 -9 16 -20 16 -11 0 -20 7 -20 16 0 8 -4 12
-10 9 -5 -3 -10 1 -10 10 0 9 -4 14 -8 11 -4 -2 -14 9 -21 25 -7 17 -16 28
-19 25 -3 -3 -12 3 -19 14 -8 11 -17 18 -21 16 -8 -4 -32 19 -33 31 -1 5 -5 7
-10 6 -5 -2 -9 4 -9 12 0 8 -6 12 -13 9 -7 -2 -22 5 -34 16 -12 11 -30 20 -40
20 -15 0 -16 2 -3 10 12 8 11 10 -7 10 -13 0 -23 6 -23 14 0 9 -8 12 -26 8
-19 -3 -25 -1 -20 7 5 7 0 11 -13 11 -12 0 -21 5 -21 10 0 6 -11 10 -25 10
-14 0 -25 5 -25 10 0 6 -11 10 -25 10 -14 0 -25 5 -25 10 0 6 -15 10 -32 10
-25 0 -29 3 -18 10 11 7 4 10 -27 10 -24 0 -43 5 -43 10 0 6 -20 10 -45 10
-25 0 -45 5 -45 10 0 6 -32 10 -76 10 -47 0 -73 4 -69 10 4 7 -48 10 -149 10
-97 0 -156 -4 -156 -10z m314 -341 c-4 -7 70 -15 99 -10 4 0 7 -3 7 -9 0 -5
10 -10 23 -10 12 0 30 -7 40 -15 11 -7 25 -11 32 -9 7 3 16 1 20 -5 3 -6 15
-11 26 -11 13 0 19 -7 20 -22 0 -13 3 -17 6 -10 2 6 12 12 21 12 15 0 15 -2 2
-10 -12 -8 -11 -10 8 -10 12 0 22 -5 22 -11 0 -5 4 -8 9 -5 4 3 20 -8 35 -25
15 -16 32 -27 38 -23 7 4 8 3 4 -4 -4 -7 -2 -12 4 -12 6 0 8 -5 5 -10 -4 -6
-11 -8 -16 -5 -15 10 -10 -2 8 -16 14 -12 15 -12 9 0 -7 10 -3 12 15 6 27 -8
49 -32 49 -53 0 -7 5 -10 10 -7 6 3 10 2 10 -4 0 -5 -6 -12 -12 -15 -7 -4 -4
-5 7 -3 17 3 56 -21 48 -30 -2 -2 0 -3 3 -2 3 0 17 -22 31 -48 14 -26 30 -49
34 -51 5 -2 9 -12 9 -23 0 -10 5 -19 11 -19 7 0 9 -10 7 -24 -3 -15 -1 -23 6
-20 7 3 13 -7 14 -23 1 -15 7 -30 13 -34 6 -4 9 -13 7 -20 -3 -8 1 -20 9 -27
7 -7 13 -29 13 -47 0 -19 5 -37 10 -40 6 -4 9 -22 8 -41 -1 -20 3 -38 9 -42 7
-4 12 -37 12 -79 0 -40 5 -82 11 -94 13 -23 11 -269 -2 -269 -4 0 -8 -31 -8
-70 0 -49 -4 -70 -12 -70 -9 0 -8 -4 2 -10 13 -9 13 -10 0 -10 -12 0 -15 -12
-13 -50 0 -28 -3 -47 -8 -44 -8 5 -10 -1 -12 -43 -1 -10 -4 -20 -8 -23 -4 -3
-9 -16 -10 -30 -2 -14 -7 -28 -12 -31 -4 -3 -9 -16 -12 -28 -2 -13 -9 -29 -16
-37 -6 -8 -8 -14 -3 -14 5 0 0 -7 -10 -15 -11 -8 -17 -15 -13 -15 4 0 2 -10
-5 -22 -7 -13 -11 -26 -10 -30 1 -5 -5 -8 -13 -8 -9 0 -12 -6 -8 -17 4 -11 3
-14 -5 -9 -8 4 -12 0 -12 -11 0 -21 -44 -76 -54 -66 -3 3 -6 2 -6 -4 0 -17
-52 -63 -63 -56 -5 3 -8 0 -5 -8 5 -14 -40 -56 -54 -51 -5 1 -7 -4 -6 -10 2
-7 -5 -12 -15 -11 -12 1 -17 -4 -13 -14 4 -11 1 -13 -14 -8 -15 5 -18 3 -14
-9 4 -11 -1 -14 -20 -12 -14 2 -24 -2 -23 -7 1 -6 -4 -11 -11 -12 -7 0 -16 -6
-21 -13 -12 -20 -16 -19 -42 3 -13 11 -18 13 -11 5 21 -24 14 -38 -18 -36 -18
1 -30 -3 -30 -10 0 -12 -36 -21 -135 -30 -33 -4 -63 -11 -66 -16 -3 -5 -49 -8
-102 -7 -53 2 -94 6 -91 11 5 7 -54 13 -80 9 -11 -2 -73 27 -79 37 -2 4 -2 1
-1 -6 2 -6 -3 -12 -11 -12 -8 0 -15 5 -15 10 0 6 -14 10 -31 10 -26 0 -31 3
-26 20 6 24 -11 38 -19 16 -3 -9 -10 -16 -16 -16 -5 0 -6 4 -3 10 3 5 1 11 -4
11 -26 3 -30 4 -37 12 -4 4 -16 7 -27 7 -11 0 -17 3 -14 7 11 10 -23 42 -39
36 -15 -5 -44 19 -44 37 0 6 -4 8 -10 5 -5 -3 -10 -1 -10 4 0 6 -8 11 -17 11
-15 0 -14 2 3 14 10 8 16 18 11 22 -4 4 -7 2 -7 -4 0 -7 -5 -12 -11 -12 -5 0
-7 6 -3 13 5 7 1 7 -12 -3 -10 -8 -16 -10 -12 -6 4 5 2 16 -5 24 -10 13 -9 14
2 7 10 -6 12 -4 7 4 -4 7 -13 10 -19 8 -15 -5 -57 38 -57 58 0 9 -4 13 -10 10
-5 -3 -10 3 -10 15 0 12 -4 18 -10 15 -13 -8 -9 17 5 28 6 5 3 7 -6 4 -9 -3
-23 3 -32 14 -9 10 -14 19 -12 19 3 0 -1 13 -10 30 -8 16 -15 32 -15 35 1 22
-1 25 -11 19 -14 -8 -8 38 6 49 6 5 -1 5 -14 2 -22 -7 -23 -5 -19 24 3 21 0
31 -9 31 -8 0 -11 10 -9 31 2 16 -2 35 -8 42 -7 7 -11 29 -11 50 1 22 -3 37
-10 37 -8 0 -13 26 -14 77 -1 42 -6 84 -12 94 -12 24 -12 205 1 249 6 19 11
63 12 98 1 36 6 62 12 62 6 0 4 5 -4 10 -11 7 -7 10 17 10 17 0 34 4 37 9 3 4
-5 6 -17 4 -21 -4 -23 -1 -23 41 -1 25 3 43 8 40 4 -3 8 11 8 30 0 20 5 36 10
36 6 0 10 13 10 29 0 16 6 31 14 34 8 3 12 16 11 31 -2 15 2 24 8 23 7 -1 11
7 9 21 -2 12 2 22 7 22 6 0 11 9 11 21 0 11 5 17 10 14 9 -5 11 2 10 30 -1 13
26 32 38 28 8 -4 10 0 5 13 -4 12 -3 15 5 10 8 -5 12 0 12 14 0 20 25 55 39
55 3 0 5 8 5 18 -1 14 1 15 13 5 11 -9 13 -8 11 3 -2 8 3 13 10 11 8 -1 11 2
7 8 -3 5 0 10 7 11 11 0 11 2 0 6 -9 3 0 14 25 31 21 14 45 33 53 41 19 20 55
28 44 10 -4 -8 -3 -10 4 -5 6 4 9 13 6 20 -5 13 18 28 46 30 8 1 14 7 13 14
-2 7 8 12 28 12 17 0 28 4 24 10 -4 6 7 10 24 10 17 0 31 5 31 11 0 6 6 9 13
6 6 -2 24 2 39 10 15 7 30 13 33 13 57 -2 85 2 80 11 -5 7 38 10 139 8 80 -1
143 -6 140 -10z"/>
<path d="M11930 3400 c10 -7 -7 -10 -57 -10 -42 0 -73 -4 -73 -10 0 -5 -26
-10 -57 -11 -42 0 -52 -3 -38 -9 15 -7 10 -9 -23 -9 -26 -1 -41 -5 -37 -11 4
-6 -7 -10 -25 -10 -18 0 -29 -4 -25 -10 3 -5 2 -10 -4 -10 -5 0 -12 6 -14 13
-4 9 -6 9 -6 -1 -1 -7 -5 -10 -11 -7 -5 3 -10 1 -10 -4 0 -6 -18 -18 -40 -27
-22 -9 -40 -20 -40 -26 0 -5 -4 -7 -9 -3 -5 3 -16 -2 -24 -10 -9 -8 -21 -15
-27 -15 -6 0 -8 -4 -5 -10 3 -5 -3 -10 -14 -10 -12 0 -21 -4 -21 -10 0 -5 -10
-10 -22 -11 -13 0 -18 -3 -11 -6 10 -3 10 -7 0 -18 -7 -7 -15 -11 -19 -8 -5 2
-8 -1 -8 -7 0 -14 -25 -40 -39 -40 -6 0 -11 -4 -11 -8 0 -15 -37 -52 -44 -45
-3 3 -6 -3 -6 -15 0 -12 -4 -22 -10 -22 -5 0 -10 -7 -10 -15 0 -8 -6 -15 -14
-15 -9 0 -13 -7 -11 -19 2 -14 -1 -18 -10 -15 -10 4 -13 -1 -9 -21 3 -17 1
-24 -6 -20 -9 6 -14 -11 -12 -45 0 -8 -4 -17 -9 -20 -5 -4 -10 -18 -11 -33 -1
-15 -6 -27 -10 -27 -4 0 -8 -76 -8 -170 0 -107 4 -170 10 -170 6 0 10 -18 10
-40 0 -22 5 -40 10 -40 6 0 10 -9 10 -20 0 -11 5 -20 10 -20 6 0 10 -9 10 -20
0 -11 4 -20 8 -20 5 0 16 -18 26 -41 10 -22 38 -60 62 -85 24 -24 44 -46 44
-49 0 -3 1 -4 3 -3 7 6 45 -37 40 -45 -4 -6 3 -8 16 -4 18 4 20 3 11 -8 -9
-11 -7 -12 9 -8 12 3 21 1 21 -6 0 -6 7 -11 15 -11 8 0 15 -4 15 -10 0 -5 5
-10 11 -10 6 0 17 -7 26 -15 8 -8 19 -13 24 -10 5 4 9 1 9 -4 0 -6 9 -11 19
-11 10 0 21 -7 25 -15 3 -8 12 -12 21 -9 9 4 23 -3 36 -17 11 -13 18 -18 14
-11 -3 7 0 12 9 12 8 0 16 -4 18 -10 2 -5 15 -11 30 -12 15 -1 24 -6 22 -10
-3 -4 11 -8 30 -8 20 0 36 -4 36 -10 0 -5 18 -10 40 -10 22 0 40 -4 40 -9 0
-6 19 -11 43 -13 24 -2 41 -8 40 -14 -1 -7 14 -10 44 -7 26 2 49 0 52 -5 7 -9
115 -32 153 -32 15 0 28 -5 30 -11 2 -5 19 -11 38 -11 19 -1 38 -5 41 -10 4
-6 19 -11 35 -13 51 -6 89 -17 104 -30 17 -14 61 -30 73 -27 5 1 6 -2 2 -8 -3
-5 0 -10 9 -10 8 0 17 -6 19 -12 4 -10 6 -10 6 0 1 10 4 10 15 0 8 -7 12 -16
9 -20 -2 -5 2 -8 9 -8 17 -1 58 -35 58 -50 0 -6 4 -9 9 -6 8 5 24 -29 22 -46
0 -4 7 -4 16 -1 10 4 14 2 10 -4 -4 -6 -2 -17 5 -25 7 -7 15 -22 16 -33 2 -11
7 -22 12 -25 12 -8 13 -202 0 -210 -6 -3 -12 -17 -15 -29 -7 -38 -34 -71 -58
-72 -21 -1 -21 -1 3 -9 18 -6 20 -8 7 -9 -10 -1 -15 -5 -12 -11 3 -5 1 -10 -4
-10 -6 0 -11 5 -11 11 0 5 -5 7 -11 3 -7 -4 -7 -9 -2 -13 6 -3 10 -14 10 -23
0 -13 -4 -15 -19 -7 -21 11 -24 -1 -5 -20 10 -10 9 -12 -3 -9 -8 2 -14 -3 -12
-10 2 -14 -19 -12 -31 3 -5 6 -7 0 -4 -12 5 -25 -17 -33 -27 -10 -3 6 -4 3 -3
-8 2 -16 -4 -20 -27 -20 -17 -1 -36 -10 -46 -23 -19 -23 -37 -31 -24 -10 4 7
3 8 -4 4 -7 -4 -12 -14 -12 -22 0 -9 -11 -14 -36 -14 -19 0 -33 -4 -30 -9 3
-4 -18 -9 -47 -10 -28 0 -53 -5 -55 -11 -5 -13 -289 -14 -297 0 -3 6 -30 10
-60 10 -29 0 -55 4 -57 10 -1 5 -15 11 -30 12 -15 1 -25 4 -22 7 2 3 -8 10
-23 16 -20 9 -30 9 -35 1 -5 -7 -8 -4 -8 8 0 13 -5 17 -20 13 -11 -3 -18 -1
-14 4 3 5 -4 9 -16 9 -11 0 -23 7 -26 15 -4 8 -10 12 -15 9 -5 -3 -9 0 -9 5 0
6 -9 11 -21 11 -11 0 -17 4 -14 10 3 5 -5 15 -19 22 -24 10 -27 15 -25 35 0 4
-9 10 -20 15 -12 4 -21 14 -21 23 0 8 -5 15 -11 15 -5 0 -8 4 -4 9 3 6 -2 14
-11 19 -9 5 -15 12 -15 15 3 21 0 28 -9 22 -6 -4 -10 6 -10 24 0 16 -4 31 -9
33 -6 2 -11 22 -12 45 -2 23 -6 40 -10 37 -4 -2 -9 0 -11 5 -4 12 -31 13 -212
12 l-148 -1 5 -42 c11 -88 20 -133 27 -138 4 -3 6 -16 5 -28 -1 -13 5 -26 12
-29 12 -5 12 -7 1 -14 -10 -7 -10 -9 0 -9 6 0 12 -8 12 -18 0 -10 6 -24 13
-31 10 -11 9 -12 -3 -6 -12 6 -12 5 -3 -5 6 -7 10 -18 9 -24 -2 -6 -1 -8 1 -3
9 14 23 7 23 -12 0 -11 5 -23 10 -26 6 -4 8 -11 5 -16 -3 -5 2 -6 11 -2 11 4
15 2 11 -4 -4 -6 0 -16 8 -23 8 -7 15 -19 15 -27 0 -8 5 -11 12 -7 6 4 9 3 6
-2 -3 -5 3 -17 14 -26 10 -10 18 -15 19 -10 0 4 4 -3 9 -15 5 -13 16 -23 25
-23 8 0 14 -4 13 -9 -2 -5 6 -17 17 -26 11 -9 13 -13 5 -9 -9 4 -12 3 -7 -2 5
-5 12 -9 15 -9 13 -1 72 -39 72 -48 0 -4 5 -5 10 -2 6 3 10 1 10 -5 0 -6 4 -9
9 -6 5 3 11 -1 15 -9 3 -8 13 -15 23 -15 24 -1 55 -25 45 -36 -4 -4 1 -2 11 5
14 11 17 11 17 -1 0 -11 7 -14 27 -10 21 4 25 2 20 -10 -4 -12 0 -14 15 -10
15 4 19 2 13 -7 -6 -10 -3 -11 14 -2 14 8 21 8 21 1 0 -5 13 -10 29 -10 17 0
33 -4 36 -10 3 -5 24 -10 46 -10 24 0 38 -4 34 -10 -4 -6 15 -10 49 -11 88 -2
101 -4 99 -15 -1 -5 13 -9 30 -7 18 1 88 5 157 9 207 10 228 11 242 20 16 11
19 11 64 13 19 0 33 5 30 9 -3 5 11 9 31 10 20 1 39 5 42 9 6 8 10 9 54 17 12
3 23 5 25 7 1 1 8 2 15 3 6 1 11 8 9 16 -3 11 0 11 14 -1 10 -8 15 -9 11 -3
-4 7 8 19 31 29 20 10 46 25 56 34 16 13 18 13 11 1 -8 -13 -6 -13 8 -1 9 7
14 18 10 24 -3 5 -1 7 4 4 6 -4 22 4 36 17 14 13 28 21 31 18 3 -3 6 2 6 11 0
10 4 16 8 15 11 -4 92 78 92 92 0 6 7 13 15 16 8 4 15 12 15 19 0 6 10 17 23
24 16 8 17 10 3 6 -19 -6 -19 -5 -3 13 9 10 14 22 10 25 -3 4 -1 7 5 7 7 0 12
9 12 20 0 11 7 20 16 20 8 0 12 5 8 11 -3 6 -2 21 3 32 19 41 33 93 33 120 0
15 4 27 9 27 14 0 7 285 -8 340 -7 25 -15 57 -18 72 -3 15 -9 26 -13 23 -4 -2
-7 3 -7 13 0 42 -3 48 -13 32 -8 -12 -10 -11 -10 8 0 12 -5 22 -11 22 -5 0 -8
4 -4 9 3 5 -6 21 -20 35 -14 14 -25 30 -25 36 0 6 -3 9 -7 7 -10 -6 -53 39
-46 47 4 3 -1 6 -11 6 -9 0 -14 5 -11 10 3 5 1 10 -6 10 -6 0 -20 10 -30 22
-11 11 -19 16 -19 9 0 -7 -12 0 -26 14 -14 14 -29 23 -34 20 -4 -3 -10 -2 -12
3 -6 15 -61 52 -69 46 -5 -3 -9 0 -9 5 0 6 -3 11 -7 10 -5 -1 -18 2 -30 6 -12
4 -24 6 -26 4 -2 -2 -11 4 -21 13 -9 10 -24 14 -33 11 -10 -4 -14 -2 -10 4 7
10 -10 15 -105 29 -21 4 -38 10 -38 15 0 5 -16 9 -35 9 -19 0 -35 4 -35 9 0 8
-15 12 -118 27 -23 4 -45 11 -48 15 -3 5 -27 9 -55 9 -27 0 -49 5 -49 10 0 6
-22 10 -49 10 -29 0 -51 5 -53 12 -2 6 -18 11 -36 10 -18 0 -32 4 -32 9 0 5
-10 9 -22 9 -13 0 -41 7 -63 16 -22 8 -48 17 -57 21 -10 3 -18 10 -18 17 0 6
-5 4 -10 -4 -6 -10 -10 -11 -10 -2 0 6 -7 12 -16 12 -8 0 -22 6 -29 13 -34 30
-43 35 -49 30 -3 -4 -6 -1 -6 5 0 7 -8 12 -17 12 -15 0 -16 2 -3 10 12 8 12
10 1 10 -16 0 -82 70 -76 81 3 4 -2 9 -10 13 -8 3 -15 14 -15 25 0 11 -5 21
-12 23 -16 6 -15 251 1 256 6 2 11 12 11 23 0 10 5 19 10 19 6 0 10 7 10 15 0
8 4 15 8 15 11 0 36 51 33 65 -2 6 0 7 4 3 4 -4 19 4 34 18 14 13 32 22 40 19
9 -4 11 0 7 10 -3 9 -2 14 3 10 5 -3 15 1 23 8 14 14 43 28 67 33 8 1 18 9 22
16 5 7 9 10 9 5 0 -4 13 -1 30 8 16 8 43 15 60 15 16 0 30 5 30 10 0 7 57 9
173 7 177 -5 247 -13 258 -29 5 -8 25 -15 52 -17 5 -1 6 -5 3 -10 -3 -4 6 -6
21 -3 17 3 24 1 19 -6 -4 -7 3 -14 19 -18 14 -3 25 -10 25 -15 0 -5 6 -8 13
-7 6 2 11 -3 9 -10 -2 -10 4 -11 20 -6 20 6 21 5 10 -9 -11 -13 -10 -15 10
-10 13 3 20 3 16 -1 -9 -11 24 -46 36 -39 6 3 8 3 4 -2 -4 -4 -1 -17 7 -27 7
-11 11 -28 8 -37 -4 -12 -3 -13 5 -2 11 15 27 -2 17 -19 -3 -5 2 -10 12 -10
15 0 16 -2 3 -10 -13 -9 -13 -10 0 -10 13 0 13 -1 0 -10 -13 -8 -12 -10 3 -10
11 0 20 -10 24 -30 3 -16 9 -30 13 -30 4 0 7 -10 7 -22 0 -13 0 -35 1 -50 l2
-28 180 0 c137 0 180 3 181 13 4 39 -4 144 -12 159 -5 9 -9 28 -9 42 0 14 -4
26 -8 26 -5 0 -9 7 -10 15 -1 8 -3 22 -4 30 -1 8 -6 15 -11 15 -6 0 -7 3 -4 7
4 3 0 15 -10 25 -9 10 -13 18 -9 18 4 0 0 7 -8 16 -9 8 -16 24 -16 35 0 10 -4
19 -10 19 -5 0 -9 3 -7 8 1 4 -1 7 -4 7 -9 0 -35 29 -49 55 -7 14 -22 31 -32
38 -10 7 -15 18 -12 24 4 6 3 8 -3 5 -5 -3 -17 3 -26 14 -10 11 -22 17 -27 14
-6 -3 -10 2 -10 11 0 10 -3 15 -6 11 -9 -9 -56 42 -49 53 3 6 2 10 -4 10 -5 0
-11 -5 -13 -11 -3 -8 -10 -6 -20 5 -9 9 -24 16 -32 16 -9 0 -16 5 -16 10 0 6
-9 10 -21 10 -11 0 -17 5 -14 10 4 6 -5 10 -19 10 -15 0 -26 6 -26 13 0 7 -11
12 -27 11 -16 0 -31 3 -34 8 -7 11 -41 20 -103 25 -33 4 -44 8 -35 14 9 5 -11
9 -53 9 -37 0 -70 5 -73 10 -4 6 -64 10 -148 10 -95 0 -137 -3 -127 -10z"/>
<path d="M2058 2633 c-60 -2 -108 -7 -108 -11 0 -4 -17 -9 -37 -10 -21 -2 -41
-8 -45 -15 -6 -9 -8 -8 -8 3 0 9 -3 11 -8 5 -4 -5 -14 -11 -22 -13 -8 -2 -16
-8 -18 -13 -2 -5 -12 -9 -23 -9 -10 0 -19 -4 -19 -10 0 -5 -9 -10 -20 -10 -11
0 -20 -4 -20 -9 0 -5 -7 -12 -16 -15 -8 -3 -13 -2 -10 2 3 5 -1 9 -8 9 -8 0
-12 -6 -9 -14 3 -7 -2 -13 -12 -13 -10 0 -13 -5 -9 -12 5 -7 2 -9 -9 -5 -12 4
-14 2 -10 -11 6 -16 5 -16 -13 -1 -13 11 -25 14 -39 9 l-20 -9 20 -1 c11 -2
23 -2 28 -1 12 2 8 -20 -7 -35 -11 -11 -16 -11 -19 -1 -4 9 -6 9 -6 0 -2 -21
-5 -26 -33 -54 -16 -14 -28 -34 -28 -43 0 -10 -4 -14 -10 -11 -9 5 -15 -16
-11 -38 1 -5 -3 -6 -8 -3 -11 7 -11 46 0 46 4 0 6 55 6 123 l-2 122 -167 3
-168 2 -1 -972 c-1 -535 -2 -982 -3 -993 0 -11 2 -28 7 -37 7 -16 25 -18 172
-18 140 0 165 2 165 15 0 8 5 15 10 15 14 0 12 33 -2 49 -9 9 -9 12 -1 7 9 -5
12 146 13 631 2 729 2 683 12 683 4 0 8 13 8 29 0 20 8 35 22 45 12 9 18 16
12 16 -6 0 -11 7 -11 15 0 8 4 12 9 9 4 -3 8 3 8 13 1 39 40 63 69 41 13 -10
14 -10 4 2 -18 20 -16 50 3 50 8 0 12 5 9 10 -3 6 1 10 10 10 10 0 13 5 9 12
-5 8 -2 9 10 5 14 -6 17 -3 12 8 -3 9 -2 14 3 11 4 -3 17 1 27 9 10 8 29 15
42 15 12 0 22 5 22 10 0 6 14 10 30 10 17 0 30 5 30 13 0 8 4 7 10 -3 5 -8 10
-10 10 -4 0 6 32 11 85 12 51 0 83 -3 80 -9 -4 -5 12 -9 34 -9 23 0 41 -4 41
-10 0 -5 9 -10 20 -10 14 0 20 -7 21 -22 0 -13 3 -17 6 -10 2 6 12 12 20 12
11 0 14 -6 10 -21 -4 -16 -3 -19 5 -11 7 7 23 -3 55 -34 24 -24 42 -48 39 -53
-3 -5 1 -14 9 -21 8 -7 15 -21 15 -31 0 -10 4 -21 10 -24 6 -4 10 -258 10
-692 0 -530 3 -690 13 -702 10 -12 9 -13 -1 -7 -11 6 -13 1 -11 -25 2 -19 9
-40 16 -46 14 -16 328 -19 338 -4 3 6 5 309 5 675 0 438 3 667 10 671 5 3 10
24 10 45 0 21 5 42 10 45 6 3 10 13 10 21 0 19 27 47 38 40 5 -3 9 1 9 8 0 8
-6 12 -14 9 -7 -3 -13 -1 -13 5 0 5 12 13 27 17 27 6 27 7 9 21 -18 13 -18 14
-2 14 10 0 14 5 10 11 -5 9 1 10 22 5 17 -4 24 -3 16 2 -14 9 -5 45 9 36 5 -3
9 1 9 8 0 7 11 18 25 25 19 8 24 8 19 0 -3 -7 3 -3 13 8 10 11 27 22 38 23 11
2 23 9 26 14 4 6 18 9 32 6 17 -3 28 0 31 9 5 11 26 14 101 12 52 -2 95 -7 95
-11 0 -4 18 -8 40 -8 22 0 40 -4 40 -10 0 -5 9 -10 20 -10 11 0 20 -4 20 -10
0 -5 9 -10 21 -10 11 0 17 -4 14 -10 -3 -5 1 -10 9 -10 9 0 16 -7 16 -16 0 -8
5 -12 10 -9 6 3 10 -1 10 -10 0 -9 9 -19 21 -22 16 -4 17 -8 7 -14 -11 -7 -11
-9 1 -9 11 0 11 -3 1 -15 -7 -8 -15 -13 -19 -11 -4 3 -8 -4 -8 -15 -2 -19 -1
-18 16 2 20 25 41 18 41 -12 0 -12 4 -17 11 -13 6 3 10 -1 9 -12 -5 -41 0 -75
10 -69 7 4 10 -221 10 -686 -1 -627 -2 -693 -17 -704 -13 -10 -13 -14 -3 -20
9 -5 11 -4 6 3 -4 7 -3 12 1 12 5 0 14 -9 21 -20 11 -19 23 -20 168 -20 122 0
159 3 170 14 12 13 14 124 14 757 0 409 -3 745 -8 748 -4 3 -9 26 -9 50 -1 24
-7 47 -14 51 -6 5 -9 15 -6 23 3 9 -1 21 -9 27 -8 7 -14 21 -14 31 0 10 -4 20
-9 24 -6 3 -8 14 -6 25 2 12 0 18 -6 14 -13 -8 -40 27 -34 44 2 6 0 12 -6 12
-5 0 -21 11 -34 25 -26 25 -33 41 -13 29 7 -5 8 -3 4 5 -5 7 -14 10 -22 7 -8
-3 -14 1 -14 10 0 9 -5 12 -12 8 -8 -5 -9 -2 -5 9 3 9 1 19 -5 23 -7 4 -8 3
-4 -4 4 -7 2 -12 -3 -12 -11 0 -15 14 -11 39 1 10 -4 9 -17 -4 -17 -17 -18
-17 -21 -2 -2 10 -8 15 -13 12 -5 -4 -9 -1 -9 4 0 6 -6 11 -14 11 -7 0 -19 6
-26 14 -6 8 -18 12 -27 9 -8 -3 -19 0 -23 7 -4 7 -19 13 -34 13 -14 0 -26 3
-26 8 0 5 -20 9 -44 9 -25 0 -48 5 -51 10 -8 13 -215 13 -215 0 0 -6 -12 -9
-27 -9 -55 3 -84 -1 -78 -11 5 -9 -40 -16 -68 -11 -5 1 -5 -4 -1 -10 5 -8 -1
-10 -20 -7 -14 3 -29 1 -33 -5 -4 -6 -1 -7 8 -2 11 6 12 5 1 -6 -10 -11 -16
-11 -32 -1 -11 7 -20 9 -19 5 3 -20 -15 -53 -28 -53 -15 0 -96 -61 -89 -67 6
-6 -43 -53 -55 -53 -6 0 -7 -4 -4 -10 3 -5 -1 -10 -10 -10 -9 0 -19 -9 -22
-20 -3 -11 -10 -17 -17 -13 -6 4 -4 -2 4 -12 9 -11 10 -16 3 -11 -9 5 -13 1
-14 -11 0 -13 -2 -14 -6 -4 -4 10 -10 5 -20 -15 -7 -16 -11 -21 -9 -12 3 10
-1 24 -9 32 -8 8 -15 22 -15 30 0 9 -5 16 -11 16 -5 0 -7 5 -4 10 3 6 -2 10
-12 11 -16 0 -16 1 2 9 15 6 16 9 4 9 -9 1 -22 12 -29 26 -7 13 -17 22 -22 19
-5 -3 -7 -2 -6 3 2 4 0 8 -3 8 -10 0 -39 33 -39 45 0 6 -4 8 -10 5 -6 -3 -10
4 -10 17 0 18 -2 20 -10 8 -9 -13 -14 -7 -11 12 0 4 -6 5 -14 2 -9 -4 -24 4
-36 17 -11 13 -18 18 -14 12 3 -7 2 -13 -3 -13 -6 0 -12 7 -16 15 -3 8 -12 12
-21 9 -9 -4 -15 -1 -15 8 0 11 -9 13 -32 11 -25 -3 -29 -2 -18 6 10 7 0 11
-40 13 -37 2 -54 7 -52 16 1 6 1 11 0 10 -2 -1 -51 -4 -110 -5z"/>
<path d="M4965 2620 c4 -6 -17 -10 -54 -10 -34 0 -61 -4 -61 -9 0 -5 -16 -9
-36 -9 -20 0 -40 -6 -44 -12 -4 -7 -12 -10 -18 -6 -6 3 -15 -1 -19 -9 -9 -16
-37 -16 -61 -2 -7 5 -9 14 -6 20 4 7 3 8 -1 4 -12 -10 -15 -38 -4 -31 13 8 11
-8 -4 -27 -7 -9 -20 -15 -29 -13 -10 1 -18 -4 -18 -12 0 -8 -8 -14 -18 -14
-10 0 -24 -9 -32 -19 -7 -11 -17 -18 -22 -15 -4 3 -8 1 -8 -4 0 -16 -41 -52
-52 -46 -6 4 -8 3 -4 -4 3 -6 -4 -18 -16 -26 -12 -9 -19 -16 -15 -16 5 0 2 -7
-6 -15 -8 -8 -24 -12 -36 -10 -12 2 -19 0 -16 -6 4 -5 0 -9 -7 -9 -8 0 -9 -3
-3 -8 13 -9 19 -46 6 -38 -5 4 -11 -6 -13 -21 -3 -26 -4 -26 -20 -9 -10 10
-18 13 -18 7 0 -17 4 -26 12 -24 4 2 6 -6 5 -17 -1 -10 -5 -16 -9 -14 -7 5
-11 -14 -11 -58 0 -10 -3 -15 -7 -13 -5 3 -10 -22 -12 -56 -1 -33 0 -63 5 -66
4 -2 4 -9 1 -15 -4 -7 -2 -8 4 -4 7 4 12 1 12 -6 0 -11 2 -10 9 0 6 11 39 13
140 11 72 -2 131 -7 131 -12 0 -4 6 -2 14 5 8 7 12 16 9 21 -2 4 1 6 9 5 8 -2
12 5 10 20 -2 14 2 22 11 22 10 0 13 8 9 25 -2 15 0 25 7 25 6 0 11 7 11 15 0
8 5 15 10 15 6 0 10 7 10 16 0 18 25 46 34 37 3 -4 6 -1 6 6 0 13 24 41 35 41
3 0 3 -4 0 -10 -3 -6 1 -7 9 -4 9 3 16 12 16 20 0 8 10 14 26 14 14 0 23 4 19
10 -3 6 3 10 14 10 12 0 21 6 21 13 0 9 3 8 9 -2 6 -9 11 -10 15 -2 4 6 14 11
22 11 9 0 12 -5 8 -12 -4 -7 6 -2 23 10 27 19 44 22 138 22 68 0 104 -4 100
-10 -4 -6 11 -10 38 -10 32 0 47 -5 51 -16 3 -9 13 -14 20 -11 8 3 20 -1 26
-8 7 -8 16 -12 21 -9 5 3 9 -2 9 -11 0 -10 -5 -13 -12 -9 -7 4 -8 3 -4 -4 4
-7 2 -12 -5 -12 -23 0 -4 -9 31 -15 24 -4 30 -2 20 4 -8 5 -18 7 -24 4 -5 -3
-6 -1 -2 5 12 20 76 -30 76 -59 0 -5 5 -7 12 -3 6 4 8 3 4 -4 -3 -6 1 -17 9
-26 9 -8 16 -18 15 -21 -1 -26 2 -35 10 -30 13 8 8 -18 -5 -27 -6 -5 -5 -8 3
-8 9 0 12 -33 12 -130 l0 -130 -170 0 c-129 0 -170 -3 -170 -12 0 -9 -4 -8
-10 2 -6 10 -10 11 -10 3 0 -10 -32 -13 -126 -13 -116 0 -126 1 -120 18 4 10
-3 5 -17 -10 -21 -24 -32 -28 -81 -28 -31 0 -56 -4 -56 -10 0 -5 -18 -10 -40
-10 -22 0 -40 -5 -40 -10 0 -12 -98 -9 -117 3 -23 14 -24 -14 -1 -33 13 -11
18 -19 12 -20 -5 0 -16 6 -23 12 -7 7 -12 9 -11 3 5 -24 -1 -35 -20 -35 -11 0
-20 -4 -20 -9 0 -5 -7 -12 -16 -15 -10 -4 -13 -2 -8 7 4 6 -9 -5 -29 -26 -20
-21 -39 -39 -44 -40 -4 -1 -7 -5 -6 -9 2 -5 -4 -8 -13 -8 -8 0 -12 -4 -9 -10
3 -6 -4 -10 -17 -11 -13 0 -17 -3 -10 -6 10 -4 8 -9 -7 -20 -12 -8 -21 -23
-21 -34 0 -22 -8 -24 -24 -6 -6 7 -10 10 -9 8 2 -2 -2 -10 -9 -18 -8 -11 -7
-12 6 -7 12 5 16 0 16 -17 0 -19 -2 -21 -10 -9 -8 13 -11 13 -22 1 -10 -10
-10 -12 0 -7 8 5 12 -1 12 -18 0 -14 -4 -26 -10 -26 -5 0 -10 -13 -10 -30 0
-17 -5 -30 -12 -30 -9 0 -8 -4 2 -10 12 -8 10 -10 -10 -11 -14 0 -19 -3 -12
-6 9 -3 12 -38 12 -124 0 -73 4 -119 10 -119 6 0 10 -15 10 -34 0 -19 5 -38
10 -41 6 -3 10 -11 10 -16 0 -6 -6 -7 -12 -3 -13 8 4 -17 30 -45 21 -22 4 -26
-20 -5 -16 13 -19 14 -10 2 10 -13 10 -17 0 -22 -9 -4 -9 -5 2 -5 35 3 51 -2
45 -11 -3 -5 1 -10 11 -10 12 0 15 -6 12 -25 -3 -13 -1 -22 3 -19 8 5 60 -39
59 -51 0 -3 2 -5 5 -5 3 0 18 -14 34 -30 15 -17 36 -30 45 -30 9 0 16 -4 16
-10 0 -5 7 -10 16 -10 8 0 12 -4 9 -10 -3 -5 3 -10 14 -10 25 0 27 -9 5 -25
-15 -11 -15 -12 0 -12 9 0 16 4 16 9 0 4 12 8 26 8 14 0 23 -4 19 -10 -4 -6 7
-10 24 -10 18 0 31 -5 31 -13 0 -8 14 -11 46 -8 31 2 44 0 40 -7 -4 -8 41 -12
142 -14 162 -3 185 -2 176 13 -3 6 9 9 31 7 20 -1 39 3 43 8 4 6 28 17 55 25
26 7 47 17 47 22 0 5 9 7 20 4 13 -3 20 0 20 9 0 8 6 13 13 12 6 -2 11 3 9 11
-2 9 4 12 22 9 19 -4 23 -1 18 10 -4 11 -1 14 12 9 9 -4 15 -3 12 2 -3 5 1 12
10 15 8 3 13 10 9 15 -3 6 6 8 22 5 27 -5 27 -5 8 11 -11 8 -15 15 -10 14 23
-3 48 1 42 8 -4 3 3 11 16 18 15 7 21 18 19 34 -2 15 0 21 7 17 6 -4 11 -3 11
3 0 6 9 15 20 21 21 11 21 9 20 -117 -1 -70 1 -136 5 -145 6 -16 24 -18 171
-18 l164 0 1 748 c1 411 0 756 -1 767 -1 11 -6 23 -12 26 -5 3 -7 18 -4 32 3
16 -1 33 -10 42 -9 8 -12 15 -9 15 4 0 0 11 -9 25 -9 14 -14 35 -12 48 2 13 0
30 -5 38 -7 10 -8 6 -5 -13 3 -16 0 -28 -5 -28 -5 0 -9 9 -9 20 0 11 -5 20
-11 20 -5 0 -9 10 -7 23 2 13 -2 21 -9 19 -7 -1 -13 5 -13 14 0 8 -3 13 -7 11
-10 -6 -53 39 -46 47 4 3 1 6 -6 6 -12 0 -59 43 -64 57 -1 5 -6 8 -12 8 -20 1
-34 16 -30 34 2 10 -2 18 -9 18 -7 0 -13 -6 -13 -13 0 -7 5 -10 10 -7 6 3 7 1
3 -5 -5 -9 -13 -8 -30 3 -12 8 -27 12 -31 8 -5 -5 -3 0 4 10 12 15 12 17 -3
11 -11 -4 -15 -2 -13 7 2 8 2 11 0 6 -3 -4 -10 -4 -15 -1 -7 4 -8 2 -4 -4 4
-7 2 -12 -3 -12 -6 0 -11 5 -11 10 0 6 -9 10 -20 10 -11 0 -20 5 -20 10 0 6
-18 10 -41 10 -24 0 -38 4 -34 10 6 9 -30 15 -63 11 -8 -1 -21 4 -30 11 -12
10 -14 10 -8 1 4 -8 1 -13 -9 -13 -9 0 -13 5 -10 10 4 6 -43 10 -135 10 -92 0
-139 -4 -135 -10z m285 -1140 c0 13 1 13 10 0 6 -10 10 -11 10 -2 0 9 31 12
120 12 l120 0 0 -122 c0 -115 -9 -168 -35 -208 -5 -8 -8 -24 -6 -35 3 -16 1
-17 -13 -6 -14 12 -16 12 -10 -2 7 -18 -19 -50 -32 -39 -5 4 -2 -2 6 -12 8
-11 11 -17 5 -15 -5 3 -18 -2 -27 -13 -10 -10 -16 -18 -13 -18 3 0 0 -6 -7
-14 -7 -8 -16 -12 -20 -9 -5 2 -8 -3 -8 -11 0 -19 -21 -21 -39 -3 -11 10 -11
8 -2 -10 10 -20 9 -23 -9 -23 -12 0 -18 -4 -15 -10 3 -6 -4 -10 -17 -10 -18 0
-20 2 -8 10 12 8 12 10 1 10 -11 0 -11 3 0 18 13 16 13 16 -7 -1 -11 -9 -25
-14 -30 -10 -5 5 -1 -1 9 -13 22 -26 22 -34 -2 -34 -11 0 -21 -5 -23 -10 -2
-6 -17 -11 -35 -13 -17 -1 -29 -5 -26 -9 2 -5 -16 -8 -41 -8 -26 0 -46 -5 -46
-10 0 -7 -34 -10 -95 -9 -70 1 -93 5 -86 13 7 8 -1 10 -30 8 -29 -3 -39 0 -39
11 0 10 -9 13 -30 11 -19 -2 -29 1 -27 8 1 7 -7 12 -17 13 -11 0 -20 8 -22 18
-1 11 -6 22 -10 25 -4 4 -4 -1 -1 -10 4 -10 2 -18 -3 -18 -9 0 -14 14 -11 33
0 4 -2 6 -6 6 -20 -3 -34 2 -28 11 3 6 -1 10 -9 10 -9 0 -16 9 -16 20 0 11 -5
20 -11 20 -5 0 -9 10 -7 23 2 12 -2 21 -7 20 -6 -1 -12 29 -13 73 -3 56 1 78
12 89 8 9 13 22 9 31 -3 8 4 23 16 33 11 10 21 23 21 29 0 6 9 14 20 17 11 4
17 11 14 17 -5 7 0 9 14 6 15 -4 19 -2 15 8 -5 13 15 20 42 14 6 -1 7 2 3 6
-13 12 25 33 60 34 17 0 32 5 32 10 0 6 25 10 56 10 34 0 53 4 49 10 -4 6 43
10 134 10 106 0 141 3 141 13 0 8 4 7 10 -3 9 -13 10 -13 10 0z"/>
<path d="M6970 2624 c0 -7 -17 -12 -37 -12 -82 -1 -94 -2 -88 -12 4 -6 -8 -10
-30 -10 -22 0 -34 -4 -30 -10 3 -6 -5 -10 -19 -10 -14 0 -28 -4 -31 -10 -3 -5
-15 -10 -26 -10 -10 0 -19 -5 -19 -10 0 -6 -6 -10 -12 -9 -27 3 -39 -1 -32
-13 4 -6 3 -8 -4 -4 -6 3 -22 -5 -36 -19 -14 -14 -27 -26 -29 -28 -1 -1 -15 6
-30 16 -17 11 -26 13 -25 5 2 -7 -3 -12 -9 -13 -7 0 -13 -3 -13 -7 0 -5 0 -11
0 -15 0 -3 8 1 19 11 16 15 19 15 31 1 10 -12 10 -15 -4 -15 -9 0 -16 -5 -16
-11 0 -6 -7 -9 -14 -6 -10 4 -13 1 -9 -9 3 -9 -1 -14 -13 -14 -9 0 -15 -3 -11
-6 3 -4 0 -13 -8 -20 -16 -16 -29 -19 -20 -4 10 16 -1 11 -16 -7 -10 -11 -10
-14 -1 -9 22 13 13 -1 -24 -38 -36 -36 -51 -46 -38 -24 4 7 3 8 -4 4 -7 -4
-12 -2 -12 3 0 15 -17 14 -17 -1 0 -7 -3 -26 -6 -42 -4 -16 -3 -25 1 -21 7 7
8 12 11 41 0 8 6 12 11 9 15 -9 8 -37 -12 -56 -10 -9 -18 -24 -18 -33 0 -10
-4 -15 -9 -12 -5 3 -15 -2 -22 -11 -10 -12 -10 -14 -1 -9 7 4 12 1 12 -8 0 -9
-7 -16 -16 -16 -9 0 -12 -5 -8 -12 5 -8 1 -9 -12 -5 -17 6 -18 6 -2 -6 16 -13
16 -14 -2 -27 -15 -10 -16 -16 -7 -22 9 -6 9 -8 0 -8 -8 0 -13 -13 -13 -30 0
-19 -5 -30 -14 -30 -9 0 -13 -7 -11 -20 2 -11 -2 -20 -8 -20 -7 0 -6 -4 3 -10
10 -6 11 -10 3 -10 -9 0 -13 -16 -13 -45 0 -25 -4 -45 -10 -45 -6 0 -10 -34
-10 -81 0 -51 -4 -78 -10 -74 -6 4 -10 -26 -11 -82 -2 -133 1 -169 14 -191 5
-7 8 -34 6 -60 -2 -64 -1 -74 11 -67 6 4 10 -13 10 -44 0 -28 4 -51 9 -51 6 0
8 -9 6 -20 -2 -11 3 -26 11 -34 8 -8 14 -19 13 -23 -4 -22 2 -34 14 -27 7 5 6
0 -3 -11 -9 -11 -10 -16 -2 -11 8 5 12 1 12 -13 0 -11 5 -23 10 -26 6 -3 10
-14 10 -23 -1 -14 -4 -13 -20 7 -26 31 -26 17 0 -16 11 -14 20 -21 20 -14 0 6
5 11 11 11 5 0 8 -4 4 -9 -3 -5 3 -17 12 -27 10 -10 18 -20 18 -23 0 -3 3 -5
8 -3 4 1 7 -5 7 -14 0 -8 -4 -13 -9 -9 -5 3 -13 1 -16 -5 -4 -6 -3 -10 2 -9
24 4 43 -3 43 -17 0 -9 5 -12 12 -8 6 4 8 3 4 -4 -3 -6 5 -22 19 -36 16 -16
23 -31 19 -43 -5 -14 -4 -15 4 -4 9 12 13 12 26 -2 9 -8 16 -21 16 -27 0 -6 5
-8 10 -5 6 3 10 -1 10 -9 0 -9 5 -16 11 -16 5 0 7 -4 4 -10 -3 -5 -1 -10 5
-10 6 0 8 -5 4 -12 -4 -7 -3 -8 5 -4 6 4 9 11 7 15 -3 4 1 8 9 8 8 0 12 -4 9
-9 -3 -4 1 -8 10 -8 8 0 16 -4 18 -9 2 -5 10 -11 18 -13 8 -2 22 -10 30 -18
21 -21 61 -41 87 -43 12 0 19 -5 17 -9 -3 -4 4 -8 15 -8 12 0 21 -4 21 -10 0
-5 13 -10 28 -10 15 0 33 -5 39 -11 6 -6 31 -12 56 -12 25 -1 43 -6 40 -10 -6
-10 345 -3 376 8 19 6 23 5 16 -6 -6 -11 -5 -12 6 -1 7 6 21 12 31 12 10 0 18
4 18 9 0 5 11 9 25 9 14 0 25 -6 25 -12 0 -6 4 -4 9 4 6 8 8 17 6 20 -2 3 8 7
23 8 15 1 29 7 30 12 2 6 7 8 12 5 4 -3 13 2 20 10 7 8 19 15 27 15 7 0 23 9
35 20 12 11 30 20 40 20 11 0 16 5 13 10 -3 6 1 10 9 10 8 0 20 9 26 20 6 11
17 20 25 20 8 0 15 5 15 10 0 6 6 9 13 8 6 -2 11 3 9 11 -3 12 0 12 12 2 12
-10 14 -9 9 10 -4 15 -3 20 5 15 7 -4 12 -2 12 4 0 6 7 18 15 27 8 8 13 19 10
24 -6 8 9 13 28 10 5 -1 6 3 3 8 -4 5 1 16 9 24 11 12 12 17 2 20 -7 3 -4 6 6
6 10 1 15 6 12 11 -3 6 1 10 9 10 10 0 13 7 11 20 -2 11 0 18 4 16 5 -3 16 3
26 14 10 11 13 20 7 20 -6 0 -13 -6 -16 -12 -2 -7 -4 -3 -2 9 1 12 5 26 9 29
4 4 7 16 7 26 0 11 5 16 10 13 6 -4 10 8 10 27 0 19 6 43 14 53 9 13 11 28 6
46 -5 15 -6 30 -2 33 3 3 0 6 -6 6 -16 1 -298 1 -316 0 -24 0 -46 -30 -42 -56
3 -13 0 -24 -5 -24 -5 0 -9 -9 -9 -21 0 -13 -4 -18 -12 -13 -8 5 -7 0 2 -11 9
-11 10 -16 3 -11 -8 4 -13 1 -13 -8 0 -9 -6 -13 -15 -10 -10 4 -13 0 -10 -16
5 -24 -15 -50 -37 -50 -10 0 -9 3 2 10 12 7 10 9 -7 7 -12 0 -20 -3 -18 -6 3
-2 -3 -14 -12 -25 -18 -21 -18 -21 3 -3 11 9 23 14 27 11 9 -9 -42 -56 -53
-49 -6 3 -7 -1 -4 -9 8 -22 -13 -20 -25 2 -9 15 -10 15 -8 -5 0 -12 5 -19 9
-17 4 3 8 0 8 -6 0 -6 -10 -8 -25 -4 -20 5 -24 3 -19 -10 4 -10 1 -16 -9 -16
-8 0 -18 6 -20 13 -3 6 -6 2 -6 -10 -1 -20 -6 -23 -41 -23 -22 0 -40 -4 -40
-9 0 -5 -63 -9 -140 -10 -87 -1 -140 3 -140 9 0 5 -13 10 -29 10 -17 0 -33 4
-36 10 -3 5 -15 15 -27 21 -15 8 -19 8 -14 0 4 -6 2 -11 -3 -11 -6 0 -11 5
-11 10 0 6 -7 10 -15 10 -22 0 -82 63 -77 79 3 8 0 11 -7 7 -15 -10 -83 61
-79 82 2 9 9 16 14 15 6 -1 11 5 11 13 0 12 -3 12 -17 -1 -19 -17 -34 -20 -25
-5 3 6 -1 10 -9 10 -10 0 -16 9 -16 26 0 14 -4 23 -10 19 -6 -4 -10 7 -10 24
0 17 -5 31 -10 31 -6 0 -10 6 -9 12 3 24 -1 39 -9 34 -4 -2 -9 12 -10 32 -2
20 -7 39 -12 42 -5 3 -9 39 -9 80 1 46 -3 76 -10 78 -7 2 -11 33 -10 80 0 53
3 71 9 57 8 -17 9 -16 9 10 1 125 3 155 11 155 6 0 10 11 10 24 0 36 10 56 29
57 11 0 12 2 3 6 -10 4 -10 8 0 21 10 12 10 14 1 8 -8 -4 -13 -1 -13 8 0 9 6
16 14 16 9 0 12 8 8 25 -3 18 0 25 9 23 10 -2 13 5 11 21 -2 15 0 21 7 17 7
-4 11 1 11 14 0 12 5 18 10 15 6 -3 10 2 10 12 0 21 37 67 63 76 9 3 17 12 17
19 0 15 39 42 47 34 7 -7 33 20 33 33 0 6 9 11 20 11 11 0 20 5 20 10 0 6 9
10 19 10 11 0 23 5 26 10 4 6 14 10 23 9 36 -3 63 1 58 10 -4 5 43 10 111 10
109 1 116 0 98 -15 -11 -8 -14 -13 -7 -9 6 3 12 0 12 -7 0 -9 3 -9 8 -2 8 12
93 14 86 2 -3 -4 0 -8 5 -8 6 0 11 -8 11 -17 0 -15 2 -14 15 3 13 18 14 18 15
1 0 -10 4 -16 10 -12 12 7 50 -16 50 -32 0 -6 5 -15 12 -19 7 -4 8 -3 4 4 -4
7 -2 12 3 12 6 0 11 -4 11 -10 0 -5 5 -10 11 -10 13 0 39 -25 39 -39 0 -5 -9
-13 -20 -16 -23 -7 -27 -22 -5 -22 8 0 12 4 9 9 -3 4 2 8 12 8 25 0 66 -51 61
-77 -3 -15 1 -23 9 -23 8 0 14 -9 14 -20 0 -11 6 -20 13 -20 8 0 7 -4 -3 -10
-8 -5 -10 -10 -5 -10 6 0 12 -10 12 -22 1 -13 8 -27 16 -33 18 -13 340 -8 332
5 -4 6 -1 10 4 10 6 0 11 9 11 20 0 11 -3 20 -7 20 -5 0 -9 19 -10 41 -2 23
-8 48 -14 55 -6 7 -8 26 -6 43 4 24 2 29 -11 24 -10 -4 -14 -3 -10 2 4 4 1 20
-7 35 -8 15 -11 38 -8 51 5 24 5 24 -10 4 -15 -18 -16 -19 -17 -2 0 11 -4 15
-12 11 -6 -4 -8 -3 -4 4 3 6 -5 22 -19 36 -14 14 -25 32 -25 41 0 8 -5 15 -11
15 -5 0 -7 5 -4 10 3 6 -1 13 -9 16 -9 3 -13 11 -9 17 3 6 1 7 -6 3 -12 -8
-44 18 -34 28 4 3 -1 6 -11 6 -9 0 -14 5 -11 10 3 6 -1 10 -10 10 -11 0 -15 5
-12 14 4 10 1 13 -9 9 -7 -3 -14 0 -14 6 0 6 -8 11 -18 11 -10 0 -24 9 -32 20
-10 14 -16 16 -22 7 -5 -8 -8 -6 -8 6 0 11 -4 15 -12 11 -8 -5 -9 -2 -5 9 3 9
1 19 -5 23 -7 4 -8 3 -4 -4 5 -8 0 -12 -12 -12 -11 0 -23 7 -26 16 -9 23 -8
26 7 18 8 -5 8 -3 -2 9 -15 19 -33 13 -24 -8 3 -8 0 -15 -6 -15 -6 0 -11 5
-11 10 0 6 -11 10 -24 10 -14 0 -28 5 -31 10 -3 6 -25 10 -48 10 -31 0 -38 3
-27 10 14 9 -30 15 -98 12 -12 -1 -20 3 -17 8 4 6 -40 10 -114 10 -90 0 -121
-3 -121 -12 0 -9 -4 -8 -10 2 -5 8 -10 10 -10 4z"/>
</g>
</svg>
