<?xml version="1.0" encoding="iso-8859-1"?>
<!-- Generator: Adobe Illustrator 17.1.0, SVG Export Plug-In . SVG Version: 6.00 Build 0)  -->
<!DOCTYPE svg PUBLIC "-//W3C//DTD SVG 1.1//EN" "http://www.w3.org/Graphics/SVG/1.1/DTD/svg11.dtd">
<svg version="1.1" id="Capa_1" xmlns="http://www.w3.org/2000/svg" xmlns:xlink="http://www.w3.org/1999/xlink" x="0px" y="0px"
	 viewBox="0 0 295.858 295.858" style="enable-background:new 0 0 295.858 295.858;" xml:space="preserve">
<g>
	<path d="M261.959,114.858c0-4.418-3.582-8-8-8h-100c-4.418,0-8,3.582-8,8v173c0,4.418,3.582,8,8,8h100c4.418,0,8-3.582,8-8V114.858
		z M204.464,287.72c-4.418,0-8-3.58-8-8c0-4.418,3.582-8,8-8c4.418,0,8,3.582,8,8C212.464,284.14,208.882,287.72,204.464,287.72z
		 M161.959,244.055V122.858h76.824L161.959,244.055z"/>
	<circle cx="123.749" cy="89.886" r="13.223"/>
	<path d="M95.208,21.607c10.012-4.182,21.133-6.088,32.153-5.51c4.419,0.219,8.176-3.16,8.407-7.571
		c0.23-4.412-3.159-8.176-7.571-8.407c-13.396-0.689-26.942,1.624-39.156,6.725C54.781,21.156,32.149,57.182,34.006,94.45
		c0.213,4.277,3.748,7.602,7.983,7.602c0.135,0,0.27-0.003,0.405-0.01c4.412-0.22,7.812-3.976,7.592-8.389
		C48.459,62.995,67.055,33.369,95.208,21.607z"/>
	<path d="M126.862,52.619c4.423,0.359,8.264-2.92,8.623-7.324c0.358-4.404-2.921-8.265-7.324-8.623
		c-15.291-1.249-30.596,4.684-42.008,16.262c-11.35,11.515-17.024,26.815-15.57,41.978c0.397,4.139,3.88,7.237,7.954,7.237
		c0.256,0,0.515-0.013,0.773-0.037c4.398-0.423,7.622-4.33,7.2-8.728c-1.002-10.436,3.021-21.086,11.038-29.219
		C105.627,55.969,116.318,51.76,126.862,52.619z"/>
</g>
<g>
</g>
<g>
</g>
<g>
</g>
<g>
</g>
<g>
</g>
<g>
</g>
<g>
</g>
<g>
</g>
<g>
</g>
<g>
</g>
<g>
</g>
<g>
</g>
<g>
</g>
<g>
</g>
<g>
</g>
</svg>
