<?xml version="1.0"?>
<svg width="370" height="484" xmlns="http://www.w3.org/2000/svg" preserveAspectRatio="xMidYMid meet">
 <metadata>Created by potrace 1.15, written by Peter Selinger 2001-2017</metadata>

 <g>
  <title>background</title>
  <rect fill="none" id="canvas_background" height="486" width="372" y="-1" x="-1"/>
 </g>
 <g>
  <title>Layer 1</title>
  <path id="svg_2" d="m138.200012,55.299995l-82.200012,30.999992l0,93.200012l0,93.299988l13.199997,-5.299988c7.300003,-2.899994 19.900002,-7.799988 28.000008,-11l14.799995,-5.700012l0.200005,-76.099991l0.299995,-76.199997l52.5,-12.600006c28.900009,-6.899994 53.699997,-12.899994 55.300003,-13.199997l2.699997,-0.699997l0,112c0,61.600006 -0.300003,112 -0.599991,112c-0.400009,0 -36.700012,-5 -80.700012,-11c-43.999992,-6.100006 -80.5,-10.899994 -81.099991,-10.600006c-0.700005,0.300018 -0.600006,0.5 0.199989,0.5c0.700005,0.100006 36.700005,13.200012 80.000008,29.300018c43.300003,16 79.600006,29.299988 80.699997,29.5c1.5,0.299988 70.200012,-17.900024 91.800018,-24.300018c1.599976,-0.5 1.699982,-7.600006 1.699982,-130c0,-71.199997 -0.199982,-129.400002 -0.600006,-129.400002c-0.299988,0 -20.699982,-5.900002 -45.499969,-13c-24.700027,-7.199997 -45.700027,-12.900002 -46.700027,-12.900002c-0.899994,0.100006 -38.699997,14.100006 -83.999985,31.200005z"/>
  <g stroke="null" id="svg_9">
   <path stroke="null" id="svg_3" d="m144.126144,348.84198c-7.241837,2.480804 -12.272476,7.32962 -14.760132,14.320984c-0.995056,2.649902 -1.271484,5.074341 -1.492584,12.855011l-0.331711,9.584869l-6.191513,0.169159l-6.246796,0.169128l0,4.736084l0,4.792419l6.357346,0l6.357376,0l0,32.419464l0,32.419464l5.804535,0l5.804565,0l0,-32.419464l0,-32.419464l14.373169,0l14.373138,0l0,32.419464l0,32.419464l5.804565,0l5.80452,0l0,-32.419464l0,-32.419464l8.568634,0l8.568634,0l0,-4.961578l0,-4.905212l-8.402802,0l-8.458038,0l0,-8.739136c0,-5.807312 0.276398,-9.472107 0.773956,-10.881653c0.88446,-2.649963 3.482697,-5.750946 5.804565,-6.991333c2.266479,-1.240417 8.734406,-1.240417 11.553772,0l2.04541,0.902069l0,-5.356232c0,-4.566925 -0.165833,-5.412659 -0.939789,-5.750916c-0.552826,-0.225555 -3.980225,-0.394684 -7.628815,-0.394684c-6.025665,0 -6.910187,0.112762 -9.840088,1.522308c-1.713715,0.845734 -4.477768,2.819092 -6.080963,4.34137c-5.749268,5.581787 -7.573563,11.163574 -7.573563,23.849457l0,7.78067l-14.428436,0l-14.428452,0l0.221161,-9.472107c0.22113,-8.513641 0.33165,-9.697662 1.547867,-12.178467c2.764053,-5.807312 10.00592,-7.949799 17.30307,-5.074341c0.829208,0.281921 0.939789,-0.225525 0.939789,-4.736053c0,-3.495667 -0.221115,-5.2435 -0.663391,-5.581818c-1.271484,-0.789307 -12.161911,-0.789307 -14.539001,0z"/>
   <path stroke="null" id="svg_4" d="m210.353241,352.055786c-2.432343,1.522278 -3.64856,3.608398 -3.64856,6.371094c0,4.736084 2.819366,7.724304 7.352448,7.724304c6.025665,0 9.56366,-5.863708 6.744324,-11.21994c-1.934845,-3.721222 -6.910187,-5.074371 -10.448212,-2.875458z"/>
   <path stroke="null" id="svg_5" d="m50.976982,354.423798c-8.181641,1.184021 -17.634758,5.468994 -23.715714,10.76886c-11.49852,10.03595 -17.911171,27.85257 -17.026657,47.191467c1.160896,24.356903 13.488655,41.947968 33.666359,47.980804c5.804558,1.691437 18.906235,2.142487 25.374161,0.789337c9.729538,-1.973358 16.418564,-5.638153 23.549896,-12.967773c4.477768,-4.623291 5.362289,-5.863708 8.126343,-11.614624c4.864761,-10.205078 6.854874,-20.80484 6.246796,-33.208801c-0.552811,-11.558228 -3.316864,-20.861206 -8.679184,-29.205688c-9.950653,-15.448578 -27.419556,-22.665436 -47.542,-19.733582zm18.40873,11.501862c11.443222,2.98822 20.288254,12.742249 23.605133,25.935547c1.547867,6.089233 2.211258,15.392181 1.60318,22.383545c-1.105637,12.742218 -4.754211,21.25589 -12.272491,28.359955c-7.73938,7.273224 -20.288284,10.374237 -31.95266,7.893433c-9.563667,-2.08609 -18.242851,-9.302979 -22.775917,-18.944244c-3.648567,-7.724304 -4.311951,-10.76889 -4.643623,-20.917603c-0.221146,-6.934937 -0.11058,-9.810394 0.663353,-13.531586c4.09082,-20.748444 18.740402,-33.37793 37.480804,-32.363068c2.708786,0.169159 6.412643,0.676575 8.292221,1.184021z"/>
   <path stroke="null" id="svg_6" d="m263.533966,384.249695c-11.940796,1.747833 -21.559753,8.68277 -26.811493,19.395294c-3.095734,6.314728 -3.924957,10.092316 -4.256653,18.887848c-0.331696,9.359344 0.497528,14.095428 3.759155,20.861206c4.256653,8.795532 12.493561,15.561371 21.615021,17.760223c4.533051,1.071289 14.649567,1.071289 19.237915,-0.056396c1.934814,-0.451019 4.975311,-1.465942 6.744324,-2.311615l3.206329,-1.465912l0,-5.469055l0,-5.469025l-4.809509,2.424438c-13.046387,6.596619 -26.921997,3.495667 -33.832184,-7.555145c-5.47287,-8.795532 -5.859833,-22.834564 -0.884521,-33.152435c6.523193,-13.587952 22.167877,-18.211273 36.043488,-10.712494l3.482727,1.916962l0,-6.032837l0,-6.032837l-3.42749,-1.240387c-6.136169,-2.142517 -13.046387,-2.762695 -20.067108,-1.747833z"/>
   <path stroke="null" id="svg_7" d="m323.680084,384.193298c-10.171722,1.860596 -18.795654,8.964691 -23.715668,19.451691c-2.764069,5.97644 -3.64859,9.86676 -3.924988,18.324036c-0.497559,14.039032 2.653534,23.849426 10.005951,31.29184c6.523193,6.596619 12.327698,8.739136 23.43927,8.739136c9.729553,0 17.192566,-1.747864 22.77597,-5.356262l2.211212,-1.409546l0,-5.412628l0,-5.412659l-1.768982,1.240417c-2.929901,1.973358 -9.342529,4.848816 -12.604126,5.69455c-4.422546,1.127625 -12.825348,0.958496 -16.750275,-0.281921c-8.623901,-2.875458 -14.096771,-10.374207 -15.202393,-20.973969l-0.442261,-4.172241l26.148102,0l26.148102,0l0,-2.424438c0,-1.296753 -0.276398,-5.299866 -0.552795,-8.851898c-1.713715,-19.282532 -11.38797,-29.882263 -28.193542,-30.727997c-2.598236,-0.112762 -5.970367,0 -7.573578,0.281891zm13.378143,11.21994c3.206299,1.465942 5.915131,3.946747 7.739349,7.104126c1.437378,2.424408 3.040527,8.457214 3.040527,11.389099l0,1.860565l-19.956573,0l-19.956635,0l0.386963,-2.08609c1.60321,-8.908325 8.237,-17.027283 15.589386,-19.113403c3.703888,-1.071259 9.784821,-0.676575 13.156982,0.845703z"/>
   <path stroke="null" id="svg_8" d="m207.976166,423.096649l0,37.211914l5.804535,0l5.804565,0l0,-37.211914l0,-37.211884l-5.804565,0l-5.804535,0l0,37.211884z"/>
  </g>
 </g>
</svg>