<svg width="288" height="314" viewBox="0 0 288 314" fill="none" xmlns="http://www.w3.org/2000/svg">
<path d="M158.556 138.167C179.189 130.899 190.054 109.412 182.83 90.1836C175.607 70.9535 153.022 61.2588 132.391 68.5309C111.76 75.803 100.893 97.2838 108.119 116.514C115.344 135.744 137.929 145.437 158.556 138.167Z" fill="black"/>
<path d="M150.035 39.6164C140.919 39.2761 131.823 40.6589 123.269 43.6852C87.9027 56.1505 69.0732 93.1985 81.5618 126.434C94.0504 159.67 133.236 176.407 168.602 163.942V163.936L168.607 163.934C203.969 151.468 222.799 114.429 210.31 81.1908C200.945 56.2665 176.563 40.6227 150.035 39.6164ZM149.514 53.1046C170.528 53.8293 189.557 66.1579 196.925 85.7711C206.752 111.923 192.023 141.223 163.677 151.214V151.218H163.672C135.322 161.207 104.772 148.004 94.947 121.856C85.1219 95.706 99.853 66.4023 128.202 56.4093C135.011 53.9901 142.252 52.8673 149.514 53.1046ZM188.941 184.127C183.845 183.933 178.761 184.704 173.979 186.394C154.225 193.356 143.671 214.085 150.665 232.694C157.655 251.3 179.619 260.662 199.376 253.698C219.13 246.737 229.68 226.014 222.686 207.405C217.445 193.449 203.778 184.694 188.941 184.127ZM188.567 193.768C199.465 194.134 209.303 200.52 213.117 210.676C218.207 224.219 210.59 239.413 195.852 244.608C181.11 249.803 165.32 242.962 160.234 229.422C155.143 215.878 162.763 200.682 177.503 195.49C181.038 194.233 184.797 193.648 188.567 193.768ZM38.0568 116.684C34.4069 116.545 30.7644 117.098 27.3395 118.309C13.1902 123.299 5.63366 138.142 10.6417 151.468C15.6519 164.795 31.3837 171.51 45.533 166.522C59.6801 161.532 67.2367 146.689 62.2286 133.363C58.4732 123.368 48.6872 117.092 38.0568 116.684ZM37.7898 123.591C45.596 123.854 52.6402 128.43 55.3733 135.705C59.018 145.404 53.5606 156.285 43.0062 160.006C32.4518 163.727 21.1397 158.825 17.4949 149.127C13.848 139.428 19.3075 128.546 29.862 124.825C32.3949 123.925 35.0881 123.506 37.7898 123.591Z" fill="black"/>
<path d="M81.4164 120.634L55.9094 129.629L59.9471 140.051L85.454 131.064L81.4164 120.634ZM173.767 154.889L158.456 160.124L170.929 193.318L186.24 188.086L173.767 154.889ZM230.132 0.0152832C222.879 -0.21881 215.815 2.24386 210.429 6.88361C199.228 16.5183 198.164 32.922 208.215 43.3414C218.27 53.763 235.567 54.2765 246.764 44.6397C257.963 35.0071 259.031 18.6055 248.978 8.18605C243.951 2.9763 237.111 0.243054 230.132 0.0152832ZM229.847 6.92709C234.966 7.0886 239.959 9.09713 243.619 12.8905C250.939 20.4753 250.24 32.2987 241.889 39.4838C233.54 46.669 220.895 46.2238 213.575 38.639C206.255 31.0522 206.95 19.2309 215.305 12.0437C219.274 8.6048 224.488 6.76893 229.847 6.92709Z" fill="black"/>
<path d="M207.681 36.2288L187.482 53.5808L195.279 61.8364L215.474 44.4865L207.681 36.2288ZM124.893 192.405C115.298 190.91 106.04 197.043 104.212 206.127C102.384 215.207 108.79 223.9 118.387 225.392C127.978 226.885 137.232 220.756 139.064 211.674V211.67C140.888 202.593 134.486 193.898 124.893 192.405ZM124.131 196.853H124.136C131.219 197.959 135.771 204.146 134.425 210.821C133.079 217.503 126.23 222.048 119.145 220.945C112.055 219.841 107.505 213.654 108.851 206.976C110.197 200.294 117.044 195.753 124.131 196.853Z" fill="black"/>
<path d="M136.765 207.597L135.55 214.716L152.779 217.394L153.995 210.275L136.765 207.597ZM18.8603 75.4364C16.4926 75.3383 14.1279 75.6888 11.9029 76.4676C2.70741 79.675 -2.23334 89.2932 0.983792 97.9547C4.20309 106.616 14.3972 111.004 23.5905 107.794C32.7795 104.589 37.7159 94.975 34.501 86.3156L34.5053 86.3114C32.0914 79.8179 25.757 75.7242 18.8603 75.4364ZM18.6693 79.9173C23.7316 80.1036 28.2947 83.0854 30.053 87.8127L30.0487 87.8168C32.3931 94.1198 28.8243 101.168 21.9668 103.56C15.107 105.956 7.7784 102.752 5.43611 96.4472C3.09164 90.1421 6.66044 83.0957 13.5223 80.7021H13.5267C15.1707 80.1227 16.9178 79.856 18.6693 79.9173Z" fill="black"/>
<path d="M26.1434 103.945L19.021 106.355L24.7606 121.8L31.8851 119.394L26.1434 103.945ZM239.034 122.869C232.144 122.724 225.423 126.403 222.262 132.679C217.995 141.003 221.828 151.15 230.674 154.841C239.505 158.598 250.042 154.85 254.251 146.486C258.517 138.171 254.696 128.031 245.861 124.331H245.852C243.705 123.414 241.386 122.917 239.034 122.869ZM238.912 127.372C240.644 127.406 242.35 127.771 243.931 128.445L243.949 128.449C250.353 131.12 253.131 138.434 250.007 144.513L249.999 144.53C246.881 150.729 239.069 153.491 232.582 150.725L232.565 150.717C226.161 148.046 223.385 140.732 226.506 134.653L226.515 134.636C228.855 129.985 233.833 127.273 238.912 127.372Z" fill="black"/>
<path d="M210.284 122.838L206.112 129.418L221.937 136.168L225.021 129.588L210.284 122.838Z" fill="black"/>
<path d="M192.939 236.715C202.814 233.234 208.015 222.949 204.555 213.747C201.095 204.541 190.289 199.903 180.414 203.384C170.539 206.862 165.337 217.147 168.793 226.349C172.254 235.555 183.064 240.193 192.935 236.715H192.939ZM40.9917 154.545C48.1814 152.011 51.9629 144.53 49.4469 137.831C46.9288 131.135 39.064 127.755 31.8808 130.29C24.6911 132.824 20.9074 140.306 23.4234 147.002C25.9415 153.703 33.8063 157.078 40.9917 154.545ZM233.155 37.8646C240.341 35.3322 244.127 27.8489 241.609 21.1545C239.09 14.4539 231.228 11.0787 224.042 13.6111C216.855 16.1435 213.071 23.6268 215.585 30.3253C218.103 37.0239 225.968 40.4011 233.155 37.8666V37.8646Z" fill="black"/>
<path d="M227.813 152.394L205.337 189.666L211.888 193.262L234.362 155.991L227.813 152.394Z" fill="black"/>
<path d="M17.6562 256.625L38.5625 282.906V264.688C38.5625 262.146 38.1979 260.427 37.4688 259.531C36.4688 258.323 34.7917 257.74 32.4375 257.781V256.625H46.4375V257.781C44.6458 258.01 43.4375 258.312 42.8125 258.688C42.2083 259.042 41.7292 259.635 41.375 260.469C41.0417 261.281 40.875 262.688 40.875 264.688V299.969H39.8125L11.1562 264.688V291.625C11.1562 294.062 11.7083 295.708 12.8125 296.562C13.9375 297.417 15.2188 297.844 16.6562 297.844H17.6562V299H2.625V297.844C4.95833 297.823 6.58333 297.344 7.5 296.406C8.41667 295.469 8.875 293.875 8.875 291.625V261.719L7.96875 260.594C7.07292 259.469 6.28125 258.729 5.59375 258.375C4.90625 258.021 3.91667 257.823 2.625 257.781V256.625H17.6562ZM74.875 283.344H58.8438C59.0312 287.219 60.0625 290.281 61.9375 292.531C63.375 294.26 65.1042 295.125 67.125 295.125C68.375 295.125 69.5104 294.781 70.5312 294.094C71.5521 293.385 72.6458 292.125 73.8125 290.312L74.875 291C73.2917 294.229 71.5417 296.521 69.625 297.875C67.7083 299.208 65.4896 299.875 62.9688 299.875C58.6354 299.875 55.3542 298.208 53.125 294.875C51.3333 292.188 50.4375 288.854 50.4375 284.875C50.4375 280 51.75 276.125 54.375 273.25C57.0208 270.354 60.1146 268.906 63.6562 268.906C66.6146 268.906 69.1771 270.125 71.3438 272.562C73.5312 274.979 74.7083 278.573 74.875 283.344ZM67.1875 281.25C67.1875 277.896 67 275.594 66.625 274.344C66.2708 273.094 65.7083 272.146 64.9375 271.5C64.5 271.125 63.9167 270.938 63.1875 270.938C62.1042 270.938 61.2188 271.469 60.5312 272.531C59.3021 274.385 58.6875 276.927 58.6875 280.156V281.25H67.1875ZM90.1562 259.094V269.781H97.0938V272.875H90.1562V290.906C90.1562 292.594 90.2292 293.688 90.375 294.188C90.5417 294.667 90.8229 295.062 91.2188 295.375C91.6146 295.667 91.9792 295.812 92.3125 295.812C93.6667 295.812 94.9479 294.781 96.1562 292.719L97.0938 293.406C95.4062 297.406 92.6667 299.406 88.875 299.406C87.0208 299.406 85.4479 298.896 84.1562 297.875C82.8854 296.833 82.0729 295.677 81.7188 294.406C81.5104 293.698 81.4062 291.781 81.4062 288.656V272.875H77.5938V271.781C80.2188 269.927 82.4479 267.979 84.2812 265.938C86.1354 263.896 87.75 261.615 89.125 259.094H90.1562ZM128.844 299.875L120.844 278.438L113 299.875H111.375L103.594 278.688C102.427 275.458 101.438 273.354 100.625 272.375C100.104 271.708 99.3125 271.229 98.25 270.938V269.781H113V270.938C112 270.938 111.312 271.083 110.938 271.375C110.562 271.667 110.375 272 110.375 272.375C110.375 272.729 110.708 273.792 111.375 275.562L115.656 286.969L119.781 275.562L119.469 274.812C118.844 273.25 118.292 272.26 117.812 271.844C117.354 271.406 116.635 271.104 115.656 270.938V269.781H130.625V270.938C129.458 271 128.719 271.167 128.406 271.438C128.094 271.688 127.938 272.052 127.938 272.531C127.938 272.99 128.24 274 128.844 275.562L132.969 286.969L136.719 276.469C137.26 274.969 137.531 273.948 137.531 273.406C137.531 272.594 137.333 272 136.938 271.625C136.542 271.25 135.771 271.021 134.625 270.938V269.781H143.281V270.938C142.323 271.062 141.562 271.406 141 271.969C140.438 272.51 139.708 274.073 138.812 276.656L130.625 299.875H128.844ZM159.906 268.906C162.448 268.906 164.812 269.562 167 270.875C169.188 272.188 170.844 274.052 171.969 276.469C173.115 278.885 173.688 281.531 173.688 284.406C173.688 288.552 172.635 292.021 170.531 294.812C167.99 298.188 164.479 299.875 160 299.875C155.604 299.875 152.219 298.333 149.844 295.25C147.469 292.167 146.281 288.594 146.281 284.531C146.281 280.344 147.49 276.698 149.906 273.594C152.344 270.469 155.677 268.906 159.906 268.906ZM160.031 271.125C158.969 271.125 158.052 271.531 157.281 272.344C156.531 273.135 156.031 274.719 155.781 277.094C155.552 279.448 155.438 282.729 155.438 286.938C155.438 289.167 155.583 291.25 155.875 293.188C156.104 294.667 156.594 295.792 157.344 296.562C158.094 297.333 158.948 297.719 159.906 297.719C160.844 297.719 161.625 297.458 162.25 296.938C163.062 296.229 163.604 295.24 163.875 293.969C164.292 291.99 164.5 287.99 164.5 281.969C164.5 278.427 164.302 276 163.906 274.688C163.51 273.354 162.927 272.385 162.156 271.781C161.615 271.344 160.906 271.125 160.031 271.125ZM190.25 269.781V276.406C192.188 273.385 193.885 271.385 195.344 270.406C196.802 269.406 198.208 268.906 199.562 268.906C200.729 268.906 201.656 269.271 202.344 270C203.052 270.708 203.406 271.719 203.406 273.031C203.406 274.427 203.062 275.51 202.375 276.281C201.708 277.052 200.896 277.438 199.938 277.438C198.833 277.438 197.875 277.083 197.062 276.375C196.25 275.667 195.771 275.271 195.625 275.188C195.417 275.062 195.177 275 194.906 275C194.302 275 193.729 275.229 193.188 275.688C192.333 276.396 191.688 277.406 191.25 278.719C190.583 280.74 190.25 282.969 190.25 285.406V292.125L190.281 293.875C190.281 295.062 190.354 295.823 190.5 296.156C190.75 296.719 191.115 297.135 191.594 297.406C192.094 297.656 192.927 297.812 194.094 297.875V299H178.312V297.875C179.583 297.771 180.438 297.427 180.875 296.844C181.333 296.24 181.562 294.667 181.562 292.125V275.969C181.562 274.302 181.479 273.24 181.312 272.781C181.104 272.198 180.802 271.771 180.406 271.5C180.01 271.229 179.312 271.042 178.312 270.938V269.781H190.25ZM218.438 256.625V284.5L225.219 277.844C226.615 276.49 227.479 275.51 227.812 274.906C228.167 274.302 228.344 273.719 228.344 273.156C228.344 272.594 228.115 272.125 227.656 271.75C227.198 271.375 226.302 271.104 224.969 270.938V269.781H238.062V270.938C236.812 271 235.719 271.302 234.781 271.844C233.844 272.365 232.01 273.958 229.281 276.625L226.094 279.75L232.969 289.812C235.74 293.896 237.385 296.188 237.906 296.688C238.615 297.396 239.51 297.792 240.594 297.875V299H225.5V297.875C226.167 297.875 226.646 297.75 226.938 297.5C227.25 297.25 227.406 296.979 227.406 296.688C227.406 296.208 226.969 295.323 226.094 294.031L220.312 285.562L218.438 287.406V292.656C218.438 294.885 218.646 296.281 219.062 296.844C219.479 297.385 220.333 297.729 221.625 297.875V299H206.531V297.875C207.76 297.75 208.635 297.354 209.156 296.688C209.51 296.229 209.688 294.885 209.688 292.656V262.969C209.688 260.76 209.479 259.385 209.062 258.844C208.667 258.302 207.823 257.948 206.531 257.781V256.625H218.438ZM267.062 274.156L278.75 291.5C280.688 294.375 282.062 296.125 282.875 296.75C283.708 297.354 284.688 297.719 285.812 297.844V299H265.156V297.844C266.802 297.719 267.865 297.469 268.344 297.094C268.823 296.719 269.062 296.26 269.062 295.719C269.062 295.344 268.99 295.01 268.844 294.719C268.552 294.094 267.823 292.927 266.656 291.219L260.469 282.062L254 289.969C252.062 292.365 251.094 293.99 251.094 294.844C251.094 295.448 251.344 296.01 251.844 296.531C252.344 297.052 253.083 297.427 254.062 297.656C254.5 297.781 255.396 297.844 256.75 297.844V299H240.469V297.844C242.323 297.573 243.781 297.073 244.844 296.344C246.24 295.385 248.188 293.385 250.688 290.344L259.094 280.094L248.312 264.25C246.542 261.646 245.531 260.198 245.281 259.906C244.719 259.219 244.167 258.729 243.625 258.438C243.083 258.146 242.333 257.927 241.375 257.781V256.625H262.406V257.781H261.344C260.135 257.781 259.292 257.979 258.812 258.375C258.333 258.75 258.094 259.229 258.094 259.812C258.094 260.271 258.167 260.667 258.312 261L260.469 264.25L265.719 272.25L270.188 266.781C272.479 263.969 273.625 262 273.625 260.875C273.625 260.312 273.458 259.792 273.125 259.312C272.812 258.833 272.354 258.458 271.75 258.188C271.146 257.917 270.208 257.781 268.938 257.781V256.625H284.531V257.781C283.302 257.802 282.312 257.958 281.562 258.25C280.812 258.521 280.01 259.042 279.156 259.812C278.615 260.312 277.26 261.865 275.094 264.469L267.062 274.156Z" fill="black"/>
</svg>
