<?xml version="1.0"?>
<svg width="666" height="610" xmlns="http://www.w3.org/2000/svg" preserveAspectRatio="xMidYMid meet">
 <metadata>Created by potrace 1.15, written by Peter Selinger 2001-2017</metadata>

 <g>
  <title>background</title>
  <rect x="-1" y="-1" width="668" height="612" id="canvas_background" fill="none"/>
 </g>
 <g>
  <title>Layer 1</title>
  <g stroke="null" id="svg_8">
   <path stroke="null" d="m178.151886,20.69894c-1.431503,0.809031 -3.578735,1.537148 -4.652359,1.537148c-1.878845,0 -4.831314,1.132643 -13.330811,5.177769c-9.483673,4.368731 -20.219879,14.077034 -25.051208,22.652695c-4.473419,7.685745 -5.725967,10.355518 -5.725967,12.054466c0,0.970818 -0.805222,2.993393 -1.789383,4.449646c-1.789383,2.588882 -1.789383,4.126015 -1.789383,136.078003c0,131.951981 0,133.48912 1.789383,136.078018c0.984161,1.456238 1.789383,3.559723 1.789383,4.692352c0.089462,2.831604 6.799606,14.400604 11.809845,20.144684c2.415649,2.750702 6.710129,6.634033 9.752075,8.818359c6.352249,4.530579 19.146255,10.598236 22.277664,10.679199c1.252548,0 3.57872,0.728088 5.189178,1.618011c2.862976,1.618042 4.562897,1.618042 150.486099,1.618042c145.923218,0 147.623077,0 150.486115,-1.618042c1.610382,-0.889923 3.936615,-1.618011 5.189117,-1.618011c3.131439,-0.080963 15.925446,-6.148621 22.27774,-10.679199c3.041931,-2.184326 7.336426,-6.067657 9.752014,-8.818359c5.010254,-5.74408 11.720398,-17.31308 11.809875,-20.144684c0,-1.132629 0.805237,-3.236115 1.789368,-4.692352c1.789368,-2.588898 1.789368,-4.126038 1.789368,-161.157791l0,-158.568893l-175.537292,0.080902c-171.690155,0 -175.716202,0.080904 -178.310822,1.618052l0,-0.000013zm159.790802,48.784214c13.957123,2.427078 26.124847,11.002731 32.656036,22.976311l3.39978,6.229492l0,11.326355l0.089478,11.326332l-3.489258,6.31041c-4.741821,8.575638 -12.257202,15.614182 -20.309326,18.931198c-10.467834,4.449615 -11.720398,4.692352 -21.382996,4.692352c-9.752106,0 -12.436157,-0.566345 -21.025146,-4.611496c-8.141602,-3.883286 -17.177948,-12.297165 -20.219849,-18.850243c-0.536835,-1.375359 -1.610443,-3.559723 -2.236694,-5.015968c-1.789398,-3.640602 -1.699951,-22.490891 0.089417,-25.646103c0.715759,-1.213531 1.342041,-2.669777 1.342041,-3.236092c0,-1.132629 6.710144,-10.517326 9.304718,-13.025299c5.189209,-4.935051 14.851776,-9.627403 23.440765,-11.326347c7.246948,-1.375343 10.467865,-1.375343 18.341034,-0.080902zm11.183594,96.112152c9.483673,4.20694 17.088501,10.92186 21.025116,18.445786c3.847107,7.281235 3.936584,7.68573 3.936584,18.607574c0,8.81839 -0.357849,11.488159 -1.610413,13.672546c-0.805206,1.537109 -1.520966,3.155182 -1.520966,3.640594c0,0.485413 -1.252563,2.50798 -2.773529,4.530548c-8.231079,11.083633 -20.577759,18.041245 -33.461212,19.01207c-18.967346,1.375336 -33.371765,-4.449631 -43.213318,-17.31311c-5.994415,-7.928467 -7.336426,-12.458984 -7.336426,-24.351669c0,-7.200333 0.357849,-10.598221 1.252594,-11.730865c0.626251,-0.889938 1.431458,-2.588882 1.789337,-3.802414c0.626251,-2.588898 6.710175,-10.92186 9.573151,-13.268021c3.578705,-2.912476 11.183533,-7.443039 14.851776,-8.899277c5.010223,-1.941635 12.167694,-2.669754 21.740845,-2.184357c7.604797,0.323593 9.21524,0.728119 15.74646,3.640594zm-5.457581,90.368103c8.499512,2.993439 10.288879,3.964203 17.088501,9.2229c3.39978,2.588898 9.215271,10.193665 10.915161,14.319702c2.236694,5.177765 3.041931,11.649963 2.505157,19.659363c-0.447388,6.957581 -0.984192,8.737457 -3.668243,13.753448c-4.652374,8.575592 -12.794037,15.937775 -21.9198,19.821075c-2.236725,0.970856 -7.246948,2.346191 -11.183563,3.07431c-6.17337,1.132599 -8.141663,1.213531 -14.314972,0.323578c-14.404419,-2.022552 -24.424896,-7.604828 -32.029724,-17.960358c-5.368134,-7.443024 -6.262817,-10.35553 -6.620667,-22.248169c-0.268433,-8.252045 -0.089508,-11.326355 0.984161,-13.348938c0.715698,-1.456238 1.520935,-3.559692 1.878815,-4.530548c0.35788,-1.051727 2.326141,-4.206879 4.473419,-6.876709c6.441711,-8.332947 17.177948,-14.643341 28.629944,-16.746796c5.81543,-1.132614 18.251587,-0.323593 23.26181,1.53714z" id="svg_2"/>
   <path stroke="null" d="m324.906738,82.972969c-14.576508,3.081085 -24.886749,14.594597 -24.886749,27.810822c0,3.972969 2.222046,10.864861 4.088562,12.891884c0.711029,0.648659 1.244293,1.62162 1.244293,2.027031c0,0.972977 7.288269,7.621651 8.354858,7.621651c0.355499,0 1.777618,0.648605 3.021942,1.459442c4.177429,2.675674 11.998932,3.729721 18.753937,2.594604c11.7323,-2.027039 19.553864,-8.270294 23.997955,-19.216232c6.310547,-15.486488 -7.554932,-33.972984 -26.308868,-35.432449c-2.844177,-0.243233 -6.577209,-0.081078 -8.26593,0.243248z" id="svg_3"/>
   <path stroke="null" d="m322.151398,176.621643c-10.132477,2.999985 -17.509613,9.567551 -20.531525,18.324326c-2.044281,5.83783 -1.955414,10.864868 0.177734,16.540527c3.377502,9.081085 10.399078,15.243256 20.798218,18.16217c7.554901,2.189194 8.088165,2.189194 15.820862,0.08107c6.577209,-1.864838 11.821167,-5.027008 15.998596,-9.729721c3.021973,-3.486481 6.932739,-12.810822 6.932739,-16.783783c0,-3.324326 -3.288544,-12.810806 -5.332886,-15.081085c-5.688385,-6.567566 -10.132416,-9.405396 -18.131744,-11.75676c-7.377167,-2.027039 -8.177063,-2.027039 -15.731995,0.243256z" id="svg_4"/>
  </g>
  <g stroke="null" id="svg_9">
   <path stroke="null" d="m285.584412,450.75943l-5.103333,0.513733l0,56.253845c0,62.932404 -0.402893,66.271637 -8.729401,74.234528l-4.431854,4.238281l181.840118,0l181.840057,0l0,-67.427551l0,-67.427551l-167.470123,0c-92.263031,0 -168.813171,-0.256866 -170.290436,-0.513702c-1.477295,-0.256897 -4.969055,-0.128448 -7.655029,0.128418zm153.906006,38.915344l5.103363,2.953949l-3.223145,3.082428l-3.357452,3.082397l-4.969055,-2.825562c-12.89267,-7.192291 -26.591095,4.623627 -15.444336,13.485504c2.283081,1.798065 5.103333,3.339294 6.312042,3.339294c4.028961,0 15.981506,6.036377 18.264557,9.118774c3.223206,4.495178 2.820282,15.283569 -0.805756,19.778748c-3.357452,4.238281 -12.221161,8.219788 -17.861725,8.348145c-6.311981,0 -13.698425,-2.440247 -17.727356,-5.77948l-3.760376,-3.082458l3.088867,-2.953918c2.551666,-2.440186 3.357483,-2.697083 5.371948,-1.284363c6.177704,4.238281 11.012451,5.522644 16.384369,4.109924c5.640564,-1.412781 8.057922,-4.238281 8.057922,-9.375671c0,-4.109863 -4.566132,-7.834473 -13.42984,-10.659973c-4.028961,-1.284363 -8.997986,-3.339294 -10.878174,-4.623596c-10.878143,-7.063843 -7.117828,-25.42981 6.177734,-29.282837c6.580597,-1.926483 17.190216,-0.770599 22.696411,2.568695zm49.556152,-0.77063c5.506226,2.568665 6.177704,4.495178 2.417358,7.706024c-2.417358,2.054932 -2.820251,2.054932 -6.983521,-0.385284c-8.863678,-5.265778 -20.010468,-1.669678 -20.010468,6.421661c0,5.008911 3.49176,8.091278 12.221161,10.788391c14.907135,4.623657 19.741882,9.889404 18.264618,20.035583c-0.940125,7.192322 -4.163269,11.302246 -11.281067,14.256165c-9.400909,3.981384 -22.293549,1.798035 -29.2771,-4.880432c-2.014465,-1.926514 -2.014465,-2.31189 0.134308,-4.495178c2.95459,-3.082458 4.700439,-3.082458 9.266602,0.385254c8.057892,6.036438 22.159241,1.798035 22.159241,-6.678528c0,-4.623596 -4.566162,-8.219788 -13.967041,-11.045288c-4.566132,-1.412781 -9.93808,-4.109802 -12.489746,-6.421631c-3.760376,-3.467712 -4.431854,-4.880493 -4.431854,-10.017822c0,-8.861908 2.685974,-12.843353 11.415344,-16.953247c5.103394,-2.311768 15.84726,-1.669617 22.562164,1.284332zm-166.261475,-0.770599c0.805786,0.513763 5.371918,11.173737 10.072357,23.631775c4.834778,12.586487 9.132324,22.861145 9.535217,22.861145c0.402893,0 4.566132,-10.017822 9.266571,-22.090576c4.700439,-12.201172 8.997986,-22.989563 9.803802,-23.88858c1.611572,-1.926514 8.997986,-2.054932 8.997986,0c0,2.697083 -23.233643,58.180328 -24.710907,59.079376c-3.49176,2.311768 -7.520721,1.027466 -9.535187,-3.210815c-6.312042,-13.614014 -22.159241,-55.097992 -21.487762,-56.125458c0.940094,-1.541199 6.043427,-1.669617 8.057922,-0.256866zm65.806213,29.79657l0,30.181885l-4.028931,0l-4.028961,0l-0.402893,-28.897522c-0.134308,-15.797333 0,-29.668152 0.402893,-30.567169c0.402924,-1.027496 2.148773,-1.541229 4.297577,-1.284332l3.760315,0.385284l0,30.181854zm127.583496,0l0,30.181885l-4.028931,0l-4.028931,0l-0.402893,-28.897522c-0.134308,-15.797333 0,-29.668152 0.402893,-30.567169c0.402924,-1.027496 2.148773,-1.541229 4.297546,-1.284332l3.760315,0.385284l0,30.181854zm31.425842,-25.42981c1.477295,3.082397 5.774902,13.228638 9.669556,22.732727c6.177734,14.898254 7.252075,16.824768 8.460754,14.384521c0.671509,-1.669617 4.969055,-11.687439 9.400879,-22.347412l8.1922,-19.521881l6.714966,0l6.714905,0l0,30.181854l0,30.181885l-4.028931,0l-4.028992,0l-0.402832,-24.402405l-0.402954,-24.402313l-9.938049,23.631805c-5.506287,12.971741 -10.609619,24.273865 -11.415405,25.044495c-3.088806,2.953918 -6.177734,-1.926514 -15.444275,-24.273987l-9.40094,-22.861115l-0.671448,23.631744l-0.671509,23.631775l-4.028931,0l-4.028992,0l-0.402832,-30.5672l-0.268616,-30.438721l6.714905,0c6.580566,0 6.849182,0.128448 9.266541,5.394226z" id="svg_5"/>
   <path stroke="null" d="m28,518.572266l0,67.427551l105.155685,0c119.122711,0 115.228073,0.256897 123.688889,-9.247192c2.685944,-2.953979 5.506195,-7.449158 6.177704,-9.889404c0.805786,-2.697083 1.342987,-27.48468 1.342987,-60.235229l0,-55.483276l-118.182632,0l-118.182632,0l0,67.427551zm71.983963,-28.897491c6.446327,3.082367 9.266594,8.091278 9.132301,16.054169c-0.2686,11.559021 -6.580627,16.439453 -22.965034,18.10907l-9.803787,0.899048l0,9.504089c0,12.32959 -1.208694,14.513 -8.057907,14.513l-5.371941,0l0,-30.824036l0,-30.824036l15.712921,0c13.026947,0 16.653,0.385284 21.353447,2.568695zm69.029404,0.899048c0,5.77948 -1.47728,6.678497 -11.415375,7.063812l-9.400879,0.385284l-0.671509,25.044525l-0.671478,25.044556l-5.640533,0.385254l-5.774841,0.385315l-0.268585,-25.42981l-0.402893,-25.42984l-9.669495,-0.385284l-9.803787,-0.385315l0,-5.008881l0,-5.13736l26.859695,0l26.85968,0l0,3.467743zm19.607574,-2.440277c1.208679,0.770599 5.23764,10.660004 14.772827,37.11731c1.342987,3.724487 2.820267,6.806946 3.22316,6.806946c0.537201,0 3.760361,-8.219788 7.386414,-18.365967c10.072388,-28.383789 8.998001,-26.585754 16.921616,-26.585754c7.923599,0 7.789307,-0.899048 0.402893,16.054199c-2.417374,5.651062 -7.252121,17.210083 -10.609589,25.686707c-8.326492,20.549316 -8.595093,20.806213 -15.041412,20.164063l-5.23764,-0.513794l-9.803802,-23.888611c-5.23764,-13.228638 -10.878159,-26.457275 -12.355438,-29.539673c-1.342987,-2.953979 -2.551682,-6.036377 -2.551682,-6.678558c0,-1.541199 10.743881,-1.669617 12.892654,-0.256866z" id="svg_6"/>
   <path stroke="null" d="m76.347443,505.086761l0,7.706024l7.386414,0c8.057907,0 12.758347,-2.825562 12.758347,-7.706024c0,-4.880432 -4.700439,-7.705994 -12.758347,-7.705994l-7.386414,0l0,7.705994z" id="svg_7"/>
  </g>
 </g>
</svg>