<?xml version="1.0"?>
<svg width="588" height="580" xmlns="http://www.w3.org/2000/svg" preserveAspectRatio="xMidYMid meet">
 <metadata>Created by potrace 1.15, written by Peter Selinger 2001-2017</metadata>

 <g>
  <title>background</title>
  <rect fill="none" id="canvas_background" height="582" width="590" y="-1" x="-1"/>
 </g>
 <g>
  <title>Layer 1</title>
  <g stroke="null" id="svg_8">
   <path stroke="null" id="svg_2" d="m363.650421,46.140747c-54.485809,10.422539 -100.309814,19.375214 -101.567169,19.909737c-2.235321,0.801712 -2.375031,5.879364 -2.095581,70.018044l0.419098,69.216339l101.986298,-0.400864c56.162354,-0.267242 103.104004,-0.801758 104.501068,-1.202621c2.23526,-0.534485 2.375,-5.612122 2.095612,-88.324295c-0.419159,-86.720839 -0.419159,-87.789831 -3.213287,-88.057064c-1.536804,0 -47.500458,8.41819 -102.126038,18.840744l0,-0.000019z"/>
   <path stroke="null" id="svg_3" d="m177.141235,81.550652c-33.529739,6.413872 -61.890327,12.15963 -63.287392,12.560509c-2.095612,0.801704 -2.235336,5.612114 -1.955917,56.655823l0.419128,55.854111l63.147667,-0.133621c34.647415,-0.133636 63.985931,-0.534485 65.243301,-0.935364c2.095596,-0.801727 2.235306,-7.482849 1.955948,-68.013718c-0.419159,-58.526566 -0.698547,-67.212013 -2.514771,-67.345634c-1.11763,-0.133606 -29.478226,4.944023 -63.007965,11.357895z"/>
   <path stroke="null" id="svg_4" d="m112.736176,221.31955c-1.8162,1.737061 -1.397087,111.307343 0.279396,112.242676c2.514755,1.469849 127.413078,24.720123 128.670403,23.918365c1.536804,-0.801727 1.676514,-131.484283 0.139725,-133.755844c-1.117676,-1.737076 -127.413048,-4.142303 -129.089523,-2.405197z"/>
   <path stroke="null" id="svg_5" d="m260.406769,223.05661c-1.397064,1.336258 -0.698547,137.764557 0.698517,138.566315c2.654419,1.603455 204.391785,39.552185 206.347687,38.884094c1.536774,-0.668121 1.816162,-16.301941 1.536774,-87.923492l-0.419159,-87.25531l-21.654633,-0.935349c-28.779694,-1.068985 -185.53125,-2.271591 -186.509186,-1.336258z"/>
   <g stroke="null" id="svg_1">
    <path stroke="null" id="svg_6" d="m24.999947,459.879486c0,1.725342 17.596851,75.148712 21.225067,88.376495c2.721157,10.1604 2.721157,10.1604 9.251957,9.585266l6.530796,-0.575012l10.52179,-39.299805c5.623756,-21.662781 10.340462,-39.683197 10.521851,-40.25827c0.181412,-0.575104 4.898064,17.061798 10.703239,39.299713l10.340408,40.258362l6.893616,0l7.074989,0l12.154526,-47.926605c6.712204,-26.455414 11.791702,-48.501617 11.428894,-49.460144c-0.362839,-0.766876 -3.084,-1.341949 -5.986557,-1.341949c-4.353851,0 -5.623718,0.958496 -6.712204,5.176056c-0.544235,3.067291 -4.898079,21.66275 -9.614784,41.791901l-8.344864,36.424194l-7.619286,-31.631561c-13.968613,-56.1698 -12.335915,-52.144043 -19.955177,-51.377167l-6.712181,0.575073l-9.796173,38.72464c-5.442333,21.471039 -10.340401,38.916351 -11.066093,38.916351c-0.544189,0 -4.716633,-16.103271 -8.889118,-36.04068c-4.353844,-19.745819 -8.707699,-37.382751 -9.614735,-39.299835c-1.451313,-3.067261 -12.33596,-4.792633 -12.33596,-1.917023z"/>
    <path stroke="null" id="svg_7" d="m304.372498,476.941345l0,18.212036l-5.442291,-4.025757c-15.057098,-11.310699 -37.733429,-4.792755 -44.808441,13.03595c-3.991058,10.352173 -3.446793,27.797302 1.63266,38.341248c7.80072,16.678345 28.84436,22.621338 42.994324,12.077454c5.623749,-4.217529 5.623749,-4.217529 5.623749,-0.383362c0,3.258972 1.088531,4.025818 5.442322,4.025818l5.442352,0l0,-49.843628l0,-49.843567l-5.442352,0l-5.442322,0l0,18.403809zm-7.074982,24.921783c1.63269,1.533661 4.172455,7.28479 5.260864,12.460907c2.721191,12.077454 -0.181366,24.921814 -6.893524,30.481262c-6.530823,5.559448 -18.503998,5.176025 -24.490448,-0.766785c-13.424469,-13.227783 -8.34491,-45.051025 7.800629,-47.543182c5.986572,-0.958557 14.150055,1.341919 18.322479,5.367798z"/>
    <path stroke="null" id="svg_10" d="m203.689545,487.67688c-1.995468,1.150146 -5.623703,3.834137 -7.982056,6.134583l-4.353836,4.025787l0.907028,-5.367737c0.907074,-4.792633 0.544235,-5.176086 -5.079468,-5.176086l-6.168015,0l0,35.465607l0,35.465698l6.34938,0l6.34938,0l0,-23.004761c0,-31.056396 3.809631,-38.72464 19.410995,-38.72464c11.973099,0 13.24295,3.258972 13.24295,34.315399l0,27.414001l6.530777,0l6.712234,0l-0.907135,-28.372498c-1.088394,-30.481323 -2.539658,-36.232544 -10.52179,-41.216797c-5.805176,-3.642487 -19.048126,-4.21759 -24.490448,-0.958557z"/>
    <path stroke="null" id="svg_11" d="m345.189972,489.593964c-14.875702,9.201843 -20.499451,33.548553 -11.973145,51.95224c10.521881,22.813171 42.268738,24.730164 55.874542,3.067322c4.353882,-7.093079 5.079498,-9.968628 4.898071,-21.662781c0,-15.911591 -3.083954,-23.388123 -12.698822,-31.248047c-9.433258,-7.476593 -25.760284,-8.43512 -36.100647,-2.108734zm28.844238,10.927155c11.428925,10.543884 10.884705,36.232422 -0.907013,45.051025c-5.442352,3.834106 -16.871246,4.025757 -22.494873,0c-10.159058,-7.09314 -12.517426,-29.139343 -4.353912,-41.216888c6.167938,-9.201874 19.9552,-10.927155 27.755798,-3.834137z"/>
    <path stroke="null" id="svg_12" d="m515.353271,488.443665c-7.437866,3.259033 -11.428955,9.585327 -11.428955,17.636963c0,8.626709 6.349457,14.761353 19.229614,18.59552c21.043579,6.134583 23.401855,7.284729 23.946228,13.227661c0.907043,7.09314 -3.809631,10.543823 -14.694275,10.735596c-10.521912,0 -15.419983,-2.492188 -17.596863,-8.818604c-1.269836,-3.450623 -3.083984,-4.60083 -7.256439,-4.60083c-6.167999,0 -6.530853,1.533569 -2.539734,10.735535c5.079468,11.118958 20.680756,16.486694 36.826385,12.269226c10.703186,-2.683899 16.508362,-8.626831 17.77832,-18.595581c1.269836,-10.352112 -3.991089,-16.870117 -17.23407,-20.895935c-18.503906,-5.559448 -22.676392,-7.476532 -24.671875,-10.927246c-4.172424,-7.09314 6.167969,-13.994507 17.596863,-11.502319c3.26532,0.766815 6.530762,3.258972 8.344788,6.517975c2.177002,4.025879 4.353943,5.559479 8.163513,5.559479c4.898193,0 5.079529,-0.383423 3.991028,-6.134613c-0.544128,-3.259003 -2.17688,-7.284821 -3.446716,-8.81839c-5.986694,-7.668304 -25.578979,-10.352234 -37.007813,-4.984436z"/>
    <path stroke="null" id="svg_13" d="m153.80159,522.759033l0,35.465698l5.442322,0l5.442322,0l0,-35.465698l0,-35.465607l-5.442322,0l-5.442322,0l0,35.465607z"/>
    <path stroke="null" id="svg_14" d="m401.064514,488.635437c0.544189,0.766785 5.442291,16.870056 11.065979,35.465576l10.340424,34.123718l5.986572,0c6.712189,0 6.530731,0.383362 16.689758,-42.942139l3.083984,-13.419464l5.079529,20.129059c9.796173,39.683167 8.34491,36.232544 14.875702,36.232544l5.986542,0l9.614777,-32.206665c5.442291,-17.636963 10.158997,-33.548553 10.703278,-35.465637c0.725586,-3.067322 0,-3.450714 -5.079559,-2.875549l-5.986542,0.575043l-7.437866,28.56424l-7.256409,28.755981l-5.623749,-23.963318c-3.083923,-13.036011 -6.349396,-26.072052 -6.893585,-29.139313c-1.08847,-4.409241 -2.358368,-5.176086 -7.619293,-5.176086c-5.260834,0 -6.530731,0.766846 -7.619232,5.176086c-0.54425,3.067261 -3.809601,16.103302 -6.893677,29.139313l-5.623657,23.963318l-7.256439,-28.755981l-7.437805,-28.56424l-6.71225,-0.575043c-3.809631,-0.383453 -6.530762,0 -5.986481,0.958557z"/>
   </g>
  </g>
 </g>
</svg>