<?xml version="1.0"?>
<svg width="220" height="260" xmlns="http://www.w3.org/2000/svg" preserveAspectRatio="xMidYMid meet">

 <g>
  <title>background</title>
  <rect fill="none" id="canvas_background" height="262" width="222" y="-1" x="-1"/>
 </g>
 <g>
  <title>Layer 1</title>
  <path stroke="null" fill="#E31837" id="svg_2" d="m53.560272,86.174667c-0.097809,0.388893 -11.443695,4.472366 -24.941315,8.944725l-24.745712,8.166931l0,28.875923c0,22.556259 0.293427,28.973129 1.271515,28.973129c0.586853,0 12.323959,-3.69455 25.919418,-8.166916l24.745697,-8.166916l7.042236,2.333389c17.703461,6.027969 43.427246,14.29213 45.383423,14.486572c1.271515,0.194458 13.595459,4.083466 27.484344,8.653061l25.33255,8.458603l25.723785,-8.555817l25.723785,-8.555847l-0.097809,-29.167587c0,-16.042183 -0.391235,-29.167595 -0.880249,-29.167595c-0.391266,0 -12.030518,3.694557 -25.723785,8.166924c-13.693329,4.569595 -25.626007,8.166931 -26.408478,8.166931c-3.3255,-0.291672 -100.156494,-32.473259 -100.547729,-33.54274c-0.489044,-1.069481 -4.792664,-1.069481 -5.281677,0.097229zm27.093109,20.611763c2.738647,0.972252 4.20578,1.750053 3.3255,1.750053c-2.445221,0.097229 -2.836456,2.138962 -2.836456,13.222641c0,14.194901 0.391235,15.556046 4.988251,17.403336c4.988281,2.041733 7.433502,1.944504 8.607208,-0.194443c0.88028,-1.458389 0.978088,-1.36116 1.075897,0.777802c0,5.250153 -0.978119,5.347382 -12.323944,1.361145c-10.563385,-3.597336 -13.986694,-5.250168 -10.563385,-4.958481c1.760559,0.194443 1.858368,-0.875046 2.151794,-14.389359c0.195618,-14.097664 0.195618,-14.583794 -1.956177,-16.333847l-2.249603,-1.750061l2.445221,0.68058c1.369324,0.388901 4.694855,1.458382 7.335693,2.430634zm-44.503143,-1.16671c0,0.486137 -0.684662,1.069489 -1.467133,1.458389c-1.173706,0.388901 -1.467133,3.111206 -1.467133,15.653275c0,14.778244 0.097809,15.167145 1.956177,14.583786c1.075897,-0.291656 1.956177,-0.194427 1.956177,0.194458c0,0.97226 -13.595459,5.54184 -14.37793,4.861267c-0.195618,-0.291672 0.489044,-0.972244 1.564941,-1.652832c2.054016,-1.069458 2.054016,-1.652832 1.858368,-15.847717c-0.293427,-14.194901 -0.391235,-14.778259 -2.249603,-14.486572c-3.521118,0.583351 -0.293427,-1.555611 5.379486,-3.500122c6.553223,-2.333397 6.846649,-2.333397 6.846649,-1.263931zm165.199524,19.250626c0,3.986221 -0.195618,4.375137 -1.075867,2.527863c-3.129883,-6.319656 -17.899078,-1.84729 -23.082977,7.000214c-1.760529,3.111206 -2.151794,4.958496 -1.858337,9.625305c0.293396,5.055725 0.684662,6.125198 3.618896,8.653061c2.836456,2.527847 3.716736,2.819534 7.922546,2.430634c2.54303,-0.291672 5.672913,-1.166702 6.944427,-1.944519c2.054016,-1.361145 2.249634,-2.041718 1.956207,-7.486343c-0.293457,-5.444611 -0.586853,-6.027954 -2.249603,-5.639069c-0.978119,0.291687 -1.858398,0.194458 -1.858398,-0.194443c0,-0.388916 2.347412,-1.36116 5.183899,-2.236191c2.738647,-0.875015 5.966339,-1.847275 7.042267,-2.236176c1.858368,-0.583359 1.858368,-0.583359 0.293427,0.777802c-1.369354,1.069473 -1.760559,2.916748 -1.760559,7.778015c0,6.125198 -0.195648,6.514099 -3.129944,8.847519c-3.814545,2.819534 -14.084473,6.41687 -18.388062,6.41687c-5.281708,0 -9.683105,-2.527863 -11.345856,-6.514099c-4.499237,-10.500336 4.597015,-24.889694 18.48587,-29.362053c12.910858,-4.083458 13.399872,-4.083458 13.302063,1.555611zm-63.869324,-0.291687c11.248047,5.152939 16.725342,13.222641 15.845093,23.43132c-0.782471,9.625305 -7.726929,13.708755 -18.094696,10.694778c-10.17215,-2.916763 -17.507843,-10.403122 -19.855255,-20.028412c-0.978088,-4.083481 -0.978088,-5.541855 0.391235,-8.944748c0.88028,-2.333389 2.738647,-4.861252 4.205811,-5.736282c4.010162,-2.430634 11.541473,-2.236191 17.507813,0.583344z"/>
  <path stroke="null" fill="#E31837" id="svg_3" d="m127.112671,126.425949c-3.3255,1.652832 -4.890442,5.152939 -4.890442,10.792007c0,9.139191 6.259796,17.500549 14.084503,18.764496c4.107971,0.680573 8.900635,-1.84729 8.020355,-4.180695c-0.293427,-0.777802 -0.195648,-1.263931 0.293427,-0.97226c2.053986,1.36116 2.640839,-8.653046 0.782471,-13.708755c-3.032074,-7.972488 -12.617371,-13.611557 -18.290314,-10.694794z"/>
  <path stroke="null" fill="#E31837" id="svg_4" d="m25,9.800194c0,1.847277 0.684664,1.944506 15.649452,1.944506c14.964787,0 15.649448,-0.097229 15.649448,-1.944506c0,-1.847279 -0.684662,-1.944508 -15.649448,-1.944508c-14.964788,0 -15.649452,0.097229 -15.649452,1.944508z"/>
  <path stroke="null" fill="#E31837" id="svg_5" d="m61.189362,9.800194c0,1.847277 0.684662,1.944506 22.007042,1.944506c12.128326,0 22.007042,-0.194447 22.007042,-0.583349c0,-0.291676 -1.564949,-1.166712 -3.423317,-1.944508c-2.543037,-0.972254 -7.922539,-1.361156 -22.007042,-1.361156c-17.899063,0 -18.583725,0.097229 -18.583725,1.944508z"/>
  <path stroke="null" fill="#E31837" id="svg_6" d="m115.96244,9.800194c0,1.847277 0.684669,1.944506 13.204216,1.944506c7.237885,0 13.204239,-0.194447 13.204239,-0.388905c0,-0.194445 -0.293427,-1.069469 -0.586853,-1.944506c-0.489044,-1.263929 -2.640854,-1.555603 -13.204224,-1.555603c-11.932709,0 -12.617378,0.097229 -12.617378,1.944508z"/>
  <path stroke="null" fill="#E31837" id="svg_7" d="m162.519562,9.411289c-0.293427,0.875036 -0.586853,1.750061 -0.586853,1.944506c0,0.194458 5.966354,0.388905 13.204224,0.388905c12.519562,0 13.204239,-0.097229 13.204239,-1.944506c0,-1.847279 -0.684677,-1.944508 -12.617371,-1.944508c-10.5634,0 -12.715195,0.291674 -13.204239,1.555603z"/>
  <path stroke="null" fill="#E31837" id="svg_8" d="m25,18.550474c0,1.847277 0.684664,1.944506 15.649452,1.944506c14.964787,0 15.649448,-0.097229 15.649448,-1.944506c0,-1.847279 -0.684662,-1.944508 -15.649448,-1.944508c-14.964788,0 -15.649452,0.097229 -15.649452,1.944508z"/>
  <path stroke="null" fill="#E31837" id="svg_9" d="m61.189362,18.550474c0,1.944506 0.586853,1.944506 25.039116,1.944506c23.278564,0 24.941322,-0.097229 24.647888,-1.750061c-0.293419,-1.555603 -2.347412,-1.652832 -25.039124,-1.944506c-24.158836,-0.194447 -24.647881,-0.194447 -24.647881,1.750061z"/>
  <path stroke="null" fill="#E31837" id="svg_10" d="m115.96244,18.550474c0,1.847277 0.586853,1.944506 14.769188,1.944506c13.497635,0 14.671356,-0.097229 14.377914,-1.750061c-0.293427,-1.458374 -1.956177,-1.652832 -14.769165,-1.944506c-13.888885,-0.194447 -14.377937,-0.194447 -14.377937,1.750061z"/>
  <path stroke="null" fill="#E31837" id="svg_11" d="m159.585297,18.16157c-0.293442,0.875025 -0.586853,1.750063 -0.586853,1.944506c0,0.194447 6.651016,0.388905 14.671356,0.388905c13.986694,0 14.671371,-0.097229 14.671371,-1.944506c0,-1.847279 -0.684677,-1.944508 -14.084518,-1.944508c-11.932709,0 -14.182327,0.194447 -14.671356,1.555603z"/>
  <path stroke="null" fill="#E31837" id="svg_12" d="m33.802818,27.300755c0,1.847279 0.489044,2.041725 6.553207,1.75005c5.379501,-0.194447 6.65102,-0.583351 6.944447,-2.041725c0.293427,-1.458385 -0.489048,-1.652832 -6.553207,-1.652832c-6.357594,0 -6.944447,0.194447 -6.944447,1.944508z"/>
  <path stroke="null" fill="#E31837" id="svg_13" d="m70.970268,27.300755c0,1.75005 0.684662,1.944508 6.35759,1.944508c5.672928,0 6.35759,-0.194458 6.35759,-1.944508c0,-1.750061 -0.684662,-1.944508 -6.35759,-1.944508c-5.672928,0 -6.35759,0.194447 -6.35759,1.944508z"/>
  <path stroke="null" fill="#E31837" id="svg_14" d="m98.356804,27.300755c0,1.847279 0.489044,2.041725 6.553215,1.75005c5.379494,-0.194447 6.651016,-0.583351 6.944435,-2.041725c0.293434,-1.458385 -0.489037,-1.652832 -6.5532,-1.652832c-6.35759,0 -6.94445,0.194447 -6.94445,1.944508z"/>
  <path stroke="null" fill="#E31837" id="svg_15" d="m125.449921,26.717403c-0.293427,0.777798 -0.293427,1.652821 0,1.944508c0.391251,0.291676 5.770737,0.583351 12.128326,0.583351c10.95462,0 11.443665,-0.097229 10.95462,-1.944508c-0.489044,-1.84729 -1.369324,-1.944508 -11.541473,-1.944508c-8.607193,0 -11.150223,0.291676 -11.541473,1.361156z"/>
  <path stroke="null" fill="#E31837" id="svg_16" d="m156.651016,26.91185c-0.293427,0.875027 -0.586853,1.750061 -0.586853,1.944508c0,0.194447 5.281693,0.388905 11.737091,0.388905c11.052429,0 11.737091,-0.097229 11.737091,-1.944508c0,-1.84729 -0.684662,-1.944508 -11.150238,-1.944508c-9.29187,0 -11.248047,0.291676 -11.737091,1.555603z"/>
  <path stroke="null" fill="#E31837" id="svg_17" d="m33.998436,35.75935c0.293427,1.458385 1.369324,1.750061 6.651016,1.750061c5.281693,0 6.357594,-0.291676 6.65102,-1.750061c0.293427,-1.458374 -0.489048,-1.652821 -6.65102,-1.652821c-6.161972,0 -6.944447,0.194447 -6.651016,1.652821z"/>
  <path stroke="null" fill="#E31837" id="svg_18" d="m70.970268,35.467674c0,2.236179 2.347412,2.527866 18.779343,2.527866c12.226135,0 15.942879,-0.291687 17.018776,-1.361156c0.782471,-0.777805 1.369331,-1.652832 1.369331,-1.944508c0,-0.291672 -8.313774,-0.583347 -18.583725,-0.583347c-15.258217,0 -18.583725,0.291676 -18.583725,1.361145z"/>
  <path stroke="null" fill="#E31837" id="svg_19" d="m125.743347,35.856579c0,1.458385 0.978088,1.750061 5.770752,1.944504c3.325485,0.097229 6.064148,-0.194443 6.455383,-0.777794c0.391235,-0.68058 1.075912,-0.777809 1.760559,-0.194458c1.369339,1.069481 11.443665,0.972252 11.443665,-0.097229c0,-0.388893 0,-1.166698 0,-1.652821c0,-0.583363 -4.890457,-0.972252 -12.715164,-0.972252c-11.541489,0 -12.715195,0.194447 -12.715195,1.75005z"/>
  <path stroke="null" fill="#E31837" id="svg_20" d="m153.618942,35.175999c-0.391235,0.583351 -0.391235,1.263927 -0.097809,1.555603c0.978088,0.972252 7.824722,1.069481 10.269943,0.097229c1.564957,-0.583351 2.640854,-0.486122 3.032089,0.194458c0.391235,0.680565 3.032074,0.972252 6.455399,0.777794c4.597031,-0.194443 5.770737,-0.680576 6.064163,-2.041733c0.293427,-1.458374 -0.782471,-1.652821 -12.421753,-1.652821c-7.922531,0 -12.910797,0.388889 -13.302032,1.069469z"/>
  <path stroke="null" fill="#E31837" id="svg_21" d="m33.802818,44.509628c0,1.555603 0.880283,1.750061 6.846634,1.458385c5.086075,-0.291672 6.846638,-0.680576 6.846638,-1.750061c0,-1.069469 -1.564945,-1.361156 -6.846638,-1.361156c-5.868546,0 -6.846634,0.291687 -6.846634,1.652832z"/>
  <path stroke="null" fill="#E31837" id="svg_22" d="m70.970268,44.509628c0,1.652832 1.564941,1.750061 18.583725,1.750061c10.172142,0 18.583725,-0.194458 18.583725,-0.583347c0,-2.333412 -3.325508,-2.819546 -19.757439,-2.819546c-15.942879,0 -17.410011,0.097229 -17.410011,1.652832z"/>
  <path stroke="null" fill="#E31837" id="svg_23" d="m125.449921,43.440159c-1.467133,1.555603 0.88028,2.333397 6.748825,2.333397c4.890457,0 6.259796,-0.291672 6.259796,-1.458374c0,-1.166698 -1.369339,-1.458385 -6.161987,-1.458385c-3.423309,0 -6.553207,0.291687 -6.846634,0.583363z"/>
  <path stroke="null" fill="#E31837" id="svg_24" d="m142.370895,44.315182c0,1.166702 1.760559,1.458374 9.683105,1.458374c7.726913,0 9.780899,-0.291672 10.269943,-1.458374c0.489044,-1.263927 -0.978088,-1.458385 -9.68309,-1.458385c-8.509399,0 -10.269958,0.291687 -10.269958,1.458385z"/>
  <path stroke="null" fill="#E31837" id="svg_25" d="m165.845078,43.537376c0.097809,2.041737 1.956177,2.722313 7.629105,2.722313c5.086075,0 6.064163,-0.291676 6.064163,-1.750061c0,-1.361145 -0.978088,-1.652832 -6.846649,-1.652832c-3.716736,0 -6.846619,0.291687 -6.846619,0.68058z"/>
  <path stroke="null" fill="#E31837" id="svg_26" d="m33.998436,53.162682c0.195614,1.16671 1.662758,1.555618 6.651016,1.652832c5.281693,0.194458 6.357594,-0.097214 6.65102,-1.555603c0.293427,-1.458374 -0.489048,-1.652832 -6.65102,-1.652832c-5.868546,0 -6.944447,0.291672 -6.651016,1.555603z"/>
  <path stroke="null" fill="#E31837" id="svg_27" d="m71.165886,53.259911c0.195618,0.972252 0.88028,1.750061 1.564941,1.652832c0.586853,-0.097229 3.423317,-0.194443 6.064163,-0.291672c3.618942,-0.097229 4.890457,-0.486137 4.890457,-1.555603c0,-1.166718 -1.369324,-1.458389 -6.455399,-1.458389c-5.575119,0 -6.35759,0.194458 -6.064163,1.652832z"/>
  <path stroke="null" fill="#E31837" id="svg_28" d="m98.356804,53.259911c0,1.555603 0.880287,1.750061 6.651024,1.750061c5.086067,0 6.553207,-0.388901 6.553207,-1.458389c0,-1.069466 -1.564949,-1.555603 -6.553207,-1.750046c-5.868546,-0.291672 -6.651024,-0.097229 -6.651024,1.458374z"/>
  <path stroke="null" fill="#E31837" id="svg_29" d="m125.743347,53.259911c0,1.458389 0.978088,1.750061 6.35759,1.750061c5.47731,0 6.357605,-0.194458 6.357605,-1.652832c0,-1.458389 -0.880295,-1.750061 -6.357605,-1.750061c-5.379501,0 -6.35759,0.291672 -6.35759,1.652832z"/>
  <path stroke="null" fill="#E31837" id="svg_30" d="m145.305161,52.287659c0.097824,2.041733 1.858383,2.722313 6.357605,2.625084c6.944443,-0.194443 7.042236,-0.194443 7.726913,-1.847275c0.391235,-1.263931 -0.684677,-1.458389 -6.748825,-1.458389c-4.010178,0 -7.335693,0.291672 -7.335693,0.68058z"/>
  <path stroke="null" fill="#E31837" id="svg_31" d="m166.138504,53.065468c0,1.652832 -0.489044,1.555603 7.042252,1.750046c4.792648,0 5.966354,-0.194443 6.161972,-1.555603c0.293427,-1.458374 -0.586853,-1.652832 -6.455399,-1.652832c-5.281693,0 -6.748825,0.291672 -6.748825,1.458389z"/>
  <path stroke="null" fill="#E31837" id="svg_32" d="m25.978092,60.16291c-0.489046,0.19445 -0.978092,0.97226 -0.978092,1.652832c0,1.069473 3.032082,1.458374 14.671364,1.652824c8.118153,0.194458 15.160404,0.097229 15.649448,0c1.662758,-0.583351 1.075905,-3.111206 -0.684662,-3.305656c-3.521126,-0.291672 -27.679968,-0.291672 -28.658058,0z"/>
  <path stroke="null" fill="#E31837" id="svg_33" d="m63.438965,60.16291c-2.053986,0.291679 -3.325504,3.111206 -1.467133,3.111206c6.651016,0.097229 46.948357,0.19445 47.926445,0.097229c0.586853,-0.097229 1.173706,-0.777802 1.173706,-1.555603c0,-0.777802 -0.586853,-1.458382 -1.173706,-1.555611c-3.227692,-0.291679 -44.600937,-0.388893 -46.459312,-0.097221z"/>
  <path stroke="null" fill="#E31837" id="svg_34" d="m116.744911,60.45459c-1.662758,1.069481 0,4.083458 1.760574,3.402878c0.880272,-0.291672 5.67292,-0.583351 10.856789,-0.583351c8.020355,0 9.194061,-0.194443 8.90065,-1.555603c-0.195618,-1.361153 -1.858383,-1.652832 -10.367767,-1.750061c-5.575127,0 -10.661194,0.194458 -11.150246,0.486137z"/>
  <path stroke="null" fill="#E31837" id="svg_35" d="m149.804382,60.357361c-1.66275,0.583351 -1.66275,0.777809 -0.293427,2.138954c2.053986,1.944504 6.748825,1.16671 6.35759,-1.069473c-0.293427,-1.652832 -3.032074,-2.138962 -6.064163,-1.069481z"/>
  <path stroke="null" fill="#E31837" id="svg_36" d="m167.116592,61.037941c-0.293427,0.777802 -0.293427,1.555603 0,1.847275c0.782471,0.777809 21.224579,0.777809 21.909225,0c1.858383,-1.750046 -2.445221,-2.916763 -11.541458,-3.013977c-7.62912,-0.194458 -9.976532,0.097214 -10.367767,1.166702z"/>
  <path stroke="null" fill="#E31837" id="svg_37" d="m25.978092,68.913193c-0.586855,0.19445 -0.978092,0.972252 -0.978092,1.750053c0,1.069481 2.836464,1.361153 15.649452,1.361153c13.302036,0 15.649448,-0.194443 15.649448,-1.458382c0,-0.777802 -0.293427,-1.458374 -0.684662,-1.458374c-7.237869,-0.291679 -28.951483,-0.388908 -29.636147,-0.19445z"/>
  <path stroke="null" fill="#E31837" id="svg_38" d="m62.16745,68.913193c-0.489044,0.19445 -0.978088,0.972252 -0.978088,1.750053c0,2.041733 36.971825,1.944504 41.079811,-0.097229c1.662758,-0.875031 2.934273,-1.652824 2.934273,-1.750053c0,-0.291672 -41.960098,-0.194458 -43.035995,0.097229z"/>
  <path stroke="null" fill="#E31837" id="svg_39" d="m116.64711,68.718735c-0.391235,0.388908 -0.684669,1.263931 -0.684669,2.04174c0,0.972252 2.543045,1.263924 11.248055,1.263924c9.389664,0 11.248047,-0.291672 11.248047,-1.458382c0,-1.166702 -1.662766,-1.458374 -9.194061,-1.458374c-5.086075,0 -9.878723,-0.19445 -10.563377,-0.486137c-0.782471,-0.291672 -1.662758,-0.194443 -2.053993,0.097229z"/>
  <path stroke="null" fill="#E31837" id="svg_40" d="m151.662766,69.010414c-0.293442,0.48613 -0.097824,1.16671 0.489029,1.555603c0.489059,0.291687 0.978104,-0.097221 0.978104,-0.875031c0,-1.750046 -0.586868,-2.041733 -1.467133,-0.680573z"/>
  <path stroke="null" fill="#E31837" id="svg_41" d="m166.823166,70.274338c0,1.555618 1.173706,1.750061 10.661194,1.750061c6.553207,0 10.954605,-0.388901 11.34584,-1.069481c0.391235,-0.583351 0.489059,-1.166702 0.195618,-1.458374c-0.195618,-0.194458 -5.281693,-0.48613 -11.34584,-0.68058c-9.780914,-0.194458 -10.856812,0 -10.856812,1.458374z"/>
  <path stroke="null" fill="#E31837" id="svg_42" d="m36.575119,189.247925c-8.118164,3.69458 -13.204224,12.833755 -13.204224,23.528534c0,8.26416 1.760559,14.486572 5.379501,19.347839c4.499222,5.736298 12.617371,9.041962 19.464005,7.680801l3.521118,-0.583344l0,-5.639069l0,-5.639069l-4.792633,0.097214c-3.521133,0.194458 -5.379501,-0.291672 -6.944443,-1.750046c-5.086075,-4.472366 -6.35759,-14.097672 -2.93428,-20.903442c2.445221,-4.666824 4.401413,-5.833527 10.269958,-5.833527l4.499222,0l-0.293442,-5.639069l-0.293411,-5.541855l-5.868561,-0.194427c-3.423309,-0.194458 -7.14006,0.291672 -8.802811,1.069458z"/>
  <path stroke="null" fill="#E31837" id="svg_43" d="m59.560257,213.55426c0,13.708771 0.293427,24.986908 0.782471,25.084137c0.391235,0 2.738647,0.194458 5.379486,0.291672l4.597046,0.194458l0,-9.430862l0,-9.430847l4.890442,-0.583359c6.553223,-0.777802 10.367767,-3.208435 12.715179,-7.972473c3.618942,-7.38913 1.956177,-14.681015 -4.401398,-19.542282c-3.423325,-2.527863 -4.499222,-2.81955 -13.791077,-3.111221l-10.17215,-0.388901l0,24.889679zm16.823151,-13.319855c3.618942,3.208435 1.075912,10.014206 -3.814545,10.014206c-2.15181,0 -2.249603,-0.388901 -2.249603,-5.833527c0,-5.347397 0.195618,-5.833511 2.151794,-5.833511c1.173706,0 2.934265,0.680573 3.912354,1.652832z"/>
  <path stroke="null" fill="#E31837" id="svg_44" d="m99.368561,189.442383c-0.391235,0.388901 -0.684677,11.569824 -0.684677,24.889679c0,18.570038 0.293442,24.111893 1.271515,24.209106c0.586868,0 5.281693,0.194458 10.269943,0.291687l8.998444,0.194443l0,-5.639069l0,-5.639069l-4.401398,0l-4.401413,0l-0.195633,-19.25061l-0.293411,-19.153397l-4.890442,-0.291672c-2.738678,-0.194443 -5.281693,0 -5.672928,0.388901z"/>
  <path stroke="null" fill="#E31837" id="svg_45" d="m128.026611,189.053482c0,0.194443 -0.097824,11.180923 -0.097824,24.598007l-0.097809,24.209106l2.738647,0.777802c1.564972,0.388901 6.651031,0.680573 11.44368,0.583359l8.509369,-0.194458l0,-5.152939l0,-5.05571l-5.575073,-0.291687l-5.672943,-0.291672l-0.293427,-4.666809l-0.293442,-4.569595l5.379501,0l5.477325,0l0,-3.305664c0,-5.250168 -0.782471,-6.41687 -4.401428,-6.41687c-5.477295,0 -6.35759,-0.777802 -6.35759,-5.444626l0,-4.277908l5.868546,0l5.86853,0l0,-5.347397l0,-5.347382l-11.248016,0c-6.161987,0 -11.248047,0.097229 -11.248047,0.194443z"/>
  <path stroke="null" fill="#E31837" id="svg_46" d="m157.369354,189.73407c0,0.486115 2.44519,5.93074 5.379486,12.153152l5.281677,11.278137l-5.966339,12.250397c-6.553223,13.708771 -6.553223,14.194901 1.173706,13.806c4.694824,-0.291687 5.379486,-1.069489 9.29187,-10.792023c1.467133,-3.597336 1.66272,-3.791779 2.836426,-2.041718c0.684692,0.972244 2.054016,3.986237 3.032104,6.514084c0.978088,2.527863 2.54303,5.055725 3.521118,5.639069c1.760559,0.875031 9.29187,0.680588 10.367767,-0.388901c0.293427,-0.388901 -2.151794,-6.125183 -5.477295,-12.930969l-5.96637,-12.34761l5.379486,-11.180908c2.934296,-6.125198 5.379517,-11.472595 5.379517,-11.95871c0,-0.486145 -2.54303,-0.875031 -5.770752,-0.875031l-5.770721,0l-2.151794,5.54184c-1.271515,3.111206 -2.54306,6.027969 -2.934296,6.41687c-0.391235,0.388901 -1.858368,-2.138962 -3.32547,-5.639069l-2.738678,-6.319641l-5.770721,0c-3.227722,0 -5.770721,0.388885 -5.770721,0.875031z"/>
  <path stroke="null" fill="#E31837" id="svg_47" d="m31.978088,249.916534c-5.868546,0.291672 -6.651016,0.48613 -6.651016,2.138962c0,1.944504 1.369324,1.944504 85.974182,1.944504c50.665115,0 86.267593,-0.388901 86.56102,-0.875031c0.391235,-0.48613 0.293457,-1.652832 0,-2.430634c-0.586823,-1.458374 -7.433472,-1.555603 -80.007797,-1.361145c-43.622864,0.194443 -82.257446,0.388901 -85.876389,0.583344z"/>
 </g>
</svg>