<?xml version="1.0"?>
<svg width="239" height="239" xmlns="http://www.w3.org/2000/svg" preserveAspectRatio="xMidYMid meet">
 <metadata>Created by potrace 1.15, written by Peter Selinger 2001-2017</metadata>

 <g>
  <title>background</title>
  <rect fill="none" id="canvas_background" height="241" width="241" y="-1" x="-1"/>
 </g>
 <g>
  <title>Layer 1</title>
  <path id="svg_2" d="m103,6.899998c-3.599991,2.599998 -12.300003,8.700001 -19.5,13.600002c-7.199997,4.899994 -15.5,10.599998 -18.5,12.799995c-3,2.099998 -9.300003,6.400002 -13.900002,9.5c-4.599998,3.099998 -8.699997,6.599998 -9.099998,7.700005c-0.400002,1.099998 -1.199997,8.099998 -1.900002,15.5c-1.599998,17 -5.799995,57 -6.699997,63.100006l-0.599998,4.599991l10.299995,3.600006c16.400002,5.699997 121.300011,40.699997 122.099998,40.699997c0.800003,0 36.800003,-45.800003 36.800003,-46.899994c0,-1.100006 -39,-118.500008 -39.599991,-119.000008c-0.5,-0.5 -49.500015,-10.100002 -51.400009,-10c-0.799988,0 -4.399994,2.199997 -8,4.799999z" fill="#E31837"/>
  <g stroke="null" fill="#E31837" id="svg_21">
   <path stroke="null" fill="#E31837" id="svg_3" d="m22.759644,194.193451c-5.162933,2.066711 -8.786896,5.623322 -10.722992,10.669891c-0.943237,2.355072 -1.042526,3.508545 -0.893585,7.593842c0.248215,6.055878 1.687881,9.131866 5.957199,12.976868c3.574341,3.17215 7.049393,4.565948 11.715881,4.565948c4.120407,0 6.155777,-0.528687 9.184036,-2.403107l2.333252,-1.441895l0,1.68219l0,1.68219l2.482147,0l2.482178,0l0,-9.131866l0,-9.131866l-5.708984,0l-5.709,0l0,2.403107l0,2.403137l3.127548,0l3.077881,0l-0.198547,2.499268c-0.198578,2.835663 -0.546082,3.220154 -4.467957,5.046539c-6.751495,3.124054 -14.446228,0.336426 -17.474487,-6.344238c-1.241074,-2.691528 -1.489288,-7.401611 -0.546066,-10.57373c1.290741,-4.421783 5.808273,-7.930328 11.070496,-8.651276c2.68074,-0.384491 7.694717,0.720947 10.325851,2.210876l1.737488,1.009338l1.390015,-1.634155c0.74469,-0.865112 1.390045,-1.826355 1.390045,-2.06665c0,-0.288422 -0.794312,-0.961273 -1.737549,-1.538025c-5.063629,-3.172119 -13.403717,-3.989166 -18.81485,-1.826385z"/>
   <path stroke="null" fill="#E31837" id="svg_4" d="m145.875458,194.145416c-3.574341,1.441864 -5.907593,3.220154 -8.340118,6.296173c-6.453644,8.218689 -4.021118,20.955231 5.063629,26.674652c3.723236,2.306976 6.950073,3.075989 11.914459,2.787628c4.815399,-0.288361 8.439362,-1.87442 11.864777,-5.2388c9.432281,-9.276031 6.701874,-24.704102 -5.311859,-30.135162c-2.333252,-1.057373 -3.673615,-1.297699 -7.545807,-1.441864c-4.07077,-0.09613 -5.113251,0.048035 -7.645081,1.057373zm12.70874,5.094604c7.942932,3.412445 10.127258,14.659058 4.170044,21.483917c-2.0354,2.355042 -6.255096,4.133362 -9.680481,4.133362c-11.715851,0 -17.722748,-13.986176 -9.779785,-22.589355c2.03537,-2.210846 4.120422,-3.364349 7.496185,-4.181396c1.687866,-0.384521 5.510406,0.144165 7.794037,1.153473z"/>
   <path stroke="null" fill="#E31837" id="svg_5" d="m56.318634,206.785828c0.148895,12.880737 0.198578,13.457489 1.340363,15.668365c1.439667,2.883759 3.375763,4.758179 6.35437,6.152008c2.03537,0.961243 3.127533,1.153473 7.347229,1.153473c4.517578,0 5.162903,-0.144165 7.247955,-1.297699c2.680725,-1.537994 5.063629,-4.037201 6.255096,-6.536469c0.744629,-1.489929 0.893555,-3.796936 1.04248,-15.139679l0.148926,-13.313293l-2.978607,0l-3.028259,0l0,12.736542c0,11.871429 -0.049622,12.928802 -0.992859,14.659058c-2.233948,4.181458 -9.531525,5.431061 -13.999481,2.355072c-2.680756,-1.87442 -2.879303,-3.172119 -2.879303,-17.062164l0,-12.688507l-3.028259,0l-3.028229,0l0.198578,13.313293z"/>
   <path stroke="null" fill="#E31837" id="svg_6" d="m98.91272,211.495941l0,18.023438l3.028259,0l2.978607,0l-0.148926,-6.969055l-0.148956,-6.969055l3.772919,0l3.723267,0l2.184296,3.941132c1.191437,2.210846 2.879333,5.286865 3.772919,6.872925l1.588623,2.883759l3.276428,0.144135c3.226837,0.144226 3.82254,-0.144135 2.680756,-1.249603c-0.297882,-0.288361 -2.2836,-3.65274 -4.418304,-7.401611l-3.82251,-6.82486l1.340363,-0.817078c5.857941,-3.55661 6.801147,-11.583038 1.886475,-16.485413c-2.78006,-2.787598 -4.418304,-3.172119 -13.850555,-3.172119l-7.843658,0l0,18.023407zm14.942657,-12.736542c2.631134,0.720947 3.574341,1.970581 3.822601,5.2388c0.198547,2.547333 0.099274,2.931824 -1.191467,4.325623c-1.737549,1.826385 -3.673615,2.307007 -8.38974,1.970581l-3.475067,-0.240326l0,-5.911682l0,-5.863617l3.723297,0c2.03537,0 4.517517,0.240326 5.510376,0.480621z"/>
   <path stroke="null" fill="#E31837" id="svg_7" d="m183.30661,211.544037l0,18.071472l8.836548,-0.192291c8.588348,-0.144135 8.836548,-0.19223 11.169769,-1.489899c3.326111,-1.922485 4.964355,-4.517883 5.212555,-8.218689c0.148987,-2.403107 -0.049622,-3.316315 -0.992859,-5.094604c-0.694977,-1.201569 -1.936096,-2.643433 -2.780029,-3.172119l-1.53894,-1.009338l1.241089,-1.153503c2.53183,-2.306976 3.425385,-6.872894 1.985748,-10.18924c-0.843964,-2.06665 -3.772919,-4.469818 -6.106171,-5.094604c-1.04248,-0.288361 -5.311829,-0.528687 -9.432251,-0.528687l-7.595459,0l0,18.071503zm16.580933,-11.871429c1.042511,0.961243 1.29071,1.634094 1.29071,3.55661c0,1.922485 -0.248199,2.547302 -1.439636,3.748871c-1.390045,1.345734 -1.638245,1.393799 -6.205414,1.393799l-4.765808,0l0,-5.094604l0,-5.094635l4.914703,0.192261c4.418274,0.144196 5.06366,0.288361 6.205444,1.297699zm0.297852,14.322601c2.0354,1.345734 2.432556,2.162811 2.482178,4.710114c0,4.565918 -2.283569,6.007813 -9.432251,6.007813l-4.467926,0l0,-5.767517l0,-5.767487l5.113281,0c3.971466,0 5.361511,0.192261 6.304718,0.817078z"/>
   <path stroke="null" fill="#E31837" id="svg_8" d="m220.539215,211.495941l0,18.023438l2.730377,0l2.730408,0l0,-18.023438l0,-18.023407l-2.730408,0l-2.730377,0l0,18.023407z"/>
  </g>
 </g>
</svg>