<?xml version="1.0" encoding="iso-8859-1"?>
<!-- Generator: Adobe Illustrator 18.0.0, SVG Export Plug-In . SVG Version: 6.00 Build 0)  -->
<!DOCTYPE svg PUBLIC "-//W3C//DTD SVG 1.1//EN" "http://www.w3.org/Graphics/SVG/1.1/DTD/svg11.dtd">
<svg version="1.1" id="Capa_1" xmlns="http://www.w3.org/2000/svg" xmlns:xlink="http://www.w3.org/1999/xlink" x="0px" y="0px"
	 viewBox="0 0 297 297" style="enable-background:new 0 0 297 297;" xml:space="preserve">
<g>
	<path d="M94.862,134.287V72.668c0-5.5-4.392-10.981-9.759-12.182L12.101,44.164c-2.939-0.658-6.024,0.057-8.378,1.941
		C1.369,47.99,0,50.842,0,53.857v204.871c0,4.65,3.227,8.678,7.766,9.693l77.338,17.291c5.367,1.2,9.759-2.318,9.759-7.818v-15.002
		c-2.7-0.916-5.217-2.348-7.382-4.27c-3.957-3.504-38.66-35.279-38.66-71.543C48.82,160.078,68.917,137.721,94.862,134.287z"/>
	<path d="M247.827,60.527c0-29.047-23.606-52.676-52.64-52.676c-29.029,0-52.642,23.629-52.642,52.676
		c0,40.996,43.882,80.158,45.751,81.805c1.967,1.734,4.433,2.604,6.891,2.604c2.46,0,4.92-0.869,6.889-2.604
		C203.945,140.686,247.827,101.523,247.827,60.527z M195.188,73.586c-7.145,0-12.94-5.846-12.94-13.059
		c0-7.215,5.795-13.057,12.94-13.057c7.148,0,12.944,5.842,12.944,13.057C208.132,67.74,202.335,73.586,195.188,73.586z"/>
	<path d="M202.14,157.811v102.594c0,5.5,4.392,10.981,9.759,12.182l73.002,16.322c0.717,0.162,1.443,0.24,2.166,0.24
		c2.236,0,4.433-0.756,6.211-2.182c2.354-1.885,3.723-4.736,3.723-7.752V74.344c0-4.65-3.228-8.678-7.766-9.693l-27.553-6.16
		c0,20.121-8.329,43.67-24.856,65.975c-11.974,16.162-24.194,27.102-25.557,28.303C208.605,155.113,205.483,156.813,202.14,157.811z
		"/>
	<path d="M178.464,272.6c5.373-1.173,9.77-6.633,9.77-12.133V157.811c-3.347-0.998-6.469-2.699-9.131-5.045
		c-1.352-1.191-13.558-12.109-25.555-28.301C137.02,102.16,128.64,78.377,128.64,58.256l-10.103,2.211
		c-5.373,1.177-9.769,6.639-9.769,12.139v61.682c25.946,3.434,46.044,25.791,46.044,52.793c0,36.262-34.705,68.039-38.646,71.527
		c-2.173,1.93-4.696,3.367-7.398,4.285v14.918c0,5.5,4.396,9.04,9.77,7.867L178.464,272.6z"/>
	<path d="M140.905,187.08c0-21.703-17.535-39.361-39.09-39.361c-21.556,0-39.089,17.658-39.089,39.361
		c0,30.637,32.584,59.9,33.973,61.131c1.461,1.297,3.291,1.945,5.116,1.945c1.828,0,3.656-0.648,5.116-1.945
		C108.32,246.98,140.905,217.717,140.905,187.08z M101.815,196.84c-5.306,0-9.607-4.371-9.607-9.76c0-5.391,4.302-9.756,9.607-9.756
		c5.307,0,9.61,4.365,9.61,9.756C111.426,192.469,107.122,196.84,101.815,196.84z"/>
</g>
<g>
</g>
<g>
</g>
<g>
</g>
<g>
</g>
<g>
</g>
<g>
</g>
<g>
</g>
<g>
</g>
<g>
</g>
<g>
</g>
<g>
</g>
<g>
</g>
<g>
</g>
<g>
</g>
<g>
</g>
</svg>
