<?xml version="1.0" encoding="iso-8859-1"?>
<!-- Generator: Adobe Illustrator 19.0.0, SVG Export Plug-In . SVG Version: 6.00 Build 0)  -->
<svg version="1.1" id="Layer_1" xmlns="http://www.w3.org/2000/svg" xmlns:xlink="http://www.w3.org/1999/xlink" x="0px" y="0px"
	 viewBox="0 0 512 512" style="enable-background:new 0 0 512 512;" xml:space="preserve">
<g>
	<g>
		<path d="M257.64,19.167c-61.727,0-111.946,50.219-111.946,111.948c0,25.3,17.893,67.597,53.182,125.715
			c25.892,42.644,52.145,78.714,52.407,79.074l6.358,8.715l6.357-8.715c0.262-0.359,26.516-36.43,52.409-79.074
			c35.289-58.119,53.182-100.415,53.182-125.715C369.587,69.388,319.368,19.167,257.64,19.167z M303.009,248.571
			c-17.95,29.57-36.081,55.942-45.369,69.139c-9.276-13.178-27.371-39.498-45.313-69.049
			c-33.297-54.837-50.897-95.485-50.897-117.547c0-53.05,43.159-96.209,96.21-96.209c53.051,0,96.21,43.159,96.21,96.21
			C353.85,153.165,336.269,193.78,303.009,248.571z"/>
	</g>
</g>
<g>
	<g>
		<path d="M257.639,51.191c-44.07,0-79.923,35.854-79.923,79.923s35.854,79.923,79.923,79.923c44.071,0,79.924-35.854,79.924-79.923
			S301.71,51.191,257.639,51.191z M257.64,195.3c-35.393,0-64.186-28.794-64.186-64.186c0-35.392,28.793-64.186,64.186-64.186
			c35.393,0,64.187,28.794,64.187,64.186C321.827,166.506,293.033,195.3,257.64,195.3z"/>
	</g>
</g>
<g>
	<g>
		<path d="M257.64,75.208c-30.826,0-55.904,25.079-55.904,55.906c0,30.826,25.079,55.906,55.904,55.906
			c30.826,0,55.906-25.079,55.906-55.906C313.545,100.288,288.467,75.208,257.64,75.208z M257.639,171.282
			c-22.148,0-40.167-18.019-40.167-40.168c0-22.148,18.019-40.168,40.167-40.168s40.168,18.019,40.168,40.168
			C297.807,153.262,279.787,171.282,257.639,171.282z"/>
	</g>
</g>
<g>
	<g>
		<polygon points="414.555,284.046 345.18,284.046 345.18,282.996 306.361,282.996 306.361,284.046 306.361,298.734 
			306.361,299.783 404.953,299.783 496.167,477.095 15.867,477.095 110.25,299.783 208.787,299.783 208.787,284.046 
			100.799,284.046 0,473.411 0,492.833 512,492.833 512,473.469 		"/>
	</g>
</g>
<g>
	<g>
		<path d="M137.55,307.385c-13.168,0-23.881,10.713-23.881,23.881c0,10.566,6.9,19.546,16.43,22.684v8.785h15.738v-9.072
			c9.095-3.376,15.594-12.14,15.594-22.396C161.43,318.098,150.717,307.385,137.55,307.385z M137.55,339.409
			c-4.491,0-8.144-3.653-8.144-8.143c0-4.49,3.652-8.144,8.144-8.144c4.49,0,8.144,3.653,8.144,8.144
			S142.041,339.409,137.55,339.409z"/>
	</g>
</g>
<g>
	<g>
		<path d="M345.706,307.385c-13.168,0-23.88,10.713-23.88,23.881c0,10.015,6.2,18.605,14.961,22.146v9.322h15.738v-8.585
			c9.855-2.942,17.063-12.084,17.063-22.884C369.587,318.098,358.874,307.385,345.706,307.385z M345.706,339.409
			c-4.489,0-8.143-3.653-8.143-8.143c0-4.49,3.653-8.144,8.143-8.144c4.49,0,8.144,3.653,8.144,8.144
			C353.85,335.756,350.196,339.409,345.706,339.409z"/>
	</g>
</g>
<g>
	<g>
		<polygon points="145.836,379.521 145.836,371.128 130.098,371.128 130.098,395.259 153.18,395.259 153.18,379.521 		"/>
	</g>
</g>
<g>
	<g>
		<rect x="160.525" y="379.52" width="16.787" height="15.738"/>
	</g>
</g>
<g>
	<g>
		<rect x="185.705" y="379.52" width="16.787" height="15.738"/>
	</g>
</g>
<g>
	<g>
		<rect x="208.787" y="379.52" width="15.738" height="15.738"/>
	</g>
</g>
<g>
	<g>
		<rect x="231.869" y="379.52" width="16.787" height="15.738"/>
	</g>
</g>
<g>
	<g>
		<polygon points="257.049,379.521 257.049,395.259 265.443,395.259 265.443,403.652 281.18,403.652 281.18,379.521 		"/>
	</g>
</g>
<g>
	<g>
		<rect x="265.443" y="412.045" width="15.738" height="13.639"/>
	</g>
</g>
<g>
	<g>
		<polygon points="281.18,443.521 281.18,434.078 265.443,434.078 265.443,459.259 289.574,459.259 289.574,443.521 		"/>
	</g>
</g>
<g>
	<g>
		<rect x="297.967" y="443.52" width="15.738" height="15.738"/>
	</g>
</g>
<g>
	<g>
		<rect x="323.148" y="443.52" width="15.738" height="15.738"/>
	</g>
</g>
<g>
	<g>
		<rect x="345.18" y="443.52" width="15.738" height="15.738"/>
	</g>
</g>
<g>
	<g>
		<polygon points="401.836,434.078 401.836,443.521 394.492,443.521 394.492,459.259 417.574,459.259 417.574,434.078 		"/>
	</g>
</g>
<g>
	<g>
		<rect x="401.836" y="412.045" width="15.738" height="13.639"/>
	</g>
</g>
<g>
	<g>
		<polygon points="394.492,379.521 394.492,395.259 401.836,395.259 401.836,403.652 417.574,403.652 417.574,379.521 		"/>
	</g>
</g>
<g>
	<g>
		<rect x="369.311" y="443.52" width="16.787" height="15.738"/>
	</g>
</g>
<g>
	<g>
		<polygon points="352.525,379.521 352.525,371.128 336.787,371.128 336.787,395.259 360.918,395.259 360.918,379.521 		"/>
	</g>
</g>
<g>
	<g>
		<rect x="369.311" y="379.52" width="16.787" height="15.738"/>
	</g>
</g>
<g>
	<g>
		<rect x="58.754" y="443.52" width="71.344" height="15.738"/>
	</g>
</g>
<g>
	<g>
		<rect x="145.836" y="443.52" width="14.689" height="15.738"/>
	</g>
</g>
<g>
	<g>
		<rect x="168.918" y="443.52" width="16.787" height="15.738"/>
	</g>
</g>
<g>
	<g>
		<rect x="194.098" y="443.52" width="14.688" height="15.738"/>
	</g>
</g>
<g>
	<g>
		<polygon points="265.443,123.521 265.443,107.783 249.705,107.783 249.705,123.521 232.918,123.521 232.918,139.259 
			249.705,139.259 249.705,154.996 265.443,154.996 265.443,139.259 283.279,139.259 283.279,123.521 		"/>
	</g>
</g>
<g>
</g>
<g>
</g>
<g>
</g>
<g>
</g>
<g>
</g>
<g>
</g>
<g>
</g>
<g>
</g>
<g>
</g>
<g>
</g>
<g>
</g>
<g>
</g>
<g>
</g>
<g>
</g>
<g>
</g>
</svg>
